<svg width="35" height="38" viewBox="0 0 35 38" fill="none" xmlns="http://www.w3.org/2000/svg">
<path d="M17.5369 37.3319C19.2138 37.3319 20.5732 33.2536 20.5732 28.2228C20.5732 23.192 19.2138 19.1138 17.5369 19.1138C15.86 19.1138 14.5005 23.192 14.5005 28.2228C14.5005 33.2536 15.86 37.3319 17.5369 37.3319Z" fill="#F37FA2" stroke="#F37FA2" stroke-width="0.75" stroke-miterlimit="10"/>
<path d="M17.5369 18.5931C19.2138 18.5931 20.5732 14.5149 20.5732 9.4841C20.5732 4.4533 19.2138 0.375 17.5369 0.375C15.86 0.375 14.5005 4.4533 14.5005 9.4841C14.5005 14.5149 15.86 18.5931 17.5369 18.5931Z" fill="#F37FA2" stroke="#F37FA2" stroke-width="0.75" stroke-miterlimit="10"/>
<path d="M17.3127 18.5562C18.1512 17.1039 15.299 13.8874 10.9422 11.372C6.58541 8.85659 2.37376 7.99478 1.5353 9.44705C0.696828 10.8993 3.549 14.1158 7.9058 16.6312C12.2626 19.1466 16.4743 20.0084 17.3127 18.5562Z" fill="#F37FA2" stroke="#F37FA2" stroke-width="0.75" stroke-miterlimit="10"/>
<path d="M33.4625 27.8867C34.301 26.4345 31.4488 23.218 27.092 20.7026C22.7352 18.1872 18.5236 17.3254 17.6851 18.7777C16.8467 20.2299 19.6988 23.4463 24.0556 25.9617C28.4124 28.4771 32.624 29.339 33.4625 27.8867Z" fill="#F37FA2" stroke="#F37FA2" stroke-width="0.75" stroke-miterlimit="10"/>
<path d="M27.1115 16.6234C31.4683 14.108 34.3205 10.8916 33.482 9.43934C32.6435 7.98707 28.4319 8.84894 24.0751 11.3643C19.7183 13.8797 16.8662 17.0961 17.7047 18.5484C18.5432 20.0006 22.7547 19.1388 27.1115 16.6234Z" fill="#F37FA2" stroke="#F37FA2" stroke-width="0.75" stroke-miterlimit="10"/>
<path d="M10.925 25.8769C15.2818 23.3615 18.134 20.1451 17.2955 18.6928C16.4571 17.2406 12.2455 18.1024 7.88865 20.6178C3.53185 23.1332 0.679705 26.3496 1.51817 27.8019C2.35664 29.2542 6.5682 28.3924 10.925 25.8769Z" fill="#F37FA2" stroke="#F37FA2" stroke-width="0.75" stroke-miterlimit="10"/>
</svg>
