<svg width="55" height="55" viewBox="0 0 55 55" fill="none" xmlns="http://www.w3.org/2000/svg">
<path d="M31.4263 18.4259L46.5733 10.0614C50.5283 14.6055 52.935 20.5633 52.935 27.0597C52.935 41.3483 41.3728 52.9273 27.1011 52.9273C12.8293 52.9273 1.26709 41.3483 1.26709 27.0597C1.26709 12.771 12.8293 1.19202 27.1011 1.19202C28.5821 1.19202 30.0463 1.30983 31.46 1.56228L31.4263 18.4259Z" fill="#2F9685"/>
<path d="M32.0667 19.5189C37.1157 16.7252 42.1647 13.9482 47.2137 11.1544L45.6822 10.9525C52.1617 18.5765 53.5586 29.6169 48.863 38.5199C44.8407 46.1439 36.9306 51.2602 28.28 51.6473C19.6294 52.0344 10.9956 47.6418 6.31692 40.2029C1.63819 32.7641 1.28477 22.9186 5.61006 15.1263C10.659 6.07179 20.9253 1.19111 31.1243 2.77313L30.1986 1.56137C30.1986 7.18257 30.1818 12.8038 30.1649 18.425C30.1649 20.0575 32.6894 20.0575 32.6894 18.425C32.6894 12.8038 32.7063 7.18257 32.7231 1.56137C32.7231 1.05647 32.336 0.433763 31.7975 0.349613C21.8005 -1.21557 11.7362 2.52068 5.55956 10.6327C-0.617028 18.7447 -1.62683 29.2803 2.42919 38.3011C6.48521 47.322 15.1021 53.2461 24.7457 54.1045C34.3893 54.9628 44.1506 50.2841 49.6035 42.172C56.4701 32.0067 55.3089 18.425 47.4493 9.1685C47.079 8.73092 46.389 8.7141 45.9178 8.96655C40.8688 11.7603 35.8198 14.5373 30.7708 17.331C29.3403 18.122 30.6194 20.2931 32.0499 19.5189H32.0667Z" fill="#37241C"/>
</svg>
