<svg width="125" height="125" viewBox="0 0 125 125" fill="none" xmlns="http://www.w3.org/2000/svg">
<path d="M72.4726 42.489L107.402 23.2C116.523 33.6789 122.073 47.4179 122.073 62.3989C122.073 95.3491 95.4097 122.051 62.4982 122.051C29.5868 122.051 2.92383 95.3491 2.92383 62.3989C2.92383 29.4486 29.5868 2.74683 62.4982 2.74683C65.9136 2.74683 69.2901 3.01851 72.5502 3.60067L72.4726 42.489Z" fill="#2F9685"/>
<path d="M73.9475 45.0116C85.5907 38.569 97.2339 32.1653 108.877 25.7227L105.345 25.257C120.287 42.8382 123.509 68.298 112.681 88.8289C103.405 106.41 85.1638 118.209 65.2151 119.101C45.2664 119.994 25.3565 109.864 14.5671 92.7099C3.77775 75.5556 2.96274 52.8514 12.9371 34.882C24.5803 14.0019 48.2548 2.74677 71.7741 6.39497L69.6395 3.6006C69.6395 16.5634 69.6007 29.5261 69.5619 42.4889C69.5619 46.2535 75.3835 46.2535 75.3835 42.4889C75.3835 29.5261 75.4223 16.5634 75.4611 3.6006C75.4611 2.43628 74.5684 1.00028 73.3265 0.806226C50.273 -2.80317 27.0641 5.81281 12.8206 24.5196C-1.4229 43.2263 -3.75154 67.5218 5.60183 88.3243C14.9552 109.127 34.8263 122.788 57.0648 124.768C79.3033 126.747 101.814 115.958 114.388 97.2508C130.223 73.8091 127.545 42.4889 109.42 21.143C108.567 20.1339 106.975 20.0951 105.889 20.6773C94.2455 27.1199 82.6023 33.5236 70.9591 39.9662C67.6601 41.7903 70.6098 46.7969 73.9087 45.0116H73.9475Z" fill="#37241C"/>
<path d="M36.4574 68.5919C43.0844 75.2232 49.6727 81.8156 56.2998 88.4469C59.6327 91.782 65.2908 91.782 68.6237 88.4469C78.6612 78.4031 88.6599 68.398 98.6973 58.3541C101.914 55.1354 102.185 49.2021 98.6973 46.0222C95.2094 42.8423 89.8225 42.5708 86.3734 46.0222C76.3359 56.0661 66.3372 66.0712 56.2998 76.1151H68.6237C61.9967 69.4838 55.4084 62.8913 48.7814 56.26C45.5647 53.0413 39.6353 52.7698 36.4574 56.26C33.2795 59.7501 33.0082 65.1405 36.4574 68.5919Z" fill="#37241C"/>
<path d="M40.4276 64.2844C47.0919 70.8935 53.7173 77.464 60.3817 84.0732C61.5119 85.194 63.3826 85.194 64.5128 84.0732C74.6068 74.0628 84.6618 64.0912 94.7558 54.0809C97.406 51.4527 93.2749 47.3558 90.6247 49.984C80.5307 59.9943 70.4757 69.966 60.3817 79.9763H64.5128C57.8485 73.3672 51.2231 66.7967 44.5587 60.1875C41.9086 57.5593 37.7774 61.6562 40.4276 64.2844Z" fill="#F7F6F2"/>
</svg>
