<svg width="134" height="134" viewBox="0 0 134 134" fill="none" xmlns="http://www.w3.org/2000/svg">
<path d="M122.277 66.2524C122.277 97.6063 96.9212 122.962 65.5673 122.962C34.2133 122.962 8.85742 97.6063 8.85742 66.2524C8.85742 34.8984 34.2133 9.54272 65.5673 9.54272V66.2524H122.277Z" fill="#2F9685"/>
<path d="M111.916 66.2523C111.916 68.4334 111.916 70.342 111.643 72.5232C111.643 73.3411 111.643 74.159 111.643 72.2505C111.643 72.7958 111.643 73.3412 111.643 73.8865C111.643 74.9771 111.098 76.0675 110.825 77.1581C110.28 79.0666 109.735 80.975 109.189 82.8835C108.917 83.9741 108.372 85.6099 109.189 83.7014C108.917 84.792 108.099 85.8827 107.554 86.9732C106.736 88.6091 105.645 90.5177 104.554 92.1535C104.009 92.9715 103.464 93.7893 102.919 94.6072C103.737 93.5166 102.646 95.1525 102.373 95.4251C101.01 97.061 99.6469 98.4243 98.2837 99.7875C97.4658 100.605 96.9205 101.151 96.1026 101.696C95.83 101.969 95.2847 102.241 95.012 102.787C95.012 102.787 93.1036 104.422 94.1941 103.332C95.2847 102.514 92.8309 104.422 92.5582 104.422C91.7403 104.968 90.9224 105.513 90.1044 106.058C88.1959 107.149 86.5601 108.239 84.379 109.057C83.8337 109.057 83.561 109.603 83.0158 109.603C83.2884 109.603 85.1969 108.785 83.2884 109.603C82.4704 109.875 81.3799 110.421 80.562 110.693C78.3808 111.239 76.4723 111.784 74.2912 112.329C74.0185 112.329 70.7468 112.874 72.11 112.602C73.4732 112.602 71.0194 112.602 70.4741 112.602C68.0203 112.602 65.8392 112.602 63.3854 112.602C62.2948 112.602 61.2043 112.602 60.1137 112.602C59.8411 112.602 59.2958 112.602 59.0231 112.602C57.6599 112.602 60.9316 112.874 59.5684 112.602C57.3873 112.056 55.2061 111.784 53.2976 111.238C51.6618 110.693 48.9354 110.421 47.5722 109.33C47.5722 109.33 49.7533 110.148 47.8448 109.33C47.2995 109.33 47.0269 108.785 46.4816 108.785C45.391 108.239 44.573 107.694 43.4825 107.149C41.8466 106.058 39.9381 105.24 38.5749 103.877C37.757 103.332 36.3937 102.241 38.0296 103.604C37.2117 102.787 36.1211 101.969 35.3032 101.151C33.94 99.7876 32.5767 98.4243 31.2135 97.0611C30.6682 96.2432 29.8503 95.6978 29.305 94.8799C30.1229 96.2431 29.0324 94.3347 28.7597 94.062C27.6691 92.4262 26.5786 90.7903 25.488 89.1544C24.9427 88.3365 24.6701 87.5186 24.1248 86.428C24.1248 85.8828 23.5795 85.61 23.5795 85.0647C23.5795 85.0647 22.7615 82.8836 23.3068 84.2468C23.8521 85.6101 23.3068 84.2467 23.3068 83.7014C23.3068 83.1562 23.0342 82.8836 22.7615 82.3384C22.4889 81.2478 22.2163 80.4298 21.9436 79.3393C21.3984 77.1581 20.8531 75.2495 20.5804 73.0684C20.3078 71.1599 20.5804 73.0685 20.5804 73.6138C20.5804 73.0685 20.5804 72.5233 20.5804 71.978C20.5804 70.8874 20.5804 69.7968 20.5804 68.7062C20.5804 66.525 20.5804 64.3439 20.5804 61.8901C20.5804 61.8901 21.1257 59.4364 20.5804 59.1637C20.8531 59.4364 20.3078 61.0721 20.5804 59.7089C20.5804 59.1636 20.5804 58.6184 20.853 58.0731C21.3983 55.892 21.9436 53.7109 22.4889 51.5297C22.7616 50.4392 23.0342 49.6211 23.5795 48.8032C24.1248 47.1673 22.7616 50.4391 23.8521 48.258C24.6701 46.3495 25.7607 44.441 26.8512 42.5325C27.3965 41.4419 28.2144 40.3513 28.7597 39.5334C29.305 38.7155 30.6682 36.807 29.305 38.7155C30.6682 36.807 32.3041 35.1711 33.94 33.5352C34.7579 32.7173 35.5758 31.8993 36.3937 31.354C36.6663 31.0814 37.2116 30.8087 37.4843 30.2634C37.4843 30.2634 39.3929 28.6276 38.3023 29.7182C37.2117 30.5361 38.3022 29.7182 38.8475 29.4455C39.3928 29.1729 39.9381 28.6276 40.4834 28.3549C41.574 27.537 42.6645 26.9917 43.7551 26.4464C45.6636 25.3558 47.5721 24.2653 49.7533 23.4473C47.2995 24.2653 50.2985 23.4474 51.1164 22.9021C52.207 22.6295 53.2977 22.0842 54.3882 21.8115C55.4788 21.5389 56.842 21.2663 58.2052 20.9936C58.7505 20.9936 59.2957 20.9936 59.841 20.7209C60.1137 20.7209 62.2949 20.1757 60.659 20.7209C61.477 20.7209 62.2949 20.7209 63.1128 20.7209C64.476 20.7209 65.8392 20.7209 67.2024 20.7209L56.8419 10.3606C56.8419 26.9918 56.8419 43.3504 56.8419 59.9816V67.0704C56.8419 72.5233 61.4769 77.4308 66.9298 77.4308H123.64C129.092 77.4308 134 72.7959 134 67.0704C134 61.3449 129.638 56.7098 123.64 56.7098H66.9298L77.2902 67.0704C77.2902 50.4392 77.2902 34.0806 77.2902 17.4494V10.3606C77.2902 4.90771 72.6553 0 67.2024 0C45.9362 0 26.3059 10.3604 13.2191 27.2643C0.132191 44.1682 -2.86687 65.4344 2.586 85.0647C8.03886 104.695 23.3069 121.599 42.6646 129.233C62.0222 136.867 83.8336 134.958 101.283 124.598C121.458 112.602 134 90.5177 134 67.0704C134 61.6175 129.365 56.7098 123.64 56.7098C117.914 56.7098 113.552 61.0723 113.279 67.0704L111.916 66.2523Z" fill="#2F9685"/>
</svg>
