<svg width="124" height="96" viewBox="0 0 124 96" fill="none" xmlns="http://www.w3.org/2000/svg">
<path d="M61.866 5.96829C52.7469 11.8154 45.9001 20.9344 43.6582 31.6592C42.416 37.5365 42.719 43.5957 42.719 49.564C42.719 61.7126 46.1121 80.3143 31.1763 85.1919C20.2698 88.7668 9.36328 80.4658 9.09062 69.226C8.93914 63.3789 -0.149607 63.3789 0.00187258 69.226C0.274535 80.496 7.33346 90.524 18.24 93.9777C29.1465 97.4314 41.0527 92.9779 47.4149 83.6771C51.7775 77.315 51.8078 70.2258 51.8078 62.9245C51.8078 55.6232 51.8078 48.8066 51.8078 41.778C51.8078 30.3564 56.6854 20.1467 66.4407 13.8755C71.3486 10.7247 66.8042 2.84781 61.866 6.02888V5.96829Z" fill="#75BDC9"/>
<path d="M123.185 40.2329C123.124 29.6294 118.913 19.3288 111.4 11.7852C103.886 4.24149 93.5856 0.0909631 82.9517 7.55715e-05C77.1046 -0.0302203 77.1046 9.05853 82.9517 9.08883C91.2225 9.14942 99.0994 12.3305 104.977 18.2079C110.854 24.0853 114.035 31.9319 114.096 40.2329C114.126 46.08 123.215 46.08 123.185 40.2329Z" fill="#75BDC9"/>
</svg>
