<svg width="348" height="33" viewBox="-17 0 348 33" fill="none" xmlns="http://www.w3.org/2000/svg">
<g id="t">
<path d="M3.79174 2.01367C0.716316 3.98562 -1.59281 7.06105 -2.3489 10.678C-2.76781 12.6602 -2.66563 14.7036 -2.66563 16.7165C-2.66563 20.8136 -1.52129 27.0871 -6.55845 28.7321C-10.2367 29.9377 -13.915 27.1382 -14.0069 23.3475C-14.058 21.3756 -17.1232 21.3756 -17.0721 23.3475C-16.9802 27.1484 -14.5995 30.5303 -10.9213 31.6951C-7.24302 32.8599 -3.22758 31.358 -1.08194 28.2212C0.389364 26.0756 0.399578 23.6847 0.399578 21.2223C0.399578 18.7599 0.399578 16.461 0.399578 14.0906C0.399578 10.2387 2.04458 6.7954 5.33457 4.6804C6.98978 3.6178 5.45718 0.961278 3.79174 2.0341V2.01367Z" fill="#75BDC9"/>
<path d="M24.4711 13.5693C24.4507 9.99322 23.0304 6.51932 20.4965 3.97519C17.9626 1.43107 14.4887 0.0312879 10.9024 0.000635838C8.93047 -0.00958153 8.93047 3.05563 10.9024 3.06585C13.6918 3.08628 16.3483 4.15911 18.3305 6.14128C20.3126 8.12345 21.3854 10.7697 21.4059 13.5693C21.4161 15.5413 24.4813 15.5413 24.4711 13.5693Z" fill="#75BDC9"/>
<path d="M22.9582 20.773C23.1557 20.773 23.3158 20.2926 23.3158 19.7001C23.3158 19.1076 23.1557 18.6273 22.9582 18.6273C22.7607 18.6273 22.6006 19.1076 22.6006 19.7001C22.6006 20.2926 22.7607 20.773 22.9582 20.773Z" fill="#F37FA2" stroke="#F37FA2" stroke-width="0.75" stroke-miterlimit="10"/>
<path d="M22.9582 18.5658C23.1557 18.5658 23.3158 18.0855 23.3158 17.493C23.3158 16.9005 23.1557 16.4202 22.9582 16.4202C22.7607 16.4202 22.6006 16.9005 22.6006 17.493C22.6006 18.0855 22.7607 18.5658 22.9582 18.5658Z" fill="#F37FA2" stroke="#F37FA2" stroke-width="0.75" stroke-miterlimit="10"/>
<path d="M22.9315 18.5621C23.0303 18.391 22.6944 18.0122 22.1812 17.716C21.6681 17.4197 21.1721 17.3182 21.0733 17.4892C20.9746 17.6603 21.3105 18.0391 21.8236 18.3354C22.3367 18.6316 22.8328 18.7331 22.9315 18.5621Z" fill="#F37FA2" stroke="#F37FA2" stroke-width="0.75" stroke-miterlimit="10"/>
<path d="M24.8342 19.6593C24.933 19.4882 24.5971 19.1094 24.0839 18.8131C23.5708 18.5169 23.0748 18.4154 22.976 18.5864C22.8773 18.7575 23.2132 19.1363 23.7263 19.4325C24.2395 19.7288 24.7355 19.8303 24.8342 19.6593Z" fill="#F37FA2" stroke="#F37FA2" stroke-width="0.75" stroke-miterlimit="10"/>
<path d="M24.0864 18.3335C24.5995 18.0372 24.9354 17.6584 24.8367 17.4874C24.7379 17.3163 24.2419 17.4178 23.7288 17.7141C23.2156 18.0103 22.8797 18.3891 22.9785 18.5602C23.0772 18.7312 23.5732 18.6297 24.0864 18.3335Z" fill="#F37FA2" stroke="#F37FA2" stroke-width="0.75" stroke-miterlimit="10"/>
<path d="M22.1795 19.4222C22.6926 19.126 23.0286 18.7471 22.9298 18.5761C22.8311 18.4051 22.335 18.5066 21.8219 18.8028C21.3088 19.0991 20.9729 19.4779 21.0716 19.6489C21.1704 19.82 21.6664 19.7185 22.1795 19.4222Z" fill="#F37FA2" stroke="#F37FA2" stroke-width="0.75" stroke-miterlimit="10"/>
<path d="M197.331 2.46448C194.255 4.43643 191.946 7.51185 191.19 11.1288C190.771 13.111 190.873 15.1544 190.873 17.1673C190.873 21.2644 192.018 27.5379 186.981 29.1829C183.302 30.3885 179.624 27.589 179.532 23.7983C179.481 21.8264 176.416 21.8264 176.467 23.7983C176.559 27.5992 178.94 30.9811 182.618 32.1459C186.296 33.3107 190.311 31.8088 192.457 28.672C193.928 26.5264 193.939 24.1355 193.939 21.6731C193.939 19.2107 193.939 16.9118 193.939 14.5414C193.939 10.6895 195.584 7.24621 198.874 5.13121C200.529 4.0686 198.996 1.41208 197.331 2.48491V2.46448Z" fill="#75BDC9"/>
<path d="M218.001 14.0194C217.981 10.4433 216.561 6.96939 214.027 4.42527C211.493 1.88114 208.019 0.481361 204.433 0.450709C202.461 0.440492 202.461 3.5057 204.433 3.51592C207.222 3.53635 209.879 4.60918 211.861 6.59135C213.843 8.57352 214.916 11.2198 214.936 14.0194C214.946 15.9913 218.012 15.9913 218.001 14.0194Z" fill="#75BDC9"/>
<path d="M158.852 2.46448C155.777 4.43643 153.468 7.51185 152.712 11.1288C152.293 13.111 152.395 15.1544 152.395 17.1673C152.395 21.2644 153.539 27.5379 148.502 29.1829C144.824 30.3885 141.146 27.589 141.054 23.7983C141.003 21.8264 137.937 21.8264 137.988 23.7983C138.08 27.5992 140.461 30.9811 144.139 32.1459C147.818 33.3107 151.833 31.8088 153.979 28.672C155.45 26.5264 155.46 24.1355 155.46 21.6731C155.46 19.2107 155.46 16.9118 155.46 14.5414C155.46 10.6895 157.105 7.24621 160.395 5.13121C162.05 4.0686 160.518 1.41208 158.852 2.48491V2.46448Z" fill="#75BDC9"/>
<path d="M179.531 14.0194C179.511 10.4433 178.091 6.96939 175.557 4.42527C173.023 1.88114 169.549 0.481361 165.963 0.450709C163.991 0.440492 163.991 3.5057 165.963 3.51592C168.752 3.53635 171.408 4.60918 173.391 6.59135C175.373 8.57352 176.446 11.2198 176.466 14.0194C176.476 15.9913 179.541 15.9913 179.531 14.0194Z" fill="#75BDC9"/>
<path d="M235.779 2.46448C232.703 4.43643 230.394 7.51185 229.638 11.1288C229.219 13.111 229.321 15.1544 229.321 17.1673C229.321 21.2644 230.466 27.5379 225.428 29.1829C221.75 30.3885 218.072 27.589 217.98 23.7983C217.929 21.8264 214.864 21.8264 214.915 23.7983C215.007 27.5992 217.387 30.9811 221.066 32.1459C224.744 33.3107 228.759 31.8088 230.905 28.672C232.376 26.5264 232.386 24.1355 232.386 21.6731C232.386 19.2107 232.386 16.9118 232.386 14.5414C232.386 10.6895 234.031 7.24621 237.321 5.13121C238.977 4.0686 237.444 1.41208 235.779 2.48491V2.46448Z" fill="#75BDC9"/>
<path d="M256.459 14.0194C256.438 10.4433 255.018 6.96939 252.484 4.42527C249.95 1.88114 246.476 0.481361 242.89 0.450709C240.918 0.440492 240.918 3.5057 242.89 3.51592C245.679 3.53635 248.336 4.60918 250.318 6.59135C252.3 8.57352 253.373 11.2198 253.394 14.0194C253.404 15.9913 256.469 15.9913 256.459 14.0194Z" fill="#75BDC9"/>
<path d="M179.982 19.0473C179.982 20.2223 179.032 21.1725 177.857 21.1725C176.682 21.1725 175.732 20.2223 175.732 19.0473C175.732 17.8723 176.682 16.9221 177.857 16.9221V19.0473H179.982Z" fill="#2F9685"/>
<path d="M179.593 19.047C179.593 19.1288 179.593 19.2003 179.583 19.282C179.583 19.3127 179.583 19.3433 179.583 19.2718C179.583 19.2922 179.583 19.3127 179.583 19.3331C179.583 19.374 179.563 19.4149 179.553 19.4557C179.532 19.5272 179.512 19.5988 179.491 19.6703C179.481 19.7112 179.461 19.7725 179.491 19.7009C179.481 19.7418 179.45 19.7827 179.43 19.8236C179.399 19.8849 179.358 19.9564 179.318 20.0177C179.297 20.0483 179.277 20.079 179.256 20.1096C179.287 20.0688 179.246 20.1301 179.236 20.1403C179.185 20.2016 179.134 20.2527 179.083 20.3038C179.052 20.3344 179.032 20.3549 179.001 20.3753C178.991 20.3855 178.97 20.3957 178.96 20.4162C178.96 20.4162 178.888 20.4775 178.929 20.4366C178.97 20.4059 178.878 20.4775 178.868 20.4775C178.837 20.4979 178.807 20.5183 178.776 20.5388C178.705 20.5796 178.643 20.6205 178.562 20.6512C178.541 20.6512 178.531 20.6716 178.51 20.6716C178.521 20.6716 178.592 20.6409 178.521 20.6716C178.49 20.6818 178.449 20.7022 178.418 20.7125C178.337 20.7329 178.265 20.7533 178.183 20.7738C178.173 20.7738 178.051 20.7942 178.102 20.784C178.153 20.784 178.061 20.784 178.04 20.784C177.948 20.784 177.867 20.784 177.775 20.784C177.734 20.784 177.693 20.784 177.652 20.784C177.642 20.784 177.622 20.784 177.611 20.784C177.56 20.784 177.683 20.7942 177.632 20.784C177.55 20.7636 177.468 20.7533 177.397 20.7329C177.335 20.7125 177.233 20.7022 177.182 20.6614C177.182 20.6614 177.264 20.692 177.192 20.6614C177.172 20.6614 177.162 20.6409 177.141 20.6409C177.1 20.6205 177.07 20.6001 177.029 20.5796C176.968 20.5388 176.896 20.5081 176.845 20.457C176.814 20.4366 176.763 20.3957 176.825 20.4468C176.794 20.4162 176.753 20.3855 176.722 20.3549C176.671 20.3038 176.62 20.2527 176.569 20.2016C176.549 20.1709 176.518 20.1505 176.498 20.1199C176.528 20.1709 176.487 20.0994 176.477 20.0892C176.436 20.0279 176.395 19.9666 176.355 19.9053C176.334 19.8746 176.324 19.844 176.303 19.8031C176.303 19.7827 176.283 19.7725 176.283 19.752C176.283 19.752 176.252 19.6703 176.273 19.7214C176.293 19.7725 176.273 19.7214 176.273 19.7009C176.273 19.6805 176.263 19.6703 176.252 19.6499C176.242 19.609 176.232 19.5783 176.222 19.5375C176.201 19.4557 176.181 19.3842 176.171 19.3025C176.16 19.2309 176.171 19.3025 176.171 19.3229C176.171 19.3025 176.171 19.282 176.171 19.2616C176.171 19.2207 176.171 19.1799 176.171 19.139C176.171 19.0573 176.171 18.9755 176.171 18.8836C176.171 18.8836 176.191 18.7916 176.171 18.7814C176.181 18.7916 176.16 18.8529 176.171 18.8018C176.171 18.7814 176.171 18.7609 176.181 18.7405C176.201 18.6588 176.222 18.577 176.242 18.4953C176.252 18.4544 176.263 18.4238 176.283 18.3931C176.303 18.3318 176.252 18.4544 176.293 18.3727C176.324 18.3012 176.365 18.2296 176.406 18.1581C176.426 18.1173 176.457 18.0764 176.477 18.0457C176.498 18.0151 176.549 17.9436 176.498 18.0151C176.549 17.9436 176.61 17.8823 176.671 17.8209C176.702 17.7903 176.733 17.7596 176.763 17.7392C176.773 17.729 176.794 17.7188 176.804 17.6983C176.804 17.6983 176.876 17.637 176.835 17.6779C176.794 17.7086 176.835 17.6779 176.855 17.6677C176.876 17.6575 176.896 17.637 176.917 17.6268C176.957 17.5962 176.998 17.5757 177.039 17.5553C177.111 17.5144 177.182 17.4736 177.264 17.4429C177.172 17.4736 177.284 17.4429 177.315 17.4225C177.356 17.4123 177.397 17.3918 177.438 17.3816C177.478 17.3714 177.53 17.3612 177.581 17.351C177.601 17.351 177.622 17.3509 177.642 17.3407C177.652 17.3407 177.734 17.3203 177.673 17.3407C177.703 17.3407 177.734 17.3407 177.765 17.3407C177.816 17.3407 177.867 17.3407 177.918 17.3407L177.53 16.9525C177.53 17.5757 177.53 18.1888 177.53 18.812V19.0777C177.53 19.282 177.703 19.4659 177.908 19.4659H180.033C180.237 19.4659 180.421 19.2923 180.421 19.0777C180.421 18.8631 180.258 18.6894 180.033 18.6894H177.908L178.296 19.0777C178.296 18.4544 178.296 17.8414 178.296 17.2181V16.9525C178.296 16.7481 178.122 16.5642 177.918 16.5642C177.121 16.5642 176.385 16.9525 175.895 17.5859C175.404 18.2194 175.292 19.0164 175.496 19.752C175.701 20.4877 176.273 21.1212 176.998 21.4072C177.724 21.6933 178.541 21.6218 179.195 21.2335C179.951 20.784 180.421 19.9564 180.421 19.0777C180.421 18.8733 180.247 18.6894 180.033 18.6894C179.818 18.6894 179.655 18.8529 179.645 19.0777L179.593 19.047Z" fill="#2F9685"/>
<path d="M217.265 17.4037C216.744 18.0474 216.222 18.6911 215.691 19.3348L215.466 19.6107H216.549C216.151 19.3041 215.763 18.9976 215.364 18.6911C215.201 18.5583 215.047 18.4663 214.823 18.4663C214.639 18.4663 214.414 18.548 214.281 18.6911C214.026 18.967 213.944 19.5085 214.281 19.7741C214.68 20.0807 215.068 20.3872 215.466 20.6937C215.63 20.8163 215.793 20.9287 216.008 20.9185C216.202 20.9185 216.427 20.8469 216.549 20.6937C217.07 20.05 217.592 19.4063 218.123 18.7626L218.348 18.4867C218.48 18.3233 218.572 18.1598 218.572 17.9452C218.572 17.7613 218.491 17.5365 218.348 17.4037C218.072 17.1483 217.53 17.0665 217.265 17.4037Z" fill="#3A251D"/>
<path d="M254.947 21.2241C255.145 21.2241 255.305 20.7438 255.305 20.1513C255.305 19.5588 255.145 19.0785 254.947 19.0785C254.75 19.0785 254.59 19.5588 254.59 20.1513C254.59 20.7438 254.75 21.2241 254.947 21.2241Z" fill="#F37FA2" stroke="#F37FA2" stroke-width="0.75" stroke-miterlimit="10"/>
<path d="M254.947 19.017C255.145 19.017 255.305 18.5367 255.305 17.9442C255.305 17.3517 255.145 16.8713 254.947 16.8713C254.75 16.8713 254.59 17.3517 254.59 17.9442C254.59 18.5367 254.75 19.017 254.947 19.017Z" fill="#F37FA2" stroke="#F37FA2" stroke-width="0.75" stroke-miterlimit="10"/>
<path d="M254.92 19.0132C255.019 18.8422 254.683 18.4634 254.17 18.1671C253.657 17.8709 253.161 17.7694 253.062 17.9404C252.963 18.1115 253.299 18.4903 253.812 18.7865C254.326 19.0828 254.822 19.1843 254.92 19.0132Z" fill="#F37FA2" stroke="#F37FA2" stroke-width="0.75" stroke-miterlimit="10"/>
<path d="M256.823 20.1126C256.921 19.9416 256.585 19.5628 256.072 19.2665C255.559 18.9703 255.063 18.8688 254.964 19.0398C254.866 19.2108 255.202 19.5896 255.715 19.8859C256.228 20.1821 256.724 20.2837 256.823 20.1126Z" fill="#F37FA2" stroke="#F37FA2" stroke-width="0.75" stroke-miterlimit="10"/>
<path d="M256.074 18.7846C256.587 18.4884 256.923 18.1096 256.824 17.9385C256.726 17.7675 256.23 17.869 255.716 18.1653C255.203 18.4615 254.867 18.8403 254.966 19.0114C255.065 19.1824 255.561 19.0809 256.074 18.7846Z" fill="#F37FA2" stroke="#F37FA2" stroke-width="0.75" stroke-miterlimit="10"/>
<path d="M254.168 19.8741C254.681 19.5779 255.017 19.1991 254.919 19.028C254.82 18.857 254.324 18.9585 253.811 19.2547C253.298 19.551 252.962 19.9298 253.06 20.1008C253.159 20.2719 253.655 20.1704 254.168 19.8741Z" fill="#F37FA2" stroke="#F37FA2" stroke-width="0.75" stroke-miterlimit="10"/>
<path d="M81.3376 2.0133C78.2622 3.98526 75.9531 7.06068 75.197 10.6776C74.7781 12.6598 74.8803 14.7033 74.8803 16.7161C74.8803 20.8133 76.0246 27.0867 70.9874 28.7317C67.3092 29.9374 63.6309 27.1378 63.539 23.3472C63.4879 21.3752 60.4227 21.3752 60.4738 23.3472C60.5657 27.148 62.9464 30.53 66.6246 31.6948C70.3029 32.8595 74.3183 31.3576 76.464 28.2209C77.9353 26.0752 77.9455 23.6843 77.9455 21.222C77.9455 18.7596 77.9455 16.4607 77.9455 14.0902C77.9455 10.2383 79.5905 6.79503 82.8805 4.68004C84.5357 3.61743 83.0031 0.960912 81.3376 2.03374V2.0133Z" fill="#75BDC9"/>
<path d="M102.008 13.5689C101.987 9.99286 100.567 6.51895 98.0333 3.97483C95.4994 1.4307 92.0255 0.0309217 88.4392 0.000269627C86.4672 -0.00994774 86.4672 3.05526 88.4392 3.06548C91.2285 3.08592 93.885 4.15874 95.8672 6.14091C97.8494 8.12308 98.9222 10.7694 98.9426 13.5689C98.9528 15.5409 102.018 15.5409 102.008 13.5689Z" fill="#75BDC9"/>
<path d="M42.8597 2.01306C39.7843 3.98501 37.4752 7.06044 36.7191 10.6774C36.3002 12.6596 36.4024 14.703 36.4024 16.7159C36.4024 20.813 37.5467 27.0865 32.5095 28.7315C28.8313 29.9371 25.153 27.1376 25.0611 23.3469C25.01 21.375 21.9448 21.375 21.9959 23.3469C22.0878 27.1478 24.4685 30.5297 28.1467 31.6945C31.825 32.8593 35.8404 31.3573 37.9861 28.2206C39.4574 26.075 39.4676 23.6841 39.4676 21.2217C39.4676 18.7593 39.4676 16.4604 39.4676 14.09C39.4676 10.238 41.1126 6.79479 44.4026 4.67979C46.0578 3.61719 44.5252 0.960668 42.8597 2.03349V2.01306Z" fill="#75BDC9"/>
<path d="M63.5399 13.5687C63.5195 9.99261 62.0993 6.51871 59.5654 3.97458C57.0315 1.43046 53.5576 0.0306776 49.9713 2.54867e-05C47.9993 -0.0101919 47.9993 3.05502 49.9713 3.06524C52.7606 3.08567 55.4171 4.1585 57.3993 6.14067C59.3815 8.12284 60.4543 10.7691 60.4747 13.5687C60.485 15.5406 63.5502 15.5406 63.5399 13.5687Z" fill="#75BDC9"/>
<path d="M119.786 2.0133C116.71 3.98526 114.401 7.06068 113.645 10.6776C113.226 12.6598 113.328 14.7033 113.328 16.7161C113.328 20.8133 114.473 27.0867 109.435 28.7317C105.757 29.9374 102.079 27.1378 101.987 23.3472C101.936 21.3752 98.8707 21.3752 98.9218 23.3472C99.0137 27.148 101.394 30.53 105.073 31.6948C108.751 32.8595 112.766 31.3576 114.912 28.2209C116.383 26.0752 116.393 23.6843 116.393 21.222C116.393 18.7596 116.393 16.4607 116.393 14.0902C116.393 10.2383 118.038 6.79503 121.328 4.68004C122.984 3.61743 121.451 0.960912 119.786 2.03374V2.0133Z" fill="#75BDC9"/>
<path d="M140.466 13.5689C140.445 9.99286 139.025 6.51895 136.491 3.97483C133.957 1.4307 130.483 0.0309217 126.897 0.000269627C124.925 -0.00994774 124.925 3.05526 126.897 3.06548C129.686 3.08592 132.343 4.15874 134.325 6.14091C136.307 8.12308 137.38 10.7694 137.401 13.5689C137.411 15.5409 140.476 15.5409 140.466 13.5689Z" fill="#75BDC9"/>
<path d="M63.9891 18.596C63.9891 19.771 63.0389 20.7212 61.8639 20.7212C60.6889 20.7212 59.7386 19.771 59.7386 18.596C59.7386 17.421 60.6889 16.4708 61.8639 16.4708V18.596H63.9891Z" fill="#2F9685"/>
<path d="M63.6007 18.5963C63.6007 18.6781 63.6007 18.7496 63.5905 18.8313C63.5905 18.862 63.5905 18.8927 63.5905 18.8211C63.5905 18.8416 63.5905 18.862 63.5905 18.8824C63.5905 18.9233 63.57 18.9642 63.5598 19.005C63.5394 19.0766 63.519 19.1481 63.4985 19.2196C63.4883 19.2605 63.4679 19.3218 63.4985 19.2503C63.4883 19.2911 63.4576 19.332 63.4372 19.3729C63.4066 19.4342 63.3657 19.5057 63.3248 19.567C63.3044 19.5977 63.284 19.6283 63.2635 19.659C63.2942 19.6181 63.2533 19.6794 63.2431 19.6896C63.192 19.7509 63.1409 19.802 63.0898 19.8531C63.0592 19.8837 63.0387 19.9042 63.0081 19.9246C62.9979 19.9348 62.9774 19.945 62.9672 19.9655C62.9672 19.9655 62.8957 20.0268 62.9366 19.9859C62.9774 19.9553 62.8855 20.0268 62.8753 20.0268C62.8446 20.0472 62.814 20.0677 62.7833 20.0881C62.7118 20.129 62.6505 20.1698 62.5687 20.2005C62.5483 20.2005 62.5381 20.2209 62.5177 20.2209C62.5279 20.2209 62.5994 20.1903 62.5279 20.2209C62.4972 20.2311 62.4563 20.2516 62.4257 20.2618C62.344 20.2822 62.2724 20.3026 62.1907 20.3231C62.1805 20.3231 62.0579 20.3435 62.109 20.3333C62.16 20.3333 62.0681 20.3333 62.0476 20.3333C61.9557 20.3333 61.874 20.3333 61.782 20.3333C61.7411 20.3333 61.7003 20.3333 61.6594 20.3333C61.6492 20.3333 61.6287 20.3333 61.6185 20.3333C61.5674 20.3333 61.69 20.3435 61.639 20.3333C61.5572 20.3129 61.4755 20.3026 61.404 20.2822C61.3427 20.2618 61.2405 20.2516 61.1894 20.2107C61.1894 20.2107 61.2711 20.2413 61.1996 20.2107C61.1792 20.2107 61.169 20.1903 61.1485 20.1903C61.1077 20.1698 61.077 20.1494 61.0361 20.129C60.9748 20.0881 60.9033 20.0574 60.8522 20.0063C60.8216 19.9859 60.7705 19.945 60.8318 19.9961C60.8011 19.9655 60.7603 19.9348 60.7296 19.9042C60.6785 19.8531 60.6274 19.802 60.5764 19.7509C60.5559 19.7203 60.5253 19.6998 60.5048 19.6692C60.5355 19.7203 60.4946 19.6487 60.4844 19.6385C60.4435 19.5772 60.4027 19.5159 60.3618 19.4546C60.3414 19.424 60.3311 19.3933 60.3107 19.3524C60.3107 19.332 60.2903 19.3218 60.2903 19.3013C60.2903 19.3013 60.2596 19.2196 60.28 19.2707C60.3005 19.3218 60.28 19.2707 60.28 19.2503C60.28 19.2298 60.2698 19.2196 60.2596 19.1992C60.2494 19.1583 60.2392 19.1277 60.229 19.0868C60.2085 19.005 60.1881 18.9335 60.1779 18.8518C60.1677 18.7803 60.1779 18.8518 60.1779 18.8722C60.1779 18.8518 60.1779 18.8314 60.1779 18.8109C60.1779 18.77 60.1779 18.7292 60.1779 18.6883C60.1779 18.6066 60.1779 18.5248 60.1779 18.4329C60.1779 18.4329 60.1983 18.3409 60.1779 18.3307C60.1881 18.3409 60.1677 18.4022 60.1779 18.3511C60.1779 18.3307 60.1779 18.3103 60.1881 18.2898C60.2085 18.2081 60.229 18.1264 60.2494 18.0446C60.2596 18.0037 60.2698 17.9731 60.2903 17.9424C60.3107 17.8811 60.2596 18.0037 60.3005 17.922C60.3311 17.8505 60.372 17.779 60.4129 17.7074C60.4333 17.6666 60.464 17.6257 60.4844 17.595C60.5048 17.5644 60.5559 17.4929 60.5048 17.5644C60.5559 17.4929 60.6172 17.4316 60.6785 17.3703C60.7092 17.3396 60.7398 17.309 60.7705 17.2885C60.7807 17.2783 60.8011 17.2681 60.8113 17.2477C60.8113 17.2477 60.8829 17.1864 60.842 17.2272C60.8011 17.2579 60.842 17.2272 60.8624 17.217C60.8829 17.2068 60.9033 17.1863 60.9237 17.1761C60.9646 17.1455 61.0055 17.125 61.0463 17.1046C61.1179 17.0637 61.1894 17.0229 61.2711 16.9922C61.1792 17.0229 61.2916 16.9922 61.3222 16.9718C61.3631 16.9616 61.404 16.9411 61.4448 16.9309C61.4857 16.9207 61.5368 16.9105 61.5879 16.9003C61.6083 16.9003 61.6287 16.9003 61.6492 16.89C61.6594 16.89 61.7411 16.8696 61.6798 16.89C61.7105 16.89 61.7411 16.89 61.7718 16.89C61.8229 16.89 61.874 16.89 61.925 16.89L61.5368 16.5018C61.5368 17.125 61.5368 17.7381 61.5368 18.3614V18.627C61.5368 18.8314 61.7105 19.0153 61.9148 19.0153H64.04C64.2444 19.0153 64.4283 18.8416 64.4283 18.627C64.4283 18.4124 64.2648 18.2387 64.04 18.2387H61.9148L62.3031 18.627C62.3031 18.0037 62.3031 17.3907 62.3031 16.7674V16.5018C62.3031 16.2974 62.1294 16.1135 61.925 16.1135C61.1281 16.1135 60.3924 16.5018 59.902 17.1353C59.4116 17.7687 59.2992 18.5657 59.5035 19.3013C59.7079 20.037 60.28 20.6705 61.0055 20.9566C61.7309 21.2426 62.5483 21.1711 63.2022 20.7829C63.9583 20.3333 64.4283 19.5057 64.4283 18.627C64.4283 18.4227 64.2546 18.2387 64.04 18.2387C63.8255 18.2387 63.662 18.4022 63.6518 18.627L63.6007 18.5963Z" fill="#2F9685"/>
<path d="M101.271 16.9525C100.75 17.5962 100.229 18.2399 99.698 18.8836L99.4732 19.1595H100.556C100.158 18.853 99.7695 18.5464 99.371 18.2399C99.2075 18.1071 99.0543 18.0151 98.8295 18.0151C98.6456 18.0151 98.4208 18.0969 98.288 18.2399C98.0325 18.5158 97.9508 19.0573 98.288 19.323C98.6864 19.6295 99.0747 19.936 99.4732 20.2425C99.6367 20.3651 99.8001 20.4775 100.015 20.4673C100.209 20.4673 100.434 20.3958 100.556 20.2425C101.077 19.5988 101.598 18.9551 102.13 18.3114L102.354 18.0356C102.487 17.8721 102.579 17.7086 102.579 17.4941C102.579 17.3101 102.498 17.0853 102.354 16.9525C102.079 16.6971 101.537 16.6153 101.271 16.9525Z" fill="#3A251D"/>
<path d="M138.953 20.7726C139.15 20.7726 139.311 20.2923 139.311 19.6998C139.311 19.1073 139.15 18.627 138.953 18.627C138.755 18.627 138.595 19.1073 138.595 19.6998C138.595 20.2923 138.755 20.7726 138.953 20.7726Z" fill="#F37FA2" stroke="#F37FA2" stroke-width="0.75" stroke-miterlimit="10"/>
<path d="M138.953 18.5654C139.15 18.5654 139.311 18.0851 139.311 17.4926C139.311 16.9001 139.15 16.4198 138.953 16.4198C138.755 16.4198 138.595 16.9001 138.595 17.4926C138.595 18.0851 138.755 18.5654 138.953 18.5654Z" fill="#F37FA2" stroke="#F37FA2" stroke-width="0.75" stroke-miterlimit="10"/>
<path d="M138.927 18.5617C139.025 18.3907 138.689 18.0118 138.176 17.7156C137.663 17.4193 137.167 17.3178 137.068 17.4889C136.97 17.6599 137.305 18.0387 137.819 18.335C138.332 18.6312 138.828 18.7327 138.927 18.5617Z" fill="#F37FA2" stroke="#F37FA2" stroke-width="0.75" stroke-miterlimit="10"/>
<path d="M140.829 19.6589C140.928 19.4878 140.592 19.109 140.079 18.8128C139.566 18.5165 139.07 18.415 138.971 18.5861C138.873 18.7571 139.208 19.1359 139.722 19.4322C140.235 19.7284 140.731 19.8299 140.829 19.6589Z" fill="#F37FA2" stroke="#F37FA2" stroke-width="0.75" stroke-miterlimit="10"/>
<path d="M140.081 18.3331C140.594 18.0369 140.93 17.658 140.831 17.487C140.733 17.316 140.237 17.4175 139.723 17.7137C139.21 18.01 138.874 18.3888 138.973 18.5598C139.072 18.7309 139.568 18.6294 140.081 18.3331Z" fill="#F37FA2" stroke="#F37FA2" stroke-width="0.75" stroke-miterlimit="10"/>
<path d="M138.175 19.4219C138.688 19.1256 139.024 18.7468 138.925 18.5757C138.826 18.4047 138.33 18.5062 137.817 18.8025C137.304 19.0987 136.968 19.4775 137.067 19.6486C137.165 19.8196 137.662 19.7181 138.175 19.4219Z" fill="#F37FA2" stroke="#F37FA2" stroke-width="0.75" stroke-miterlimit="10"/>
<path d="M313.326 2.4646C310.25 4.43655 307.941 7.51197 307.185 11.1289C306.766 13.1111 306.868 15.1546 306.868 17.1674C306.868 21.2646 308.013 27.538 302.975 29.183C299.297 30.3887 295.619 27.5891 295.527 23.7985C295.476 21.8265 292.411 21.8265 292.462 23.7985C292.554 27.5993 294.934 30.9813 298.613 32.1461C302.291 33.3108 306.306 31.8089 308.452 28.6722C309.923 26.5265 309.934 24.1356 309.934 21.6732C309.934 19.2109 309.934 16.912 309.934 14.5415C309.934 10.6896 311.579 7.24633 314.869 5.13133C316.524 4.06873 314.991 1.41221 313.326 2.48503V2.4646Z" fill="#75BDC9"/>
<path d="M333.996 14.0195C333.975 10.4434 332.555 6.96951 330.021 4.42539C327.487 1.88126 324.013 0.481483 320.427 0.450831C318.455 0.440614 318.455 3.50582 320.427 3.51604C323.216 3.53648 325.873 4.6093 327.855 6.59147C329.837 8.57364 330.91 11.2199 330.93 14.0195C330.941 15.9914 334.006 15.9914 333.996 14.0195Z" fill="#75BDC9"/>
<path d="M274.849 2.4646C271.773 4.43655 269.464 7.51197 268.708 11.1289C268.289 13.1111 268.391 15.1546 268.391 17.1674C268.391 21.2646 269.536 27.538 264.498 29.183C260.82 30.3887 257.142 27.5891 257.05 23.7985C256.999 21.8265 253.934 21.8265 253.985 23.7985C254.077 27.5993 256.457 30.9813 260.136 32.1461C263.814 33.3108 267.829 31.8089 269.975 28.6722C271.446 26.5265 271.456 24.1356 271.456 21.6732C271.456 19.2109 271.456 16.912 271.456 14.5415C271.456 10.6896 273.101 7.24633 276.391 5.13133C278.047 4.06873 276.514 1.41221 274.849 2.48503V2.4646Z" fill="#75BDC9"/>
<path d="M295.528 14.0195C295.507 10.4434 294.087 6.96951 291.553 4.42539C289.019 1.88126 285.545 0.481483 281.959 0.450831C279.987 0.440614 279.987 3.50582 281.959 3.51604C284.749 3.53648 287.405 4.6093 289.387 6.59147C291.369 8.57364 292.442 11.2199 292.463 14.0195C292.473 15.9914 295.538 15.9914 295.528 14.0195Z" fill="#75BDC9"/>
<path d="M295.977 19.0474C295.977 20.2224 295.027 21.1727 293.852 21.1727C292.677 21.1727 291.726 20.2224 291.726 19.0474C291.726 17.8725 292.677 16.9222 293.852 16.9222V19.0474H295.977Z" fill="#2F9685"/>
<path d="M295.589 19.0472C295.589 19.1289 295.589 19.2004 295.579 19.2822C295.579 19.3128 295.579 19.3435 295.579 19.2719C295.579 19.2924 295.579 19.3128 295.579 19.3332C295.579 19.3741 295.558 19.415 295.548 19.4558C295.528 19.5274 295.507 19.5989 295.487 19.6704C295.477 19.7113 295.456 19.7726 295.487 19.7011C295.477 19.7419 295.446 19.7828 295.426 19.8237C295.395 19.885 295.354 19.9565 295.313 20.0178C295.293 20.0485 295.272 20.0791 295.252 20.1098C295.283 20.0689 295.242 20.1302 295.231 20.1404C295.18 20.2017 295.129 20.2528 295.078 20.3039C295.048 20.3345 295.027 20.355 294.996 20.3754C294.986 20.3856 294.966 20.3958 294.956 20.4163C294.956 20.4163 294.884 20.4776 294.925 20.4367C294.966 20.4061 294.874 20.4776 294.864 20.4776C294.833 20.498 294.802 20.5185 294.772 20.5389C294.7 20.5798 294.639 20.6206 294.557 20.6513C294.537 20.6513 294.526 20.6717 294.506 20.6717C294.516 20.6717 294.588 20.6411 294.516 20.6717C294.486 20.6819 294.445 20.7024 294.414 20.7126C294.332 20.733 294.261 20.7535 294.179 20.7739C294.169 20.7739 294.046 20.7943 294.097 20.7841C294.148 20.7841 294.056 20.7841 294.036 20.7841C293.944 20.7841 293.862 20.7841 293.77 20.7841C293.73 20.7841 293.689 20.7841 293.648 20.7841C293.638 20.7841 293.617 20.7841 293.607 20.7841C293.556 20.7841 293.678 20.7943 293.627 20.7841C293.546 20.7637 293.464 20.7535 293.392 20.733C293.331 20.7126 293.229 20.7024 293.178 20.6615C293.178 20.6615 293.26 20.6921 293.188 20.6615C293.168 20.6615 293.157 20.6411 293.137 20.6411C293.096 20.6206 293.065 20.6002 293.025 20.5798C292.963 20.5389 292.892 20.5082 292.841 20.4572C292.81 20.4367 292.759 20.3958 292.82 20.4469C292.79 20.4163 292.749 20.3856 292.718 20.355C292.667 20.3039 292.616 20.2528 292.565 20.2017C292.544 20.1711 292.514 20.1506 292.493 20.12C292.524 20.1711 292.483 20.0995 292.473 20.0893C292.432 20.028 292.391 19.9667 292.35 19.9054C292.33 19.8748 292.32 19.8441 292.299 19.8032C292.299 19.7828 292.279 19.7726 292.279 19.7522C292.279 19.7522 292.248 19.6704 292.268 19.7215C292.289 19.7726 292.268 19.7215 292.268 19.7011C292.268 19.6806 292.258 19.6704 292.248 19.65C292.238 19.6091 292.228 19.5785 292.217 19.5376C292.197 19.4558 292.176 19.3843 292.166 19.3026C292.156 19.2311 292.166 19.3026 292.166 19.323C292.166 19.3026 292.166 19.2822 292.166 19.2617C292.166 19.2209 292.166 19.18 292.166 19.1391C292.166 19.0574 292.166 18.9756 292.166 18.8837C292.166 18.8837 292.187 18.7917 292.166 18.7815C292.176 18.7917 292.156 18.853 292.166 18.8019C292.166 18.7815 292.166 18.7611 292.176 18.7406C292.197 18.6589 292.217 18.5772 292.238 18.4954C292.248 18.4546 292.258 18.4239 292.279 18.3932C292.299 18.3319 292.248 18.4545 292.289 18.3728C292.32 18.3013 292.36 18.2298 292.401 18.1582C292.422 18.1174 292.452 18.0765 292.473 18.0459C292.493 18.0152 292.544 17.9437 292.493 18.0152C292.544 17.9437 292.606 17.8824 292.667 17.8211C292.698 17.7904 292.728 17.7598 292.759 17.7393C292.769 17.7291 292.79 17.7189 292.8 17.6985C292.8 17.6985 292.871 17.6372 292.83 17.678C292.79 17.7087 292.83 17.678 292.851 17.6678C292.871 17.6576 292.892 17.6372 292.912 17.6269C292.953 17.5963 292.994 17.5759 293.035 17.5554C293.106 17.5145 293.178 17.4737 293.26 17.443C293.168 17.4737 293.28 17.443 293.311 17.4226C293.351 17.4124 293.392 17.3919 293.433 17.3817C293.474 17.3715 293.525 17.3613 293.576 17.3511C293.597 17.3511 293.617 17.3511 293.638 17.3409C293.648 17.3409 293.73 17.3204 293.668 17.3409C293.699 17.3409 293.73 17.3409 293.76 17.3409C293.811 17.3409 293.862 17.3409 293.913 17.3409L293.525 16.9526C293.525 17.5759 293.525 18.1889 293.525 18.8122V19.0778C293.525 19.2822 293.699 19.4661 293.903 19.4661H296.028C296.233 19.4661 296.417 19.2924 296.417 19.0778C296.417 18.8632 296.253 18.6895 296.028 18.6895H293.903L294.291 19.0778C294.291 18.4546 294.291 17.8415 294.291 17.2182V16.9526C294.291 16.7482 294.118 16.5643 293.913 16.5643C293.116 16.5643 292.381 16.9526 291.89 17.5861C291.4 18.2195 291.288 19.0165 291.492 19.7522C291.696 20.4878 292.268 21.1213 292.994 21.4074C293.719 21.6935 294.537 21.6219 295.191 21.2337C295.947 20.7841 296.417 19.9565 296.417 19.0778C296.417 18.8735 296.243 18.6895 296.028 18.6895C295.814 18.6895 295.65 18.853 295.64 19.0778L295.589 19.0472Z" fill="#2F9685"/>
<path d="M333.26 17.4038C332.739 18.0475 332.218 18.6912 331.686 19.3349L331.461 19.6108H332.545C332.146 19.3043 331.758 18.9977 331.359 18.6912C331.196 18.5584 331.043 18.4664 330.818 18.4664C330.634 18.4664 330.409 18.5482 330.276 18.6912C330.021 18.9671 329.939 19.5086 330.276 19.7743C330.675 20.0808 331.063 20.3873 331.461 20.6938C331.625 20.8164 331.788 20.9288 332.003 20.9186C332.197 20.9186 332.422 20.8471 332.545 20.6938C333.066 20.0501 333.587 19.4064 334.118 18.7627L334.343 18.4869C334.476 18.3234 334.568 18.1599 334.568 17.9453C334.568 17.7614 334.486 17.5366 334.343 17.4038C334.067 17.1484 333.525 17.0666 333.26 17.4038Z" fill="#3A251D"/>
</g>
<use href="#t" x="348"/>
<use href="#t" x="-348"/>
</svg>
