<svg width="746" height="201" viewBox="0 0 746 201" fill="none" xmlns="http://www.w3.org/2000/svg">
<path d="M371.732 12.6092C352.467 24.9618 338.003 44.2266 333.266 66.8837C330.642 79.3003 331.282 92.1009 331.282 104.709C331.282 130.375 338.451 169.673 306.897 179.977C283.856 187.529 260.815 169.993 260.239 146.247C259.919 133.895 240.718 133.895 241.038 146.247C241.614 170.057 256.527 191.241 279.568 198.538C302.609 205.834 327.762 196.426 341.203 176.777C350.419 163.336 350.483 148.359 350.483 132.935C350.483 117.51 350.483 103.109 350.483 88.2607C350.483 64.1316 360.788 42.5626 381.397 29.314C391.765 22.6577 382.165 6.01687 371.732 12.7372V12.6092Z" fill="#F7F6F2"/>
<path d="M501.21 84.9961C501.082 62.5951 492.185 40.8341 476.312 24.8973C460.44 8.96057 438.679 0.192169 416.214 0.000159652C403.861 -0.0638433 403.861 19.1371 416.214 19.2011C433.686 19.3291 450.327 26.0494 462.744 38.466C475.16 50.8825 481.881 67.4593 482.009 84.9961C482.073 97.3487 501.274 97.3487 501.21 84.9961Z" fill="#F7F6F2"/>
<path d="M130.698 12.6094C111.433 24.962 96.9685 44.2269 92.2322 66.8839C89.6081 79.3005 90.2482 92.1011 90.2482 104.71C90.2482 130.375 97.4165 169.673 65.863 179.977C42.8219 187.53 19.7809 169.993 19.2048 146.248C18.8848 133.895 -0.316059 133.895 0.00395602 146.248C0.579983 170.057 15.4927 191.242 38.5337 198.538C61.5748 205.834 86.728 196.426 100.169 176.777C109.385 163.336 109.449 148.36 109.449 132.935C109.449 117.51 109.449 103.11 109.449 88.261C109.449 64.1318 119.754 42.5628 140.363 29.3142C150.731 22.6579 141.131 6.01711 130.698 12.7374V12.6094Z" fill="#F7F6F2"/>
<path d="M260.242 84.9963C260.114 62.5953 251.217 40.8343 235.345 24.8976C219.472 8.96082 197.711 0.192413 175.246 0.000403793C162.893 -0.0635992 162.893 19.1373 175.246 19.2013C192.719 19.3293 209.359 26.0496 221.776 38.4662C234.193 50.8828 240.913 67.4595 241.041 84.9963C241.105 97.3489 260.306 97.3489 260.242 84.9963Z" fill="#F7F6F2"/>
<path d="M612.578 12.6092C593.314 24.9618 578.849 44.2266 574.113 66.8837C571.488 79.3003 572.129 92.1009 572.129 104.709C572.129 130.375 579.297 169.673 547.743 179.977C524.702 187.529 501.661 169.993 501.085 146.247C500.765 133.895 481.564 133.895 481.884 146.247C482.46 170.057 497.373 191.241 520.414 198.538C543.455 205.834 568.608 196.426 582.049 176.777C591.265 163.336 591.329 148.359 591.329 132.935C591.329 117.51 591.329 103.109 591.329 88.2607C591.329 64.1316 601.634 42.5626 622.243 29.314C632.611 22.6577 623.011 6.01687 612.578 12.7372V12.6092Z" fill="#F7F6F2"/>
<path d="M742.123 84.9961C741.995 62.5951 733.098 40.8341 717.226 24.8973C701.353 8.96057 679.592 0.192169 657.127 0.000159652C644.774 -0.0638433 644.774 19.1371 657.127 19.2011C674.6 19.3291 691.24 26.0494 703.657 38.466C716.074 50.8825 722.794 67.4593 722.922 84.9961C722.986 97.3487 742.187 97.3487 742.123 84.9961Z" fill="#F7F6F2"/>
<path d="M263.055 116.486C263.055 123.846 257.103 129.798 249.742 129.798C242.382 129.798 236.43 123.846 236.43 116.486C236.43 109.125 242.382 103.173 249.742 103.173V116.486H263.055Z" fill="#2F9685"/>
<path d="M260.622 116.486C260.622 116.998 260.622 117.446 260.558 117.958C260.558 118.15 260.558 118.342 260.558 117.894C260.558 118.022 260.558 118.15 260.558 118.278C260.558 118.534 260.43 118.79 260.366 119.046C260.238 119.494 260.11 119.942 259.982 120.39C259.918 120.646 259.79 121.03 259.982 120.582C259.918 120.838 259.726 121.094 259.598 121.35C259.406 121.734 259.15 122.182 258.894 122.567C258.766 122.759 258.638 122.951 258.51 123.143C258.702 122.887 258.446 123.271 258.382 123.335C258.062 123.719 257.742 124.039 257.422 124.359C257.23 124.551 257.102 124.679 256.91 124.807C256.846 124.871 256.718 124.935 256.654 125.063C256.654 125.063 256.206 125.447 256.462 125.191C256.718 124.999 256.142 125.447 256.078 125.447C255.886 125.575 255.694 125.703 255.502 125.831C255.054 126.087 254.67 126.343 254.158 126.535C254.03 126.535 253.966 126.663 253.838 126.663C253.902 126.663 254.35 126.471 253.902 126.663C253.71 126.727 253.454 126.855 253.262 126.919C252.75 127.047 252.302 127.175 251.79 127.303C251.726 127.303 250.958 127.431 251.278 127.367C251.598 127.367 251.022 127.367 250.894 127.367C250.318 127.367 249.806 127.367 249.23 127.367C248.974 127.367 248.718 127.367 248.462 127.367C248.398 127.367 248.27 127.367 248.206 127.367C247.886 127.367 248.654 127.431 248.334 127.367C247.822 127.239 247.31 127.175 246.862 127.047C246.478 126.919 245.838 126.855 245.518 126.599C245.518 126.599 246.03 126.791 245.582 126.599C245.454 126.599 245.39 126.471 245.262 126.471C245.006 126.343 244.814 126.215 244.558 126.087C244.174 125.831 243.726 125.639 243.406 125.319C243.214 125.191 242.894 124.935 243.278 125.255C243.086 125.063 242.83 124.871 242.638 124.679C242.318 124.359 241.997 124.039 241.677 123.719C241.549 123.527 241.357 123.399 241.229 123.207C241.421 123.527 241.165 123.079 241.101 123.015C240.845 122.631 240.589 122.246 240.333 121.862C240.205 121.67 240.141 121.478 240.013 121.222C240.013 121.094 239.885 121.03 239.885 120.902C239.885 120.902 239.693 120.39 239.821 120.71C239.949 121.03 239.821 120.71 239.821 120.582C239.821 120.454 239.757 120.39 239.693 120.262C239.629 120.006 239.565 119.814 239.501 119.558C239.373 119.046 239.245 118.598 239.181 118.086C239.117 117.638 239.181 118.086 239.181 118.214C239.181 118.086 239.181 117.958 239.181 117.83C239.181 117.574 239.181 117.318 239.181 117.062C239.181 116.55 239.181 116.038 239.181 115.462C239.181 115.462 239.309 114.886 239.181 114.822C239.245 114.886 239.117 115.27 239.181 114.95C239.181 114.822 239.181 114.694 239.245 114.566C239.373 114.054 239.501 113.542 239.629 113.03C239.693 112.774 239.757 112.582 239.885 112.39C240.013 112.006 239.693 112.774 239.949 112.262C240.141 111.814 240.397 111.366 240.653 110.918C240.781 110.662 240.973 110.406 241.101 110.214C241.229 110.022 241.549 109.574 241.229 110.022C241.549 109.574 241.933 109.19 242.318 108.806C242.51 108.614 242.702 108.422 242.894 108.294C242.958 108.23 243.086 108.166 243.15 108.038C243.15 108.038 243.598 107.654 243.342 107.91C243.086 108.102 243.342 107.91 243.47 107.846C243.598 107.782 243.726 107.654 243.854 107.59C244.11 107.398 244.366 107.27 244.622 107.142C245.07 106.886 245.518 106.63 246.03 106.438C245.454 106.63 246.158 106.438 246.35 106.31C246.606 106.246 246.862 106.118 247.118 106.054C247.374 105.99 247.694 105.926 248.014 105.862C248.142 105.862 248.27 105.862 248.398 105.798C248.462 105.798 248.974 105.67 248.59 105.798C248.782 105.798 248.974 105.798 249.166 105.798C249.486 105.798 249.806 105.798 250.126 105.798L247.694 103.366C247.694 107.27 247.694 111.11 247.694 115.014V116.678C247.694 117.958 248.782 119.11 250.062 119.11H263.374C264.655 119.11 265.807 118.022 265.807 116.678C265.807 115.334 264.783 114.246 263.374 114.246H250.062L252.494 116.678C252.494 112.774 252.494 108.934 252.494 105.03V103.366C252.494 102.086 251.406 100.933 250.126 100.933C245.134 100.933 240.525 103.366 237.453 107.334C234.381 111.302 233.677 116.294 234.957 120.902C236.237 125.511 239.821 129.479 244.366 131.271C248.91 133.063 254.03 132.615 258.126 130.183C262.862 127.367 265.807 122.183 265.807 116.678C265.807 115.398 264.719 114.246 263.374 114.246C262.03 114.246 261.006 115.27 260.942 116.678L260.622 116.486Z" fill="#2F9685"/>
<path d="M496.604 106.182C493.339 110.214 490.075 114.246 486.747 118.278L485.339 120.006H492.123C489.627 118.086 487.195 116.166 484.699 114.246C483.675 113.414 482.715 112.838 481.307 112.838C480.155 112.838 478.747 113.35 477.915 114.246C476.315 115.974 475.803 119.366 477.915 121.03C480.411 122.95 482.843 124.87 485.339 126.791C486.363 127.559 487.387 128.263 488.731 128.199C489.947 128.199 491.355 127.751 492.123 126.791C495.388 122.758 498.652 118.726 501.98 114.694L503.388 112.966C504.22 111.942 504.796 110.918 504.796 109.574C504.796 108.422 504.284 107.014 503.388 106.182C501.66 104.582 498.268 104.069 496.604 106.182Z" fill="#3A251D"/>
<path d="M732.643 130.118C733.88 130.118 734.883 127.109 734.883 123.398C734.883 119.686 733.88 116.677 732.643 116.677C731.406 116.677 730.403 119.686 730.403 123.398C730.403 127.109 731.406 130.118 732.643 130.118Z" fill="#F37FA2" stroke="#F37FA2" stroke-width="0.75" stroke-miterlimit="10"/>
<path d="M732.643 116.293C733.88 116.293 734.883 113.285 734.883 109.573C734.883 105.862 733.88 102.853 732.643 102.853C731.406 102.853 730.403 105.862 730.403 109.573C730.403 113.285 731.406 116.293 732.643 116.293Z" fill="#F37FA2" stroke="#F37FA2" stroke-width="0.75" stroke-miterlimit="10"/>
<path d="M732.476 116.266C733.095 115.195 730.991 112.822 727.776 110.966C724.562 109.11 721.455 108.474 720.836 109.546C720.218 110.617 722.322 112.99 725.536 114.846C728.751 116.702 731.858 117.338 732.476 116.266Z" fill="#F37FA2" stroke="#F37FA2" stroke-width="0.75" stroke-miterlimit="10"/>
<path d="M744.393 123.15C745.011 122.078 742.907 119.705 739.693 117.849C736.479 115.994 733.371 115.358 732.753 116.429C732.134 117.501 734.238 119.874 737.453 121.729C740.667 123.585 743.774 124.221 744.393 123.15Z" fill="#F37FA2" stroke="#F37FA2" stroke-width="0.75" stroke-miterlimit="10"/>
<path d="M739.708 114.84C742.923 112.984 745.027 110.611 744.408 109.54C743.79 108.468 740.683 109.104 737.468 110.96C734.254 112.816 732.15 115.189 732.768 116.26C733.387 117.331 736.494 116.696 739.708 114.84Z" fill="#F37FA2" stroke="#F37FA2" stroke-width="0.75" stroke-miterlimit="10"/>
<path d="M727.764 121.667C730.978 119.811 733.083 117.438 732.464 116.367C731.845 115.295 728.738 115.931 725.524 117.787C722.31 119.643 720.206 122.016 720.824 123.087C721.443 124.159 724.55 123.523 727.764 121.667Z" fill="#F37FA2" stroke="#F37FA2" stroke-width="0.75" stroke-miterlimit="10"/>
</svg>
