<svg width="1586" height="151" viewBox="0 0 1586 151" fill="none" xmlns="http://www.w3.org/2000/svg">
<path d="M52.5897 9.27999C38.4111 18.3713 27.7654 32.5498 24.2796 49.225C22.3483 58.3633 22.8193 67.7843 22.8193 77.064C22.8193 95.9531 28.0951 124.876 4.87233 132.459C-12.0854 138.018 -29.0432 125.111 -29.4672 107.635C-29.7027 98.5439 -43.8342 98.5439 -43.5987 107.635C-43.1747 125.158 -32.1993 140.75 -15.2415 146.12C1.71632 151.49 20.2285 144.565 30.1206 130.104C36.9037 120.212 36.9508 109.19 36.9508 97.8373C36.9508 86.485 36.9508 75.8864 36.9508 64.958C36.9508 47.1995 44.5347 31.3251 59.7025 21.5744C67.3335 16.6755 60.2678 4.42817 52.5897 9.37419V9.27999Z" fill="#75BDC9"/>
<path d="M147.882 62.5555C147.787 46.0688 141.24 30.0531 129.558 18.3239C117.876 6.59481 101.86 0.141432 85.3263 0.000117501C76.235 -0.0469875 76.235 14.0845 85.3263 14.1316C98.1859 14.2258 110.433 19.1718 119.572 28.3102C128.71 37.4486 133.656 49.6487 133.75 62.5555C133.797 71.6467 147.929 71.6467 147.882 62.5555Z" fill="#75BDC9"/>
<path d="M229.844 9.27999C215.665 18.3713 205.019 32.5498 201.533 49.225C199.602 58.3633 200.073 67.7843 200.073 77.064C200.073 95.9531 205.349 124.876 182.126 132.459C165.168 138.018 148.211 125.111 147.787 107.635C147.551 98.5439 133.42 98.5439 133.655 107.635C134.079 125.158 145.055 140.75 162.012 146.12C178.97 151.49 197.482 144.565 207.375 130.104C214.158 120.212 214.205 109.19 214.205 97.8373C214.205 86.485 214.205 75.8864 214.205 64.958C214.205 47.1995 221.789 31.3251 236.956 21.5744C244.587 16.6755 237.522 4.42817 229.844 9.37419V9.27999Z" fill="#75BDC9"/>
<path d="M325.182 62.5555C325.088 46.0688 318.541 30.0531 306.859 18.3239C295.177 6.59481 279.161 0.141432 262.627 0.000117501C253.536 -0.0469875 253.536 14.0845 262.627 14.1316C275.487 14.2258 287.734 19.1718 296.872 28.3102C306.011 37.4486 310.957 49.6487 311.051 62.5555C311.098 71.6467 325.23 71.6467 325.182 62.5555Z" fill="#75BDC9"/>
<path d="M144.491 78.147C142.089 81.1146 139.686 84.0823 137.237 87.0499L136.201 88.3217H141.194C139.357 86.9086 137.567 85.4954 135.73 84.0823C134.976 83.4699 134.269 83.046 133.233 83.046C132.385 83.046 131.349 83.4228 130.736 84.0823C129.559 85.3541 129.182 87.8507 130.736 89.0754C132.573 90.4886 134.363 91.9017 136.201 93.3148C136.954 93.8801 137.708 94.3983 138.697 94.3512C139.592 94.3512 140.628 94.0214 141.194 93.3148C143.596 90.3472 145.998 87.3796 148.448 84.412L149.484 83.1402C150.097 82.3865 150.52 81.6328 150.52 80.6436C150.52 79.7957 150.144 78.7594 149.484 78.147C148.212 76.9694 145.716 76.5926 144.491 78.147Z" fill="#3A251D"/>
<path d="M318.211 95.7641C319.122 95.7641 319.86 93.5497 319.86 90.8181C319.86 88.0865 319.122 85.8721 318.211 85.8721C317.301 85.8721 316.562 88.0865 316.562 90.8181C316.562 93.5497 317.301 95.7641 318.211 95.7641Z" fill="#F37FA2" stroke="#F37FA2" stroke-width="0.75" stroke-miterlimit="10"/>
<path d="M318.211 85.5898C319.122 85.5898 319.86 83.3754 319.86 80.6438C319.86 77.9122 319.122 75.6978 318.211 75.6978C317.301 75.6978 316.562 77.9122 316.562 80.6438C316.562 83.3754 317.301 85.5898 318.211 85.5898Z" fill="#F37FA2" stroke="#F37FA2" stroke-width="0.75" stroke-miterlimit="10"/>
<path d="M318.09 85.5695C318.546 84.7809 316.997 83.0345 314.631 81.6687C312.266 80.3028 309.979 79.8349 309.524 80.6235C309.068 81.412 310.617 83.1585 312.983 84.5243C315.348 85.8901 317.635 86.358 318.09 85.5695Z" fill="#F37FA2" stroke="#F37FA2" stroke-width="0.75" stroke-miterlimit="10"/>
<path d="M326.86 90.6354C327.315 89.8469 325.766 88.1004 323.401 86.7346C321.035 85.3688 318.748 84.9009 318.293 85.6894C317.838 86.478 319.386 88.2244 321.752 89.5902C324.118 90.956 326.405 91.424 326.86 90.6354Z" fill="#F37FA2" stroke="#F37FA2" stroke-width="0.75" stroke-miterlimit="10"/>
<path d="M323.412 84.5198C325.778 83.154 327.327 81.4075 326.872 80.619C326.416 79.8304 324.129 80.2984 321.764 81.6642C319.398 83.03 317.85 84.7764 318.305 85.565C318.76 86.3535 321.047 85.8856 323.412 84.5198Z" fill="#F37FA2" stroke="#F37FA2" stroke-width="0.75" stroke-miterlimit="10"/>
<path d="M314.623 89.5447C316.989 88.1789 318.538 86.4324 318.082 85.6439C317.627 84.8553 315.34 85.3233 312.975 86.6891C310.609 88.0549 309.06 89.8013 309.516 90.5899C309.971 91.3784 312.258 90.9105 314.623 89.5447Z" fill="#F37FA2" stroke="#F37FA2" stroke-width="0.75" stroke-miterlimit="10"/>
<path d="M1122.12 11.365C1107.95 20.4562 1097.3 34.6348 1093.81 51.3099C1091.88 60.4483 1092.35 69.8693 1092.35 79.149C1092.35 98.0381 1097.63 126.961 1074.41 134.544C1057.45 140.103 1040.49 127.196 1040.07 109.72C1039.83 100.629 1025.7 100.629 1025.94 109.72C1026.36 127.243 1037.34 142.835 1054.29 148.205C1071.25 153.575 1089.76 146.65 1099.66 132.189C1106.44 122.297 1106.49 111.275 1106.49 99.9222C1106.49 88.57 1106.49 77.9714 1106.49 67.043C1106.49 49.2844 1114.07 33.4101 1129.24 23.6594C1136.87 18.7604 1129.8 6.51313 1122.12 11.4591V11.365Z" fill="#75BDC9"/>
<path d="M1217.42 64.64C1217.33 48.1532 1210.78 32.1375 1199.1 20.4084C1187.41 8.67928 1171.4 2.22591 1154.87 2.08459C1145.77 2.03749 1145.77 16.169 1154.87 16.2161C1167.72 16.3103 1179.97 21.2563 1189.11 30.3947C1198.25 39.533 1203.19 51.7332 1203.29 64.64C1203.34 73.7312 1217.47 73.7312 1217.42 64.64Z" fill="#75BDC9"/>
<path d="M944.73 11.365C930.552 20.4562 919.906 34.6348 916.42 51.3099C914.489 60.4483 914.96 69.8693 914.96 79.149C914.96 98.0381 920.236 126.961 897.013 134.544C880.055 140.103 863.097 127.196 862.673 109.72C862.438 100.629 848.306 100.629 848.542 109.72C848.966 127.243 859.941 142.835 876.899 148.205C893.857 153.575 912.369 146.65 922.261 132.189C929.044 122.297 929.091 111.275 929.091 99.9222C929.091 88.57 929.091 77.9714 929.091 67.043C929.091 49.2844 936.675 33.4101 951.843 23.6594C959.474 18.7604 952.408 6.51313 944.73 11.4591V11.365Z" fill="#75BDC9"/>
<path d="M1040.07 64.64C1039.97 48.1532 1033.43 32.1375 1021.75 20.4084C1010.06 8.67928 994.048 2.22591 977.514 2.08459C968.422 2.03749 968.422 16.169 977.514 16.2161C990.373 16.3103 1002.62 21.2563 1011.76 30.3947C1020.9 39.533 1025.84 51.7332 1025.94 64.64C1025.98 73.7312 1040.12 73.7312 1040.07 64.64Z" fill="#75BDC9"/>
<path d="M1299.38 11.365C1285.2 20.4562 1274.56 34.6348 1271.07 51.3099C1269.14 60.4483 1269.61 69.8693 1269.61 79.149C1269.61 98.0381 1274.89 126.961 1251.67 134.544C1234.71 140.103 1217.75 127.196 1217.33 109.72C1217.09 100.629 1202.96 100.629 1203.19 109.72C1203.62 127.243 1214.59 142.835 1231.55 148.205C1248.51 153.575 1267.02 146.65 1276.91 132.189C1283.7 122.297 1283.74 111.275 1283.74 99.9222C1283.74 88.57 1283.74 77.9714 1283.74 67.043C1283.74 49.2844 1291.33 33.4101 1306.5 23.6594C1314.13 18.7604 1307.06 6.51313 1299.38 11.4591V11.365Z" fill="#75BDC9"/>
<path d="M1394.72 64.64C1394.63 48.1532 1388.08 32.1375 1376.4 20.4084C1364.72 8.67928 1348.7 2.22591 1332.17 2.08459C1323.07 2.03749 1323.07 16.169 1332.17 16.2161C1345.03 16.3103 1357.27 21.2563 1366.41 30.3947C1375.55 39.533 1380.5 51.7332 1380.59 64.64C1380.64 73.7312 1394.77 73.7312 1394.72 64.64Z" fill="#75BDC9"/>
<path d="M1042.14 87.8154C1042.14 93.2325 1037.76 97.6132 1032.34 97.6132C1026.92 97.6132 1022.54 93.2325 1022.54 87.8154C1022.54 82.3983 1026.92 78.0176 1032.34 78.0176V87.8154H1042.14Z" fill="#2F9685"/>
<path d="M1040.35 87.8156C1040.35 88.1925 1040.35 88.5222 1040.3 88.8991C1040.3 89.0404 1040.3 89.1817 1040.3 88.852C1040.3 88.9462 1040.3 89.0404 1040.3 89.1346C1040.3 89.323 1040.21 89.5114 1040.16 89.6999C1040.06 90.0296 1039.97 90.3593 1039.88 90.6891C1039.83 90.8775 1039.74 91.1601 1039.88 90.8304C1039.83 91.0188 1039.69 91.2072 1039.59 91.3956C1039.45 91.6783 1039.26 92.008 1039.08 92.2906C1038.98 92.432 1038.89 92.5733 1038.79 92.7146C1038.93 92.5261 1038.75 92.8088 1038.7 92.8559C1038.46 93.1385 1038.23 93.374 1037.99 93.6096C1037.85 93.7509 1037.76 93.8451 1037.62 93.9393C1037.57 93.9864 1037.47 94.0335 1037.43 94.1277C1037.43 94.1277 1037.1 94.4103 1037.29 94.2219C1037.47 94.0806 1037.05 94.4103 1037 94.4103C1036.86 94.5046 1036.72 94.5988 1036.58 94.693C1036.25 94.8814 1035.97 95.0698 1035.59 95.2111C1035.5 95.2111 1035.45 95.3054 1035.35 95.3054C1035.4 95.3054 1035.73 95.164 1035.4 95.3054C1035.26 95.3525 1035.07 95.4467 1034.93 95.4938C1034.55 95.588 1034.22 95.6822 1033.85 95.7764C1033.8 95.7764 1033.23 95.8706 1033.47 95.8235C1033.71 95.8235 1033.28 95.8235 1033.19 95.8235C1032.76 95.8235 1032.39 95.8235 1031.96 95.8235C1031.77 95.8235 1031.59 95.8235 1031.4 95.8235C1031.35 95.8235 1031.26 95.8235 1031.21 95.8235C1030.97 95.8235 1031.54 95.8706 1031.3 95.8235C1030.93 95.7293 1030.55 95.6822 1030.22 95.588C1029.94 95.4938 1029.47 95.4467 1029.23 95.2582C1029.23 95.2582 1029.61 95.3996 1029.28 95.2582C1029.18 95.2582 1029.14 95.164 1029.04 95.164C1028.85 95.0698 1028.71 94.9756 1028.52 94.8814C1028.24 94.693 1027.91 94.5517 1027.68 94.3162C1027.54 94.2219 1027.3 94.0335 1027.58 94.269C1027.44 94.1277 1027.25 93.9864 1027.11 93.8451C1026.88 93.6096 1026.64 93.3741 1026.4 93.1385C1026.31 92.9972 1026.17 92.903 1026.07 92.7617C1026.22 92.9972 1026.03 92.6675 1025.98 92.6204C1025.79 92.3377 1025.6 92.0551 1025.42 91.7725C1025.32 91.6312 1025.27 91.4899 1025.18 91.3014C1025.18 91.2072 1025.09 91.1601 1025.09 91.0659C1025.09 91.0659 1024.94 90.6891 1025.04 90.9246C1025.13 91.1601 1025.04 90.9246 1025.04 90.8304C1025.04 90.7362 1024.99 90.6891 1024.94 90.5949C1024.9 90.4064 1024.85 90.2651 1024.8 90.0767C1024.71 89.6999 1024.61 89.3701 1024.57 88.9933C1024.52 88.6635 1024.57 88.9933 1024.57 89.0875C1024.57 88.9933 1024.57 88.8991 1024.57 88.8049C1024.57 88.6165 1024.57 88.428 1024.57 88.2396C1024.57 87.8628 1024.57 87.4859 1024.57 87.062C1024.57 87.062 1024.66 86.638 1024.57 86.5909C1024.61 86.638 1024.52 86.9207 1024.57 86.6851C1024.57 86.5909 1024.57 86.4967 1024.61 86.4025C1024.71 86.0257 1024.8 85.6488 1024.9 85.272C1024.94 85.0836 1024.99 84.9422 1025.09 84.8009C1025.18 84.5183 1024.94 85.0836 1025.13 84.7067C1025.27 84.377 1025.46 84.0473 1025.65 83.7175C1025.75 83.5291 1025.89 83.3407 1025.98 83.1994C1026.07 83.0581 1026.31 82.7283 1026.07 83.0581C1026.31 82.7283 1026.59 82.4457 1026.88 82.1631C1027.02 82.0218 1027.16 81.8804 1027.3 81.7862C1027.35 81.7391 1027.44 81.692 1027.49 81.5978C1027.49 81.5978 1027.82 81.3152 1027.63 81.5036C1027.44 81.6449 1027.63 81.5036 1027.72 81.4565C1027.82 81.4094 1027.91 81.3152 1028.01 81.2681C1028.19 81.1267 1028.38 81.0325 1028.57 80.9383C1028.9 80.7499 1029.23 80.5615 1029.61 80.4202C1029.18 80.5615 1029.7 80.4202 1029.84 80.326C1030.03 80.2789 1030.22 80.1847 1030.41 80.1376C1030.6 80.0904 1030.83 80.0433 1031.07 79.9962C1031.16 79.9962 1031.26 79.9962 1031.35 79.9491C1031.4 79.9491 1031.77 79.8549 1031.49 79.9491C1031.63 79.9491 1031.77 79.9491 1031.92 79.9491C1032.15 79.9491 1032.39 79.9491 1032.62 79.9491L1030.83 78.1592C1030.83 81.0326 1030.83 83.8589 1030.83 86.7323V87.957C1030.83 88.8991 1031.63 89.747 1032.58 89.747H1042.37C1043.32 89.747 1044.16 88.9462 1044.16 87.957C1044.16 86.9678 1043.41 86.167 1042.37 86.167H1032.58L1034.37 87.957C1034.37 85.0836 1034.37 82.2573 1034.37 79.3839V78.1592C1034.37 77.2171 1033.56 76.3691 1032.62 76.3691C1028.95 76.3691 1025.56 78.1591 1023.3 81.0796C1021.03 84.0001 1020.52 87.6743 1021.46 91.0659C1022.4 94.4575 1025.04 97.378 1028.38 98.6969C1031.73 100.016 1035.5 99.6861 1038.51 97.8961C1042 95.8235 1044.16 92.008 1044.16 87.957C1044.16 87.0149 1043.36 86.167 1042.37 86.167C1041.38 86.167 1040.63 86.9207 1040.58 87.957L1040.35 87.8156Z" fill="#2F9685"/>
<path d="M1214.03 80.232C1211.62 83.1996 1209.22 86.1673 1206.77 89.1349L1205.74 90.4067H1210.73C1208.89 88.9935 1207.1 87.5804 1205.26 86.1672C1204.51 85.5549 1203.8 85.1309 1202.77 85.1309C1201.92 85.1309 1200.88 85.5078 1200.27 86.1672C1199.09 87.4391 1198.72 89.9357 1200.27 91.1604C1202.11 92.5735 1203.9 93.9867 1205.74 95.3998C1206.49 95.9651 1207.24 96.4832 1208.23 96.4361C1209.13 96.4361 1210.16 96.1064 1210.73 95.3998C1213.13 92.4322 1215.53 89.4646 1217.98 86.497L1219.02 85.2251C1219.63 84.4715 1220.06 83.7178 1220.06 82.7286C1220.06 81.8807 1219.68 80.8444 1219.02 80.232C1217.75 79.0544 1215.25 78.6775 1214.03 80.232Z" fill="#3A251D"/>
<path d="M1387.75 97.8491C1388.66 97.8491 1389.4 95.6346 1389.4 92.903C1389.4 90.1714 1388.66 87.957 1387.75 87.957C1386.84 87.957 1386.1 90.1714 1386.1 92.903C1386.1 95.6346 1386.84 97.8491 1387.75 97.8491Z" fill="#F37FA2" stroke="#F37FA2" stroke-width="0.75" stroke-miterlimit="10"/>
<path d="M1387.75 87.6747C1388.66 87.6747 1389.4 85.4604 1389.4 82.7287C1389.4 79.9971 1388.66 77.7827 1387.75 77.7827C1386.84 77.7827 1386.1 79.9971 1386.1 82.7287C1386.1 85.4604 1386.84 87.6747 1387.75 87.6747Z" fill="#F37FA2" stroke="#F37FA2" stroke-width="0.75" stroke-miterlimit="10"/>
<path d="M1387.63 87.6544C1388.08 86.8659 1386.53 85.1194 1384.17 83.7536C1381.8 82.3878 1379.51 81.9199 1379.06 82.7084C1378.6 83.497 1380.15 85.2434 1382.52 86.6092C1384.88 87.9751 1387.17 88.443 1387.63 87.6544Z" fill="#F37FA2" stroke="#F37FA2" stroke-width="0.75" stroke-miterlimit="10"/>
<path d="M1396.4 92.7204C1396.85 91.9319 1395.31 90.1854 1392.94 88.8196C1390.57 87.4538 1388.29 86.9858 1387.83 87.7744C1387.38 88.5629 1388.93 90.3093 1391.29 91.6751C1393.66 93.041 1395.94 93.509 1396.4 92.7204Z" fill="#F37FA2" stroke="#F37FA2" stroke-width="0.75" stroke-miterlimit="10"/>
<path d="M1392.95 86.6048C1395.31 85.239 1396.86 83.4925 1396.41 82.704C1395.95 81.9154 1393.66 82.3834 1391.3 83.7492C1388.93 85.115 1387.38 86.8614 1387.84 87.65C1388.3 88.4385 1390.58 87.9706 1392.95 86.6048Z" fill="#F37FA2" stroke="#F37FA2" stroke-width="0.75" stroke-miterlimit="10"/>
<path d="M1384.16 91.6292C1386.52 90.2634 1388.07 88.5169 1387.62 87.7284C1387.16 86.9398 1384.88 87.4078 1382.51 88.7736C1380.14 90.1394 1378.6 91.8858 1379.05 92.6744C1379.51 93.4629 1381.79 92.995 1384.16 91.6292Z" fill="#F37FA2" stroke="#F37FA2" stroke-width="0.75" stroke-miterlimit="10"/>
<path d="M587.355 9.27999C573.177 18.3713 562.531 32.5498 559.045 49.225C557.114 58.3633 557.585 67.7843 557.585 77.064C557.585 95.9531 562.861 124.876 539.638 132.459C522.68 138.018 505.722 125.111 505.298 107.635C505.063 98.5439 490.931 98.5439 491.167 107.635C491.591 125.158 502.566 140.75 519.524 146.12C536.482 151.49 554.994 144.565 564.886 130.104C571.669 120.212 571.716 109.19 571.716 97.8373C571.716 86.485 571.716 75.8864 571.716 64.958C571.716 47.1995 579.3 31.3251 594.468 21.5744C602.099 16.6755 595.033 4.42817 587.355 9.37419V9.27999Z" fill="#75BDC9"/>
<path d="M682.651 62.5555C682.557 46.0688 676.009 30.0531 664.327 18.3239C652.645 6.59481 636.63 0.141432 620.096 0.000117501C611.005 -0.0469875 611.005 14.0845 620.096 14.1316C632.955 14.2258 645.203 19.1718 654.341 28.3102C663.479 37.4486 668.425 49.6487 668.52 62.5555C668.567 71.6467 682.698 71.6467 682.651 62.5555Z" fill="#75BDC9"/>
<path d="M409.957 9.27999C395.778 18.3713 385.133 32.5498 381.647 49.225C379.715 58.3633 380.187 67.7843 380.187 77.064C380.187 95.9531 385.462 124.876 362.24 132.459C345.282 138.018 328.324 125.111 327.9 107.635C327.664 98.5439 313.533 98.5439 313.769 107.635C314.192 125.158 325.168 140.75 342.126 146.12C359.083 151.49 377.596 144.565 387.488 130.104C394.271 120.212 394.318 109.19 394.318 97.8373C394.318 86.485 394.318 75.8864 394.318 64.958C394.318 47.1995 401.902 31.3251 417.07 21.5744C424.701 16.6755 417.635 4.42817 409.957 9.37419V9.27999Z" fill="#75BDC9"/>
<path d="M505.3 62.5555C505.205 46.0688 498.658 30.0531 486.976 18.3239C475.294 6.59481 459.278 0.141432 442.744 0.000117501C433.653 -0.0469875 433.653 14.0845 442.744 14.1316C455.604 14.2258 467.851 19.1718 476.99 28.3102C486.128 37.4486 491.074 49.6487 491.168 62.5555C491.215 71.6467 505.347 71.6467 505.3 62.5555Z" fill="#75BDC9"/>
<path d="M764.613 9.27999C750.435 18.3713 739.789 32.5498 736.303 49.225C734.372 58.3633 734.843 67.7843 734.843 77.064C734.843 95.9531 740.119 124.876 716.896 132.459C699.938 138.018 682.98 125.111 682.556 107.635C682.321 98.5439 668.189 98.5439 668.425 107.635C668.849 125.158 679.824 140.75 696.782 146.12C713.74 151.49 732.252 144.565 742.144 130.104C748.927 120.212 748.974 109.19 748.974 97.8373C748.974 86.485 748.974 75.8864 748.974 64.958C748.974 47.1995 756.558 31.3251 771.726 21.5744C779.357 16.6755 772.291 4.42817 764.613 9.37419V9.27999Z" fill="#75BDC9"/>
<path d="M859.956 62.5555C859.862 46.0688 853.314 30.0531 841.632 18.3239C829.95 6.59481 813.934 0.141432 797.4 0.000117501C788.309 -0.0469875 788.309 14.0845 797.4 14.1316C810.26 14.2258 822.507 19.1718 831.646 28.3102C840.784 37.4486 845.73 49.6487 845.824 62.5555C845.871 71.6467 860.003 71.6467 859.956 62.5555Z" fill="#75BDC9"/>
<path d="M507.373 85.7309C507.373 91.148 502.992 95.5287 497.575 95.5287C492.158 95.5287 487.777 91.148 487.777 85.7309C487.777 80.3138 492.158 75.9331 497.575 75.9331V85.7309H507.373Z" fill="#2F9685"/>
<path d="M505.582 85.7312C505.582 86.108 505.582 86.4378 505.535 86.8146C505.535 86.9559 505.535 87.0972 505.535 86.7675C505.535 86.8617 505.535 86.9559 505.535 87.0501C505.535 87.2386 505.441 87.427 505.394 87.6154C505.299 87.9451 505.205 88.2748 505.111 88.6046C505.064 88.793 504.97 89.0756 505.111 88.7459C505.064 88.9343 504.922 89.1227 504.828 89.3112C504.687 89.5938 504.499 89.9235 504.31 90.2062C504.216 90.3475 504.122 90.4888 504.028 90.6301C504.169 90.4417 503.98 90.7243 503.933 90.7714C503.698 91.054 503.462 91.2896 503.227 91.5251C503.085 91.6664 502.991 91.7606 502.85 91.8548C502.803 91.9019 502.709 91.949 502.661 92.0433C502.661 92.0433 502.332 92.3259 502.52 92.1374C502.709 91.9961 502.285 92.3259 502.238 92.3259C502.096 92.4201 501.955 92.5143 501.814 92.6085C501.484 92.7969 501.201 92.9853 500.824 93.1266C500.73 93.1266 500.683 93.2209 500.589 93.2209C500.636 93.2209 500.966 93.0796 500.636 93.2209C500.495 93.268 500.306 93.3622 500.165 93.4093C499.788 93.5035 499.458 93.5977 499.081 93.6919C499.034 93.6919 498.469 93.7861 498.705 93.739C498.94 93.739 498.516 93.739 498.422 93.739C497.998 93.739 497.621 93.739 497.197 93.739C497.009 93.739 496.82 93.739 496.632 93.739C496.585 93.739 496.491 93.739 496.444 93.739C496.208 93.739 496.773 93.7861 496.538 93.739C496.161 93.6448 495.784 93.5977 495.454 93.5035C495.172 93.4093 494.701 93.3622 494.465 93.1738C494.465 93.1738 494.842 93.3151 494.512 93.1738C494.418 93.1738 494.371 93.0796 494.277 93.0796C494.088 92.9854 493.947 92.8911 493.759 92.7969C493.476 92.6085 493.146 92.4672 492.911 92.2317C492.769 92.1375 492.534 91.949 492.817 92.1846C492.675 92.0433 492.487 91.902 492.345 91.7606C492.11 91.5251 491.874 91.2896 491.639 91.0541C491.545 90.9127 491.403 90.8185 491.309 90.6772C491.45 90.9127 491.262 90.583 491.215 90.5359C491.027 90.2533 490.838 89.9706 490.65 89.688C490.555 89.5467 490.508 89.4054 490.414 89.217C490.414 89.1228 490.32 89.0756 490.32 88.9814C490.32 88.9814 490.179 88.6046 490.273 88.8401C490.367 89.0756 490.273 88.8401 490.273 88.7459C490.273 88.6517 490.226 88.6046 490.179 88.5104C490.132 88.322 490.084 88.1806 490.037 87.9922C489.943 87.6154 489.849 87.2856 489.802 86.9088C489.755 86.5791 489.802 86.9088 489.802 87.003C489.802 86.9088 489.802 86.8146 489.802 86.7204C489.802 86.532 489.802 86.3436 489.802 86.1551C489.802 85.7783 489.802 85.4015 489.802 84.9775C489.802 84.9775 489.896 84.5536 489.802 84.5065C489.849 84.5536 489.755 84.8362 489.802 84.6007C489.802 84.5065 489.802 84.4123 489.849 84.318C489.943 83.9412 490.037 83.5644 490.132 83.1875C490.179 82.9991 490.226 82.8578 490.32 82.7165C490.414 82.4338 490.179 82.9991 490.367 82.6223C490.508 82.2925 490.697 81.9628 490.885 81.6331C490.979 81.4446 491.121 81.2562 491.215 81.1149C491.309 80.9736 491.545 80.6439 491.309 80.9736C491.545 80.6439 491.827 80.3612 492.11 80.0786C492.251 79.9373 492.393 79.796 492.534 79.7017C492.581 79.6546 492.675 79.6075 492.722 79.5133C492.722 79.5133 493.052 79.2307 492.864 79.4191C492.675 79.5604 492.864 79.4191 492.958 79.372C493.052 79.3249 493.146 79.2307 493.24 79.1836C493.429 79.0423 493.617 78.9481 493.806 78.8539C494.135 78.6654 494.465 78.477 494.842 78.3357C494.418 78.477 494.936 78.3357 495.078 78.2415C495.266 78.1944 495.454 78.1002 495.643 78.0531C495.831 78.006 496.067 77.9589 496.302 77.9118C496.397 77.9118 496.491 77.9118 496.585 77.8647C496.632 77.8647 497.009 77.7704 496.726 77.8647C496.868 77.8647 497.009 77.8647 497.15 77.8647C497.386 77.8647 497.621 77.8647 497.857 77.8647L496.067 76.0747C496.067 78.9481 496.067 81.7744 496.067 84.6478V85.8725C496.067 86.8146 496.868 87.6625 497.81 87.6625H507.607C508.55 87.6625 509.397 86.8617 509.397 85.8725C509.397 84.8833 508.644 84.0825 507.607 84.0825H497.81L499.6 85.8725C499.6 82.9991 499.6 80.1728 499.6 77.2994V76.0747C499.6 75.1326 498.799 74.2847 497.857 74.2847C494.183 74.2847 490.791 76.0747 488.53 78.9952C486.269 81.9157 485.751 85.5899 486.693 88.9814C487.635 92.373 490.273 95.2935 493.617 96.6124C496.962 97.9314 500.73 97.6016 503.745 95.8116C507.231 93.739 509.397 89.9235 509.397 85.8725C509.397 84.9304 508.597 84.0825 507.607 84.0825C506.618 84.0825 505.865 84.8362 505.817 85.8725L505.582 85.7312Z" fill="#2F9685"/>
<path d="M679.257 78.147C676.854 81.1146 674.452 84.0823 672.002 87.0499L670.966 88.3217H675.959C674.122 86.9086 672.332 85.4954 670.495 84.0823C669.741 83.4699 669.035 83.046 667.999 83.046C667.151 83.046 666.114 83.4228 665.502 84.0823C664.324 85.3541 663.948 87.8507 665.502 89.0754C667.339 90.4886 669.129 91.9017 670.966 93.3148C671.72 93.8801 672.474 94.3983 673.463 94.3512C674.358 94.3512 675.394 94.0214 675.959 93.3148C678.362 90.3472 680.764 87.3796 683.213 84.412L684.25 83.1402C684.862 82.3865 685.286 81.6328 685.286 80.6436C685.286 79.7957 684.909 78.7594 684.25 78.147C682.978 76.9694 680.481 76.5926 679.257 78.147Z" fill="#3A251D"/>
<path d="M852.981 95.7641C853.891 95.7641 854.629 93.5497 854.629 90.8181C854.629 88.0865 853.891 85.8721 852.981 85.8721C852.07 85.8721 851.332 88.0865 851.332 90.8181C851.332 93.5497 852.07 95.7641 852.981 95.7641Z" fill="#F37FA2" stroke="#F37FA2" stroke-width="0.75" stroke-miterlimit="10"/>
<path d="M852.981 85.5898C853.891 85.5898 854.629 83.3754 854.629 80.6438C854.629 77.9122 853.891 75.6978 852.981 75.6978C852.07 75.6978 851.332 77.9122 851.332 80.6438C851.332 83.3754 852.07 85.5898 852.981 85.5898Z" fill="#F37FA2" stroke="#F37FA2" stroke-width="0.75" stroke-miterlimit="10"/>
<path d="M852.856 85.5695C853.311 84.7809 851.763 83.0345 849.397 81.6687C847.031 80.3028 844.744 79.8349 844.289 80.6235C843.834 81.412 845.383 83.1585 847.748 84.5243C850.114 85.8901 852.401 86.358 852.856 85.5695Z" fill="#F37FA2" stroke="#F37FA2" stroke-width="0.75" stroke-miterlimit="10"/>
<path d="M861.629 90.6354C862.085 89.8469 860.536 88.1004 858.17 86.7346C855.805 85.3688 853.518 84.9009 853.063 85.6894C852.607 86.478 854.156 88.2244 856.522 89.5902C858.887 90.956 861.174 91.424 861.629 90.6354Z" fill="#F37FA2" stroke="#F37FA2" stroke-width="0.75" stroke-miterlimit="10"/>
<path d="M858.178 84.5198C860.544 83.154 862.092 81.4075 861.637 80.619C861.182 79.8304 858.895 80.2984 856.529 81.6642C854.164 83.03 852.615 84.7764 853.07 85.565C853.526 86.3535 855.812 85.8856 858.178 84.5198Z" fill="#F37FA2" stroke="#F37FA2" stroke-width="0.75" stroke-miterlimit="10"/>
<path d="M849.393 89.5447C851.759 88.1789 853.307 86.4324 852.852 85.6439C852.397 84.8553 850.11 85.3233 847.744 86.6891C845.379 88.0549 843.83 89.8013 844.285 90.5899C844.741 91.3784 847.027 90.9105 849.393 89.5447Z" fill="#F37FA2" stroke="#F37FA2" stroke-width="0.75" stroke-miterlimit="10"/>
<path d="M1656.89 11.365C1642.72 20.4562 1632.07 34.6348 1628.58 51.3099C1626.65 60.4483 1627.12 69.8693 1627.12 79.149C1627.12 98.0381 1632.4 126.961 1609.18 134.544C1592.22 140.103 1575.26 127.196 1574.84 109.72C1574.6 100.629 1560.47 100.629 1560.71 109.72C1561.13 127.243 1572.11 142.835 1589.06 148.205C1606.02 153.575 1624.53 146.65 1634.43 132.189C1641.21 122.297 1641.26 111.275 1641.26 99.9222C1641.26 88.57 1641.26 77.9714 1641.26 67.043C1641.26 49.2844 1648.84 33.4101 1664.01 23.6594C1671.64 18.7604 1664.57 6.51313 1656.89 11.4591V11.365Z" fill="#75BDC9"/>
<path d="M1479.5 11.365C1465.32 20.4562 1454.67 34.6348 1451.19 51.3099C1449.25 60.4483 1449.73 69.8693 1449.73 79.149C1449.73 98.0381 1455 126.961 1431.78 134.544C1414.82 140.103 1397.86 127.196 1397.44 109.72C1397.2 100.629 1383.07 100.629 1383.31 109.72C1383.73 127.243 1394.71 142.835 1411.66 148.205C1428.62 153.575 1447.13 146.65 1457.03 132.189C1463.81 122.297 1463.86 111.275 1463.86 99.9222C1463.86 88.57 1463.86 77.9714 1463.86 67.043C1463.86 49.2844 1471.44 33.4101 1486.61 23.6594C1494.24 18.7604 1487.17 6.51313 1479.5 11.4591V11.365Z" fill="#75BDC9"/>
<path d="M1574.84 64.64C1574.74 48.1532 1568.2 32.1375 1556.51 20.4084C1544.83 8.67928 1528.82 2.22591 1512.28 2.08459C1503.19 2.03749 1503.19 16.169 1512.28 16.2161C1525.14 16.3103 1537.39 21.2563 1546.53 30.3947C1555.67 39.533 1560.61 51.7332 1560.71 64.64C1560.75 73.7312 1574.89 73.7312 1574.84 64.64Z" fill="#75BDC9"/>
<path d="M1576.91 87.8154C1576.91 93.2325 1572.53 97.6132 1567.11 97.6132C1561.69 97.6132 1557.31 93.2325 1557.31 87.8154C1557.31 82.3983 1561.69 78.0176 1567.11 78.0176V87.8154H1576.91Z" fill="#2F9685"/>
<path d="M1575.12 87.8156C1575.12 88.1925 1575.12 88.5222 1575.07 88.8991C1575.07 89.0404 1575.07 89.1817 1575.07 88.852C1575.07 88.9462 1575.07 89.0404 1575.07 89.1346C1575.07 89.323 1574.98 89.5114 1574.93 89.6999C1574.84 90.0296 1574.74 90.3593 1574.65 90.6891C1574.6 90.8775 1574.51 91.1601 1574.65 90.8304C1574.6 91.0188 1574.46 91.2072 1574.37 91.3956C1574.23 91.6783 1574.04 92.008 1573.85 92.2906C1573.75 92.432 1573.66 92.5733 1573.57 92.7146C1573.71 92.5261 1573.52 92.8088 1573.47 92.8559C1573.24 93.1385 1573 93.374 1572.77 93.6096C1572.62 93.7509 1572.53 93.8451 1572.39 93.9393C1572.34 93.9864 1572.25 94.0335 1572.2 94.1277C1572.2 94.1277 1571.87 94.4103 1572.06 94.2219C1572.25 94.0806 1571.82 94.4103 1571.78 94.4103C1571.64 94.5046 1571.49 94.5988 1571.35 94.693C1571.02 94.8814 1570.74 95.0698 1570.36 95.2111C1570.27 95.2111 1570.22 95.3054 1570.13 95.3054C1570.18 95.3054 1570.5 95.164 1570.18 95.3054C1570.03 95.3525 1569.85 95.4467 1569.7 95.4938C1569.33 95.588 1569 95.6822 1568.62 95.7764C1568.57 95.7764 1568.01 95.8706 1568.24 95.8235C1568.48 95.8235 1568.06 95.8235 1567.96 95.8235C1567.54 95.8235 1567.16 95.8235 1566.74 95.8235C1566.55 95.8235 1566.36 95.8235 1566.17 95.8235C1566.12 95.8235 1566.03 95.8235 1565.98 95.8235C1565.75 95.8235 1566.31 95.8706 1566.08 95.8235C1565.7 95.7293 1565.32 95.6822 1564.99 95.588C1564.71 95.4938 1564.24 95.4467 1564 95.2582C1564 95.2582 1564.38 95.3996 1564.05 95.2582C1563.96 95.2582 1563.91 95.164 1563.82 95.164C1563.63 95.0698 1563.49 94.9756 1563.3 94.8814C1563.02 94.693 1562.69 94.5517 1562.45 94.3162C1562.31 94.2219 1562.07 94.0335 1562.36 94.269C1562.21 94.1277 1562.03 93.9864 1561.88 93.8451C1561.65 93.6096 1561.41 93.3741 1561.18 93.1385C1561.08 92.9972 1560.94 92.903 1560.85 92.7617C1560.99 92.9972 1560.8 92.6675 1560.75 92.6204C1560.57 92.3377 1560.38 92.0551 1560.19 91.7725C1560.09 91.6312 1560.05 91.4899 1559.95 91.3014C1559.95 91.2072 1559.86 91.1601 1559.86 91.0659C1559.86 91.0659 1559.72 90.6891 1559.81 90.9246C1559.91 91.1601 1559.81 90.9246 1559.81 90.8304C1559.81 90.7362 1559.76 90.6891 1559.72 90.5949C1559.67 90.4064 1559.62 90.2651 1559.58 90.0767C1559.48 89.6999 1559.39 89.3701 1559.34 88.9933C1559.29 88.6635 1559.34 88.9933 1559.34 89.0875C1559.34 88.9933 1559.34 88.8991 1559.34 88.8049C1559.34 88.6165 1559.34 88.428 1559.34 88.2396C1559.34 87.8628 1559.34 87.4859 1559.34 87.062C1559.34 87.062 1559.44 86.638 1559.34 86.5909C1559.39 86.638 1559.29 86.9207 1559.34 86.6851C1559.34 86.5909 1559.34 86.4967 1559.39 86.4025C1559.48 86.0257 1559.58 85.6488 1559.67 85.272C1559.72 85.0836 1559.76 84.9422 1559.86 84.8009C1559.95 84.5183 1559.72 85.0836 1559.91 84.7067C1560.05 84.377 1560.24 84.0473 1560.42 83.7175C1560.52 83.5291 1560.66 83.3407 1560.75 83.1994C1560.85 83.0581 1561.08 82.7283 1560.85 83.0581C1561.08 82.7283 1561.37 82.4457 1561.65 82.1631C1561.79 82.0218 1561.93 81.8804 1562.07 81.7862C1562.12 81.7391 1562.21 81.692 1562.26 81.5978C1562.26 81.5978 1562.59 81.3152 1562.4 81.5036C1562.21 81.6449 1562.4 81.5036 1562.5 81.4565C1562.59 81.4094 1562.69 81.3152 1562.78 81.2681C1562.97 81.1267 1563.16 81.0325 1563.34 80.9383C1563.67 80.7499 1564 80.5615 1564.38 80.4202C1563.96 80.5615 1564.48 80.4202 1564.62 80.326C1564.81 80.2789 1564.99 80.1847 1565.18 80.1376C1565.37 80.0904 1565.61 80.0433 1565.84 79.9962C1565.94 79.9962 1566.03 79.9962 1566.12 79.9491C1566.17 79.9491 1566.55 79.8549 1566.27 79.9491C1566.41 79.9491 1566.55 79.9491 1566.69 79.9491C1566.92 79.9491 1567.16 79.9491 1567.4 79.9491L1565.61 78.1592C1565.61 81.0326 1565.61 83.8589 1565.61 86.7323V87.957C1565.61 88.8991 1566.41 89.747 1567.35 89.747H1577.15C1578.09 89.747 1578.94 88.9462 1578.94 87.957C1578.94 86.9678 1578.18 86.167 1577.15 86.167H1567.35L1569.14 87.957C1569.14 85.0836 1569.14 82.2573 1569.14 79.3839V78.1592C1569.14 77.2171 1568.34 76.3691 1567.4 76.3691C1563.72 76.3691 1560.33 78.1591 1558.07 81.0796C1555.81 84.0001 1555.29 87.6743 1556.23 91.0659C1557.17 94.4575 1559.81 97.378 1563.16 98.6969C1566.5 100.016 1570.27 99.6861 1573.28 97.8961C1576.77 95.8235 1578.94 92.008 1578.94 87.957C1578.94 87.0149 1578.14 86.167 1577.15 86.167C1576.16 86.167 1575.4 86.9207 1575.36 87.957L1575.12 87.8156Z" fill="#2F9685"/>
</svg>
