<svg width="393" height="102" viewBox="0 0 393 102" fill="none" xmlns="http://www.w3.org/2000/svg">
<path d="M141.307 7.6865C131.718 13.8346 124.519 23.4231 122.162 34.6999C120.856 40.8799 121.174 47.251 121.174 53.5265C121.174 66.3005 124.742 85.8598 109.037 90.9885C97.5694 94.7474 86.1014 86.019 85.8147 74.2007C85.6554 68.0526 76.0988 68.0526 76.2581 74.2007C76.5448 86.0509 83.9671 96.595 95.435 100.227C106.903 103.858 119.422 99.1753 126.112 89.3957C130.699 82.7061 130.731 75.2519 130.731 67.5747C130.731 59.8976 130.731 52.7301 130.731 45.3396C130.731 33.3301 135.86 22.5949 146.117 16.0008C151.278 12.6878 146.499 4.40538 141.307 7.7502V7.6865Z" fill="#75BDC9"/>
<path d="M205.752 43.715C205.688 32.5656 201.26 21.7347 193.36 13.8027C185.46 5.87073 174.629 1.50653 163.448 1.41097C157.299 1.37911 157.299 10.9357 163.448 10.9676C172.144 11.0313 180.427 14.3761 186.606 20.5561C192.786 26.736 196.131 34.9866 196.195 43.715C196.227 49.8631 205.783 49.8631 205.752 43.715Z" fill="#75BDC9"/>
<path d="M21.3377 7.6865C11.7492 13.8346 4.54989 23.4231 2.19259 34.6999C0.886513 40.8799 1.20507 47.251 1.20507 53.5265C1.20507 66.3005 4.77288 85.8598 -10.9319 90.9885C-22.3998 94.7474 -33.8678 86.019 -34.1545 74.2007C-34.3138 68.0526 -43.8704 68.0526 -43.7111 74.2007C-43.4244 86.0509 -36.0021 96.595 -24.5341 100.227C-13.0662 103.858 -0.546974 99.1753 6.14267 89.3957C10.7299 82.7061 10.7617 75.2519 10.7617 67.5747C10.7617 59.8976 10.7617 52.7301 10.7617 45.3396C10.7617 33.3301 15.8904 22.5949 26.1479 16.0008C31.3085 12.6878 26.5302 4.40538 21.3377 7.7502V7.6865Z" fill="#75BDC9"/>
<path d="M85.811 43.715C85.7473 32.5656 81.3194 21.7347 73.4192 13.8027C65.5191 5.87073 54.6882 1.50653 43.5069 1.41097C37.3588 1.37911 37.3588 10.9357 43.5069 10.9676C52.2035 11.0313 60.4859 14.3761 66.6659 20.5561C72.8458 26.736 76.1906 34.9866 76.2543 43.715C76.2862 49.8631 85.8428 49.8631 85.811 43.715Z" fill="#75BDC9"/>
<path d="M261.178 7.6865C251.589 13.8346 244.39 23.4231 242.033 34.6999C240.727 40.8799 241.045 47.251 241.045 53.5265C241.045 66.3005 244.613 85.8598 228.908 90.9885C217.44 94.7474 205.972 86.019 205.686 74.2007C205.526 68.0526 195.97 68.0526 196.129 74.2007C196.416 86.0509 203.838 96.595 215.306 100.227C226.774 103.858 239.293 99.1753 245.983 89.3957C250.57 82.7061 250.602 75.2519 250.602 67.5747C250.602 59.8976 250.602 52.7301 250.602 45.3396C250.602 33.3301 255.731 22.5949 265.988 16.0008C271.149 12.6878 266.37 4.40538 261.178 7.7502V7.6865Z" fill="#75BDC9"/>
<path d="M325.653 43.715C325.59 32.5656 321.162 21.7347 313.261 13.8027C305.361 5.87073 294.53 1.50653 283.349 1.41097C277.201 1.37911 277.201 10.9357 283.349 10.9676C292.046 11.0313 300.328 14.3761 306.508 20.5561C312.688 26.736 316.033 34.9866 316.097 43.715C316.128 49.8631 325.685 49.8631 325.653 43.715Z" fill="#75BDC9"/>
<path d="M87.2162 59.387C87.2162 63.0504 84.2537 66.013 80.5903 66.013C76.9269 66.013 73.9644 63.0504 73.9644 59.387C73.9644 55.7236 76.9269 52.7611 80.5903 52.7611V59.387H87.2162Z" fill="#2F9685"/>
<path d="M86.0051 59.3863C86.0051 59.6411 86.0051 59.8641 85.9733 60.1189C85.9733 60.2145 85.9733 60.3101 85.9733 60.0871C85.9733 60.1508 85.9733 60.2145 85.9733 60.2782C85.9733 60.4057 85.9096 60.5331 85.8777 60.6605C85.814 60.8835 85.7503 61.1065 85.6866 61.3294C85.6547 61.4569 85.591 61.648 85.6866 61.425C85.6547 61.5524 85.5592 61.6799 85.4954 61.8073C85.3999 61.9984 85.2725 62.2214 85.145 62.4125C85.0813 62.5081 85.0176 62.6037 84.9539 62.6992C85.0495 62.5718 84.922 62.7629 84.8902 62.7948C84.7309 62.9859 84.5716 63.1452 84.4124 63.3045C84.3168 63.4001 84.2531 63.4638 84.1575 63.5275C84.1257 63.5593 84.0619 63.5912 84.0301 63.6549C84.0301 63.6549 83.8071 63.846 83.9345 63.7186C84.062 63.623 83.7753 63.846 83.7434 63.846C83.6478 63.9097 83.5523 63.9735 83.4567 64.0372C83.2337 64.1646 83.0426 64.292 82.7877 64.3876C82.724 64.3876 82.6922 64.4513 82.6285 64.4513C82.6603 64.4513 82.8833 64.3557 82.6603 64.4513C82.5647 64.4831 82.4373 64.5469 82.3418 64.5787C82.0869 64.6424 81.8639 64.7061 81.6091 64.7698C81.5772 64.7698 81.195 64.8336 81.3542 64.8017C81.5135 64.8017 81.2268 64.8017 81.1631 64.8017C80.8764 64.8017 80.6216 64.8017 80.3349 64.8017C80.2074 64.8017 80.08 64.8017 79.9526 64.8017C79.9207 64.8017 79.857 64.8017 79.8252 64.8017C79.6659 64.8017 80.0482 64.8336 79.8889 64.8017C79.634 64.738 79.3792 64.7061 79.1562 64.6424C78.9651 64.5787 78.6465 64.5468 78.4873 64.4194C78.4873 64.4194 78.7421 64.515 78.5191 64.4194C78.4554 64.4194 78.4235 64.3557 78.3598 64.3557C78.2324 64.292 78.1368 64.2283 78.0094 64.1646C77.8183 64.0372 77.5953 63.9416 77.436 63.7823C77.3405 63.7186 77.1812 63.5912 77.3723 63.7505C77.2767 63.6549 77.1493 63.5593 77.0538 63.4638C76.8945 63.3045 76.7352 63.1452 76.5759 62.9859C76.5122 62.8904 76.4166 62.8267 76.3529 62.7311C76.4485 62.8904 76.3211 62.6674 76.2892 62.6355C76.1618 62.4444 76.0344 62.2533 75.907 62.0621C75.8432 61.9666 75.8114 61.871 75.7477 61.7436C75.7477 61.6799 75.684 61.648 75.684 61.5843C75.684 61.5843 75.5884 61.3295 75.6521 61.4887C75.7158 61.648 75.6521 61.4887 75.6521 61.425C75.6521 61.3613 75.6203 61.3295 75.5884 61.2657C75.5565 61.1383 75.5247 61.0428 75.4928 60.9153C75.4291 60.6605 75.3654 60.4375 75.3336 60.1826C75.3017 59.9597 75.3336 60.1827 75.3336 60.2464C75.3336 60.1827 75.3336 60.119 75.3336 60.0552C75.3336 59.9278 75.3336 59.8004 75.3336 59.673C75.3336 59.4181 75.3336 59.1633 75.3336 58.8766C75.3336 58.8766 75.3973 58.5899 75.3336 58.558C75.3654 58.5899 75.3017 58.781 75.3336 58.6217C75.3336 58.558 75.3336 58.4943 75.3654 58.4306C75.4291 58.1758 75.4928 57.9209 75.5565 57.6661C75.5884 57.5387 75.6203 57.4431 75.684 57.3475C75.7477 57.1564 75.5884 57.5387 75.7158 57.2838C75.8114 57.0608 75.9388 56.8378 76.0662 56.6149C76.1299 56.4874 76.2255 56.36 76.2892 56.2644C76.3529 56.1689 76.5122 55.9459 76.3529 56.1689C76.5122 55.9459 76.7033 55.7547 76.8945 55.5636C76.99 55.468 77.0856 55.3725 77.1812 55.3088C77.213 55.2769 77.2767 55.2451 77.3086 55.1813C77.3086 55.1813 77.5316 54.9902 77.4042 55.1176C77.2767 55.2132 77.4042 55.1176 77.4679 55.0858C77.5316 55.0539 77.5953 54.9902 77.659 54.9584C77.7864 54.8628 77.9138 54.7991 78.0413 54.7354C78.2643 54.6079 78.4872 54.4805 78.7421 54.385C78.4554 54.4805 78.8058 54.385 78.9014 54.3213C79.0288 54.2894 79.1562 54.2257 79.2836 54.1938C79.4111 54.162 79.5703 54.1301 79.7296 54.0983C79.7933 54.0983 79.857 54.0983 79.9207 54.0664C79.9526 54.0664 80.2074 54.0027 80.0163 54.0664C80.1119 54.0664 80.2074 54.0664 80.303 54.0664C80.4623 54.0664 80.6216 54.0664 80.7808 54.0664L79.5703 52.8559C79.5703 54.7991 79.5703 56.7104 79.5703 58.6536V59.4818C79.5703 60.119 80.1119 60.6923 80.749 60.6923H87.3749C88.012 60.6923 88.5854 60.1508 88.5854 59.4818C88.5854 58.8129 88.0757 58.2713 87.3749 58.2713H80.749L81.9595 59.4818C81.9595 57.5387 81.9595 55.6273 81.9595 53.6842V52.8559C81.9595 52.2188 81.4179 51.6454 80.7808 51.6454C78.2961 51.6454 76.0025 52.8559 74.4735 54.8309C72.9444 56.806 72.594 59.2907 73.2311 61.5843C73.8682 63.8779 75.6521 65.8529 77.9139 66.7449C80.1756 67.6368 82.724 67.4138 84.7628 66.2033C87.1201 64.8017 88.5854 62.2214 88.5854 59.4818C88.5854 58.8447 88.0439 58.2713 87.3749 58.2713C86.7059 58.2713 86.1963 58.781 86.1644 59.4818L86.0051 59.3863Z" fill="#2F9685"/>
<path d="M203.455 54.2587C201.831 56.2656 200.206 58.2726 198.55 60.2794L197.849 61.1395H201.225C199.983 60.1839 198.773 59.2282 197.53 58.2725C197.021 57.8584 196.543 57.5717 195.842 57.5717C195.268 57.5717 194.568 57.8266 194.154 58.2725C193.357 59.1326 193.102 60.821 194.154 61.6492C195.396 62.6049 196.606 63.5605 197.849 64.5162C198.358 64.8985 198.868 65.2489 199.537 65.217C200.142 65.217 200.843 64.994 201.225 64.5162C202.85 62.5093 204.475 60.5024 206.131 58.4955L206.832 57.6354C207.246 57.1257 207.533 56.6161 207.533 55.9471C207.533 55.3737 207.278 54.6729 206.832 54.2587C205.972 53.4624 204.284 53.2075 203.455 54.2587Z" fill="#EDCBB1"/>
<path d="M320.941 66.173C321.557 66.173 322.056 64.6755 322.056 62.8282C322.056 60.9809 321.557 59.4834 320.941 59.4834C320.325 59.4834 319.826 60.9809 319.826 62.8282C319.826 64.6755 320.325 66.173 320.941 66.173Z" fill="#F37FA2" stroke="#F37FA2" stroke-width="0.75" stroke-miterlimit="10"/>
<path d="M320.941 59.2912C321.557 59.2912 322.056 57.7937 322.056 55.9464C322.056 54.0991 321.557 52.6016 320.941 52.6016C320.325 52.6016 319.826 54.0991 319.826 55.9464C319.826 57.7937 320.325 59.2912 320.941 59.2912Z" fill="#F37FA2" stroke="#F37FA2" stroke-width="0.75" stroke-miterlimit="10"/>
<path d="M320.857 59.2767C321.164 58.7434 320.117 57.5624 318.517 56.6387C316.918 55.7151 315.371 55.3986 315.063 55.9319C314.755 56.4651 315.803 57.6462 317.402 58.5699C319.002 59.4935 320.549 59.81 320.857 59.2767Z" fill="#F37FA2" stroke="#F37FA2" stroke-width="0.75" stroke-miterlimit="10"/>
<path d="M326.789 62.7045C327.097 62.1712 326.049 60.9901 324.45 60.0665C322.85 59.1428 321.303 58.8264 320.995 59.3597C320.688 59.8929 321.735 61.074 323.335 61.9976C324.934 62.9212 326.481 63.2377 326.789 62.7045Z" fill="#F37FA2" stroke="#F37FA2" stroke-width="0.75" stroke-miterlimit="10"/>
<path d="M324.454 58.5679C326.054 57.6443 327.101 56.4632 326.793 55.93C326.485 55.3967 324.939 55.7132 323.339 56.6368C321.739 57.5605 320.692 58.7415 321 59.2748C321.308 59.808 322.854 59.4916 324.454 58.5679Z" fill="#F37FA2" stroke="#F37FA2" stroke-width="0.75" stroke-miterlimit="10"/>
<path d="M318.512 61.9655C320.112 61.0419 321.159 59.8608 320.851 59.3275C320.543 58.7943 318.997 59.1107 317.397 60.0344C315.797 60.958 314.75 62.1391 315.058 62.6723C315.366 63.2056 316.912 62.8892 318.512 61.9655Z" fill="#F37FA2" stroke="#F37FA2" stroke-width="0.75" stroke-miterlimit="10"/>
<path d="M382.988 7.6865C373.399 13.8346 366.2 23.4231 363.843 34.6999C362.537 40.8799 362.855 47.251 362.855 53.5265C362.855 66.3005 366.423 85.8598 350.718 90.9885C339.25 94.7474 327.782 86.019 327.496 74.2007C327.336 68.0526 317.78 68.0526 317.939 74.2007C318.226 86.0509 325.648 96.595 337.116 100.227C348.584 103.858 361.103 99.1753 367.793 89.3957C372.38 82.7061 372.412 75.2519 372.412 67.5747C372.412 59.8976 372.412 52.7301 372.412 45.3396C372.412 33.3301 377.541 22.5949 387.798 16.0008C392.959 12.6878 388.18 4.40538 382.988 7.7502V7.6865Z" fill="#75BDC9"/>
</svg>
