<svg width="29" height="29" viewBox="0 0 29 29" fill="none" xmlns="http://www.w3.org/2000/svg">
<path d="M14.5 0C6.50444 0 0 6.50444 0 14.5C0 22.4956 6.50444 29 14.5 29C22.4956 29 29 22.4956 29 14.5C29 6.50444 22.4956 0 14.5 0ZM21.75 15.7083H10.1669L12.9376 18.479C13.4101 18.9514 13.4101 19.7151 12.9376 20.1876C12.702 20.4232 12.3927 20.5416 12.0833 20.5416C11.774 20.5416 11.4646 20.4232 11.229 20.1876L6.39569 15.3543C6.2845 15.2431 6.19631 15.1102 6.13469 14.9616C6.01263 14.6667 6.01263 14.3333 6.13469 14.0384C6.19631 13.8898 6.2845 13.7568 6.39569 13.6457L11.229 8.81237C11.7014 8.33994 12.4651 8.33994 12.9376 8.81237C13.41 9.28481 13.41 10.0485 12.9376 10.5209L10.1669 13.2916H21.75C22.417 13.2916 22.9583 13.8329 22.9583 14.4999C22.9583 15.1669 22.417 15.7083 21.75 15.7083Z" fill="#2F9685"/>
</svg>
