<svg width="21" height="21" viewBox="0 0 21 21" fill="none" xmlns="http://www.w3.org/2000/svg">
<path d="M6.7045 2.1875C6.7045 1.82507 6.41401 1.53125 6.05569 1.53125C5.69736 1.53125 5.40687 1.82507 5.40687 2.1875V3.56935C4.16173 3.6702 3.34431 3.9177 2.74377 4.52512C2.14323 5.13255 1.89853 5.95934 1.79883 7.21875H18.9634C18.8637 5.95934 18.619 5.13255 18.0184 4.52512C17.4179 3.9177 16.6005 3.6702 15.3553 3.56935V2.1875C15.3553 1.82507 15.0649 1.53125 14.7065 1.53125C14.3482 1.53125 14.0577 1.82507 14.0577 2.1875V3.51129C13.4822 3.5 12.8371 3.5 12.1113 3.5H8.65094C7.92511 3.5 7.28001 3.5 6.7045 3.51129V2.1875Z" fill="#75BDC9"/>
<path fill-rule="evenodd" clip-rule="evenodd" d="M1.73022 10.5C1.73022 9.76587 1.73022 9.11339 1.74138 8.53125H19.0208C19.0319 9.11339 19.0319 9.76587 19.0319 10.5V12.25C19.0319 15.5498 19.0319 17.1998 18.0184 18.2248C17.0049 19.25 15.3737 19.25 12.1112 19.25H8.6509C5.38846 19.25 3.75725 19.25 2.74373 18.2248C1.73022 17.1998 1.73022 15.5498 1.73022 12.25V10.5ZM14.7065 12.25C15.1843 12.25 15.5716 11.8583 15.5716 11.375C15.5716 10.8917 15.1843 10.5 14.7065 10.5C14.2287 10.5 13.8414 10.8917 13.8414 11.375C13.8414 11.8583 14.2287 12.25 14.7065 12.25ZM14.7065 15.75C15.1843 15.75 15.5716 15.3583 15.5716 14.875C15.5716 14.3917 15.1843 14 14.7065 14C14.2287 14 13.8414 14.3917 13.8414 14.875C13.8414 15.3583 14.2287 15.75 14.7065 15.75ZM11.2462 11.375C11.2462 11.8583 10.8589 12.25 10.3811 12.25C9.90329 12.25 9.51599 11.8583 9.51599 11.375C9.51599 10.8917 9.90329 10.5 10.3811 10.5C10.8589 10.5 11.2462 10.8917 11.2462 11.375ZM11.2462 14.875C11.2462 15.3583 10.8589 15.75 10.3811 15.75C9.90329 15.75 9.51599 15.3583 9.51599 14.875C9.51599 14.3917 9.90329 14 10.3811 14C10.8589 14 11.2462 14.3917 11.2462 14.875ZM6.05565 12.25C6.53342 12.25 6.92073 11.8583 6.92073 11.375C6.92073 10.8917 6.53342 10.5 6.05565 10.5C5.57788 10.5 5.19056 10.8917 5.19056 11.375C5.19056 11.8583 5.57788 12.25 6.05565 12.25ZM6.05565 15.75C6.53342 15.75 6.92073 15.3583 6.92073 14.875C6.92073 14.3917 6.53342 14 6.05565 14C5.57788 14 5.19056 14.3917 5.19056 14.875C5.19056 15.3583 5.57788 15.75 6.05565 15.75Z" fill="#75BDC9"/>
</svg>
