<svg width="15" height="15" viewBox="0 0 15 15" fill="none" xmlns="http://www.w3.org/2000/svg">
<path fill-rule="evenodd" clip-rule="evenodd" d="M0 2.25009C0 1.0074 1.00736 0 2.25 0H12.75C13.9927 0 15 1.0074 15 2.25009V3.1288C15 3.72556 14.7629 4.29788 14.341 4.71986L9.96968 9.09134C9.82905 9.23204 9.75 9.42278 9.75 9.62168V11.3792C9.75 11.9759 9.51293 12.5482 9.09097 12.9702L7.43948 14.6218C6.6315 15.4298 5.25 14.8575 5.25 13.7148V9.62168C5.25 9.42278 5.17098 9.23204 5.03033 9.09134L0.65901 4.71986C0.237053 4.29788 0 3.72556 0 3.1288V2.25009Z" fill="#F7F6F2"/>
</svg>
