<svg width="30" height="30" viewBox="0 0 30 30" fill="none" xmlns="http://www.w3.org/2000/svg">
<circle cx="15" cy="15" r="15" fill="#9AA4A2"/>
<path fill-rule="evenodd" clip-rule="evenodd" d="M8 10.2501C8 9.0074 9.00736 8 10.25 8H20.75C21.9927 8 23 9.0074 23 10.2501V11.1288C23 11.7256 22.7629 12.2979 22.341 12.7199L17.9697 17.0913C17.8291 17.232 17.75 17.4228 17.75 17.6217V19.3792C17.75 19.9759 17.5129 20.5482 17.091 20.9702L15.4395 22.6218C14.6315 23.4298 13.25 22.8575 13.25 21.7148V17.6217C13.25 17.4228 13.171 17.232 13.0303 17.0913L8.65901 12.7199C8.23705 12.2979 8 11.7256 8 11.1288V10.2501Z" fill="#F7F6F2"/>
</svg>
