<svg width="46" height="99" viewBox="0 0 46 99" fill="none" xmlns="http://www.w3.org/2000/svg">
<path d="M46.502 98.375C50.9488 98.375 54.5534 87.5604 54.5534 74.22C54.5534 60.8796 50.9488 50.0652 46.502 50.0652C42.0552 50.0652 38.4502 60.8796 38.4502 74.22C38.4502 87.5604 42.0552 98.375 46.502 98.375Z" fill="#F37FA2" stroke="#F37FA2" stroke-width="0.75" stroke-miterlimit="10"/>
<path d="M46.502 48.6848C50.9488 48.6848 54.5534 37.8704 54.5534 24.53C54.5534 11.1896 50.9488 0.375 46.502 0.375C42.0552 0.375 38.4502 11.1896 38.4502 24.53C38.4502 37.8704 42.0552 48.6848 46.502 48.6848Z" fill="#F37FA2" stroke="#F37FA2" stroke-width="0.75" stroke-miterlimit="10"/>
<path d="M45.9085 48.5873C48.1319 44.7363 40.5687 36.207 29.0156 29.5368C17.4624 22.8666 6.29421 20.5813 4.07081 24.4323C1.84741 28.2834 9.41064 36.8127 20.9638 43.4829C32.5169 50.1531 43.6851 52.4384 45.9085 48.5873Z" fill="#F37FA2" stroke="#F37FA2" stroke-width="0.75" stroke-miterlimit="10"/>
<path d="M88.7344 73.3288C90.9578 69.4777 83.3945 60.9484 71.8414 54.2782C60.2883 47.608 49.1202 45.3228 46.8968 49.1739C44.6734 53.0249 52.2367 61.5538 63.7898 68.224C75.3429 74.8942 86.5109 77.1798 88.7344 73.3288Z" fill="#F37FA2" stroke="#F37FA2" stroke-width="0.75" stroke-miterlimit="10"/>
<path d="M71.892 43.462C83.4451 36.7918 91.0085 28.2626 88.7851 24.4116C86.5617 20.5605 75.3935 22.846 63.8404 29.5162C52.2873 36.1864 44.7243 44.7154 46.9477 48.5664C49.1711 52.4174 60.3389 50.1322 71.892 43.462Z" fill="#F37FA2" stroke="#F37FA2" stroke-width="0.75" stroke-miterlimit="10"/>
<path d="M28.9703 67.9994C40.5234 61.3292 48.0867 52.8 45.8633 48.949C43.6399 45.0979 32.4718 47.3834 20.9187 54.0536C9.36557 60.7238 1.8024 69.2528 4.0258 73.1039C6.2492 76.9549 17.4172 74.6696 28.9703 67.9994Z" fill="#F37FA2" stroke="#F37FA2" stroke-width="0.75" stroke-miterlimit="10"/>
</svg>
