<svg width="23" height="23" viewBox="0 0 23 23" fill="none" xmlns="http://www.w3.org/2000/svg">
<path d="M21.6896 10.7572L12.2442 1.31048C12.1467 1.2121 12.0306 1.13401 11.9027 1.08072C11.7748 1.02744 11.6376 1 11.4991 1C11.3606 1 11.2234 1.02744 11.0955 1.08072C10.9676 1.13401 10.8515 1.2121 10.754 1.31048L1.30864 10.7572C1.11102 10.9549 1 11.223 1 11.5025C1 11.782 1.11102 12.0501 1.30864 12.2477C1.50626 12.4454 1.7743 12.5564 2.05378 12.5564C2.33325 12.5564 2.60129 12.4454 2.79891 12.2477L3.10326 11.9328V20.2145C3.12239 20.7055 3.33521 21.1689 3.69515 21.5033C4.05509 21.8377 4.53282 22.0159 5.02381 21.9989H7.82592C8.10426 21.9989 8.3712 21.8883 8.56802 21.6915C8.76483 21.4946 8.8754 21.2276 8.8754 20.9492V15.806C8.8754 15.5276 8.98597 15.2606 9.18279 15.0638C9.3796 14.867 9.64654 14.7564 9.92488 14.7564H13.0733C13.3517 14.7564 13.6186 14.867 13.8154 15.0638C14.0122 15.2606 14.1228 15.5276 14.1228 15.806V20.9492C14.1228 21.2276 14.2334 21.4946 14.4302 21.6915C14.627 21.8883 14.8939 21.9989 15.1723 21.9989H17.9744C18.4654 22.0159 18.9431 21.8377 19.3031 21.5033C19.663 21.1689 19.8758 20.7055 19.895 20.2145V11.9328L20.1993 12.2477C20.2969 12.3461 20.4129 12.4242 20.5408 12.4775C20.6687 12.5308 20.8059 12.5582 20.9444 12.5582C21.083 12.5582 21.2202 12.5308 21.348 12.4775C21.4759 12.4242 21.592 12.3461 21.6896 12.2477C21.7879 12.1502 21.866 12.0341 21.9193 11.9062C21.9726 11.7782 22 11.641 22 11.5025C22 11.3639 21.9726 11.2267 21.9193 11.0988C21.866 10.9709 21.7879 10.8548 21.6896 10.7572Z" fill="#3A251D"/>
</svg>
