<svg width="23" height="22" viewBox="0 0 23 22" fill="none" xmlns="http://www.w3.org/2000/svg">
<path fill-rule="evenodd" clip-rule="evenodd" d="M17.3787 0.531008C16.5509 0.531008 15.7569 0.874971 15.1716 1.48723L2.67159 14.5616C2.54343 14.6957 2.45252 14.8636 2.40856 15.0475L1.40856 19.2314C1.32336 19.5878 1.42321 19.9648 1.67159 20.2246C1.91997 20.4844 2.28046 20.5889 2.62123 20.4998L6.62123 19.4538C6.79706 19.4078 6.95764 19.3127 7.0858 19.1787L19.5858 6.10429C19.8756 5.80113 20.1055 5.44122 20.2624 5.04512C20.4193 4.64903 20.5 4.22449 20.5 3.79576C20.5 3.36702 20.4193 2.94249 20.2624 2.54639C20.1055 2.15029 19.8756 1.79039 19.5858 1.48723C19.2959 1.18407 18.9519 0.943591 18.5732 0.779522C18.1945 0.615453 17.7886 0.531008 17.3787 0.531008Z" fill="#F7F6F2"/>
</svg>
