<svg width="1940" height="2007" viewBox="0 0 1940 2007" fill="none" xmlns="http://www.w3.org/2000/svg">
<path fill-rule="evenodd" clip-rule="evenodd" d="M306.319 0C225.078 0 147.165 31.7177 89.7188 88.1755C32.2728 144.633 0 221.207 0 301.05V1705.95C0 1785.79 32.2728 1862.37 89.7188 1918.82C147.165 1975.28 225.078 2007 306.319 2007H918.958C1000.2 2007 1078.11 1975.28 1135.56 1918.82C1193 1862.37 1225.28 1785.79 1225.28 1705.95V301.05C1225.28 221.207 1193 144.633 1135.56 88.1755C1078.11 31.7177 1000.2 0 918.958 0H306.319ZM1357.3 531.153C1376.45 512.34 1402.41 501.771 1429.49 501.771C1456.56 501.771 1482.53 512.34 1501.68 531.153L1910.1 932.553C1929.25 951.371 1940 976.891 1940 1003.5C1940 1030.11 1929.25 1055.63 1910.1 1074.45L1501.68 1475.85C1482.42 1494.13 1456.63 1504.24 1429.86 1504.01C1403.09 1503.78 1377.48 1493.23 1358.54 1474.63C1339.61 1456.02 1328.87 1430.85 1328.64 1404.54C1328.41 1378.23 1338.7 1352.88 1357.3 1333.95L1591.43 1103.85H714.745C687.665 1103.85 661.693 1093.28 642.545 1074.46C623.396 1055.64 612.639 1030.11 612.639 1003.5C612.639 976.886 623.396 951.361 642.545 932.542C661.693 913.723 687.665 903.15 714.745 903.15H1591.43L1357.3 673.047C1338.16 654.229 1327.41 628.709 1327.41 602.1C1327.41 575.491 1338.16 549.971 1357.3 531.153Z" fill="#3A251D"/>
</svg>
