<svg width="20" height="29" viewBox="0 0 20 29" fill="none" xmlns="http://www.w3.org/2000/svg">
<path d="M17.1429 0H11.4286V5.88555C13.4733 6.11367 15.4336 6.83941 17.1429 8.0011V0ZM8.57143 0H2.85714V8.0011C4.5664 6.83941 6.52668 6.11367 8.57143 5.88555V0ZM10 29C12.6522 29 15.1957 27.9306 17.0711 26.0271C18.9464 24.1236 20 21.5419 20 18.85C20 16.1581 18.9464 13.5764 17.0711 11.6729C15.1957 9.76937 12.6522 8.7 10 8.7C7.34784 8.7 4.8043 9.76937 2.92893 11.6729C1.05357 13.5764 0 16.1581 0 18.85C0 21.5419 1.05357 24.1236 2.92893 26.0271C4.8043 27.9306 7.34784 29 10 29ZM8.25 16.6475L10 13.05L11.75 16.6475L15.6614 17.2231L12.8314 20.0245L13.5 23.9787L10 22.1125L6.50143 23.9787L7.17 20.0245L4.34 17.2231L8.25 16.6475Z" fill="#F7F6F2"/>
</svg>
