<svg width="30" height="30" viewBox="0 0 30 30" fill="none" xmlns="http://www.w3.org/2000/svg">
<path d="M11.4143 15.0273C11.9969 14.9118 12.6011 14.9716 13.1497 15.1982C13.6981 15.4249 14.1662 15.8085 14.4954 16.2998C14.8245 16.7912 15.0002 17.3687 15.0002 17.959C15.0002 18.7504 14.6854 19.5105 14.1233 20.0713C13.561 20.6322 12.7971 20.9473 12.0002 20.9473C11.4062 20.9473 10.8256 20.7721 10.3323 20.4434C9.8389 20.1145 9.45439 19.6472 9.22778 19.1016C9.0012 18.5559 8.9424 17.955 9.05786 17.376C9.17338 16.7972 9.45813 16.2648 9.8772 15.8467C10.2965 15.4284 10.8317 15.143 11.4143 15.0273ZM22.5002 7.48926H24.8723L23.3801 8.97754H21.0002V6.61133L22.5002 5.11426V7.48926Z" fill="#257D6F" stroke="#F7F6F2" stroke-width="3"/>
<path d="M19.4998 10.4775L15.2998 14.6671L19.4998 10.4775ZM19.4998 5.98877V10.4775H23.9997L28.4997 5.98877H23.9997V1.5L19.4998 5.98877Z" fill="#257D6F"/>
<path d="M19.4998 10.4775L15.2998 14.6671M19.4998 10.4775V5.98877L23.9997 1.5V5.98877H28.4997L23.9997 10.4775H19.4998Z" stroke="#F7F6F2" stroke-width="3" stroke-linecap="round" stroke-linejoin="round"/>
<path d="M22.3798 16.4617C22.465 16.9558 22.5052 17.4566 22.4998 17.9579C22.4998 20.0294 21.884 22.0544 20.7302 23.7769C19.5765 25.4993 17.9366 26.8417 16.018 27.6345C14.0994 28.4272 11.9882 28.6346 9.95147 28.2305C7.91469 27.8263 6.04379 26.8288 4.57535 25.364C3.10692 23.8992 2.1069 22.033 1.70176 20.0013C1.29662 17.9695 1.50455 15.8636 2.29926 13.9498C3.09397 12.0359 4.43977 10.4001 6.16647 9.24927C7.89317 8.09839 9.92321 7.48412 11.9999 7.48412C12.5025 7.47877 13.0045 7.51883 13.4999 7.60382" fill="#257D6F"/>
<path d="M22.3798 16.4617C22.465 16.9558 22.5052 17.4566 22.4998 17.9579C22.4998 20.0294 21.884 22.0544 20.7302 23.7769C19.5765 25.4993 17.9366 26.8417 16.018 27.6345C14.0994 28.4272 11.9882 28.6346 9.95147 28.2305C7.91469 27.8263 6.04379 26.8288 4.57535 25.364C3.10692 23.8992 2.1069 22.033 1.70176 20.0013C1.29662 17.9695 1.50455 15.8636 2.29926 13.9498C3.09397 12.0359 4.43977 10.4001 6.16647 9.24927C7.89317 8.09839 9.92321 7.48412 11.9999 7.48412C12.5025 7.47877 13.0045 7.51883 13.4999 7.60382" stroke="#F7F6F2" stroke-width="3" stroke-linecap="round" stroke-linejoin="round"/>
<path d="M12.0002 22.4497C14.4855 22.4497 16.5002 20.44 16.5002 17.9609C16.5002 15.4819 14.4855 13.4722 12.0002 13.4722C9.51494 13.4722 7.50024 15.4819 7.50024 17.9609C7.50024 20.44 9.51494 22.4497 12.0002 22.4497Z" fill="#257D6F" stroke="#F7F6F2" stroke-width="3" stroke-linecap="round" stroke-linejoin="round"/>
</svg>
