<svg width="44" height="42" viewBox="0 0 44 42" fill="none" xmlns="http://www.w3.org/2000/svg">
<path d="M35.3332 2V8.28573H41.9999L35.3332 14.5715H28.6665V8.28573L35.3332 2ZM24.222 25.0477C24.222 23.8045 23.831 22.5892 23.0985 21.5555C22.366 20.5218 21.3248 19.7162 20.1066 19.2404C18.8884 18.7647 17.548 18.6402 16.2548 18.8827C14.9615 19.1253 13.7737 19.7239 12.8413 20.603C11.9089 21.4821 11.274 22.6021 11.0168 23.8214C10.7595 25.0407 10.8916 26.3046 11.3961 27.4531C11.9007 28.6017 12.7552 29.5834 13.8515 30.2741C14.9479 30.9648 16.2368 31.3334 17.5554 31.3334C19.3235 31.3334 21.0192 30.6712 22.2694 29.4924C23.5197 28.3136 24.222 26.7148 24.222 25.0477Z" fill="#2F9685"/>
<path d="M28.6666 14.5715L22.4443 20.4381M28.6666 14.5715V8.28573L35.3333 2V8.28573H41.9999L35.3333 14.5715H28.6666Z" stroke="#002F39" stroke-width="4" stroke-linecap="round" stroke-linejoin="round"/>
<path d="M32.9334 22.951C33.0596 23.643 33.1191 24.3442 33.1112 25.0463C33.1112 27.9471 32.1989 30.7827 30.4896 33.1947C28.7803 35.6066 26.3509 37.4865 23.5085 38.5965C20.6661 39.7066 17.5383 39.9971 14.5209 39.4312C11.5034 38.8652 8.73162 37.4684 6.55614 35.4172C4.38065 33.366 2.89912 30.7527 2.2989 27.9076C1.69869 25.0625 2.00674 22.1136 3.18411 19.4336C4.36147 16.7536 6.35527 14.463 8.91338 12.8514C11.4715 11.2398 14.479 10.3796 17.5556 10.3796C18.3002 10.3721 19.044 10.4282 19.7778 10.5472" stroke="#002F39" stroke-width="4" stroke-linecap="round" stroke-linejoin="round"/>
<path d="M17.5554 31.3361C21.2373 31.3361 24.222 28.5219 24.222 25.0504C24.222 21.5789 21.2373 18.7646 17.5554 18.7646C13.8734 18.7646 10.8887 21.5789 10.8887 25.0504C10.8887 28.5219 13.8734 31.3361 17.5554 31.3361Z" stroke="#002F39" stroke-width="4" stroke-linecap="round" stroke-linejoin="round"/>
</svg>
