<svg width="60" height="60" viewBox="0 0 60 60" fill="none" xmlns="http://www.w3.org/2000/svg">
<rect width="60" height="59.3277" rx="29.6639" fill="#F7F6F2"/>
<path fill-rule="evenodd" clip-rule="evenodd" d="M32.5 22.2483C32.5 20.883 31.3808 19.7763 30 19.7763C28.6193 19.7763 27.5 20.883 27.5 22.2483V27.1922H22.5C21.1193 27.1922 20 28.2989 20 29.6642C20 31.0295 21.1193 32.1362 22.5 32.1362H27.5V37.0802C27.5 38.4455 28.6193 39.5522 30 39.5522C31.3808 39.5522 32.5 38.4455 32.5 37.0802V32.1362H37.5C38.8808 32.1362 40 31.0295 40 29.6642C40 28.2989 38.8808 27.1922 37.5 27.1922H32.5V22.2483ZM5 29.6642C5 16.0118 16.1929 4.94434 30 4.94434C43.807 4.94434 55 16.0118 55 29.6642C55 43.3165 43.807 54.3841 30 54.3841C16.1929 54.3841 5 43.3165 5 29.6642Z" fill="#257D6F"/>
</svg>
