<svg width="131" height="131" viewBox="0 0 131 131" fill="none" xmlns="http://www.w3.org/2000/svg">
<path d="M80.5388 77.5695L90.5549 111.129C79.864 116.993 67.0444 119.186 54.1966 116.387C25.9381 110.231 8.02011 82.3753 14.1693 54.1501C20.3185 25.9249 48.1998 8.04744 76.4583 14.2039C104.717 20.3603 122.635 48.2157 116.486 76.4409C115.847 79.3699 114.984 82.2149 113.875 84.902L80.5388 77.5695Z" fill="#2F9685"/>
<path d="M78.1001 78.3631C81.4499 89.5522 84.7664 100.734 88.1162 111.923L89.1755 108.981C71.3059 118.511 48.8694 116.516 33.2851 103.394C19.9403 92.1543 13.23 74.3062 16.1917 57.0312C19.1534 39.7562 31.5606 24.5739 48.2882 18.526C65.0158 12.478 84.6394 16.0211 98.1865 27.9326C113.918 41.8192 119.147 64.2256 111.624 83.7143L114.419 82.4057C103.302 79.9838 92.1928 77.5286 81.083 75.0733C77.8544 74.3699 76.7667 79.3626 79.9953 80.066C91.1123 82.4879 102.222 84.9432 113.332 87.3984C114.33 87.616 115.729 87.1187 116.127 86.0899C123.53 66.9933 120.477 45.4794 107.095 29.7689C93.7134 14.0583 73.3124 7.52186 53.7244 11.6567C34.1363 15.7915 18.7075 30.2806 12.8549 48.9828C7.0024 67.6849 12.0497 89.0058 25.7433 103.285C42.8886 121.245 70.2494 124.8 91.9423 113.245C92.9672 112.701 93.2978 111.344 93.0015 110.303C89.6517 99.1137 86.3353 87.9319 82.9855 76.7429C82.0375 73.5729 77.1926 75.1671 78.1074 78.3298L78.1001 78.3631Z" fill="#37241C"/>
</svg>
