<svg width="40" height="40" viewBox="0 0 40 40" fill="none" xmlns="http://www.w3.org/2000/svg">
<path d="M5.34492 24.3335L5.26719 14.0158L5.29742 14.033C2.71476 14.033 0.620117 11.9384 0.620117 9.35573C0.620117 6.77307 2.71476 4.67843 5.29742 4.67843C6.39441 4.67843 7.40069 5.05417 8.19536 5.68472C11.1149 2.57084 15.2696 0.623047 19.8778 0.623047C24.486 0.623047 28.6019 2.55357 31.5214 5.64585C32.3117 5.0369 33.2964 4.67843 34.3718 4.67843C36.9545 4.67843 39.0491 6.77307 39.0491 9.35573C39.0491 11.9384 36.9545 14.033 34.3718 14.033L34.3027 14.0158L34.3805 24.1261" fill="#EDCBB1"/>
<path d="M5.9928 24.3326C5.9712 21.3267 5.94529 18.3208 5.92369 15.3149C5.92369 14.8787 5.91506 14.4468 5.91506 14.0106L4.939 14.572L4.96923 14.5893L5.29747 13.38C2.65434 13.3368 0.67631 10.7844 1.43211 8.21037C2.25269 5.41177 5.6257 4.53072 7.87149 6.24098L7.74192 5.22174C7.23662 5.85661 8.07016 6.75924 8.65752 6.13733C13.2571 1.28296 20.6552 -0.150893 26.6843 2.8507C28.3298 3.67128 29.7982 4.76826 31.068 6.09846C31.2493 6.28849 31.6294 6.36623 31.854 6.19779C34.1257 4.51345 37.4857 5.46359 38.2588 8.27515C38.5957 9.49307 38.3322 10.8319 37.5549 11.8296C37.1834 12.3046 36.6997 12.689 36.1599 12.9611C35.7366 13.1727 34.9463 13.4966 34.4755 13.38C34.0696 13.2807 33.6506 13.5744 33.6549 14.0062C33.6765 16.9603 33.6981 19.9101 33.7197 22.8642C33.7197 23.2831 33.724 23.6977 33.7284 24.1166C33.7327 24.9502 35.0283 24.9502 35.024 24.1166C35.0024 21.1626 34.9808 18.2128 34.9592 15.2587C34.9592 14.8398 34.9549 14.4252 34.9506 14.0062L34.13 14.6325C35.2572 14.9089 36.7213 14.2481 37.5937 13.5787C38.6259 12.7883 39.3731 11.6222 39.602 10.3352C40.0684 7.68779 38.5136 5.0533 35.9266 4.25432C34.3244 3.75765 32.5407 4.08156 31.1975 5.07922L31.9835 5.17855C26.9607 -0.0904295 18.9277 -1.52428 12.4063 1.73644C10.6615 2.60884 9.08508 3.80516 7.74192 5.21742L8.65752 6.13301C8.94257 5.77887 8.8821 5.38585 8.52795 5.11377C6.29943 3.41646 2.98689 3.76197 1.20753 5.94298C-0.476814 8.0117 -0.399085 11.0565 1.44074 13.0043C2.44271 14.071 3.85065 14.6411 5.30178 14.667C5.96256 14.6757 6.16123 13.7903 5.63002 13.4578L5.59978 13.4405C5.18085 13.1814 4.61941 13.5182 4.62373 14.0019C4.64533 17.0078 4.67123 20.0137 4.69282 23.0197C4.69282 23.4559 4.70147 23.8877 4.70147 24.3239C4.70579 25.1575 6.00144 25.1575 5.99712 24.3239L5.9928 24.3326Z" fill="#37241C"/>
<path d="M19.9862 27.6416C26.0208 27.6416 30.9129 24.4608 30.9129 20.5371C30.9129 16.6134 26.0208 13.4326 19.9862 13.4326C13.9516 13.4326 9.05957 16.6134 9.05957 20.5371C9.05957 24.4608 13.9516 27.6416 19.9862 27.6416Z" fill="#F7F6F2"/>
<path d="M27.7167 14.0103C28.5348 14.0103 29.1981 13.0319 29.1981 11.825C29.1981 10.6181 28.5348 9.63965 27.7167 9.63965C26.8986 9.63965 26.2354 10.6181 26.2354 11.825C26.2354 13.0319 26.8986 14.0103 27.7167 14.0103Z" fill="#37241C"/>
<path d="M11.9442 14.0103C12.7624 14.0103 13.4256 13.0319 13.4256 11.825C13.4256 10.6181 12.7624 9.63965 11.9442 9.63965C11.1261 9.63965 10.4629 10.6181 10.4629 11.825C10.4629 13.0319 11.1261 14.0103 11.9442 14.0103Z" fill="#37241C"/>
<path d="M9.23203 16.1008C10.4024 16.4376 11.5728 16.7745 12.7432 17.1114L13.2529 17.2582C13.5768 17.3532 13.9741 17.1459 14.0518 16.8047C14.1296 16.4635 13.9482 16.1094 13.5984 16.0057C12.428 15.6689 11.2576 15.332 10.0872 14.9951L9.57753 14.8483C9.25361 14.7533 8.85629 14.9606 8.77855 15.3018C8.70081 15.643 8.8822 15.9971 9.23203 16.1008Z" fill="#37241C"/>
<path d="M8.61918 19.6631C9.78527 19.5205 10.947 19.378 12.1131 19.2355L12.6098 19.175C12.9467 19.1318 13.2749 18.9073 13.2576 18.5272C13.2447 18.2119 12.9682 17.8362 12.6098 17.8794C11.4437 18.0219 10.2819 18.1644 9.11585 18.307L8.61918 18.3674C8.28231 18.4106 7.95408 18.6352 7.97136 19.0152C7.98431 19.3305 8.26072 19.7063 8.61918 19.6631Z" fill="#37241C"/>
<path d="M26.5501 17.2576C27.7723 16.9768 28.9988 16.6961 30.2211 16.4197L30.7437 16.2988C31.0762 16.221 31.3008 15.8237 31.1971 15.4998C31.0848 15.1543 30.7566 14.9643 30.3982 15.0463C29.1759 15.327 27.9494 15.6078 26.7271 15.8842L26.2046 16.0051C25.872 16.0828 25.6474 16.4802 25.7511 16.8041C25.8634 17.1496 26.1916 17.3396 26.5501 17.2576Z" fill="#37241C"/>
<path d="M27.5442 19.1491C28.7016 19.3391 29.8634 19.5334 31.0208 19.7235L31.5218 19.8055C31.8544 19.8617 32.2344 19.7191 32.3208 19.352C32.3899 19.0411 32.2258 18.6135 31.8673 18.5531C30.7099 18.363 29.5481 18.1687 28.3907 17.9787L27.8897 17.8966C27.5571 17.8404 27.1771 17.983 27.0907 18.3501C27.0216 18.661 27.1857 19.0886 27.5442 19.1491Z" fill="#37241C"/>
<path d="M13.5481 21.2754C6.45557 30.0048 11.1687 36.3793 14.5771 38.544C19.1193 41.2427 24.7304 39.5325 25.7676 38.6405C25.8373 38.5806 25.9052 38.5165 25.9804 38.4637C32.2712 34.0395 30.1179 25.8806 26.8612 21.3279C26.432 20.7278 25.5429 20.8792 25.2661 21.5632L24.8924 22.4864C24.5603 23.3069 23.4044 23.3232 23.0494 22.5122L21.1436 18.1587C20.793 17.3578 19.6557 17.3608 19.3094 18.1636L17.4291 22.5219C17.0794 23.3326 15.9274 23.3254 15.5879 22.5104L15.1798 21.5309C14.8987 20.8563 14.009 20.7082 13.5481 21.2754Z" fill="#D0411F"/>
<path d="M16.2503 27.7454C12.6449 32.3951 15.1376 35.7853 16.9466 36.9463C19.3226 38.3729 22.2427 37.5318 22.9125 37.039C22.9866 36.9844 23.0554 36.9191 23.1298 36.865C26.3681 34.5106 25.3455 30.2627 23.675 27.7726C23.3974 27.3588 22.798 27.4592 22.6128 27.9217C22.3908 28.4759 21.6102 28.4868 21.3729 27.939L20.9052 26.8593C20.5562 26.0537 19.4127 26.0567 19.0679 26.8642L18.616 27.9229C18.3786 28.479 17.5886 28.4741 17.3581 27.9151C17.1671 27.4518 16.5574 27.3493 16.2503 27.7454Z" fill="#FECD78"/>
<path d="M4.52844 8.65039C5.12444 9.24639 5.71611 9.83807 6.31211 10.4341L6.56693 10.6889C6.80878 10.9307 7.24498 10.948 7.48252 10.6889C7.72006 10.4298 7.73733 10.0281 7.48252 9.77329C6.88652 9.17729 6.29484 8.58561 5.69884 7.98961L5.44403 7.7348C5.20217 7.49295 4.76597 7.47567 4.52844 7.7348C4.2909 7.99393 4.27363 8.39558 4.52844 8.65039Z" fill="#37241C"/>
<path d="M34.2167 7.73547C33.6207 8.33147 33.029 8.92315 32.433 9.51915L32.1782 9.77396C31.9363 10.0158 31.919 10.452 32.1782 10.6896C32.4373 10.9271 32.8389 10.9444 33.0938 10.6896C33.6897 10.0936 34.2814 9.50187 34.8774 8.90587L35.1322 8.65106C35.3741 8.40921 35.3914 7.973 35.1322 7.73547C34.8731 7.49793 34.4715 7.48066 34.2167 7.73547Z" fill="#37241C"/>
<path d="M19.8565 15.479C21.624 15.479 23.0568 14.5625 23.0568 13.4319C23.0568 12.3013 21.624 11.3848 19.8565 11.3848C18.0891 11.3848 16.6562 12.3013 16.6562 13.4319C16.6562 14.5625 18.0891 15.479 19.8565 15.479Z" fill="#37241C"/>
<path d="M8.62286 32.6402C11.2752 32.6402 13.4254 30.4901 13.4254 27.8377C13.4254 25.1853 11.2752 23.0352 8.62286 23.0352C5.97048 23.0352 3.82031 25.1853 3.82031 27.8377C3.82031 30.4901 5.97048 32.6402 8.62286 32.6402Z" fill="#EDCBB1"/>
<path d="M12.7772 27.8393C12.7556 29.5625 11.6932 31.1518 10.052 31.7435C8.41085 32.3352 6.50625 31.8255 5.38767 30.4565C4.26909 29.0874 4.17408 27.1828 5.05512 25.7101C5.93617 24.2374 7.68529 23.4297 9.36964 23.7536C11.339 24.1294 12.7513 25.8483 12.7772 27.8436C12.7901 28.6771 14.0858 28.6771 14.0728 27.8436C14.0426 25.5676 12.6476 23.5463 10.5141 22.7344C8.39358 21.9268 5.86706 22.6048 4.43321 24.3626C2.99936 26.1204 2.75749 28.6598 3.93653 30.6335C5.11558 32.6073 7.40888 33.6006 9.65036 33.1989C12.2114 32.7368 14.0383 30.409 14.0728 27.8479C14.0858 27.0144 12.7901 27.0144 12.7772 27.8479V27.8393Z" fill="#37241C"/>
<path d="M31.1033 32.443C33.7557 32.443 35.9059 30.2928 35.9059 27.6404C35.9059 24.9881 33.7557 22.8379 31.1033 22.8379C28.451 22.8379 26.3008 24.9881 26.3008 27.6404C26.3008 30.2928 28.451 32.443 31.1033 32.443Z" fill="#EDCBB1"/>
<path d="M35.2577 27.6419C35.2361 29.3651 34.1736 30.9545 32.5325 31.5462C30.8913 32.1378 28.9867 31.6282 27.8681 30.2591C26.7496 28.8901 26.6545 26.9855 27.5356 25.5127C28.4166 24.04 30.1658 23.2324 31.8501 23.5563C33.8195 23.932 35.2318 25.6509 35.2577 27.6463C35.2706 28.4798 36.5663 28.4798 36.5533 27.6463C36.5231 25.3702 35.1281 23.349 32.9946 22.5371C30.8611 21.7251 28.3475 22.4075 26.9137 24.1653C25.4798 25.923 25.238 28.4625 26.417 30.4362C27.5961 32.4099 29.8893 33.4033 32.1308 33.0016C34.6919 32.5395 36.5188 30.2116 36.5533 27.6506C36.5663 26.817 35.2706 26.817 35.2577 27.6506V27.6419Z" fill="#37241C"/>
</svg>
