<svg width="50" height="50" viewBox="0 0 50 50" fill="none" xmlns="http://www.w3.org/2000/svg">
<path fill-rule="evenodd" clip-rule="evenodd" d="M27.5 17.3039C27.5 15.9387 26.3808 14.8319 25 14.8319C23.6193 14.8319 22.5 15.9387 22.5 17.3039V22.2479H17.5C16.1193 22.2479 15 23.3546 15 24.7199C15 26.0852 16.1193 27.1919 17.5 27.1919H22.5V32.1359C22.5 33.5011 23.6193 34.6078 25 34.6078C26.3808 34.6078 27.5 33.5011 27.5 32.1359V27.1919H32.5C33.8808 27.1919 35 26.0852 35 24.7199C35 23.3546 33.8808 22.2479 32.5 22.2479H27.5V17.3039ZM0 24.7199C0 11.0675 11.1929 0 25 0C38.807 0 50 11.0675 50 24.7199C50 38.3722 38.807 49.4398 25 49.4398C11.1929 49.4398 0 38.3722 0 24.7199Z" fill="#257D6F"/>
</svg>
