<svg width="30" height="30" viewBox="0 0 30 30" fill="none" xmlns="http://www.w3.org/2000/svg">
<path fill-rule="evenodd" clip-rule="evenodd" d="M0 15C0 6.71572 6.71572 0 15 0C23.2842 0 30 6.71572 30 15C30 23.2842 23.2842 30 15 30C6.71572 30 0 23.2842 0 15ZM10.5 14.25C10.5 12.179 12.179 10.5 14.25 10.5C16.3211 10.5 18 12.179 18 14.25C18 16.3211 16.3211 18 14.25 18C12.179 18 10.5 16.3211 10.5 14.25ZM14.25 7.5C10.5221 7.5 7.5 10.5221 7.5 14.25C7.5 17.978 10.5221 21 14.25 21C15.5708 21 16.803 20.6206 17.8436 19.965L19.9394 22.0606C20.5251 22.6464 21.4749 22.6464 22.0606 22.0606C22.6464 21.4749 22.6464 20.5251 22.0606 19.9394L19.965 17.8436C20.6206 16.803 21 15.5708 21 14.25C21 10.5221 17.978 7.5 14.25 7.5Z" fill="#9AA4A2"/>
</svg>
