<svg width="42" height="42" viewBox="0 0 42 42" fill="none" xmlns="http://www.w3.org/2000/svg">
<path d="M21 36C12.7155 36 6 29.2845 6 21C6 12.7155 12.7155 6 21 6C29.2845 6 36 12.7155 36 21C36 29.2845 29.2845 36 21 36ZM21 8.44754C13.6569 8.44754 8.44754 13.6569 8.44754 21C8.44754 28.3431 13.6567 33.5521 20.9998 33.5521C28.3429 33.5521 33.5521 28.3431 33.5521 21C33.5521 13.6569 28.3431 8.44754 21 8.44754Z" fill="#2F9685"/>
<path d="M12.6316 20.9998C12.6316 20.0755 13.3809 19.3262 14.3052 19.3262H27.6944C28.6187 19.3262 29.368 20.0755 29.368 20.9998C29.368 21.9241 28.6187 22.6735 27.6944 22.6735H14.3052C13.3809 22.6735 12.6316 21.9241 12.6316 20.9998Z" fill="#2F9685"/>
<path d="M19.3259 14.3052C19.3259 13.3809 20.0752 12.6316 20.9996 12.6316C21.9239 12.6316 22.6732 13.3809 22.6732 14.3052V27.6944C22.6732 28.6187 21.9239 29.368 20.9996 29.368C20.0752 29.368 19.3259 28.6187 19.3259 27.6944V14.3052Z" fill="#2F9685"/>
</svg>
