<svg width="22" height="22" viewBox="0 0 22 22" fill="none" xmlns="http://www.w3.org/2000/svg">
<path d="M2.52075 5.6527C2.52075 5.23082 2.83735 4.88882 3.2279 4.88882L5.67012 4.88841C6.15535 4.87513 6.58344 4.54184 6.74855 4.04875C6.75289 4.03579 6.75788 4.0198 6.77578 3.96178L6.88101 3.62069C6.94541 3.41156 7.00151 3.22936 7.08002 3.0665C7.39017 2.42312 7.96399 1.97634 8.6271 1.86196C8.79494 1.833 8.97269 1.83313 9.17676 1.83327H12.3649C12.569 1.83313 12.7467 1.833 12.9146 1.86196C13.5777 1.97634 14.1515 2.42312 14.4616 3.0665C14.5402 3.22936 14.5963 3.41156 14.6606 3.62069L14.7659 3.96178C14.7838 4.0198 14.7888 4.03579 14.7931 4.04875C14.9583 4.54184 15.4712 4.87554 15.9564 4.88882H18.3136C18.7041 4.88882 19.0208 5.23082 19.0208 5.6527C19.0208 6.07459 18.7041 6.41658 18.3136 6.41658H3.2279C2.83735 6.41658 2.52075 6.07459 2.52075 5.6527Z" fill="#F7F6F2"/>
<path d="M10.6397 20.1665H11.361C13.8429 20.1665 15.0837 20.1665 15.8906 19.3753C16.6974 18.584 16.78 17.2861 16.9451 14.6902L17.183 10.9496C17.2726 9.54117 17.3174 8.83689 16.9126 8.39061C16.5078 7.94434 15.8243 7.94434 14.4572 7.94434H7.54338C6.17632 7.94434 5.49279 7.94434 5.08802 8.39061C4.68325 8.83689 4.72804 9.54117 4.81762 10.9496L5.0555 14.6902C5.22059 17.2861 5.30314 18.584 6.10998 19.3753C6.91682 20.1665 8.15775 20.1665 10.6397 20.1665Z" fill="#F7F6F2"/>
</svg>
