<svg width="114" height="140" viewBox="0 0 114 140" fill="none" xmlns="http://www.w3.org/2000/svg">
<path d="M43.157 83.6436C43.157 83.6436 36.3813 103.247 3.75299 113.772C0.102039 114.956 0.463843 120.482 4.0819 121.798C11.0549 124.363 34.8683 126.501 44.2753 123.541L43.157 83.6436Z" fill="#EDCBB1"/>
<path d="M41.9734 83.3142C41.9734 83.3142 41.8418 83.6102 41.8089 83.7747C41.9734 83.3471 41.7431 83.9063 41.6774 84.0707C41.5787 84.3339 41.4471 84.5641 41.3156 84.7943C40.5262 86.3731 39.5723 87.8861 38.5527 89.3334C34.8359 94.5631 29.8364 99.0363 24.4751 102.622C20.4295 105.319 16.1207 107.588 11.6803 109.496C8.98324 110.647 6.22036 111.568 3.45748 112.555C1.64845 113.213 0.365681 114.627 0.0696577 116.567C-0.226366 118.508 0.431464 120.482 1.8458 121.797C2.997 122.85 4.57579 123.277 6.0559 123.639C9.67396 124.56 13.3907 125.021 17.1074 125.415C21.5807 125.909 26.0868 126.172 30.56 126.172C34.5399 126.172 38.5527 126.04 42.4668 125.251C43.1904 125.086 43.9469 124.922 44.6376 124.692C45.131 124.527 45.5586 124.067 45.5586 123.508C45.427 119.001 45.2954 114.528 45.1967 110.022L44.6047 88.544C44.5718 86.8994 44.506 85.2548 44.4731 83.6103C44.4402 81.9657 41.9734 82.0315 42.0063 83.6103C42.1378 88.1164 42.2694 92.5896 42.3681 97.0957L42.9601 118.574C42.993 120.218 43.0588 121.863 43.0917 123.508L44.0127 122.323C40.6906 123.343 37.1383 123.573 33.6847 123.672C29.3431 123.804 24.9685 123.639 20.6268 123.277C16.7456 122.981 12.8644 122.521 9.04903 121.764C6.58217 121.271 2.66808 120.909 2.47073 117.686C2.43784 116.995 2.56941 116.239 3.02989 115.679C3.68772 114.857 4.9047 114.693 5.82566 114.364C8.3912 113.476 10.8909 112.522 13.3907 111.436C17.6995 109.562 21.8438 107.358 25.7579 104.727C31.2179 101.076 36.1845 96.6353 40.1315 91.3397C41.8089 89.1031 43.4535 86.6034 44.4074 83.9063C44.9336 82.3933 42.5325 81.7683 42.0392 83.2484L41.9734 83.3142Z" fill="#3A251D"/>
<path d="M56.1169 112.749L54.7684 141.66C54.7684 148.14 48.4532 153.37 40.625 153.37C32.7969 153.37 26.4817 148.14 26.4817 141.66L28.4552 88.968L56.084 112.749H56.1169Z" fill="#EDCBB1"/>
<path d="M54.9009 112.749C54.572 119.985 54.2431 127.222 53.8813 134.458C53.7497 136.99 53.6839 139.523 53.5524 142.056C53.1248 149.456 44.6388 153.008 38.1592 151.923C32.9623 151.068 27.7326 147.187 27.7984 141.464C27.7984 139.424 27.9628 137.385 28.0286 135.346L29.0154 108.605C29.2456 102.06 29.5087 95.4813 29.739 88.9359L27.6339 89.824C35.6923 96.7641 43.7507 103.704 51.8091 110.644C52.9603 111.631 54.1115 112.618 55.2627 113.605C56.4139 114.591 58.223 112.914 57.006 111.861C48.9476 104.921 40.8892 97.9811 32.8308 91.041C31.6796 90.0542 30.5284 89.0675 29.3772 88.0808C28.5549 87.39 27.305 87.8505 27.2721 88.9688C26.713 104.296 26.1209 119.624 25.5617 134.918C25.4631 137.122 25.3315 139.326 25.2986 141.529C25.2328 147.121 29.4101 151.561 34.4096 153.469C40.8563 155.936 49.1449 154.324 53.4866 148.733C55.9206 145.608 55.9863 142.121 56.1508 138.405C56.5455 129.853 56.9402 121.268 57.3349 112.716C57.4007 111.138 54.9338 111.138 54.868 112.716L54.9009 112.749Z" fill="#3A251D"/>
<path d="M74.5693 112.751L75.9179 141.663C75.9179 148.143 82.2331 153.372 90.0612 153.372C97.8894 153.372 104.205 148.143 104.205 141.663L102.231 88.9709L74.6022 112.751H74.5693Z" fill="#EDCBB1"/>
<path d="M73.3193 112.75C73.6811 120.447 74.0429 128.11 74.4047 135.807C74.5363 138.636 74.306 141.958 75.0954 144.721C77.036 151.43 84.4037 154.95 90.982 154.555C97.5603 154.16 104.303 150.049 105.257 143.175C105.52 141.267 105.257 139.293 105.224 137.386L104.204 110.184C103.941 103.113 103.678 96.0411 103.415 88.9366C103.382 87.8183 102.132 87.3578 101.31 88.0485C93.2515 94.9886 85.1931 101.929 77.1347 108.869C75.9835 109.856 74.8323 110.842 73.6811 111.829C72.4641 112.882 74.2403 114.592 75.4244 113.572C83.4828 106.632 91.5412 99.6921 99.5996 92.752C100.751 91.7653 101.902 90.7785 103.053 89.7918L100.948 88.9037C101.507 103.508 102.034 118.144 102.593 132.748L102.889 140.708C103.053 144.819 100.882 148.24 97.2972 150.246C91.3109 153.601 82.2 152.417 78.4504 146.234C76.8387 143.569 77.0689 140.28 76.9374 137.287C76.5427 129.097 76.1809 120.907 75.7862 112.717C75.7204 111.138 73.2535 111.138 73.3193 112.717V112.75Z" fill="#3A251D"/>
<path d="M101.145 58.9735L100.948 34.1404H101.112C107.46 34.1733 112.624 29.0422 112.624 22.6942C112.624 16.3461 107.493 11.1822 101.112 11.1822C98.4808 11.1822 96.0468 12.0702 94.1062 13.5504C86.9359 5.95244 76.7724 1.21606 65.4907 1.21606C54.2089 1.21606 43.9468 5.98534 36.7764 13.649C34.8029 12.1031 32.3361 11.1822 29.639 11.1822C23.2909 11.1822 18.127 16.3133 18.127 22.6942C18.127 29.0751 23.258 34.2062 29.639 34.2062H29.5732L29.7705 59.5326L27.3037 98.3117C27.3037 102.588 27.8299 106.765 28.7838 110.679C32.5005 125.644 42.7627 137.387 55.7219 141.334C55.8864 141.399 56.0837 141.432 56.2482 141.498C59.1755 142.353 62.2344 142.781 65.3591 142.781C86.3767 142.781 103.415 122.882 103.415 98.3117L101.079 59.0064L101.145 58.9735Z" fill="#EDCBB1"/>
<path d="M102.396 58.9744C102.33 50.6858 102.264 42.3971 102.199 34.1413L100.653 35.3254C104.106 36.1806 108.514 33.5822 110.718 31.0824C113.415 27.9906 114.467 23.8134 113.579 19.8335C111.573 10.92 100.817 7.20323 93.5482 12.4988L95.0283 12.6961C87.3317 4.67059 76.6749 0 65.5247 0C54.3745 0 43.6519 4.70348 35.9553 12.7948L37.6985 14.538C38.2577 13.8802 38.1261 13.0908 37.4354 12.5974C30.4295 7.3348 20.0358 10.5582 17.5032 19.0442C14.9705 27.5302 21.3844 35.2268 29.7059 35.4241C30.9558 35.4241 31.3505 33.7467 30.3308 33.1217H30.2651C29.4757 32.5955 28.3902 33.2204 28.4231 34.1413C28.4889 43.7456 29.0152 53.4486 28.3902 63.0529L27.0088 84.9586C26.6799 90.3528 25.9234 95.8786 26.2523 101.306C26.943 113.443 31.8438 125.514 40.8232 133.868C49.8026 142.223 61.2817 145.709 72.8595 143.177C92.7917 138.835 105.685 117.357 104.764 97.7534C104.172 85.2218 103.284 72.6901 102.528 60.1914L102.462 59.0073C102.363 57.4285 99.8963 57.4285 99.995 59.0073C100.686 70.7166 101.376 82.4589 102.067 94.1683C102.495 101.273 101.87 108.213 99.4687 115.021C95.9164 124.988 88.8448 133.835 79.2076 138.44C68.5836 143.505 56.052 142.091 46.4805 135.348C36.9091 128.606 30.7913 117.061 29.1139 105.384C28.2916 99.4967 28.9165 93.7078 29.3112 87.8202C29.7717 80.4525 30.2322 73.0848 30.7255 65.7171C31.3505 55.7181 31.0216 45.7191 30.9558 35.6872V34.1413C30.3308 34.5031 29.7059 34.865 29.081 35.1939H29.1467C29.3441 34.4703 29.5743 33.7137 29.7717 32.9243C23.0289 32.7599 17.9308 26.2803 19.9371 19.6691C22.0751 12.5974 30.5611 10.4266 36.2513 14.7025L35.9882 12.7619C35.0014 13.9789 36.6131 15.6892 37.7314 14.5051C45.0004 6.87432 54.9994 2.43397 65.5576 2.43397C76.1158 2.43397 86.049 6.84143 93.318 14.4065C93.6798 14.7683 94.3705 14.8998 94.7981 14.6038C100.587 10.3937 109.106 12.7619 111.079 19.9322C111.935 23.0569 111.244 26.4776 109.237 29.0432C108.284 30.2601 107.067 31.2469 105.652 31.9047C104.567 32.431 102.56 33.2204 101.344 32.9243C100.587 32.727 99.7647 33.2862 99.7976 34.1084C99.8634 42.3971 99.9292 50.6857 99.995 58.9415C99.995 60.5203 102.462 60.5203 102.462 58.9415L102.396 58.9744Z" fill="#3A251D"/>
<path d="M64.9983 132.487C50.2958 132.487 38.3562 118.607 38.3562 101.471C38.3562 84.3341 50.2958 70.4539 64.9983 70.4539C79.7008 70.4539 91.6404 84.3341 91.6404 101.471C91.6404 118.607 79.7008 132.487 64.9983 132.487Z" fill="#F7F6F2"/>
<path d="M65.3912 64.0047C80.2687 64.0047 92.3293 57.1866 92.3293 48.776C92.3293 40.3654 80.2687 33.5472 65.3912 33.5472C50.5137 33.5472 38.4531 40.3654 38.4531 48.776C38.4531 57.1866 50.5137 64.0047 65.3912 64.0047Z" fill="#F7F6F2"/>
<path d="M84.4703 34.9632C86.4867 34.9632 88.1212 32.5481 88.1212 29.569C88.1212 26.5899 86.4867 24.1748 84.4703 24.1748C82.4539 24.1748 80.8193 26.5899 80.8193 29.569C80.8193 32.5481 82.4539 34.9632 84.4703 34.9632Z" fill="#37241C"/>
<path d="M45.5582 34.9632C47.5745 34.9632 49.2091 32.5481 49.2091 29.569C49.2091 26.5899 47.5745 24.1748 45.5582 24.1748C43.5418 24.1748 41.9072 26.5899 41.9072 29.569C41.9072 32.5481 43.5418 34.9632 45.5582 34.9632Z" fill="#37241C"/>
<path d="M38.9809 39.7642C40.0992 40.0931 41.2176 40.4221 42.3359 40.7181L47.6643 42.264L48.9142 42.6258C49.5391 42.7903 50.2956 42.3955 50.4272 41.7706C50.5587 41.1457 50.2298 40.455 49.572 40.2576C48.4537 39.9287 47.3354 39.5998 46.2171 39.3038L40.8886 37.7578L39.6388 37.396C39.0138 37.2316 38.2573 37.6263 38.1258 38.2512C37.9942 38.8762 38.3231 39.5669 38.9809 39.7642Z" fill="#37241C"/>
<path d="M37.3685 48.5478C38.4868 48.4162 39.5723 48.2847 40.6906 48.1531L45.9861 47.4953L47.2031 47.3308C47.532 47.298 47.828 47.2322 48.0912 46.969C48.3214 46.7388 48.453 46.4099 48.453 46.081C48.453 45.4889 47.8938 44.7653 47.2031 44.8311C46.0848 44.9627 44.9994 45.0942 43.881 45.2258L38.5855 45.8836L37.3685 46.0481C37.0396 46.081 36.7436 46.1467 36.4805 46.4099C36.2502 46.6401 36.1187 46.969 36.1187 47.2979C36.1187 47.89 36.6778 48.6136 37.3685 48.5478Z" fill="#37241C"/>
<path d="M81.4771 42.6273C82.6283 42.3642 83.8124 42.101 84.9636 41.8379L90.5223 40.5551C90.9499 40.4564 91.3774 40.3578 91.805 40.2591C92.43 40.1275 92.8576 39.371 92.6602 38.7461C92.4629 38.0883 91.805 37.7265 91.1472 37.8909C89.996 38.154 88.8119 38.4172 87.6607 38.6803L82.102 39.9631C81.6745 40.0617 81.2469 40.1604 80.8193 40.2591C80.1943 40.3907 79.7668 41.1472 79.9641 41.7721C80.1615 42.4299 80.8193 42.7917 81.4771 42.6273Z" fill="#37241C"/>
<path d="M84.1401 47.2957C85.2584 47.4931 86.3438 47.6575 87.4621 47.8549L92.7576 48.7429L93.9746 48.9403C94.3035 49.0061 94.6324 49.0061 94.9285 48.8087C95.1916 48.6443 95.4218 48.3811 95.4876 48.0851C95.6192 47.4931 95.3232 46.6708 94.6324 46.5721C93.5141 46.3748 92.4287 46.2103 91.3104 46.013L86.0149 45.1249L84.7979 44.9275C84.469 44.8617 84.1401 44.8617 83.844 45.0591C83.5809 45.2236 83.3507 45.4867 83.2849 45.7827C83.1533 46.3748 83.4493 47.197 84.1401 47.2957Z" fill="#37241C"/>
<path d="M65.0636 38.5788C69.4233 38.5788 72.9576 36.3257 72.9576 33.5464C72.9576 30.7671 69.4233 28.514 65.0636 28.514C60.7039 28.514 57.1697 30.7671 57.1697 33.5464C57.1697 36.3257 60.7039 38.5788 65.0636 38.5788Z" fill="#37241C"/>
<g clip-path="url(#clip0_1102_19726)">
<path d="M46.0097 74.7605L64.2325 92.9833C65.4041 94.1549 67.3036 94.1549 68.4751 92.9833L86.698 74.7605C89.0933 72.3651 90.4391 69.1162 90.4391 65.7286V65.1556C90.4391 58.4177 84.9768 52.9554 78.239 52.9554C74.5326 52.9554 71.0273 54.6402 68.7121 57.5342C67.5111 59.0355 65.1965 59.0355 63.9955 57.5342C61.6803 54.6402 58.175 52.9554 54.4688 52.9554C47.7308 52.9554 42.2686 58.4177 42.2686 65.1556V65.7286C42.2686 69.1162 43.6143 72.3651 46.0097 74.7605Z" fill="#E52C2C"/>
</g>
<path d="M37.369 80.9108C43.9086 80.9108 49.2099 75.6094 49.2099 69.0698C49.2099 62.5303 43.9086 57.2289 37.369 57.2289C30.8294 57.2289 25.5281 62.5303 25.5281 69.0698C25.5281 75.6094 30.8294 80.9108 37.369 80.9108Z" fill="#EDCBB1"/>
<path d="M47.9937 69.0705C47.9937 73.478 45.1979 77.5565 41.0207 79.0366C36.8435 80.5168 32.0414 79.234 29.1798 75.7804C26.3182 72.3268 26.0551 67.3931 28.2917 63.6434C30.5284 59.8938 35.166 57.7888 39.5077 58.6768C44.4414 59.6965 47.9937 64.071 48.0266 69.0705C48.0266 70.6493 50.4935 70.6493 50.4935 69.0705C50.4606 63.5777 47.007 58.6768 41.843 56.7691C36.6791 54.8614 30.7586 56.5389 27.3379 60.749C23.9172 64.9591 23.3251 71.1756 26.2525 75.9119C29.1798 80.6483 34.6398 82.9507 40.0011 81.8982C46.0531 80.7141 50.4277 75.1883 50.4935 69.0705C50.4935 67.4917 48.0266 67.4917 48.0266 69.0705H47.9937Z" fill="#3A251D"/>
<path d="M92.8236 80.4183C99.3632 80.4183 104.665 75.1169 104.665 68.5774C104.665 62.0378 99.3632 56.7365 92.8236 56.7365C86.284 56.7365 80.9827 62.0378 80.9827 68.5774C80.9827 75.1169 86.284 80.4183 92.8236 80.4183Z" fill="#EDCBB1"/>
<path d="M103.416 68.578C103.416 72.9854 100.62 77.064 96.4426 78.5441C92.2654 80.0242 87.4632 78.7414 84.6017 75.2878C81.7401 71.8342 81.477 66.9005 83.7136 63.1509C85.9502 59.4013 90.5879 57.2962 94.9296 58.1843C99.8633 59.2039 103.416 63.5785 103.448 68.578C103.448 70.1568 105.915 70.1568 105.915 68.578C105.882 63.0851 102.429 58.1843 97.2649 56.2766C92.1009 54.3688 86.1805 56.0463 82.7598 60.2564C79.339 64.4665 78.747 70.683 81.6743 75.4194C84.6017 80.1558 90.0617 82.4582 95.423 81.4057C101.475 80.2216 105.85 74.6958 105.915 68.578C105.915 66.9992 103.448 66.9992 103.448 68.578H103.416Z" fill="#3A251D"/>
<defs>
<clipPath id="clip0_1102_19726">
<rect width="48.1705" height="48.1705" fill="white" transform="translate(43.5447 48.9678)"/>
</clipPath>
</defs>
</svg>
