<svg width="128" height="174" viewBox="0 0 128 174" fill="none" xmlns="http://www.w3.org/2000/svg">
<path d="M48.4471 93.8916C48.4471 93.8916 40.8412 115.897 4.21425 127.712C0.115878 129.042 0.522021 135.245 4.58347 136.721C12.411 139.601 39.1427 142.001 49.7025 138.678L48.4471 93.8916Z" fill="#EDCBB1"/>
<path d="M47.1172 93.5235C47.1172 93.5235 46.9695 93.8558 46.9326 94.0404C47.1172 93.5604 46.8587 94.1881 46.7849 94.3727C46.6741 94.6681 46.5264 94.9266 46.3787 95.185C45.4926 96.9573 44.4218 98.6557 43.2773 100.28C39.105 106.151 33.4929 111.172 27.4745 115.197C22.9331 118.225 18.0963 120.772 13.1118 122.914C10.0841 124.206 6.98266 125.24 3.88119 126.347C1.85046 127.086 0.410495 128.674 0.0781941 130.852C-0.254106 133.03 0.484339 135.246 2.072 136.723C3.36428 137.904 5.13655 138.384 6.79805 138.79C10.8595 139.824 15.0317 140.341 19.2039 140.784C24.2254 141.338 29.2837 141.633 34.3051 141.633C38.7727 141.633 43.2773 141.486 47.671 140.599C48.4833 140.415 49.3325 140.23 50.1079 139.972C50.6617 139.787 51.1417 139.27 51.1417 138.643C50.994 133.584 50.8463 128.563 50.7356 123.504L50.071 99.3942C50.034 97.548 49.9602 95.7019 49.9233 93.8558C49.8864 92.0097 47.1172 92.0835 47.1541 93.8558C47.3018 98.9142 47.4495 103.936 47.5602 108.994L48.2248 133.104C48.2618 134.95 48.3356 136.796 48.3725 138.643L49.4064 137.313C45.6772 138.458 41.6896 138.716 37.8128 138.827C32.939 138.975 28.0284 138.79 23.1546 138.384C18.7978 138.052 14.441 137.535 10.158 136.686C7.3888 136.132 2.99505 135.726 2.77352 132.107C2.7366 131.332 2.88429 130.483 3.4012 129.855C4.13964 128.932 5.50577 128.747 6.53959 128.378C9.41953 127.381 12.2256 126.31 15.0317 125.092C19.8685 122.987 24.5207 120.514 28.9145 117.56C35.0436 113.462 40.6189 108.477 45.0495 102.533C46.9326 100.022 48.7787 97.2157 49.8494 94.1881C50.4402 92.4897 47.7449 91.7882 47.191 93.4497L47.1172 93.5235Z" fill="#3A251D"/>
<path d="M62.9935 126.57L61.4797 159.024C61.4797 166.298 54.3907 172.169 45.6031 172.169C36.8156 172.169 29.7266 166.298 29.7266 159.024L31.9419 99.8748L62.9566 126.57H62.9935Z" fill="#EDCBB1"/>
<path d="M61.6254 126.571C61.2562 134.694 60.887 142.817 60.4809 150.94C60.3332 153.783 60.2593 156.626 60.1116 159.469C59.6316 167.776 50.1057 171.764 42.832 170.545C36.9983 169.585 31.1276 165.229 31.2015 158.804C31.2015 156.515 31.3861 154.226 31.4599 151.937L32.5676 121.919C32.8261 114.571 33.1214 107.187 33.3799 99.8392L31.0169 100.836C40.0628 108.627 49.1088 116.417 58.1548 124.208C59.447 125.316 60.7393 126.423 62.0316 127.531C63.3239 128.639 65.3546 126.756 63.9885 125.574C54.9425 117.783 45.8966 109.993 36.8506 102.202C35.5583 101.095 34.266 99.9869 32.9738 98.8792C32.0507 98.1038 30.6477 98.6207 30.6107 99.8761C29.9831 117.082 29.3184 134.288 28.6908 151.457C28.58 153.93 28.4323 156.404 28.3954 158.878C28.3215 165.155 33.0107 170.139 38.6229 172.281C45.8596 175.05 55.164 173.241 60.0378 166.964C62.77 163.456 62.8439 159.542 63.0285 155.37C63.4716 145.77 63.9146 136.134 64.3577 126.534C64.4315 124.762 61.6624 124.762 61.5885 126.534L61.6254 126.571Z" fill="#3A251D"/>
<path d="M83.707 126.571L85.2208 159.026C85.2208 166.299 92.3099 172.17 101.097 172.17C109.885 172.17 116.974 166.299 116.974 159.026L114.759 99.8762L83.744 126.571H83.707Z" fill="#EDCBB1"/>
<path d="M82.3065 126.57C82.7126 135.21 83.1188 143.812 83.5249 152.452C83.6726 155.628 83.4141 159.357 84.3003 162.458C86.4787 169.99 94.7493 173.941 102.134 173.498C109.518 173.055 117.087 168.44 118.158 160.723C118.453 158.581 118.158 156.366 118.121 154.225L116.977 123.69C116.681 115.752 116.386 107.813 116.09 99.838C116.053 98.5827 114.65 98.0658 113.727 98.8411C104.681 106.632 95.6354 114.422 86.5895 122.213C85.2972 123.321 84.0049 124.428 82.7126 125.536C81.3465 126.717 83.3403 128.637 84.6695 127.493C93.7155 119.702 102.761 111.912 111.807 104.121C113.1 103.013 114.392 101.906 115.684 100.798L113.321 99.8011C113.949 116.195 114.54 132.625 115.167 149.018L115.5 157.954C115.684 162.569 113.247 166.409 109.223 168.661C102.503 172.427 92.2755 171.098 88.0664 164.157C86.2572 161.166 86.5156 157.474 86.3679 154.114C85.9249 144.92 85.5187 135.726 85.0757 126.533C85.0018 124.761 82.2326 124.761 82.3065 126.533V126.57Z" fill="#3A251D"/>
<path d="M113.543 66.2003L113.322 38.324H113.506C120.632 38.3609 126.429 32.601 126.429 25.475C126.429 18.349 120.669 12.5522 113.506 12.5522C110.553 12.5522 107.82 13.5491 105.642 15.2106C97.593 6.68155 86.184 1.36475 73.5196 1.36475C60.8553 1.36475 49.3356 6.71849 41.2865 15.3214C39.0712 13.586 36.302 12.5522 33.2744 12.5522C26.1484 12.5522 20.3516 18.3121 20.3516 25.475C20.3516 32.6379 26.1114 38.3978 33.2744 38.3978H33.2005L33.422 66.828L30.6529 110.359C30.6529 115.159 31.2436 119.848 32.3144 124.242C36.4866 141.042 48.0064 154.223 62.5537 158.654C62.7383 158.728 62.9599 158.764 63.1445 158.838C66.4306 159.798 69.8643 160.278 73.372 160.278C96.9653 160.278 116.091 137.94 116.091 110.359L113.47 66.2372L113.543 66.2003Z" fill="#EDCBB1"/>
<path d="M114.944 66.2017C114.87 56.8972 114.796 47.5928 114.723 38.3253L112.987 39.6545C116.864 40.6145 121.812 37.6977 124.285 34.8916C127.313 31.4209 128.495 26.7317 127.498 22.2641C125.245 12.2582 113.172 8.08598 105.012 14.0305L106.674 14.252C98.0337 5.24297 86.0709 0 73.5542 0C61.0376 0 49.0009 5.27988 40.3611 14.3628L42.318 16.3197C42.9456 15.5812 42.7979 14.6951 42.0226 14.1412C34.1581 8.23368 22.4907 11.8521 19.6477 21.378C16.8047 30.9039 24.0045 39.5438 33.3458 39.7653C34.7489 39.7653 35.192 37.8823 34.0474 37.1807H33.9735C33.0874 36.59 31.8689 37.2915 31.9059 38.3253C31.9797 49.1066 32.5705 59.9987 31.869 70.78L30.3182 95.3702C29.949 101.425 29.0998 107.628 29.469 113.721C30.2444 127.345 35.7458 140.895 45.8256 150.274C55.9054 159.652 68.7912 163.566 81.7879 160.723C104.163 155.849 118.636 131.739 117.603 109.733C116.938 95.6656 115.941 81.5982 115.092 67.5678L115.018 66.2386C114.907 64.4663 112.138 64.4663 112.249 66.2386C113.024 79.3829 113.8 92.5642 114.575 105.708C115.055 113.684 114.353 121.474 111.658 129.117C107.67 140.305 99.7321 150.237 88.9139 155.406C76.988 161.092 62.9206 159.504 52.1762 151.935C41.4318 144.366 34.5643 131.406 32.6812 118.299C31.7582 111.69 32.4597 105.192 32.9028 98.5825C33.4197 90.3119 33.9366 82.0413 34.4904 73.7707C35.192 62.5463 34.8227 51.322 34.7489 40.0607V38.3253C34.0474 38.7315 33.3458 39.1376 32.6443 39.5068H32.7182C32.9397 38.6945 33.1981 37.8453 33.4197 36.9592C25.8506 36.7746 20.1277 29.5009 22.3799 22.0795C24.7799 14.1412 34.3058 11.7044 40.6934 16.5043L40.398 14.3258C39.2903 15.692 41.0995 17.6119 42.3549 16.2827C50.5147 7.71676 61.7391 2.73225 73.5911 2.73225C85.4432 2.73225 96.5937 7.67984 104.754 16.172C105.16 16.5781 105.935 16.7258 106.415 16.3935C112.913 11.6674 122.476 14.3258 124.692 22.3749C125.652 25.8825 124.876 29.7224 122.624 32.6024C121.553 33.9685 120.187 35.0762 118.599 35.8146C117.381 36.4054 115.129 37.2915 113.763 36.9592C112.913 36.7377 111.99 37.3653 112.027 38.2884C112.101 47.5928 112.175 56.8972 112.249 66.1647C112.249 67.937 115.018 67.937 115.018 66.1647L114.944 66.2017Z" fill="#3A251D"/>
<path d="M72.9198 148.603C56.3697 148.603 42.9297 133.146 42.9297 114.064C42.9297 94.9812 56.3697 79.5247 72.9198 79.5247C89.4699 79.5247 102.91 94.9812 102.91 114.064C102.91 133.146 89.4699 148.603 72.9198 148.603Z" fill="#F7F6F2"/>
<path d="M73.0883 72.1102C89.7444 72.1102 103.247 64.4161 103.247 54.9248C103.247 45.4336 89.7444 37.7395 73.0883 37.7395C56.4322 37.7395 42.9297 45.4336 42.9297 54.9248C42.9297 64.4161 56.4322 72.1102 73.0883 72.1102Z" fill="#F7F6F2"/>
<path d="M94.9933 39.0893C97.3196 39.0893 99.2054 36.4491 99.2054 33.1923C99.2054 29.9356 97.3196 27.2954 94.9933 27.2954C92.6671 27.2954 90.7812 29.9356 90.7812 33.1923C90.7812 36.4491 92.6671 39.0893 94.9933 39.0893Z" fill="#37241C"/>
<path d="M51.1848 39.0893C53.511 39.0893 55.3968 36.4491 55.3968 33.1923C55.3968 29.9356 53.511 27.2954 51.1848 27.2954C48.8585 27.2954 46.9727 29.9356 46.9727 33.1923C46.9727 36.4491 48.8585 39.0893 51.1848 39.0893Z" fill="#37241C"/>
<path d="M43.6058 44.7192C44.8865 45.0744 46.1671 45.4296 47.4478 45.7492L53.5497 47.4187L54.981 47.8094C55.6967 47.987 56.563 47.5608 56.7137 46.8859C56.8643 46.211 56.4877 45.4651 55.7343 45.252C54.4537 44.8968 53.173 44.5416 51.8924 44.2219L45.7905 42.5524L44.3591 42.1617C43.6435 41.9841 42.7772 42.4104 42.6265 43.0852C42.4758 43.7601 42.8525 44.506 43.6058 44.7192Z" fill="#37241C"/>
<path d="M41.6685 54.5846C42.9517 54.4299 44.1971 54.2752 45.4803 54.1205L51.5565 53.3469L52.9529 53.1535C53.3303 53.1149 53.67 53.0375 53.9719 52.7281C54.2361 52.4573 54.387 52.0705 54.387 51.6837C54.387 50.9875 53.7454 50.1365 52.9529 50.2139C51.6697 50.3686 50.4243 50.5233 49.1411 50.6781L43.0649 51.4516L41.6685 51.645C41.2911 51.6837 40.9514 51.7611 40.6495 52.0705C40.3853 52.3412 40.2344 52.7281 40.2344 53.1148C40.2344 53.8111 40.876 54.662 41.6685 54.5846Z" fill="#37241C"/>
<path d="M91.2022 47.8046C92.5061 47.5099 93.8472 47.2153 95.151 46.9207L101.447 45.4844C101.931 45.374 102.415 45.2635 102.9 45.153C103.607 45.0057 104.092 44.1587 103.868 43.459C103.645 42.7224 102.9 42.3173 102.155 42.5015C100.851 42.7961 99.5096 43.0907 98.2058 43.3853L91.91 44.8216C91.4257 44.932 90.9415 45.0425 90.4572 45.153C89.7494 45.3003 89.2651 46.1473 89.4886 46.8471C89.7121 47.5836 90.4572 47.9887 91.2022 47.8046Z" fill="#37241C"/>
<path d="M94.1345 52.9849C95.3943 53.2125 96.6171 53.4021 97.8769 53.6296L103.843 54.6536L105.214 54.8812C105.584 54.957 105.955 54.957 106.288 54.7295C106.585 54.5398 106.844 54.2364 106.918 53.8951C107.066 53.2125 106.733 52.2644 105.955 52.1506C104.695 51.923 103.472 51.7334 102.212 51.5059L96.2465 50.4819L94.8755 50.2543C94.505 50.1785 94.1345 50.1785 93.801 50.406C93.5046 50.5957 93.2452 50.8991 93.1711 51.2404C93.0228 51.923 93.3563 52.8712 94.1345 52.9849Z" fill="#37241C"/>
<path d="M72.9174 43.4693C77.7561 43.4693 81.6786 40.98 81.6786 37.9093C81.6786 34.8386 77.7561 32.3494 72.9174 32.3494C68.0788 32.3494 64.1562 34.8386 64.1562 37.9093C64.1562 40.98 68.0788 43.4693 72.9174 43.4693Z" fill="#37241C"/>
<path d="M72.3118 86.7165H72.3406H72.3118ZM72.3118 78.0439C72.3118 78.0439 72.3118 69.3067 72.3118 65.9198V78.0439ZM52.1097 98.2801H92.5139C96.9573 98.2801 99.726 93.4396 97.487 89.5852L77.285 54.8055C75.0632 50.9808 69.5604 50.9808 67.3387 54.8055L47.1367 89.5852C44.8978 93.4396 47.6663 98.2801 52.1097 98.2801Z" fill="#FFDB25"/>
<path d="M72.3118 86.7165H72.3406M72.3118 78.0439C72.3118 78.0439 72.3118 69.3067 72.3118 65.9198M52.1097 98.2801H92.5139C96.9573 98.2801 99.726 93.4396 97.487 89.5852L77.285 54.8055C75.0632 50.9808 69.5604 50.9808 67.3387 54.8055L47.1367 89.5852C44.8978 93.4396 47.6663 98.2801 52.1097 98.2801Z" stroke="#3A251D" stroke-width="4" stroke-linecap="round" stroke-linejoin="round"/>
<path d="M41.9483 90.8292C49.2893 90.8292 55.2403 84.8781 55.2403 77.5372C55.2403 70.1962 49.2893 64.2451 41.9483 64.2451C34.6073 64.2451 28.6562 70.1962 28.6562 77.5372C28.6562 84.8781 34.6073 90.8292 41.9483 90.8292Z" fill="#EDCBB1"/>
<path d="M53.8745 77.5376C53.8745 82.4852 50.7361 87.0635 46.0469 88.725C41.3578 90.3865 35.9672 88.9466 32.7549 85.0697C29.5427 81.1929 29.2473 75.6546 31.758 71.4454C34.2687 67.2363 39.4748 64.8732 44.3485 65.8701C49.8869 67.0147 53.8745 71.9254 53.9114 77.5376C53.9114 79.3099 56.6806 79.3099 56.6806 77.5376C56.6436 71.3716 52.7668 65.8701 46.97 63.7286C41.1732 61.5871 34.5272 63.4702 30.6873 68.1962C26.8474 72.9223 26.1828 79.9006 29.4688 85.2174C32.7549 90.5342 38.884 93.1188 44.9024 91.9373C51.6961 90.6081 56.6067 84.4051 56.6806 77.5376C56.6806 75.7653 53.9114 75.7653 53.9114 77.5376H53.8745Z" fill="#3A251D"/>
<path d="M104.202 90.2754C111.543 90.2754 117.494 84.3244 117.494 76.9834C117.494 69.6424 111.543 63.6914 104.202 63.6914C96.8612 63.6914 90.9102 69.6424 90.9102 76.9834C90.9102 84.3244 96.8612 90.2754 104.202 90.2754Z" fill="#EDCBB1"/>
<path d="M116.089 76.9839C116.089 81.9315 112.951 86.5098 108.262 88.1713C103.573 89.8328 98.182 88.3929 94.9698 84.516C91.7575 80.6392 91.4621 75.1008 93.9729 70.8917C96.4836 66.6826 101.69 64.3195 106.563 65.3164C112.102 66.461 116.089 71.3717 116.126 76.9839C116.126 78.7561 118.895 78.7561 118.895 76.9839C118.858 70.8179 114.982 65.3164 109.185 63.1749C103.388 61.0334 96.742 62.9165 92.9021 67.6425C89.0622 72.3686 88.3976 79.3469 91.6837 84.6637C94.9698 89.9805 101.099 92.5651 107.117 91.3836C113.911 90.0544 118.822 83.8514 118.895 76.9839C118.895 75.2116 116.126 75.2116 116.126 76.9839H116.089Z" fill="#3A251D"/>
</svg>
