<svg width="64" height="60" viewBox="0 0 64 60" fill="none" xmlns="http://www.w3.org/2000/svg">
<path d="M13.022 74.0935L12.095 93.098C12.095 97.3572 7.75391 100.795 2.3728 100.795C-3.00831 100.795 -7.34937 97.3572 -7.34937 93.098L-5.99279 58.4619L12.9994 74.0935H13.022Z" fill="#EDCBB1"/>
<path d="M12.1627 74.0942C11.9366 78.8507 11.7105 83.6072 11.4618 88.3638C11.3714 90.0285 11.3262 91.6933 11.2357 93.3581C10.9418 98.2227 5.1085 100.558 0.654393 99.8443C-2.91794 99.2821 -6.51288 96.7309 -6.46766 92.9689C-6.46766 91.6285 -6.35461 90.288 -6.30939 88.9475C-6.0833 83.0884 -5.8572 77.2292 -5.6311 71.3701C-5.47284 67.0676 -5.29195 62.7434 -5.13369 58.441L-6.58071 59.0247C-1.04133 63.5867 4.49804 68.1486 10.0374 72.7105C10.8288 73.3591 11.6201 74.0077 12.4114 74.6563C13.2028 75.305 14.4463 74.2023 13.6097 73.5105C8.07037 68.9485 2.531 64.3866 -3.00837 59.8247C-3.79971 59.1761 -4.59106 58.5275 -5.3824 57.8788C-5.94764 57.4248 -6.8068 57.7275 -6.82941 58.4626C-7.21378 68.5378 -7.62075 78.6129 -8.00512 88.6665C-8.07295 90.115 -8.16339 91.5636 -8.186 93.0122C-8.23122 96.6877 -5.35978 99.6065 -1.92311 100.86C2.50839 102.482 8.20603 101.423 11.1905 97.7471C12.8636 95.6931 12.9088 93.4014 13.0219 90.9582C13.2932 85.3369 13.5645 79.694 13.8358 74.0726C13.8811 73.0348 12.1853 73.0348 12.1401 74.0726L12.1627 74.0942Z" fill="#3A251D"/>
<path d="M25.6833 74.0935L26.6103 93.098C26.6103 97.3572 30.9514 100.795 36.3325 100.795C41.7136 100.795 46.0547 97.3572 46.0547 93.098L44.6981 58.4619L25.706 74.0935H25.6833Z" fill="#EDCBB1"/>
<path d="M24.8471 74.0939C25.0958 79.1531 25.3446 84.1906 25.5933 89.2498C25.6837 91.1092 25.5254 93.2929 26.0681 95.109C27.402 99.5196 32.4666 101.833 36.9885 101.574C41.5105 101.314 46.1455 98.6115 46.8012 94.0928C46.982 92.8389 46.8011 91.5416 46.7785 90.2877C46.5524 84.3204 46.3037 78.3747 46.0776 72.4075C45.8968 67.7591 45.7159 63.1106 45.535 58.4406C45.5124 57.7055 44.6532 57.4028 44.088 57.8569C38.5486 62.4188 33.0092 66.9807 27.4699 71.5426C26.6785 72.1912 25.8872 72.8399 25.0958 73.4885C24.2593 74.1804 25.4802 75.3046 26.2942 74.6344C31.8335 70.0725 37.3729 65.5105 42.9123 60.9486C43.7036 60.3 44.495 59.6514 45.2863 59.0028L43.8393 58.419C44.2236 68.0185 44.5854 77.6396 44.9698 87.2391L45.1733 92.4713C45.2863 95.1739 43.7941 97.4224 41.3296 98.7412C37.2146 100.947 30.9518 100.168 28.3742 96.1035C27.2664 94.3523 27.4246 92.1902 27.3342 90.2228C27.0629 84.8392 26.8142 79.4558 26.5429 74.0723C26.4976 73.0345 24.8019 73.0345 24.8471 74.0723V74.0939Z" fill="#3A251D"/>
<path d="M43.9524 38.7649L43.8167 22.4415H43.9298C48.2934 22.4631 51.8431 19.0903 51.8431 14.9175C51.8431 10.7448 48.316 7.35033 43.9298 7.35033C42.121 7.35033 40.4479 7.93409 39.1139 8.90701C34.185 3.91267 27.1986 0.799316 19.4435 0.799316C11.6883 0.799316 4.63411 3.93429 -0.294806 8.97187C-1.65139 7.95571 -3.34712 7.35033 -5.20111 7.35033C-9.56478 7.35033 -13.1145 10.7231 -13.1145 14.9175C-13.1145 19.1119 -9.58739 22.4847 -5.20111 22.4847H-5.24633L-5.11067 39.1325L-6.8064 64.6231C-6.8064 67.4337 -6.44464 70.1796 -5.78896 72.7524C-3.23407 82.5898 3.82016 90.3083 12.7284 92.9027C12.8414 92.946 12.9771 92.9676 13.0901 93.0108C15.1024 93.573 17.2051 93.854 19.353 93.854C33.8006 93.854 45.5124 80.7736 45.5124 64.6231L43.9071 38.7866L43.9524 38.7649Z" fill="#EDCBB1"/>
<path d="M44.8116 38.7656C44.7663 33.3172 44.7211 27.8689 44.6759 22.4421L43.6132 23.2205C45.9873 23.7826 49.017 22.0746 50.5318 20.4314C52.3858 18.3991 53.1093 15.6533 52.4988 13.0372C51.1197 7.17801 43.7263 4.7349 38.7296 8.21581L39.747 8.34552C34.4563 3.07012 27.1308 0 19.4661 0C11.8014 0 4.43064 3.09173 -0.860026 8.41038L0.338289 9.55628C0.722654 9.12387 0.632215 8.60497 0.157412 8.28066C-4.65845 4.82138 -11.8031 6.94019 -13.5441 12.5183C-15.285 18.0964 -10.8761 23.1556 -5.15587 23.2853C-4.2967 23.2853 -4.02538 22.1827 -4.72628 21.7719H-4.7715C-5.31413 21.4259 -6.06025 21.8367 -6.03764 22.4421C-5.99242 28.7553 -5.63067 35.1333 -6.06025 41.4465L-7.00986 55.8458C-7.23596 59.3916 -7.75598 63.0238 -7.52988 66.5912C-7.05508 74.5692 -3.68624 82.5039 2.48621 87.9955C8.65866 93.4871 16.5494 95.7789 24.5081 94.1141C38.2095 91.2602 47.0725 77.142 46.4395 64.2562C46.0325 56.0188 45.422 47.7814 44.902 39.5656L44.8568 38.7872C44.7889 37.7494 43.0932 37.7494 43.1611 38.7872C43.6359 46.4841 44.1107 54.2027 44.5855 61.8996C44.8794 66.5696 44.4498 71.1315 42.7993 75.607C40.3574 82.158 35.4964 87.9739 28.8717 91.0008C21.5688 94.3303 12.9545 93.4007 6.37508 88.9685C-0.204343 84.5363 -4.40975 76.9475 -5.56284 69.2722C-6.12809 65.4021 -5.6985 61.5969 -5.42719 57.7268L-4.45497 43.1978C-4.02538 36.6252 -4.25148 30.0525 -4.2967 23.4583V22.4421C-4.72628 22.6799 -5.15587 22.9178 -5.58545 23.134H-5.54023C-5.40457 22.6583 -5.24631 22.161 -5.11065 21.6421C-9.74563 21.534 -13.2501 17.2748 -11.8709 12.9291C-10.4013 8.28067 -4.56802 6.85371 -0.656538 9.66438L-0.837416 8.38877C-1.51571 9.18873 -0.40783 10.313 0.3609 9.53466C5.35764 4.5187 12.231 1.59993 19.4887 1.59993C26.7464 1.59993 33.5745 4.49708 38.5713 9.4698C38.82 9.70762 39.2948 9.7941 39.5887 9.59952C43.568 6.83209 49.4239 8.38877 50.7805 13.102C51.3684 15.156 50.8936 17.4045 49.5144 19.0909C48.8587 19.8909 48.0221 20.5395 47.0499 20.9719C46.3038 21.3178 44.9246 21.8367 44.088 21.6421C43.568 21.5124 43.0028 21.88 43.0254 22.4205C43.0706 27.8689 43.1158 33.3172 43.1611 38.744C43.1611 39.7818 44.8568 39.7818 44.8568 38.744L44.8116 38.7656Z" fill="#3A251D"/>
<path d="M19.1266 87.0868C9.02006 87.0868 0.812744 77.963 0.812744 66.6987C0.812744 55.4344 9.02006 46.3105 19.1266 46.3105C29.2331 46.3105 37.4404 55.4344 37.4404 66.6987C37.4404 77.963 29.2331 87.0868 19.1266 87.0868Z" fill="#F7F6F2"/>
<path d="M19.3755 42.0518C29.6023 42.0518 37.8928 37.5701 37.8928 32.0415C37.8928 26.513 29.6023 22.0312 19.3755 22.0312C9.14865 22.0312 0.858154 26.513 0.858154 32.0415C0.858154 37.5701 9.14865 42.0518 19.3755 42.0518Z" fill="#F7F6F2"/>
<path d="M1.21981 26.1181C1.98854 26.3343 2.75727 26.5505 3.526 26.7451L7.18877 27.7613L8.04794 27.9991C8.47752 28.1072 8.99754 27.8478 9.08798 27.437C9.17842 27.0262 8.95232 26.5722 8.50013 26.4424C7.7314 26.2262 6.96267 26.01 6.19394 25.8154L2.53117 24.7993L1.672 24.5614C1.24242 24.4533 0.722395 24.7128 0.631956 25.1236C0.541518 25.5344 0.767615 25.9884 1.21981 26.1181Z" fill="#37241C"/>
<path d="M0.111852 31.8907C0.880582 31.8042 1.6267 31.7177 2.39543 31.6312L6.03559 31.1988L6.87215 31.0907C7.09825 31.0691 7.30174 31.0259 7.48261 30.8529C7.64088 30.7016 7.73132 30.4854 7.73132 30.2691C7.73132 29.88 7.34695 29.4043 6.87215 29.4476C6.10342 29.5341 5.3573 29.6205 4.58857 29.707L0.948413 30.1394L0.111852 30.2475C-0.114245 30.2692 -0.317733 30.3124 -0.498611 30.4854C-0.656879 30.6367 -0.747314 30.8529 -0.747314 31.0691C-0.747314 31.4583 -0.362951 31.9339 0.111852 31.8907Z" fill="#37241C"/>
<path d="M30.4543 27.9987C31.2456 27.8257 32.0596 27.6527 32.8509 27.4798L36.672 26.6366C36.9659 26.5717 37.2598 26.5069 37.5537 26.442C37.9833 26.3555 38.2773 25.8582 38.1416 25.4475C38.0059 25.015 37.5537 24.7772 37.1016 24.8853C36.3102 25.0583 35.4963 25.2312 34.7049 25.4042L30.8839 26.2474C30.59 26.3123 30.296 26.3771 30.0021 26.442C29.5725 26.5285 29.2786 27.0258 29.4143 27.4365C29.5499 27.869 30.0021 28.1068 30.4543 27.9987Z" fill="#37241C"/>
<path d="M32.2629 31.0686C33.0316 31.1983 33.7777 31.3064 34.5464 31.4362L38.1866 32.0199L39.0232 32.1497C39.2493 32.1929 39.4754 32.1929 39.6788 32.0632C39.8597 31.9551 40.018 31.7821 40.0632 31.5875C40.1536 31.1983 39.9502 30.6578 39.4754 30.593C38.7066 30.4632 37.9605 30.3551 37.1918 30.2254L33.5516 29.6417L32.715 29.5119C32.489 29.4687 32.2629 29.4687 32.0594 29.5984C31.8785 29.7065 31.7202 29.8795 31.675 30.0741C31.5846 30.4633 31.7881 31.0038 32.2629 31.0686Z" fill="#37241C"/>
<path d="M19.1722 25.3395C22.1691 25.3395 24.5985 23.8585 24.5985 22.0316C24.5985 20.2046 22.1691 18.7236 19.1722 18.7236C16.1753 18.7236 13.7458 20.2046 13.7458 22.0316C13.7458 23.8585 16.1753 25.3395 19.1722 25.3395Z" fill="#37241C"/>
<path d="M45.2633 54.9581L59.7335 43.6073C63.1928 40.948 63.758 36.105 60.977 32.7971C58.196 29.4892 53.1314 28.9486 49.6722 31.608L43.9519 36.0618L45.2859 54.9798L45.2633 54.9581Z" fill="#EDCBB1"/>
<path d="M45.874 55.5203C49.1524 52.9475 52.4308 50.3746 55.6866 47.8018C57.1788 46.6343 58.6485 45.4668 60.1407 44.2993C62.7182 42.2669 64.0296 39.2184 63.4417 36.0186C62.7408 32.1053 59.0555 29.1865 54.9179 29.0568C52.8378 28.9919 50.8255 29.6622 49.1976 30.8729C48.5193 31.3918 47.841 31.9107 47.1627 32.4512L44.0652 34.8511C43.5904 35.2186 43.0704 35.4781 43.093 36.1267C43.1156 37.7915 43.3191 39.4563 43.4548 41.1211L44.4044 54.6339V54.915C44.4948 55.9527 46.1905 55.9527 46.1227 54.915C45.7383 49.4017 45.354 43.8885 44.947 38.3536C44.9018 37.5537 44.8339 36.7753 44.7887 35.9754L44.54 36.5591C46.4392 35.0889 48.3158 33.5539 50.2603 32.1053C52.2047 30.6567 54.6692 30.2892 56.9527 31.0026C59.2363 31.7161 61.1355 33.662 61.7234 35.9754C62.3112 38.2888 61.5877 40.667 59.9146 42.3102C59.3494 42.8723 58.6711 43.348 58.038 43.8452L50.5994 49.6828C48.6324 51.2394 46.6653 52.7745 44.6757 54.3312C43.8391 55.0014 45.0374 56.1257 45.874 55.4771V55.5203Z" fill="#3A251D"/>
<path d="M35.722 19.8694C35.4055 19.3938 34.9985 18.9614 34.5463 18.6154C34.0941 18.2695 33.6419 18.0101 33.0993 17.8587C32.828 17.7938 32.5341 17.7506 32.2401 17.7722C31.8558 17.7938 31.5166 17.8803 31.1549 18.0533C30.3183 18.4209 29.7078 19.1559 29.233 19.8694C28.9843 20.237 29.1426 20.7775 29.527 20.9721C29.9565 21.1883 30.4314 21.0585 30.6801 20.691C30.7931 20.518 30.9062 20.3667 31.0192 20.2154L30.8836 20.3883C31.1096 20.1072 31.3357 19.8694 31.6297 19.6532L31.4488 19.7829C31.6297 19.6532 31.8105 19.5451 32.014 19.4586L31.8105 19.5451C31.9688 19.4802 32.1271 19.437 32.308 19.4154H32.0819C32.2627 19.4154 32.421 19.4154 32.6019 19.437H32.3758C32.5567 19.437 32.7601 19.4803 32.9184 19.5667L32.7149 19.4802C32.9636 19.5884 33.1897 19.7181 33.4158 19.8694L33.235 19.7397C33.5741 19.9775 33.868 20.2802 34.1167 20.6045L33.9811 20.4316C33.9811 20.4316 34.1167 20.6045 34.1846 20.691C34.4107 21.0585 34.9533 21.2315 35.3377 20.9721C35.722 20.7126 35.9029 20.237 35.6316 19.8694H35.722Z" fill="#37241C"/>
<path d="M8.99742 19.8694C8.68088 19.3938 8.27391 18.9614 7.82171 18.6154C7.36952 18.2695 6.91733 18.0101 6.37469 17.8587C6.10338 17.7938 5.80945 17.7506 5.51552 17.7722C5.13116 17.7938 4.79201 17.8803 4.43026 18.0533C3.5937 18.4209 2.98324 19.1559 2.50843 19.8694C2.25973 20.237 2.418 20.7775 2.80236 20.9721C3.23195 21.1883 3.70675 21.0585 3.95546 20.691C4.0685 20.518 4.18155 20.3667 4.2946 20.2154L4.15894 20.3883C4.38504 20.1072 4.61114 19.8694 4.90506 19.6532L4.72419 19.7829C4.90506 19.6532 5.08594 19.5451 5.28943 19.4586L5.08594 19.5451C5.24421 19.4802 5.40248 19.437 5.58335 19.4154H5.35725C5.53813 19.4154 5.6964 19.4154 5.87728 19.437H5.65118C5.83206 19.437 6.03555 19.4803 6.19382 19.5667L5.99033 19.4802C6.23903 19.5884 6.46513 19.7181 6.69123 19.8694L6.51035 19.7397C6.8495 19.9775 7.14342 20.2802 7.39213 20.6045L7.25647 20.4316C7.25647 20.4316 7.39213 20.6045 7.45996 20.691C7.68605 21.0585 8.22869 21.2315 8.61305 20.9721C8.99742 20.7126 9.17829 20.237 8.90698 19.8694H8.99742Z" fill="#37241C"/>
</svg>
