<svg width="714" height="970" viewBox="0 0 714 970" fill="none" xmlns="http://www.w3.org/2000/svg">
<path d="M270.57 524.391C270.57 524.391 228.091 647.291 23.5307 713.279C0.641418 720.702 2.90971 755.345 25.5928 763.594C69.3092 779.678 218.605 793.082 277.581 774.523L270.57 524.391Z" fill="#EDCBB1"/>
<path d="M263.148 522.328C263.148 522.328 262.323 524.184 262.117 525.215C263.148 522.534 261.704 526.04 261.292 527.071C260.673 528.721 259.848 530.164 259.024 531.608C254.075 541.506 248.094 550.991 241.702 560.064C218.4 592.852 187.056 620.896 153.444 643.373C128.08 660.282 101.067 674.511 73.2287 686.471C56.3195 693.688 38.9979 699.462 21.6763 705.648C10.3348 709.773 2.2926 718.64 0.436711 730.806C-1.41918 742.972 2.70502 755.345 11.572 763.593C18.7894 770.192 28.6874 772.873 37.9669 775.141C60.6499 780.915 83.9516 783.802 107.253 786.276C135.298 789.37 163.549 791.019 191.593 791.019C216.544 791.019 241.702 790.194 266.241 785.245C270.778 784.214 275.52 783.183 279.851 781.74C282.944 780.709 285.625 777.822 285.625 774.316C284.8 746.065 283.975 718.021 283.356 689.77L279.645 555.115C279.438 544.805 279.026 534.494 278.82 524.184C278.613 513.873 263.148 514.286 263.354 524.184C264.179 552.435 265.004 580.479 265.622 608.73L269.334 743.385C269.54 753.695 269.953 764.006 270.159 774.316L275.933 766.893C255.106 773.285 232.835 774.729 211.183 775.347C183.963 776.172 156.537 775.141 129.318 772.873C104.985 771.017 80.6522 768.13 56.7319 763.387C41.2662 760.294 16.7273 758.026 15.49 737.817C15.2838 733.487 16.1086 728.744 18.9956 725.238C23.1198 720.083 30.7495 719.052 36.5234 716.99C52.6077 711.422 68.2797 705.442 83.9516 698.637C110.965 686.883 136.947 673.067 161.486 656.571C195.717 633.681 226.855 605.843 251.6 572.643C262.117 558.621 272.427 542.949 278.407 526.04C281.707 516.554 266.653 512.636 263.56 521.916L263.148 522.328Z" fill="#3A251D"/>
<path d="M351.818 706.887L343.364 888.145C343.364 928.769 303.772 961.556 254.694 961.556C205.616 961.556 166.023 928.769 166.023 888.145L178.396 557.797L351.612 706.887H351.818Z" fill="#EDCBB1"/>
<path d="M344.187 706.887C342.125 752.253 340.063 797.619 337.795 842.985C336.97 858.863 336.557 874.741 335.733 890.619C333.052 937.017 279.85 959.287 239.227 952.482C206.645 947.121 173.858 922.788 174.27 886.908C174.27 874.123 175.302 861.338 175.714 848.553L181.9 680.904C183.344 639.869 184.993 598.627 186.437 557.591L173.239 563.159C223.761 606.669 274.282 650.179 324.803 693.689C332.021 699.876 339.238 706.062 346.455 712.248C353.673 718.434 365.014 707.918 357.385 701.319C306.863 657.809 256.342 614.299 205.821 570.788C198.603 564.602 191.386 558.416 184.169 552.229C179.013 547.899 171.177 550.786 170.971 557.797C167.466 653.891 163.754 749.984 160.248 845.872C159.63 859.688 158.805 873.504 158.599 887.32C158.186 922.376 184.375 950.214 215.719 962.174C256.136 977.64 308.101 967.536 335.32 932.48C350.58 912.89 350.992 891.032 352.023 867.73C354.498 814.116 356.972 760.295 359.447 706.68C359.859 696.782 344.393 696.782 343.981 706.68L344.187 706.887Z" fill="#3A251D"/>
<path d="M467.508 706.887L475.962 888.145C475.962 928.768 515.555 961.555 564.633 961.555C613.71 961.555 653.303 928.768 653.303 888.145L640.93 557.797L467.714 706.887H467.508Z" fill="#EDCBB1"/>
<path d="M459.669 706.886C461.937 755.139 464.205 803.186 466.474 851.439C467.298 869.173 465.855 890.001 470.804 907.322C482.97 949.389 529.161 971.453 570.403 968.979C611.645 966.504 653.918 940.728 659.898 897.63C661.548 885.67 659.898 873.298 659.692 861.337L653.299 690.802C651.65 646.467 650 602.132 648.35 557.591C648.144 550.579 640.308 547.693 635.153 552.023C584.632 595.533 534.11 639.043 483.589 682.554C476.372 688.74 469.154 694.926 461.937 701.113C454.307 707.711 465.442 718.434 472.866 712.042C523.387 668.531 573.909 625.021 624.43 581.511C631.647 575.325 638.865 569.138 646.082 562.952L632.885 557.384C636.39 648.942 639.69 740.705 643.195 832.262L645.051 882.165C646.082 907.941 632.472 929.387 609.995 941.965C572.465 962.999 515.345 955.575 491.837 916.808C481.733 900.105 483.177 879.484 482.352 860.719C479.877 809.373 477.609 758.026 475.134 706.68C474.722 696.782 459.256 696.782 459.669 706.68V706.886Z" fill="#3A251D"/>
<path d="M634.118 369.734L632.88 214.046H633.911C673.71 214.252 706.085 182.083 706.085 142.285C706.085 102.486 673.916 70.1115 633.911 70.1115C617.415 70.1115 602.155 75.6791 589.989 84.9585C545.035 37.3241 481.316 7.62988 410.586 7.62988C339.856 7.62988 275.519 37.5303 230.565 85.5772C218.193 75.8853 202.727 70.1115 185.818 70.1115C146.019 70.1115 113.645 102.28 113.645 142.285C113.645 182.289 145.813 214.458 185.818 214.458H185.405L186.643 373.24L171.177 616.361C171.177 643.168 174.476 669.357 180.456 693.895C203.758 787.721 268.096 861.338 349.342 886.083C350.373 886.495 351.61 886.702 352.642 887.114C370.994 892.475 390.172 895.156 409.762 895.156C541.53 895.156 648.346 770.399 648.346 616.361L633.705 369.94L634.118 369.734Z" fill="#EDCBB1"/>
<path d="M641.954 369.734C641.542 317.769 641.129 265.804 640.717 214.046L631.025 221.469C652.677 226.831 680.309 210.54 694.125 194.868C711.034 175.484 717.633 149.296 712.065 124.344C699.486 68.4616 632.056 45.1599 586.484 78.3596L595.763 79.5969C547.51 29.2818 480.698 0 410.793 0C340.888 0 273.664 29.488 225.41 80.2155L236.34 91.1447C239.845 87.0205 239.02 82.0715 234.69 78.9783C190.767 45.9848 125.605 66.1933 109.727 119.395C93.8487 172.597 134.06 220.851 186.231 222.088C194.067 222.088 196.541 211.571 190.149 207.653H189.736C184.787 204.354 177.982 208.272 178.188 214.046C178.601 274.259 181.9 335.091 177.982 395.304L169.321 532.639C167.259 566.458 162.517 601.101 164.579 635.126C168.909 711.217 199.634 786.896 255.93 839.273C312.225 891.65 384.192 913.509 456.778 897.631C581.741 870.411 662.575 735.756 656.801 612.855C653.089 534.289 647.522 455.723 642.779 377.364L642.366 369.94C641.748 360.042 626.282 360.042 626.901 369.94C631.231 443.351 635.561 516.968 639.892 590.378C642.573 634.919 638.655 678.43 623.601 721.115C601.331 783.597 556.996 839.067 496.576 867.936C429.97 899.693 351.405 890.826 291.398 848.553C231.391 806.28 193.036 733.9 182.519 660.696C177.364 623.784 181.282 587.491 183.756 550.58C186.643 504.389 189.53 458.198 192.623 412.007C196.541 349.319 194.479 286.631 194.067 223.737V214.046C190.149 216.314 186.231 218.582 182.313 220.644H182.725C183.962 216.108 185.406 211.365 186.643 206.416C144.37 205.385 112.408 164.761 124.986 123.313C138.39 78.9783 191.592 65.3685 227.266 92.1757L225.617 80.0094C219.43 87.6391 229.535 98.362 236.546 90.9384C282.118 43.0978 344.806 15.2595 410.999 15.2595C477.192 15.2595 539.468 42.8916 585.04 90.3198C587.308 92.5881 591.639 93.4129 594.32 91.557C630.612 65.1622 684.021 80.0094 696.393 124.963C701.755 144.553 697.424 165.999 684.846 182.083C678.865 189.713 671.236 195.899 662.369 200.023C655.564 203.323 642.985 208.272 635.355 206.416C630.612 205.179 625.457 208.684 625.663 213.839C626.076 265.804 626.488 317.769 626.901 369.528C626.901 379.426 642.366 379.426 642.366 369.528L641.954 369.734Z" fill="#3A251D"/>
<path d="M407.495 830.612C315.319 830.612 240.465 743.591 240.465 636.156C240.465 528.721 315.319 441.7 407.495 441.7C499.67 441.7 574.524 528.721 574.524 636.156C574.524 743.591 499.67 830.612 407.495 830.612Z" fill="#F7F6F2"/>
<path d="M409.968 401.284C503.241 401.284 578.853 358.538 578.853 305.809C578.853 253.08 503.241 210.334 409.968 210.334C316.695 210.334 241.082 253.08 241.082 305.809C241.082 358.538 316.695 401.284 409.968 401.284Z" fill="#F7F6F2"/>
<path d="M529.569 219.201C542.21 219.201 552.458 204.06 552.458 185.382C552.458 166.705 542.21 151.564 529.569 151.564C516.928 151.564 506.68 166.705 506.68 185.382C506.68 204.06 516.928 219.201 529.569 219.201Z" fill="#37241C"/>
<path d="M285.628 219.201C298.269 219.201 308.517 204.06 308.517 185.382C308.517 166.705 298.269 151.564 285.628 151.564C272.986 151.564 262.738 166.705 262.738 185.382C262.738 204.06 272.986 219.201 285.628 219.201Z" fill="#37241C"/>
<path d="M244.384 249.308C251.396 251.37 258.407 253.432 265.418 255.288L298.824 264.98L306.66 267.248C310.578 268.279 315.321 265.804 316.145 261.886C316.97 257.968 314.908 253.638 310.784 252.401C303.773 250.339 296.762 248.277 289.751 246.421L256.345 236.729L248.509 234.461C244.591 233.429 239.848 235.904 239.023 239.822C238.198 243.74 240.26 248.07 244.384 249.308Z" fill="#37241C"/>
<path d="M234.277 304.364C241.289 303.54 248.093 302.715 255.105 301.89L288.304 297.766L295.934 296.735C297.996 296.529 299.852 296.116 301.502 294.466C302.945 293.023 303.77 290.961 303.77 288.899C303.77 285.187 300.264 280.65 295.934 281.063C288.923 281.888 282.118 282.713 275.107 283.537L241.907 287.662L234.277 288.693C232.215 288.899 230.359 289.311 228.71 290.961C227.266 292.404 226.441 294.466 226.441 296.529C226.441 300.24 229.947 304.777 234.277 304.364Z" fill="#37241C"/>
<path d="M510.806 267.247C518.023 265.597 525.447 263.947 532.664 262.298L567.513 254.256C570.194 253.637 572.875 253.018 575.556 252.4C579.474 251.575 582.154 246.832 580.917 242.914C579.68 238.79 575.556 236.522 571.431 237.553C564.214 239.202 556.791 240.852 549.573 242.502L514.724 250.544C512.043 251.162 509.362 251.781 506.682 252.4C502.764 253.225 500.083 257.967 501.32 261.885C502.557 266.01 506.682 268.278 510.806 267.247Z" fill="#37241C"/>
<path d="M527.506 296.528C534.517 297.766 541.322 298.797 548.333 300.034L581.533 305.602L589.162 306.839C591.224 307.251 593.287 307.251 595.142 306.014C596.792 304.983 598.236 303.333 598.648 301.477C599.473 297.766 597.617 292.61 593.287 291.992C586.275 290.754 579.47 289.723 572.459 288.486L539.26 282.918L531.63 281.681C529.568 281.269 527.506 281.269 525.65 282.506C524 283.537 522.557 285.187 522.144 287.043C521.319 290.754 523.175 295.91 527.506 296.528Z" fill="#37241C"/>
<path d="M407.904 241.883C435.237 241.883 457.395 227.758 457.395 210.333C457.395 192.909 435.237 178.783 407.904 178.783C380.572 178.783 358.414 192.909 358.414 210.333C358.414 227.758 380.572 241.883 407.904 241.883Z" fill="#37241C"/>
<g clip-path="url(#clip0_557_924)">
<path d="M288.455 468.705L411.05 591.3C413.784 594.034 418.216 594.034 420.95 591.3L543.546 468.705C558.563 453.687 567 433.318 567 412.08V408.488C567 366.245 532.755 332 490.513 332C467.276 332 445.3 342.562 430.785 360.706L421.466 372.355C418.664 375.858 413.336 375.858 410.534 372.355L401.215 360.706C386.7 342.562 364.724 332 341.488 332C299.245 332 265 366.245 265 408.488V412.08C265 433.318 273.437 453.687 288.455 468.705Z" fill="#E52C2C"/>
</g>
<path d="M234.278 507.275C275.278 507.275 308.514 474.039 308.514 433.04C308.514 392.041 275.278 358.804 234.278 358.804C193.279 358.804 160.043 392.041 160.043 433.04C160.043 474.039 193.279 507.275 234.278 507.275Z" fill="#EDCBB1"/>
<path d="M300.887 433.04C300.887 460.673 283.359 486.243 257.17 495.522C230.982 504.801 200.875 496.759 182.935 475.107C164.994 453.455 163.345 422.524 177.367 399.016C191.389 375.508 220.465 362.311 247.685 367.878C278.616 374.271 300.887 401.697 301.093 433.04C301.093 442.939 316.559 442.939 316.559 433.04C316.352 398.603 294.7 367.878 262.325 355.918C229.95 343.958 192.833 354.474 171.387 380.869C149.941 407.264 146.229 446.238 164.582 475.932C182.935 505.626 217.166 520.061 250.778 513.462C288.72 506.039 316.146 471.395 316.559 433.04C316.559 423.142 301.093 423.142 301.093 433.04H300.887Z" fill="#3A251D"/>
<path d="M581.946 504.183C622.946 504.183 656.182 470.946 656.182 429.947C656.182 388.948 622.946 355.712 581.946 355.712C540.947 355.712 507.711 388.948 507.711 429.947C507.711 470.946 540.947 504.183 581.946 504.183Z" fill="#EDCBB1"/>
<path d="M648.344 429.947C648.344 457.579 630.816 483.149 604.627 492.428C578.439 501.708 548.332 493.666 530.392 472.013C512.451 450.361 510.802 419.43 524.824 395.922C538.846 372.414 567.922 359.217 595.142 364.784C626.073 371.177 648.344 398.603 648.55 429.947C648.55 439.845 664.016 439.845 664.016 429.947C663.809 395.51 642.157 364.784 609.782 352.824C577.407 340.864 540.29 351.381 518.844 377.776C497.398 404.171 493.686 443.144 512.039 472.838C530.392 502.533 564.622 516.967 598.235 510.368C636.177 502.945 663.603 468.302 664.016 429.947C664.016 420.049 648.55 420.049 648.55 429.947H648.344Z" fill="#3A251D"/>
<defs>
<clipPath id="clip0_557_924">
<rect width="302" height="302" fill="white" transform="translate(273 307)"/>
</clipPath>
</defs>
</svg>
