<svg width="126" height="114" viewBox="0 0 126 114" fill="none" xmlns="http://www.w3.org/2000/svg">
<path d="M47.7839 92.5403C47.7839 92.5403 40.2876 114.229 4.18881 125.873C0.149528 127.183 0.549811 133.297 4.5527 134.753C12.2674 137.591 38.6137 139.956 49.0212 136.681L47.7839 92.5403Z" fill="#EDCBB1"/>
<path d="M46.4378 92.1774C46.4378 92.1774 46.2922 92.5049 46.2558 92.6869C46.4378 92.2138 46.1831 92.8325 46.1103 93.0144C46.0011 93.3055 45.8556 93.5603 45.71 93.815C44.8366 95.5617 43.7813 97.2356 42.6533 98.8368C38.5412 104.623 33.0099 109.572 27.0784 113.538C22.6024 116.522 17.8353 119.033 12.9227 121.144C9.93873 122.417 6.88198 123.436 3.82522 124.528C1.82378 125.256 0.404578 126.821 0.0770683 128.968C-0.250441 131.115 0.477333 133.298 2.0421 134.754C3.31575 135.918 5.06249 136.391 6.70003 136.791C10.7029 137.81 14.815 138.32 18.927 138.757C23.8761 139.302 28.8615 139.593 33.8105 139.593C38.2137 139.593 42.6533 139.448 46.9837 138.575C47.7842 138.393 48.6212 138.211 49.3854 137.956C49.9312 137.774 50.4043 137.265 50.4043 136.646C50.2587 131.66 50.1132 126.711 50.004 121.726L49.349 97.9634C49.3126 96.1439 49.2398 94.3244 49.2034 92.5049C49.1671 90.6855 46.4378 90.7582 46.4742 92.5049C46.6198 97.4904 46.7653 102.439 46.8745 107.425L47.5295 131.187C47.5659 133.007 47.6387 134.826 47.6751 136.646L48.694 135.336C45.0186 136.464 41.0885 136.719 37.2675 136.828C32.4641 136.973 27.6242 136.791 22.8208 136.391C18.5268 136.064 14.2327 135.554 10.0115 134.717C7.28226 134.171 2.95186 133.771 2.73352 130.205C2.69713 129.441 2.84268 128.604 3.35214 127.985C4.07994 127.075 5.42639 126.893 6.4453 126.53C9.28372 125.547 12.0493 124.492 14.815 123.291C19.582 121.217 24.1672 118.778 28.4976 115.867C34.5383 111.828 40.0332 106.915 44.4 101.057C46.2559 98.5821 48.0753 95.8164 49.1307 92.8325C49.7129 91.1585 47.0564 90.4671 46.5106 92.1047L46.4378 92.1774Z" fill="#3A251D"/>
<path d="M62.122 124.709L60.6301 156.696C60.6301 163.865 53.6432 169.651 44.9824 169.651C36.3216 169.651 29.3347 163.865 29.3347 156.696L31.5181 98.399L62.0856 124.709H62.122Z" fill="#EDCBB1"/>
<path d="M60.7757 124.709C60.4118 132.715 60.0479 140.72 59.6476 148.726C59.502 151.528 59.4293 154.33 59.2837 157.132C58.8106 165.32 49.422 169.25 42.2532 168.049C36.5036 167.103 30.7176 162.809 30.7904 156.477C30.7904 154.221 30.9723 151.965 31.0451 149.709L32.1368 120.124C32.3916 112.882 32.6827 105.604 32.9374 98.3626L30.6085 99.3451C39.524 107.023 48.4395 114.702 57.355 122.38C58.6287 123.472 59.9023 124.563 61.176 125.655C62.4496 126.747 64.4511 124.891 63.1047 123.726C54.1891 116.048 45.2736 108.37 36.358 100.692C35.0844 99.5998 33.8108 98.5081 32.5371 97.4164C31.6274 96.6522 30.2446 97.1617 30.2082 98.3989C29.5895 115.357 28.9345 132.314 28.3159 149.236C28.2067 151.674 28.0612 154.112 28.0248 156.55C27.952 162.736 32.5735 167.649 38.1048 169.76C45.2372 172.489 54.4075 170.706 59.2109 164.519C61.9038 161.062 61.9766 157.205 62.1585 153.093C62.5952 143.632 63.0319 134.134 63.4685 124.672C63.5413 122.926 60.8121 122.926 60.7393 124.672L60.7757 124.709Z" fill="#3A251D"/>
<path d="M82.5366 124.709L84.0286 156.696C84.0286 163.865 91.0155 169.651 99.6763 169.651C108.337 169.651 115.324 163.865 115.324 156.696L113.141 98.399L82.573 124.709H82.5366Z" fill="#EDCBB1"/>
<path d="M81.1539 124.71C81.5542 133.225 81.9544 141.704 82.3547 150.219C82.5003 153.349 82.2456 157.024 83.1189 160.081C85.2659 167.505 93.4172 171.398 100.695 170.962C107.973 170.525 115.433 165.976 116.488 158.371C116.78 156.26 116.488 154.077 116.452 151.966L115.324 121.872C115.033 114.048 114.742 106.224 114.451 98.3638C114.414 97.1265 113.031 96.6171 112.122 97.3813C103.206 105.06 94.2906 112.738 85.3751 120.416C84.1014 121.508 82.8278 122.599 81.5542 123.691C80.2077 124.856 82.1728 126.748 83.4828 125.62C92.3983 117.942 101.314 110.263 110.229 102.585C111.503 101.493 112.777 100.402 114.05 99.3099L111.721 98.3274C112.34 114.485 112.922 130.678 113.541 146.835L113.868 155.642C114.05 160.19 111.649 163.975 107.682 166.195C101.059 169.906 90.9791 168.596 86.8307 161.755C85.0476 158.807 85.3023 155.168 85.1567 151.857C84.7201 142.796 84.3198 133.735 83.8831 124.674C83.8103 122.927 81.0811 122.927 81.1539 124.674V124.71Z" fill="#3A251D"/>
<path d="M111.939 65.2471L111.721 37.7727H111.903C118.926 37.8091 124.64 32.1323 124.64 25.109C124.64 18.0858 118.963 12.3726 111.903 12.3726C108.992 12.3726 106.299 13.3551 104.152 14.9927C96.219 6.58658 84.9745 1.34644 72.4928 1.34644C60.011 1.34644 48.6574 6.62297 40.7244 15.1018C38.541 13.3915 35.8118 12.3726 32.8278 12.3726C25.8045 12.3726 20.0913 18.0494 20.0913 25.109C20.0913 32.1687 25.7681 37.8455 32.8278 37.8455H32.755L32.9733 65.8658L30.2441 108.769C30.2441 113.5 30.8263 118.122 31.8816 122.452C35.9937 139.009 47.3474 152.001 61.685 156.367C61.8669 156.44 62.0853 156.477 62.2672 156.549C65.5059 157.496 68.8902 157.969 72.3472 157.969C95.6004 157.969 114.45 135.953 114.45 108.769L111.867 65.2835L111.939 65.2471Z" fill="#EDCBB1"/>
<path d="M113.286 65.2471C113.214 56.0769 113.141 46.9066 113.068 37.7727L111.358 39.0828C115.179 40.0289 120.055 37.1541 122.493 34.3885C125.477 30.9678 126.641 26.3463 125.659 21.9431C123.439 12.0815 111.54 7.96939 103.497 13.8282L105.135 14.0465C96.6197 5.16737 84.8294 0 72.4932 0C60.157 0 48.2939 5.20376 39.7787 14.1557L41.7074 16.0843C42.326 15.3565 42.1804 14.4832 41.4162 13.9373C33.6652 8.11495 22.166 11.6812 19.364 21.0698C16.5619 30.4584 23.658 38.9736 32.8646 39.1919C34.2474 39.1919 34.6841 37.3361 33.556 36.6446H33.4833C32.6099 36.0624 31.409 36.7538 31.4454 37.7727C31.5182 48.3986 32.1004 59.1336 31.409 69.7595L29.8806 93.9952C29.5167 99.9631 28.6798 106.077 29.0437 112.081C29.8079 125.509 35.23 138.864 45.1644 148.107C55.0989 157.35 67.7989 161.207 80.6082 158.405C102.66 153.602 116.925 129.839 115.906 108.151C115.251 94.2863 114.269 80.4217 113.432 66.5935L113.359 65.2835C113.25 63.5368 110.521 63.5368 110.63 65.2835C111.394 78.2383 112.158 91.2295 112.922 104.184C113.395 112.045 112.704 119.723 110.048 127.256C106.118 138.282 98.2937 148.071 87.6314 153.165C75.8775 158.769 62.0129 157.204 51.4235 149.745C40.834 142.285 34.0655 129.512 32.2096 116.593C31.2998 110.079 31.9913 103.675 32.4279 97.1611C32.9374 89.0097 33.4469 80.8584 33.9927 72.7071C34.6841 61.6445 34.3202 50.582 34.2474 39.4831V37.7727C33.556 38.173 32.8646 38.5733 32.1732 38.9372H32.246C32.4643 38.1366 32.7191 37.2997 32.9374 36.4263C25.4775 36.2444 19.837 29.0755 22.0568 21.7612C24.4221 13.9373 33.8108 11.5356 40.1062 16.2663L39.8151 14.1193C38.7234 15.4657 40.5065 17.358 41.7438 16.048C49.7859 7.60549 60.8485 2.69285 72.5296 2.69285C84.2108 2.69285 95.2005 7.5691 103.243 15.9388C103.643 16.3391 104.407 16.4846 104.88 16.1571C111.285 11.4992 120.71 14.1193 122.893 22.0523C123.839 25.5093 123.075 29.2939 120.855 32.1323C119.8 33.4787 118.454 34.5704 116.889 35.2982C115.688 35.8805 113.468 36.7538 112.122 36.4263C111.285 36.208 110.375 36.8266 110.412 37.7363C110.484 46.9066 110.557 56.0769 110.63 65.2107C110.63 66.9574 113.359 66.9574 113.359 65.2107L113.286 65.2471Z" fill="#3A251D"/>
<path d="M71.9473 146.58C55.681 146.58 42.4714 131.223 42.4714 112.264C42.4714 93.305 55.681 77.9485 71.9473 77.9485C88.2136 77.9485 101.423 93.305 101.423 112.264C101.423 131.223 88.2136 146.58 71.9473 146.58Z" fill="#F7F6F2"/>
<path d="M72.3836 70.7798C88.8436 70.7798 102.187 63.2365 102.187 53.9313C102.187 44.6261 88.8436 37.0828 72.3836 37.0828C55.9237 37.0828 42.5803 44.6261 42.5803 53.9313C42.5803 63.2365 55.9237 70.7798 72.3836 70.7798Z" fill="#F7F6F2"/>
<path d="M93.4905 38.6827C95.7213 38.6827 97.5297 36.0108 97.5297 32.7148C97.5297 29.4188 95.7213 26.7468 93.4905 26.7468C91.2596 26.7468 89.4512 29.4188 89.4512 32.7148C89.4512 36.0108 91.2596 38.6827 93.4905 38.6827Z" fill="#37241C"/>
<path d="M50.4407 38.6827C52.6715 38.6827 54.4799 36.0108 54.4799 32.7148C54.4799 29.4188 52.6715 26.7468 50.4407 26.7468C48.2098 26.7468 46.4014 29.4188 46.4014 32.7148C46.4014 36.0108 48.2098 38.6827 50.4407 38.6827Z" fill="#37241C"/>
<path d="M43.1626 43.9964C44.3998 44.3603 45.6371 44.7242 46.8743 45.0517L52.7695 46.762L54.1523 47.1623C54.8437 47.3443 55.6807 46.9076 55.8263 46.2162C55.9719 45.5248 55.6079 44.7606 54.8801 44.5423C53.6429 44.1784 52.4056 43.8145 51.1684 43.487L45.2732 41.7766L43.8904 41.3763C43.199 41.1944 42.362 41.6311 42.2164 42.3225C42.0709 43.0139 42.4348 43.7781 43.1626 43.9964Z" fill="#37241C"/>
<path d="M41.3797 53.6765C42.6169 53.5309 43.8178 53.3854 45.055 53.2398L50.9138 52.512L52.2602 52.3301C52.6241 52.2937 52.9516 52.2209 53.2428 51.9298C53.4975 51.6751 53.643 51.3112 53.643 50.9473C53.643 50.2922 53.0244 49.4917 52.2602 49.5644C51.023 49.71 49.8221 49.8556 48.5848 50.0011L42.7261 50.7289L41.3797 50.9109C41.0158 50.9473 40.6882 51.02 40.3971 51.3112C40.1424 51.5659 39.9968 51.9298 39.9968 52.2937C39.9968 52.9487 40.6155 53.7493 41.3797 53.6765Z" fill="#37241C"/>
<path d="M90.1788 47.1268C91.4525 46.8357 92.7626 46.5446 94.0362 46.2535L100.186 44.8343C100.659 44.7251 101.132 44.6159 101.605 44.5068C102.297 44.3612 102.77 43.5242 102.551 42.8328C102.333 42.105 101.605 41.7047 100.877 41.8867C99.6038 42.1778 98.2938 42.4689 97.0202 42.76L90.8703 44.1793C90.3972 44.2884 89.9241 44.3976 89.4511 44.5068C88.7597 44.6523 88.2866 45.4893 88.5049 46.1807C88.7233 46.9085 89.451 47.3088 90.1788 47.1268Z" fill="#37241C"/>
<path d="M93.1264 52.2937C94.3636 52.5121 95.5645 52.694 96.8017 52.9124L102.66 53.8949L104.007 54.1132C104.371 54.186 104.735 54.186 105.062 53.9677C105.353 53.7857 105.608 53.4946 105.681 53.1671C105.826 52.5121 105.499 51.6023 104.735 51.4932C103.497 51.2748 102.297 51.0929 101.059 50.8745L95.2006 49.892L93.8541 49.6737C93.4902 49.6009 93.1263 49.6009 92.7988 49.8192C92.5077 50.0012 92.253 50.2923 92.1802 50.6198C92.0346 51.2748 92.3622 52.1846 93.1264 52.2937Z" fill="#37241C"/>
<path d="M72.0202 42.6512C76.8436 42.6512 80.7538 40.1585 80.7538 37.0835C80.7538 34.0086 76.8436 31.5159 72.0202 31.5159C67.1968 31.5159 63.2866 34.0086 63.2866 37.0835C63.2866 40.1585 67.1968 42.6512 72.0202 42.6512Z" fill="#37241C"/>
<path d="M112.413 79.8772L99.4585 96.5073C94.3275 102.512 85.3392 103.203 79.3349 98.0721C73.3306 92.9411 72.6392 83.9528 77.7701 77.9485" fill="#EDCBB1"/>
<path d="M111.467 78.8943C107.755 83.6613 104.043 88.4284 100.295 93.1955C98.3665 95.67 96.4742 97.999 93.4538 99.1998C88.2865 101.238 82.3549 99.7457 78.7159 95.5245C74.6766 90.8302 74.7494 83.625 78.7159 78.8943C79.844 77.5478 77.9153 75.6192 76.7873 76.9656C72.748 81.8055 71.8382 88.5012 74.6039 94.178C77.3695 99.8549 83.4466 103.239 89.5965 102.802C94.1453 102.475 98.2209 100.255 101.023 96.6526L107.682 88.1009C109.575 85.6628 111.467 83.2247 113.359 80.8229C113.796 80.2407 113.941 79.4765 113.359 78.8943C112.886 78.4212 111.867 78.312 111.43 78.8943H111.467Z" fill="#3A251D"/>
<path d="M33.6282 79.8774L46.583 96.5076C51.714 102.512 60.7023 103.203 66.7066 98.0724C72.711 92.9414 73.4024 83.9531 68.2714 77.9487" fill="#EDCBB1"/>
<path d="M32.6461 80.8227C36.5762 85.8809 40.5427 90.9391 44.4728 95.9609C45.055 96.7251 45.6373 97.4893 46.2923 98.1807C48.4029 100.328 51.1685 101.856 54.1161 102.475C60.3388 103.785 66.7434 101.237 70.346 95.9973C74.3853 90.1749 73.7303 82.2783 69.2543 76.929C68.1262 75.5826 66.1976 77.5112 67.3256 78.8576C70.8191 83.0425 71.3285 89.1196 68.5265 93.8139C65.7245 98.5082 59.9749 101.019 54.6256 99.7819C51.9691 99.1632 49.531 97.744 47.7115 95.6698C47.2384 95.1239 46.8017 94.5417 46.365 93.9595L39.7421 85.4806C38.0318 83.2608 36.285 81.0774 34.5747 78.8576C34.138 78.2754 33.1191 78.3846 32.6461 78.8576C32.0638 79.4399 32.173 80.2041 32.6461 80.7863V80.8227Z" fill="#3A251D"/>
<g opacity="0.87">
<ellipse cx="55" cy="37.2174" rx="15" ry="8.21741" fill="#002F39"/>
<ellipse cx="94.0005" cy="37.2174" rx="15" ry="8.21741" fill="#002F39"/>
<line x1="70" y1="37.1084" x2="79" y2="37.1084" stroke="#002F39"/>
</g>
</svg>
