<svg width="179" height="317" viewBox="0 0 179 317" fill="none" xmlns="http://www.w3.org/2000/svg">
<path d="M72.2972 239.738L69.8105 293.049C69.8105 304.998 58.1657 314.641 43.7309 314.641C29.2962 314.641 17.6514 304.998 17.6514 293.049L21.2904 195.888L72.2365 239.738H72.2972Z" fill="#EDCBB1"/>
<path d="M70.0533 239.738C69.4468 253.081 68.8403 266.424 68.1732 279.767C67.9306 284.437 67.8093 289.107 67.5667 293.777C66.7782 307.423 51.1305 313.974 39.1824 311.972C29.5997 310.395 19.9563 303.239 20.0776 292.686C20.0776 288.925 20.3808 285.165 20.5021 281.405L22.3217 232.096C22.7462 220.027 23.2314 207.897 23.656 195.827L19.7744 197.465C34.6337 210.262 49.4929 223.059 64.3522 235.856C66.475 237.676 68.5977 239.495 70.7205 241.315C72.8432 243.134 76.179 240.041 73.9349 238.1C59.0757 225.303 44.2163 212.506 29.3571 199.709C27.2343 197.889 25.1116 196.07 22.9888 194.25C21.4726 192.977 19.1679 193.826 19.1072 195.888C18.0762 224.151 16.9844 252.414 15.9534 280.616C15.7714 284.68 15.5289 288.743 15.4682 292.807C15.3469 303.117 23.0495 311.305 32.2683 314.823C44.1557 319.372 59.4396 316.4 67.4454 306.089C71.9335 300.327 72.0548 293.899 72.358 287.045C73.0858 271.276 73.8136 255.446 74.5414 239.677C74.6627 236.766 70.114 236.766 69.9927 239.677L70.0533 239.738Z" fill="#3A251D"/>
<path d="M106.322 239.738L108.809 293.049C108.809 304.998 120.454 314.641 134.888 314.641C149.323 314.641 160.968 304.998 160.968 293.049L157.329 195.888L106.383 239.738H106.322Z" fill="#EDCBB1"/>
<path d="M104.016 239.74C104.683 253.932 105.35 268.064 106.017 282.256C106.26 287.472 105.836 293.597 107.291 298.692C110.87 311.065 124.455 317.554 136.585 316.826C148.715 316.099 161.148 308.517 162.907 295.841C163.393 292.324 162.907 288.685 162.847 285.167L160.967 235.009C160.481 221.97 159.996 208.93 159.511 195.829C159.45 193.767 157.146 192.918 155.629 194.192C140.77 206.989 125.911 219.786 111.051 232.583C108.929 234.403 106.806 236.222 104.683 238.042C102.439 239.983 105.714 243.136 107.898 241.256C122.757 228.459 137.616 215.662 152.475 202.865C154.598 201.045 156.721 199.226 158.844 197.406L154.962 195.769C155.993 222.697 156.964 249.687 157.995 276.615L158.541 291.293C158.844 298.874 154.841 305.181 148.23 308.881C137.192 315.067 120.392 312.884 113.477 301.482C110.506 296.569 110.93 290.504 110.688 284.985C109.96 269.883 109.293 254.781 108.565 239.679C108.444 236.768 103.895 236.768 104.016 239.679V239.74Z" fill="#3A251D"/>
<path d="M155.324 140.635L154.96 94.8443H155.263C166.969 94.905 176.491 85.4436 176.491 73.7381C176.491 62.0326 167.03 52.5105 155.263 52.5105C150.411 52.5105 145.923 54.1481 142.345 56.8773C129.123 42.8672 110.382 34.1335 89.5793 34.1335C68.7763 34.1335 49.8535 42.9278 36.6318 57.0593C32.9928 54.2087 28.444 52.5105 23.4707 52.5105C11.7652 52.5105 2.24316 61.972 2.24316 73.7381C2.24316 85.5042 11.7046 94.9656 23.4707 94.9656H23.3494L23.7133 141.666L19.1645 213.173C19.1645 221.057 20.1349 228.76 21.8938 235.977C28.7473 263.573 47.6701 285.225 71.5663 292.503C71.8695 292.624 72.2334 292.685 72.5367 292.806C77.9345 294.383 83.575 295.172 89.3367 295.172C128.092 295.172 159.509 258.478 159.509 213.173L155.203 140.696L155.324 140.635Z" fill="#EDCBB1"/>
<path d="M157.57 140.635C157.448 125.351 157.327 110.067 157.206 94.844L154.355 97.0274C160.724 98.6043 168.851 93.813 172.914 89.2035C177.888 83.5024 179.828 75.7999 178.191 68.4612C174.491 52.025 154.659 45.1715 141.255 54.9362L143.984 55.3001C129.792 40.5015 110.141 31.8892 89.581 31.8892C69.0206 31.8892 49.2487 40.5621 35.0565 55.4821L38.271 58.6965C39.302 57.4835 39.0594 56.0279 37.7858 55.1182C24.8673 45.4141 5.70186 51.3579 1.0318 67.0056C-3.63826 82.6533 8.18852 96.8455 23.533 97.2094C25.8377 97.2094 26.5655 94.1162 24.6854 92.9639H24.5641C23.1085 91.9935 21.107 93.1458 21.1676 94.844C21.2889 112.554 22.2593 130.446 21.107 148.155L18.5597 188.548C17.9532 198.495 16.5583 208.684 17.1648 218.692C18.4384 241.071 27.4753 263.33 44.0328 278.735C60.5903 294.14 81.7572 300.569 103.106 295.899C139.86 287.893 163.635 248.289 161.937 212.141C160.845 189.034 159.207 165.926 157.812 142.879L157.691 140.696C157.509 137.784 152.96 137.784 153.142 140.696C154.416 162.287 155.69 183.939 156.963 205.531C157.752 218.631 156.599 231.428 152.172 243.983C145.622 262.36 132.582 278.675 114.811 287.166C95.2215 296.506 72.1138 293.898 54.4646 281.464C36.8154 269.031 25.5345 247.743 22.4413 226.212C20.925 215.356 22.0774 204.681 22.8052 193.825C23.6543 180.239 24.5034 166.654 25.4132 153.068C26.5655 134.63 25.959 116.193 25.8377 97.6946V94.844C24.6854 95.5112 23.533 96.1783 22.3807 96.7848H22.502C22.8659 95.4505 23.2904 94.0555 23.6543 92.5999C11.221 92.2967 1.82024 80.3486 5.5199 68.1579C9.46216 55.1182 25.1099 51.1153 35.6024 58.9998L35.1172 55.4214C33.2977 57.6655 36.2695 60.8193 38.3316 58.6359C51.7353 44.565 70.173 36.3773 89.6417 36.3773C109.11 36.3773 127.427 44.5044 140.83 58.4539C141.498 59.1211 142.771 59.3637 143.56 58.8178C154.234 51.0546 169.942 55.4214 173.581 68.6431C175.158 74.4049 173.885 80.7125 170.185 85.4432C168.426 87.6873 166.182 89.5068 163.574 90.7198C161.573 91.6902 157.873 93.1458 155.629 92.5999C154.234 92.236 152.718 93.2671 152.778 94.7834C152.9 110.067 153.021 125.351 153.142 140.574C153.142 143.485 157.691 143.485 157.691 140.574L157.57 140.635Z" fill="#3A251D"/>
<path d="M88.6716 276.19C61.561 276.19 39.5449 250.596 39.5449 218.997C39.5449 187.398 61.561 161.804 88.6716 161.804C115.782 161.804 137.798 187.398 137.798 218.997C137.798 250.596 115.782 276.19 88.6716 276.19Z" fill="#F7F6F2"/>
<path d="M89.399 149.857C116.832 149.857 139.071 137.285 139.071 121.776C139.071 106.267 116.832 93.6951 89.399 93.6951C61.9657 93.6951 39.7266 106.267 39.7266 121.776C39.7266 137.285 61.9657 149.857 89.399 149.857Z" fill="#F7F6F2"/>
<path d="M124.578 96.3615C128.296 96.3615 131.31 91.9083 131.31 86.4149C131.31 80.9215 128.296 76.4683 124.578 76.4683C120.86 76.4683 117.846 80.9215 117.846 86.4149C117.846 91.9083 120.86 96.3615 124.578 96.3615Z" fill="#37241C"/>
<path d="M52.8298 96.3615C56.5479 96.3615 59.562 91.9083 59.562 86.4149C59.562 80.9215 56.5479 76.4683 52.8298 76.4683C49.1118 76.4683 46.0977 80.9215 46.0977 86.4149C46.0977 91.9083 49.1118 96.3615 52.8298 96.3615Z" fill="#37241C"/>
<path d="M40.699 105.217C42.7611 105.824 44.8232 106.43 46.8853 106.976L56.7106 109.827L59.0153 110.494C60.1676 110.797 61.5626 110.069 61.8052 108.917C62.0478 107.765 61.4413 106.491 60.2283 106.127C58.1662 105.521 56.1041 104.914 54.042 104.368L44.2167 101.518L41.912 100.85C40.7596 100.547 39.3647 101.275 39.1221 102.427C38.8795 103.58 39.486 104.853 40.699 105.217Z" fill="#37241C"/>
<path d="M37.7247 121.35C39.7868 121.108 41.7882 120.865 43.8503 120.623L53.615 119.41L55.859 119.106C56.4655 119.046 57.0114 118.924 57.4966 118.439C57.9211 118.015 58.1637 117.408 58.1637 116.802C58.1637 115.71 57.1327 114.376 55.859 114.497C53.7969 114.74 51.7955 114.982 49.7334 115.225L39.9687 116.438L37.7247 116.741C37.1182 116.802 36.5723 116.923 36.0871 117.408C35.6625 117.833 35.4199 118.439 35.4199 119.046C35.4199 120.137 36.451 121.472 37.7247 121.35Z" fill="#37241C"/>
<path d="M119.058 110.434C121.181 109.949 123.364 109.464 125.487 108.979L135.737 106.613C136.525 106.431 137.314 106.249 138.102 106.068C139.255 105.825 140.043 104.43 139.679 103.278C139.315 102.065 138.102 101.397 136.889 101.701C134.767 102.186 132.583 102.671 130.46 103.156L120.211 105.522C119.422 105.704 118.634 105.886 117.845 106.068C116.693 106.31 115.904 107.705 116.268 108.857C116.632 110.07 117.845 110.738 119.058 110.434Z" fill="#37241C"/>
<path d="M123.971 119.046C126.033 119.41 128.035 119.713 130.097 120.077L139.861 121.714L142.105 122.078C142.712 122.2 143.318 122.2 143.864 121.836C144.349 121.532 144.774 121.047 144.895 120.501C145.138 119.41 144.592 117.893 143.318 117.712C141.256 117.348 139.255 117.044 137.193 116.68L127.428 115.043L125.184 114.679C124.577 114.558 123.971 114.558 123.425 114.922C122.94 115.225 122.515 115.71 122.394 116.256C122.151 117.348 122.697 118.864 123.971 119.046Z" fill="#37241C"/>
<path d="M88.7943 102.975C96.8334 102.975 103.35 98.8204 103.35 93.6955C103.35 88.5706 96.8334 84.416 88.7943 84.416C80.7552 84.416 74.2383 88.5706 74.2383 93.6955C74.2383 98.8204 80.7552 102.975 88.7943 102.975Z" fill="#37241C"/>
<path d="M108.91 35.8892H72.5822C72.1043 35.8892 71.6933 35.5511 71.601 35.0822L66.3937 8.61149C66.203 7.64229 67.3835 7.0129 68.082 7.71136L79.768 19.3974C80.2537 19.8831 81.0732 19.7457 81.3741 19.1282L89.4447 2.56212C89.7939 1.84548 90.8001 1.80545 91.2051 2.4921L101.053 19.1914C101.401 19.7801 102.223 19.8548 102.67 19.3384L112.446 8.05931C113.106 7.29731 114.351 7.88095 114.188 8.87602L109.897 35.0509C109.818 35.5343 109.4 35.8892 108.91 35.8892Z" fill="#F2C879" stroke="#3A251D" stroke-width="4"/>
</svg>
