<svg width="196" height="192" viewBox="0 0 196 192" fill="none" xmlns="http://www.w3.org/2000/svg">
<path d="M26.4001 120.178L26.0162 69.2196L26.1655 69.3049C13.4098 69.3049 3.06436 58.9595 3.06436 46.2038C3.06436 33.4481 13.4098 23.1027 26.1655 23.1027C31.5835 23.1027 36.5535 24.9585 40.4783 28.0728C54.8979 12.6934 75.4179 3.07324 98.1777 3.07324C120.938 3.07324 141.266 12.6081 155.685 27.8808C159.589 24.8732 164.452 23.1027 169.763 23.1027C182.519 23.1027 192.865 33.4481 192.865 46.2038C192.865 58.9595 182.519 69.3049 169.763 69.3049L169.422 69.2196L169.806 119.155" fill="#EDCBB1"/>
<path d="M29.5983 120.178C29.4917 105.332 29.3637 90.4859 29.257 75.6398C29.257 73.4854 29.2144 71.3523 29.2144 69.1979L24.3936 71.9709L24.543 72.0562L26.1641 66.0837C13.1097 65.8703 3.34028 53.2639 7.07315 40.5509C11.126 26.7286 27.7852 22.3772 38.8772 30.8241L38.2372 25.7901C35.7415 28.9257 39.8584 33.3838 42.7593 30.3122C65.4765 6.33652 102.016 -0.745257 131.793 14.0795C139.92 18.1324 147.173 23.5503 153.444 30.1202C154.34 31.0587 156.217 31.4427 157.326 30.6108C168.546 22.2918 185.141 26.9846 188.96 40.8708C190.623 46.8861 189.322 53.4986 185.483 58.426C183.648 60.7723 181.259 62.6707 178.593 64.0146C176.503 65.0598 172.599 66.6596 170.274 66.0837C168.269 65.593 166.2 67.0435 166.221 69.1766C166.328 83.7668 166.434 98.3356 166.541 112.926C166.541 114.995 166.562 117.043 166.584 119.112C166.605 123.228 173.004 123.228 172.983 119.112C172.876 104.521 172.77 89.9526 172.663 75.3625C172.663 73.2934 172.642 71.2457 172.62 69.1766L168.567 72.2695C174.135 73.6347 181.366 70.3711 185.675 67.0649C190.773 63.1614 194.463 57.4021 195.593 51.0455C197.897 37.9699 190.218 24.9582 177.441 21.012C169.527 18.559 160.718 20.1588 154.084 25.0861L157.966 25.5768C133.159 -0.44663 93.4836 -7.52841 61.2743 8.57623C52.6568 12.885 44.871 18.7936 38.2372 25.7687L42.7593 30.2908C44.1672 28.5417 43.8685 26.6006 42.1194 25.2568C31.1128 16.8739 14.7522 18.5803 5.96398 29.3523C-2.35498 39.5697 -1.97107 54.6078 7.11579 64.2279C12.0645 69.4966 19.0183 72.3122 26.1854 72.4402C29.449 72.4829 30.4302 68.1101 27.8065 66.4676L27.6572 66.3823C25.5881 65.1024 22.8152 66.7662 22.8365 69.1553C22.9432 84.0014 23.0711 98.8475 23.1778 113.694C23.1778 115.848 23.2205 117.981 23.2205 120.136C23.2418 124.252 29.641 124.252 29.6197 120.136L29.5983 120.178Z" fill="#37241C"/>
<path d="M98.711 136.516C128.516 136.516 152.678 120.807 152.678 101.428C152.678 82.0485 128.516 66.3386 98.711 66.3386C68.9061 66.3386 44.7444 82.0485 44.7444 101.428C44.7444 120.807 68.9061 136.516 98.711 136.516Z" fill="#F7F6F2"/>
<path d="M136.893 69.1973C140.934 69.1973 144.21 64.365 144.21 58.404C144.21 52.443 140.934 47.6107 136.893 47.6107C132.852 47.6107 129.577 52.443 129.577 58.404C129.577 64.365 132.852 69.1973 136.893 69.1973Z" fill="#37241C"/>
<path d="M58.9926 69.1973C63.0333 69.1973 66.309 64.365 66.309 58.404C66.309 52.443 63.0333 47.6107 58.9926 47.6107C54.9519 47.6107 51.6762 52.443 51.6762 58.404C51.6762 64.365 54.9519 69.1973 58.9926 69.1973Z" fill="#37241C"/>
<path d="M45.5969 79.5213C51.3776 81.1851 57.1582 82.8489 62.9388 84.5126L65.4558 85.2379C67.0556 85.7072 69.018 84.6833 69.402 82.9982C69.7859 81.3131 68.89 79.5639 67.1623 79.052C61.3817 77.3882 55.601 75.7244 49.8204 74.0606L47.3034 73.3354C45.7036 72.8661 43.7412 73.89 43.3573 75.5751C42.9733 77.2602 43.8692 79.0093 45.5969 79.5213Z" fill="#37241C"/>
<path d="M42.5685 97.12C48.3277 96.4161 54.0657 95.7121 59.8249 95.0082L62.278 94.7096C63.9417 94.4963 65.5629 93.3871 65.4776 91.51C65.4136 89.9529 64.0484 88.0971 62.278 88.3104C56.5187 89.0143 50.7807 89.7182 45.0215 90.4222L42.5685 90.7208C40.9047 90.9341 39.2835 92.0433 39.3689 93.9204C39.4328 95.4775 40.798 97.3333 42.5685 97.12Z" fill="#37241C"/>
<path d="M131.131 85.2382C137.167 83.8517 143.225 82.4652 149.262 81.1L151.843 80.5028C153.485 80.1188 154.595 78.1564 154.083 76.5566C153.528 74.8502 151.907 73.9116 150.136 74.3169C144.1 75.7034 138.042 77.0899 132.005 78.455L129.424 79.0523C127.782 79.4363 126.673 81.3987 127.185 82.9985C127.739 84.7049 129.36 85.6435 131.131 85.2382Z" fill="#37241C"/>
<path d="M136.039 94.5807C141.756 95.5193 147.494 96.4792 153.21 97.4177L155.685 97.823C157.327 98.1003 159.204 97.3964 159.631 95.5833C159.972 94.0475 159.162 91.9357 157.391 91.6371C151.674 90.6986 145.937 89.7387 140.22 88.8001L137.746 88.3948C136.103 88.1175 134.226 88.8215 133.799 90.6346C133.458 92.1704 134.269 94.2821 136.039 94.5807Z" fill="#37241C"/>
<path d="M135.615 113.459C142.548 121.394 146.75 131.782 146.75 143.151C146.75 168.108 126.528 188.33 101.572 188.33C76.6147 188.33 56.3932 168.108 56.3932 143.151C56.3932 118.194 76.6147 97.9729 101.572 97.9729C105.368 97.9729 109.08 98.4422 112.599 99.3381V128.006L135.615 113.459Z" fill="#2F9685"/>
<path d="M133.332 115.72C144.488 128.732 146.727 147.78 138.6 162.925C131.497 176.107 117.675 184.767 102.68 185.13C87.5136 185.493 73.094 177.536 65.3723 164.46C57.6506 151.385 57.7146 134.64 65.543 121.586C75.0138 105.78 93.9128 98.1648 111.745 102.431L109.399 99.338C109.399 108.894 109.399 118.45 109.399 128.006C109.399 130.374 112.129 132.081 114.22 130.779C121.899 125.937 129.556 121.095 137.235 116.232C140.712 114.035 137.491 108.489 134.014 110.707C126.335 115.549 118.678 120.391 110.999 125.255L115.819 128.028C115.819 118.472 115.819 108.915 115.819 99.3593C115.819 97.9942 114.838 96.6077 113.473 96.2664C95.2566 91.9149 75.675 98.0795 63.9218 112.84C52.8086 126.812 50.1423 145.945 57.2027 162.37C64.2631 178.795 79.28 189.332 96.4298 191.252C113.985 193.214 131.369 185.023 141.416 170.604C154.065 152.494 152.124 127.814 137.897 111.198C135.209 108.062 130.708 112.606 133.374 115.72H133.332Z" fill="#37241C"/>
<path d="M75.4575 152.196C80.7262 157.464 85.9949 162.754 91.2635 168.023C94.9324 171.713 101.14 171.671 104.83 168.023C112.829 160.109 120.807 152.217 128.806 144.303C137.594 135.6 124.027 122.034 115.239 130.737C107.24 138.651 99.2625 146.543 91.2635 154.457H104.83C99.5611 149.188 94.2925 143.898 89.0238 138.629C80.2783 129.884 66.6906 143.45 75.4575 152.196Z" fill="#37241C"/>
<path d="M79.406 147.673C84.6746 152.942 89.9433 158.232 95.212 163.5C96.4278 164.738 98.4969 164.716 99.7341 163.5C107.733 155.587 115.711 147.694 123.71 139.781C126.632 136.88 122.11 132.358 119.188 135.259C111.189 143.172 103.211 151.065 95.212 158.978H99.7341C94.4654 153.71 89.1967 148.42 83.928 143.151C81.0057 140.229 76.4837 144.751 79.406 147.673Z" fill="#F7F6F2"/>
<path d="M22.3669 42.7263C25.3105 45.6699 28.2328 48.5922 31.1764 51.5358L32.4349 52.7943C33.6295 53.9888 35.7838 54.0742 36.957 52.7943C38.1302 51.5145 38.2155 49.5307 36.957 48.2722C34.0134 45.3286 31.0911 42.4063 28.1475 39.4627L26.889 38.2042C25.6944 37.0096 23.5401 36.9243 22.3669 38.2042C21.1937 39.484 21.1084 41.4678 22.3669 42.7263Z" fill="#37241C"/>
<path d="M168.996 38.2037C166.052 41.1473 163.13 44.0696 160.186 47.0132L158.928 48.2717C157.733 49.4663 157.648 51.6206 158.928 52.7938C160.207 53.967 162.191 54.0523 163.45 52.7938C166.393 49.8502 169.316 46.9279 172.259 43.9843L173.518 42.7258C174.712 41.5313 174.798 39.3769 173.518 38.2037C172.238 37.0305 170.254 36.9452 168.996 38.2037Z" fill="#37241C"/>
<path d="M98.0702 76.4505C106.8 76.4505 113.876 71.9237 113.876 66.3397C113.876 60.7557 106.8 56.229 98.0702 56.229C89.3408 56.229 82.2642 60.7557 82.2642 66.3397C82.2642 71.9237 89.3408 76.4505 98.0702 76.4505Z" fill="#37241C"/>
<path d="M42.5862 161.218C55.6862 161.218 66.3059 150.598 66.3059 137.498C66.3059 124.398 55.6862 113.778 42.5862 113.778C29.4862 113.778 18.8665 124.398 18.8665 137.498C18.8665 150.598 29.4862 161.218 42.5862 161.218Z" fill="#EDCBB1"/>
<path d="M63.1053 137.498C62.9987 146.009 57.7513 153.859 49.6457 156.781C41.54 159.703 32.1332 157.186 26.6086 150.424C21.084 143.663 20.6147 134.256 24.9662 126.982C29.3176 119.708 37.9565 115.719 46.2755 117.319C56.0022 119.175 62.9773 127.665 63.1053 137.519C63.1693 141.636 69.5685 141.636 69.5045 137.519C69.3552 126.278 62.4654 116.295 51.9281 112.285C41.4547 108.296 28.9763 111.645 21.8946 120.327C14.8128 129.008 13.6182 141.551 19.4415 151.299C25.2647 161.047 36.5913 165.953 47.6619 163.969C60.311 161.687 69.3339 150.19 69.5045 137.541C69.5685 133.424 63.1693 133.424 63.1053 137.541V137.498Z" fill="#37241C"/>
<path d="M153.618 160.237C166.718 160.237 177.338 149.617 177.338 136.517C177.338 123.417 166.718 112.798 153.618 112.798C140.518 112.798 129.898 123.417 129.898 136.517C129.898 149.617 140.518 160.237 153.618 160.237Z" fill="#EDCBB1"/>
<path d="M174.137 136.518C174.03 145.028 168.783 152.878 160.678 155.8C152.572 158.723 143.165 156.206 137.64 149.444C132.116 142.682 131.646 133.275 135.998 126.002C140.349 118.728 148.988 114.739 157.307 116.339C167.034 118.195 174.009 126.684 174.137 136.539C174.201 140.656 180.6 140.656 180.536 136.539C180.387 125.298 173.497 115.315 162.96 111.305C152.422 107.295 140.008 110.665 132.926 119.346C125.845 128.028 124.65 140.57 130.473 150.318C136.297 160.067 147.623 164.973 158.694 162.989C171.343 160.707 180.366 149.209 180.536 136.56C180.6 132.443 174.201 132.443 174.137 136.56V136.518Z" fill="#37241C"/>
</svg>
