<svg width="136" height="44" viewBox="0 0 136 44" fill="none" xmlns="http://www.w3.org/2000/svg">
<path d="M133.602 5.67577L112.01 33.3929C103.458 43.4002 88.4779 44.5525 78.4706 36.0008C68.4634 27.4492 67.311 12.4686 75.8627 2.4613" fill="#EDCBB1"/>
<path d="M132.026 4.03808C125.84 11.9832 119.653 19.9284 113.406 27.8736C110.192 31.9978 107.038 35.8794 102.004 37.8809C93.392 41.2773 83.506 38.7906 77.441 31.7552C70.7088 23.9313 70.8301 11.9226 77.441 4.03808C79.3211 1.79402 76.1067 -1.42043 74.2265 0.823625C67.4943 8.89009 65.9781 20.0497 70.5875 29.5111C75.1969 38.9726 85.3255 44.613 95.5754 43.8852C103.157 43.3394 109.949 39.6397 114.62 33.6353L125.719 19.3826C128.872 15.319 132.026 11.2554 135.18 7.25254C135.908 6.28213 136.15 5.00848 135.18 4.03808C134.391 3.24962 132.693 3.06767 131.965 4.03808H132.026Z" fill="#3A251D"/>
<path d="M2.29785 5.6754L23.8893 33.3925C32.441 43.3998 47.4216 44.5521 57.4289 36.0005C67.4361 27.4488 68.5885 12.4682 60.0368 2.46094" fill="#EDCBB1"/>
<path d="M0.661326 7.25093C7.21154 15.6813 13.8224 24.1117 20.3726 32.4814C21.343 33.7551 22.3134 35.0287 23.4051 36.181C26.9228 39.7594 31.5323 42.3067 36.4449 43.3378C46.8161 45.5212 57.4905 41.2757 63.4949 32.542C70.2271 22.838 69.1353 9.67694 61.6754 0.76137C59.7952 -1.48269 56.5808 1.73176 58.4609 3.97582C64.2833 10.9506 65.1324 21.0792 60.4624 28.903C55.7923 36.7269 46.2096 40.9118 37.294 38.8497C32.8666 37.8186 28.803 35.4533 25.7705 31.9962C24.982 31.0864 24.2542 30.116 23.5264 29.1456L12.4881 15.0142C9.63753 11.3145 6.72633 7.67548 3.87578 3.97582C3.14797 3.00542 1.44978 3.18737 0.661326 3.97582C-0.309077 4.94622 -0.127126 6.21988 0.661326 7.19028V7.25093Z" fill="#3A251D"/>
</svg>
