<svg width="84" height="127" viewBox="0 0 84 127" fill="none" xmlns="http://www.w3.org/2000/svg">
<path d="M29.4346 0.9781C30.8425 1.92884 31.6469 3.48292 31.912 5.58552C32.3691 9.15078 32.5977 10.9426 33.0547 14.5078C31.6195 14.6907 30.9065 14.8004 29.4712 15.0563C28.8404 11.5551 28.5205 9.80899 27.8897 6.30771C27.6703 5.10101 27.1766 4.24169 26.3813 3.76632C25.586 3.29095 24.5804 3.17211 23.3737 3.44636C22.103 3.73889 21.1705 4.32396 20.5855 5.17414C20.0095 6.01518 19.9181 7.07562 20.2746 8.32803C21.2254 11.6556 21.7008 13.3194 22.6424 16.6378C21.2437 17.0401 20.5398 17.2595 19.1594 17.7348C17.1665 11.9207 16.17 9.01366 14.1863 3.20867C15.8226 2.65103 16.6454 2.38592 18.3 1.91055C18.5103 2.6236 18.6109 2.98927 18.812 3.70233C19.2416 2.85215 19.8815 2.12081 20.7409 1.5266C21.6002 0.93239 22.6698 0.493586 23.9222 0.228476C26.1528 -0.246892 28.0177 0.027362 29.4255 0.9781H29.4346Z" fill="#3A251D"/>
<path d="M49.52 2.47734C49.0903 7.17617 48.8709 9.52559 48.4413 14.2336C47.1249 14.1147 46.4667 14.069 45.1503 14.005C45.1777 13.4474 45.1868 13.164 45.2143 12.6063C44.7206 13.1 44.1538 13.4657 43.5047 13.7216C42.8557 13.9776 42.1701 14.1056 41.4296 14.1147C39.8572 14.1239 38.6048 13.7399 37.6083 12.908C36.621 12.0761 36.0268 10.7963 35.8897 9.05022C35.6703 6.38999 35.5697 5.06444 35.3503 2.4042C36.9684 2.27622 37.782 2.23051 39.4093 2.17566C39.4824 4.64392 39.5281 5.86891 39.6012 8.33717C39.6652 10.2386 40.5337 11.1437 42.2157 11.1528C43.0842 11.1528 43.779 10.906 44.3275 10.3849C44.876 9.86383 45.1777 9.08679 45.2234 8.03549C45.3239 5.70436 45.3697 4.53422 45.4702 2.20309C47.0974 2.27622 47.9019 2.33107 49.5291 2.47734H49.52Z" fill="#3A251D"/>
<path d="M58.9994 4.18682C59.8679 4.06798 60.8369 4.14112 61.8882 4.40623C61.5865 5.63121 61.4311 6.24371 61.1203 7.4687C60.6998 7.33157 60.4164 7.2493 60.2701 7.21273C59.1731 6.94762 58.2498 7.03904 57.5185 7.45041C56.7872 7.86179 56.3301 8.61141 56.1289 9.69013C55.7176 11.8841 55.5073 12.972 55.0868 15.166C53.7155 14.91 53.0208 14.7912 51.6404 14.5992C52.2894 9.91867 52.6094 7.58754 53.2585 2.90698C54.8034 3.11724 55.5713 3.24523 57.098 3.52862C56.9791 4.14111 56.9243 4.44279 56.8146 5.05529C57.3905 4.57992 58.1127 4.28738 58.9812 4.16854L58.9994 4.18682Z" fill="#3A251D"/>
<path d="M65.0148 3.14481C64.6491 2.6603 64.5303 2.15751 64.6765 1.63643C64.8228 1.11535 65.1793 0.740543 65.7644 0.530284C66.3495 0.310883 67.026 0.320023 67.7939 0.557708C68.5618 0.795392 69.1377 1.1702 69.5034 1.65471C69.869 2.14837 69.9605 2.64202 69.7959 3.14481C69.6131 3.68417 69.2291 4.04984 68.644 4.25096C68.059 4.45208 67.4099 4.43379 66.6786 4.20525C65.9472 3.97671 65.3987 3.62932 65.0239 3.14481H65.0148ZM64.2103 5.2017C65.7919 5.64964 66.578 5.88732 68.1321 6.4084C66.6329 10.8878 65.8833 13.1184 64.3749 17.5978C63.0402 17.1499 62.3637 16.9396 61.0107 16.5648C62.2906 12.0214 62.9213 9.74512 64.2012 5.2017H64.2103Z" fill="#3A251D"/>
<path d="M27.0423 113.878C25.7624 112.891 24.382 112.123 22.8645 111.556C21.7675 116.447 21.2281 118.888 20.1311 123.779C18.4399 123.404 17.5989 123.194 15.9259 122.746C17.2332 117.91 17.8823 115.487 19.1804 110.651C17.5715 110.441 15.9717 110.478 14.3627 110.752C14.189 109.582 14.1159 108.997 13.9788 107.826C15.2403 107.589 16.5201 107.507 17.8274 107.561C19.1438 107.616 20.4419 107.799 21.7401 108.119C23.0565 108.439 24.2997 108.887 25.4882 109.445C26.6766 110.011 27.7553 110.679 28.7335 111.465C28.0753 112.434 27.737 112.918 27.0423 113.878Z" fill="#3A251D"/>
<path d="M41.3595 114.39C41.323 119.107 41.3138 121.475 41.2772 126.192C39.6957 126.183 38.9004 126.155 37.3189 126.082C37.3463 125.543 37.3555 125.269 37.3829 124.72C36.3224 125.698 34.7958 126.128 32.8486 125.945C31.5047 125.826 30.3163 125.433 29.3016 124.802C28.2869 124.172 27.5555 123.349 27.0985 122.343C26.6414 121.338 26.5225 120.241 26.7236 119.043C26.9156 117.846 27.3819 116.84 28.0766 116.017C28.7714 115.195 29.6398 114.6 30.6637 114.235C31.6876 113.869 32.7755 113.741 33.9547 113.851C35.5545 113.997 36.7704 114.545 37.648 115.533C37.6754 115.03 37.6845 114.783 37.712 114.28C39.1746 114.353 39.906 114.372 41.3687 114.381L41.3595 114.39ZM36.3864 122.508C37.0903 121.95 37.4469 121.173 37.5017 120.186C37.5474 119.189 37.264 118.385 36.6607 117.754C36.0665 117.123 35.2986 116.776 34.357 116.703C33.3971 116.621 32.5743 116.84 31.8796 117.352C31.1848 117.873 30.7643 118.614 30.6454 119.601C30.5266 120.588 30.7551 121.42 31.3585 122.078C31.9527 122.736 32.7846 123.12 33.8085 123.212C34.8232 123.294 35.6917 123.056 36.3864 122.508Z" fill="#3A251D"/>
<path d="M46.4221 125.909C45.2794 125.717 44.3744 125.433 43.707 125.086C44.2373 124.09 44.4932 123.596 44.996 122.6C45.6177 122.92 46.3764 123.166 47.2723 123.322C48.1591 123.486 49.0275 123.532 49.8777 123.468C51.5872 123.331 52.4008 122.874 52.3185 122.161C52.282 121.823 52.026 121.612 51.5598 121.512C51.0844 121.411 50.3622 121.365 49.4206 121.329C48.3053 121.283 47.3637 121.155 46.6415 121C45.9102 120.844 45.2703 120.534 44.7309 120.067C44.1915 119.601 43.9173 118.915 43.899 118.029C43.8807 117.279 44.1093 116.621 44.5572 116.027C45.0052 115.432 45.6725 114.966 46.541 114.601C47.4094 114.235 48.4333 114.006 49.6309 113.906C50.5176 113.833 51.4044 113.833 52.3094 113.906C53.2053 113.988 53.9732 114.134 54.5948 114.372C54.2474 115.405 54.0646 115.926 53.6806 116.95C52.4648 116.52 51.1941 116.365 49.8503 116.484C49.0549 116.557 48.4607 116.694 48.0676 116.932C47.6837 117.16 47.4917 117.434 47.51 117.754C47.5283 118.12 47.766 118.358 48.2139 118.477C48.6619 118.595 49.384 118.678 50.3622 118.723C51.4501 118.778 52.3642 118.861 53.0773 118.952C53.7903 119.053 54.4302 119.299 55.0153 119.711C55.6004 120.113 55.9569 120.744 56.0849 121.594C56.1946 122.316 56.0301 123.002 55.5912 123.642C55.1524 124.282 54.4486 124.821 53.4704 125.251C52.4922 125.68 51.3038 125.964 49.9051 126.073C48.7167 126.165 47.5466 126.119 46.4038 125.927L46.4221 125.909Z" fill="#3A251D"/>
<path d="M64.1052 118.97C63.511 119.775 63.2093 120.177 62.5877 120.981C62.8436 122.161 62.9716 122.746 63.2276 123.916C61.6004 124.272 60.7776 124.428 59.1412 124.711C58.0259 118.294 57.4683 115.085 56.353 108.676C57.7243 108.439 58.4099 108.302 59.772 108.009C60.5582 111.611 60.9422 113.412 61.7284 117.014C63.5384 114.683 64.3794 113.494 65.9427 111.081C67.6339 110.605 68.4749 110.34 70.157 109.783C68.7766 112.361 68.027 113.631 66.3906 116.154C69.4531 118.147 71.062 119.08 74.4353 120.798C72.5064 121.457 71.5374 121.758 69.5902 122.325C67.3231 121.045 66.2352 120.378 64.1143 118.979L64.1052 118.97Z" fill="#3A251D"/>
<path d="M11.314 74.7427L11.1495 52.9031L11.2135 52.9397C5.74673 52.9397 1.31299 48.506 1.31299 43.0392C1.31299 37.5725 5.74673 33.1388 11.2135 33.1388C13.5355 33.1388 15.6655 33.9341 17.3475 35.2688C23.5273 28.6776 32.3217 24.5547 42.0759 24.5547C51.8301 24.5547 60.5421 28.641 66.7219 35.1865C68.3948 33.8975 70.4791 33.1388 72.7554 33.1388C78.2222 33.1388 82.6559 37.5725 82.6559 43.0392C82.6559 48.506 78.2222 52.9397 72.7554 52.9397L72.6091 52.9031L72.7737 74.3039" fill="#EDCBB1"/>
<path d="M12.685 74.7425C12.6393 68.3799 12.5844 62.0172 12.5387 55.6546C12.5387 54.7313 12.5204 53.8171 12.5204 52.8938L10.4544 54.0822L10.5184 54.1188L11.2132 51.5591C5.61846 51.4677 1.43155 46.065 3.03135 40.6165C4.76827 34.6927 11.908 32.8278 16.6616 36.4479L16.3874 34.2904C15.3178 35.6343 17.0822 37.5449 18.3254 36.2285C28.0614 25.9532 43.7211 22.9182 56.4829 29.2716C59.9659 31.0086 63.0741 33.3306 65.7617 36.1462C66.1457 36.5484 66.9502 36.713 67.4255 36.3565C72.2341 32.7912 79.3463 34.8024 80.9827 40.7536C81.6957 43.3316 81.1381 46.1655 79.4926 48.2772C78.7064 49.2828 77.6825 50.0964 76.5398 50.6724C75.6439 51.1203 73.971 51.8059 72.9746 51.5591C72.1152 51.3489 71.2285 51.9705 71.2376 52.8847C71.2833 59.1376 71.329 65.3814 71.3748 71.6343C71.3748 72.521 71.3839 73.3987 71.393 74.2854C71.4022 76.0498 74.1447 76.0498 74.1355 74.2854C74.0898 68.0325 74.0441 61.7887 73.9984 55.5358C73.9984 54.649 73.9893 53.7714 73.9801 52.8847L72.2432 54.2102C74.6292 54.7953 77.7282 53.3966 79.5749 51.9796C81.7597 50.3067 83.3412 47.8384 83.8258 45.1142C84.8131 39.5103 81.522 33.9339 76.0462 32.2427C72.6546 31.1914 68.8791 31.877 66.036 33.9888L67.6998 34.199C57.068 23.0461 40.0644 20.0111 26.2604 26.9131C22.5672 28.7597 19.2304 31.292 16.3874 34.2813L18.3254 36.2193C18.9288 35.4697 18.8008 34.6378 18.0512 34.0619C13.334 30.4692 6.32237 31.2005 2.55599 35.8171C-1.00928 40.196 -0.844745 46.6409 3.04962 50.7638C5.1705 53.0218 8.1507 54.2285 11.2223 54.2833C12.621 54.3016 13.0415 52.4276 11.9171 51.7237L11.8531 51.6871C10.9663 51.1386 9.77794 51.8517 9.78708 52.8755C9.83279 59.2382 9.88762 65.6008 9.93333 71.9634C9.93333 72.8867 9.95163 73.8009 9.95163 74.7242C9.96077 76.4886 12.7033 76.4886 12.6941 74.7242L12.685 74.7425Z" fill="#37241C"/>
<path d="M42.307 81.745C55.0805 81.745 65.4355 75.0122 65.4355 66.7069C65.4355 58.4016 55.0805 51.6688 42.307 51.6688C29.5334 51.6688 19.1785 58.4016 19.1785 66.7069C19.1785 75.0122 29.5334 81.745 42.307 81.745Z" fill="#F7F6F2"/>
<path d="M58.6671 52.8939C60.3988 52.8939 61.8027 50.8229 61.8027 48.2682C61.8027 45.7135 60.3988 43.6425 58.6671 43.6425C56.9353 43.6425 55.5315 45.7135 55.5315 48.2682C55.5315 50.8229 56.9353 52.8939 58.6671 52.8939Z" fill="#37241C"/>
<path d="M25.2809 52.8939C27.0126 52.8939 28.4165 50.8229 28.4165 48.2682C28.4165 45.7135 27.0126 43.6425 25.2809 43.6425C23.5491 43.6425 22.1453 45.7135 22.1453 48.2682C22.1453 50.8229 23.5491 52.8939 25.2809 52.8939Z" fill="#37241C"/>
<path d="M19.5403 57.3186C22.0177 58.0317 24.4951 58.7447 26.9725 59.4578L28.0512 59.7686C28.7368 59.9697 29.5779 59.5309 29.7424 58.8087C29.907 58.0865 29.5231 57.3369 28.7826 57.1175C26.3052 56.4045 23.8278 55.6914 21.3504 54.9784L20.2716 54.6675C19.586 54.4664 18.745 54.9052 18.5804 55.6274C18.4159 56.3496 18.7998 57.0992 19.5403 57.3186Z" fill="#37241C"/>
<path d="M18.243 64.8605C20.7113 64.5588 23.1704 64.2571 25.6386 63.9555L26.6899 63.8275C27.403 63.7361 28.0978 63.2607 28.0612 62.4562C28.0338 61.7889 27.4487 60.9936 26.6899 61.085C24.2217 61.3866 21.7626 61.6883 19.2943 61.99L18.243 62.118C17.5299 62.2094 16.8352 62.6848 16.8717 63.4892C16.8992 64.1566 17.4842 64.9519 18.243 64.8605Z" fill="#37241C"/>
<path d="M56.1986 59.7683C58.7857 59.1741 61.3819 58.5799 63.969 57.9948L65.0751 57.7389C65.7791 57.5743 66.2544 56.7333 66.035 56.0477C65.7974 55.3163 65.1026 54.9141 64.3438 55.0878C61.7567 55.682 59.1605 56.2762 56.5734 56.8613L55.4672 57.1172C54.7633 57.2818 54.2879 58.1228 54.5073 58.8085C54.745 59.5398 55.4398 59.942 56.1986 59.7683Z" fill="#37241C"/>
<path d="M58.3025 63.7726C60.7524 64.1748 63.2116 64.5862 65.6616 64.9884L66.722 65.1621C67.4259 65.2809 68.2304 64.9793 68.4132 64.2022C68.5595 63.544 68.2121 62.639 67.4533 62.511C65.0033 62.1088 62.5442 61.6974 60.0943 61.2952L59.0338 61.1215C58.3299 61.0026 57.5254 61.3043 57.3426 62.0814C57.1963 62.7396 57.5437 63.6446 58.3025 63.7726Z" fill="#37241C"/>
<path d="M58.1213 71.8628C61.0923 75.2635 62.8932 79.7156 62.8932 84.5881C62.8932 95.2839 54.2269 103.95 43.5311 103.95C32.8353 103.95 24.1689 95.2839 24.1689 84.5881C24.1689 73.8923 32.8353 65.226 43.5311 65.226C45.1583 65.226 46.749 65.4271 48.2573 65.811V78.0975L58.1213 71.8628Z" fill="#2F9685"/>
<path d="M57.1436 72.8318C61.9247 78.4083 62.8846 86.5718 59.4016 93.0624C56.3574 98.712 50.4336 102.424 44.007 102.579C37.5072 102.734 31.3274 99.3245 28.0181 93.7206C24.7088 88.1168 24.7362 80.9405 28.0912 75.3458C32.1502 68.5718 40.2497 65.3082 47.8922 67.1365L46.8866 65.811C46.8866 69.9065 46.8866 74.002 46.8866 78.0974C46.8866 79.1122 48.0567 79.8435 48.9526 79.2859C52.2436 77.2107 55.5255 75.1355 58.8165 73.0512C60.3066 72.1096 58.9262 69.7328 57.4361 70.6835C54.1451 72.7587 50.8632 74.8339 47.5722 76.9182L49.6382 78.1066C49.6382 74.0111 49.6382 69.9156 49.6382 65.8201C49.6382 65.2351 49.2177 64.6409 48.6327 64.4946C40.8256 62.6297 32.4335 65.2716 27.3965 71.5977C22.6336 77.5855 21.4909 85.7856 24.5168 92.8247C27.5427 99.8639 33.9785 104.38 41.3284 105.203C48.8521 106.044 56.3026 102.533 60.6083 96.3534C66.0293 88.5921 65.1974 78.0152 59.0999 70.8938C57.948 69.55 56.0191 71.4971 57.1619 72.8318H57.1436Z" fill="#37241C"/>
<path d="M32.3383 88.4644C34.5963 90.7224 36.8543 92.9895 39.1123 95.2475C40.6847 96.829 43.3449 96.8107 44.9264 95.2475C48.3545 91.8559 51.7736 88.4735 55.2017 85.0819C58.9681 81.3521 53.1539 75.538 49.3876 79.2678C45.9594 82.6594 42.5404 86.0418 39.1123 89.4334H44.9264C42.6684 87.1754 40.4104 84.9082 38.1524 82.6502C34.4043 78.9021 28.581 84.7163 32.3383 88.4644Z" fill="#37241C"/>
<path d="M34.0308 86.5264C36.2888 88.7844 38.5468 91.0515 40.8048 93.3095C41.3259 93.8397 42.2126 93.8306 42.7428 93.3095C46.171 89.9179 49.5899 86.5355 53.0181 83.1439C54.2705 81.9006 52.3325 79.9626 51.08 81.2059C47.6519 84.5975 44.2329 87.9799 40.8048 91.3715H42.7428C40.4848 89.1135 38.2268 86.8463 35.9688 84.5883C34.7164 83.3359 32.7784 85.2739 34.0308 86.5264Z" fill="#F7F6F2"/>
<path d="M42.0306 56.002C45.7718 56.002 48.8046 54.062 48.8046 51.6689C48.8046 49.2757 45.7718 47.3357 42.0306 47.3357C38.2894 47.3357 35.2566 49.2757 35.2566 51.6689C35.2566 54.062 38.2894 56.002 42.0306 56.002Z" fill="#37241C"/>
<path d="M18.2535 92.3314C23.8678 92.3314 28.419 87.7801 28.419 82.1658C28.419 76.5515 23.8678 72.0002 18.2535 72.0002C12.6392 72.0002 8.08789 76.5515 8.08789 82.1658C8.08789 87.7801 12.6392 92.3314 18.2535 92.3314Z" fill="#EDCBB1"/>
<path d="M27.0454 82.1657C26.9997 85.8132 24.7508 89.1773 21.277 90.4298C17.8031 91.6822 13.7716 90.6035 11.4039 87.7055C9.03622 84.8076 8.83511 80.7761 10.7 77.6588C12.5649 74.5415 16.2673 72.832 19.8326 73.5176C24.0012 74.3129 26.9905 77.9513 27.0454 82.1748C27.0728 83.9391 29.8153 83.9391 29.7879 82.1748C29.7239 77.3571 26.7711 73.0788 22.2551 71.3602C17.7665 69.6507 12.4187 71.0859 9.38362 74.8066C6.34857 78.5273 5.83661 83.9026 8.3323 88.0803C10.828 92.2581 15.6822 94.3607 20.4268 93.5105C25.8478 92.5324 29.7148 87.605 29.7879 82.1839C29.8153 80.4196 27.0728 80.4196 27.0454 82.1839V82.1657Z" fill="#37241C"/>
<path d="M65.8409 91.911C71.4552 91.911 76.0065 87.3597 76.0065 81.7454C76.0065 76.1311 71.4552 71.5798 65.8409 71.5798C60.2266 71.5798 55.6753 76.1311 55.6753 81.7454C55.6753 87.3597 60.2266 91.911 65.8409 91.911Z" fill="#EDCBB1"/>
<path d="M74.6328 81.7452C74.5871 85.3927 72.3382 88.7569 68.8644 90.0093C65.3905 91.2617 61.359 90.183 58.9913 87.2851C56.6236 84.3872 56.4225 80.3557 58.2874 77.2384C60.1523 74.121 63.8547 72.4115 67.42 73.0972C71.5886 73.8925 74.5779 77.5309 74.6328 81.7544C74.6602 83.5187 77.4027 83.5187 77.3753 81.7544C77.3113 76.9367 74.3585 72.6584 69.8425 70.9397C65.3265 69.2211 60.006 70.6655 56.971 74.3861C53.936 78.1068 53.424 83.4821 55.9197 87.6599C58.4154 91.8377 63.2696 93.9403 68.0142 93.0901C73.4352 92.1119 77.3022 87.1845 77.3753 81.7635C77.4027 79.9991 74.6602 79.9991 74.6328 81.7635V81.7452Z" fill="#37241C"/>
</svg>
