<svg width="127" height="173" viewBox="0 0 127 173" fill="none" xmlns="http://www.w3.org/2000/svg">
<path d="M48.1265 93.1914C48.1265 93.1914 40.5707 115.033 4.18547 126.76C0.114137 128.079 0.5176 134.236 4.55225 135.702C12.3281 138.56 38.8835 140.942 49.3735 137.644L48.1265 93.1914Z" fill="#EDCBB1"/>
<path d="M46.8063 92.8249C46.8063 92.8249 46.6595 93.1547 46.6229 93.338C46.8063 92.8616 46.5495 93.4846 46.4761 93.6678C46.3661 93.961 46.2194 94.2175 46.0727 94.474C45.1924 96.2331 44.1287 97.9188 42.9917 99.5313C38.847 105.358 33.2718 110.342 27.2932 114.337C22.7818 117.342 17.9768 119.87 13.0252 121.996C10.0176 123.278 6.93658 124.304 3.85558 125.404C1.83825 126.137 0.407786 127.713 0.0776781 129.875C-0.25243 132.037 0.481143 134.236 2.05832 135.702C3.34208 136.874 5.10265 137.351 6.75319 137.754C10.7878 138.78 14.9325 139.293 19.0772 139.733C24.0655 140.282 29.0905 140.576 34.0788 140.576C38.5169 140.576 42.9917 140.429 47.3564 139.549C48.1634 139.366 49.007 139.183 49.7772 138.926C50.3274 138.743 50.8042 138.23 50.8042 137.607C50.6575 132.587 50.5108 127.603 50.4008 122.582L49.7405 98.6518C49.7039 96.8194 49.6305 94.9871 49.5938 93.1548C49.5571 91.3224 46.8063 91.3957 46.8429 93.1548C46.9896 98.1754 47.1364 103.159 47.2464 108.18L47.9066 132.11C47.9433 133.942 48.0166 135.775 48.0533 137.607L49.0803 136.288C45.3758 137.424 41.4145 137.68 37.5632 137.79C32.7217 137.937 27.8434 137.754 23.0018 137.351C18.6737 137.021 14.3457 136.508 10.0909 135.665C7.34004 135.115 2.97529 134.712 2.75522 131.121C2.71854 130.351 2.86525 129.508 3.37875 128.885C4.11233 127.969 5.46944 127.786 6.49644 127.419C9.35737 126.43 12.1449 125.367 14.9325 124.158C19.7374 122.069 24.3589 119.614 28.7237 116.682C34.8123 112.614 40.3508 107.667 44.7523 101.767C46.6229 99.2748 48.4568 96.4896 49.5205 93.4846C50.1073 91.7988 47.4298 91.1026 46.8796 92.7517L46.8063 92.8249Z" fill="#3A251D"/>
<path d="M62.5767 125.623L61.0729 157.835C61.0729 165.055 54.0306 170.881 45.3011 170.881C36.5716 170.881 29.5293 165.055 29.5293 157.835L31.73 99.1272L62.5401 125.623H62.5767Z" fill="#EDCBB1"/>
<path d="M61.2206 125.623C60.8538 133.685 60.487 141.747 60.0836 149.809C59.9369 152.631 59.8635 155.453 59.7168 158.275C59.24 166.52 49.7769 170.478 42.5512 169.269C36.756 168.316 30.9241 163.992 30.9974 157.615C30.9974 155.343 31.1808 153.071 31.2542 150.799L32.3545 121.005C32.6113 113.713 32.9047 106.383 33.1615 99.0905L30.814 100.08C39.8003 107.812 48.7866 115.545 57.7728 123.277C59.0566 124.377 60.3403 125.476 61.6241 126.575C62.9078 127.675 64.9252 125.806 63.568 124.633C54.5818 116.901 45.5955 109.168 36.6092 101.436C35.3255 100.337 34.0417 99.2371 32.758 98.1377C31.841 97.3681 30.4472 97.8812 30.4106 99.1272C29.787 116.204 29.1268 133.282 28.5033 150.323C28.3932 152.778 28.2465 155.233 28.2098 157.689C28.1365 163.918 32.7947 168.866 38.3698 170.991C45.5588 173.74 54.8018 171.944 59.6434 165.714C62.3576 162.233 62.431 158.348 62.6144 154.207C63.0545 144.679 63.4947 135.114 63.9348 125.586C64.0082 123.827 61.2573 123.827 61.1839 125.586L61.2206 125.623Z" fill="#3A251D"/>
<path d="M83.1543 125.625L84.6581 157.837C84.6581 165.057 91.7004 170.884 100.43 170.884C109.159 170.884 116.202 165.057 116.202 157.837L114.001 99.1294L83.191 125.625H83.1543Z" fill="#EDCBB1"/>
<path d="M81.7612 125.625C82.1647 134.2 82.5681 142.739 82.9716 151.314C83.1183 154.466 82.8616 158.167 83.7419 161.245C85.9059 168.721 94.1219 172.642 101.458 172.203C108.793 171.763 116.312 167.182 117.376 159.523C117.67 157.397 117.376 155.199 117.339 153.073L116.202 122.766C115.909 114.887 115.616 107.008 115.322 99.0925C115.285 97.8465 113.892 97.3335 112.975 98.103C103.988 105.835 95.0022 113.568 86.0159 121.3C84.7322 122.4 83.4484 123.499 82.1647 124.599C80.8076 125.771 82.7882 127.677 84.1086 126.541C93.0949 118.808 102.081 111.076 111.067 103.344C112.351 102.244 113.635 101.145 114.919 100.045L112.571 99.0559C113.195 115.327 113.782 131.635 114.405 147.906L114.735 156.774C114.919 161.355 112.498 165.166 108.5 167.402C101.824 171.14 91.6644 169.821 87.4831 162.931C85.6858 159.963 85.9426 156.298 85.7959 152.963C85.3557 143.838 84.9523 134.713 84.5121 125.588C84.4388 123.829 81.6879 123.829 81.7612 125.588V125.625Z" fill="#3A251D"/>
<path d="M112.79 65.7075L112.57 38.0393H112.753C119.832 38.0759 125.591 32.359 125.591 25.2862C125.591 18.2134 119.869 12.4599 112.753 12.4599C109.819 12.4599 107.105 13.4494 104.941 15.0985C96.9446 6.63308 85.6109 1.35596 73.0301 1.35596C60.4493 1.35596 49.0056 6.66973 41.0097 15.2084C38.809 13.486 36.0581 12.4599 33.0504 12.4599C25.9714 12.4599 20.2129 18.1768 20.2129 25.2862C20.2129 32.3957 25.9348 38.1126 33.0504 38.1126H32.9771L33.1971 66.3305L30.4462 109.537C30.4462 114.301 31.0331 118.955 32.0968 123.316C36.2415 139.99 47.6852 153.073 62.1366 157.471C62.32 157.544 62.54 157.581 62.7234 157.654C65.9878 158.607 69.3989 159.083 72.8834 159.083C96.321 159.083 115.321 136.912 115.321 109.537L112.716 65.7441L112.79 65.7075Z" fill="#EDCBB1"/>
<path d="M114.184 65.7075C114.111 56.4725 114.037 47.2375 113.964 38.0392L112.24 39.3585C116.091 40.3113 121.006 37.4162 123.464 34.6311C126.471 31.1863 127.645 26.5322 126.655 22.0979C124.417 12.1667 112.424 8.02562 104.318 13.9257L105.968 14.1456C97.3853 5.20383 85.5014 0 73.0674 0C60.6333 0 48.6761 5.24047 40.0933 14.2555L42.0373 16.1978C42.6608 15.4649 42.5141 14.5854 41.7438 14.0357C33.9313 8.17221 22.3408 11.7636 19.5166 21.2184C16.6923 30.6733 23.8447 39.2486 33.1243 39.4685C34.5181 39.4685 34.9583 37.5995 33.8212 36.9032H33.7479C32.8676 36.3169 31.6572 37.0131 31.6939 38.0392C31.7672 48.7401 32.3541 59.5508 31.6572 70.2517L30.1167 94.6583C29.7499 100.668 28.9063 106.825 29.2731 112.872C30.0433 126.394 35.5085 139.844 45.5217 149.152C55.535 158.46 68.3358 162.345 81.2467 159.523C103.474 154.686 117.852 130.755 116.825 108.914C116.165 94.9515 115.174 80.9891 114.331 67.0634L114.257 65.7441C114.147 63.9851 111.397 63.9851 111.507 65.7441C112.277 78.7903 113.047 91.8732 113.817 104.919C114.294 112.835 113.597 120.568 110.92 128.153C106.958 139.257 99.0725 149.115 88.3257 154.246C76.4785 159.889 62.5039 158.314 51.8305 150.801C41.157 143.288 34.3347 130.425 32.4641 117.416C31.5472 110.856 32.2441 104.406 32.6842 97.8466C33.1977 89.6377 33.7112 81.4289 34.2614 73.22C34.9583 62.0794 34.5915 50.9389 34.5181 39.7616V38.0392C33.8212 38.4423 33.1243 38.8455 32.4275 39.2119H32.5008C32.7209 38.4057 32.9776 37.5628 33.1977 36.6833C25.6786 36.5001 19.9934 29.2807 22.2308 21.9147C24.6149 14.0357 34.078 11.617 40.4234 16.3811L40.13 14.2189C39.0296 15.5748 40.8269 17.4805 42.0739 16.1612C50.1799 7.65915 61.3302 2.71186 73.1041 2.71186C84.8779 2.71186 95.9548 7.62251 104.061 16.0512C104.464 16.4544 105.235 16.6009 105.711 16.2711C112.167 11.5803 121.667 14.2189 123.867 22.2079C124.821 25.6893 124.051 29.5006 121.813 32.359C120.75 33.7149 119.392 34.8143 117.815 35.5473C116.605 36.1336 114.368 37.0131 113.01 36.6833C112.167 36.4634 111.25 37.0864 111.287 38.0026C111.36 47.2375 111.433 56.4725 111.507 65.6708C111.507 67.4299 114.257 67.4299 114.257 65.6708L114.184 65.7075Z" fill="#3A251D"/>
<path d="M72.4387 147.494C55.9978 147.494 42.6465 132.152 42.6465 113.212C42.6465 94.2721 55.9978 78.9309 72.4387 78.9309C88.8796 78.9309 102.231 94.2721 102.231 113.212C102.231 132.152 88.8796 147.494 72.4387 147.494Z" fill="#F7F6F2"/>
<path d="M72.6061 71.5719C89.1523 71.5719 102.566 63.9352 102.566 54.5148C102.566 45.0945 89.1523 37.4578 72.6061 37.4578C56.0599 37.4578 42.6465 45.0945 42.6465 54.5148C42.6465 63.9352 56.0599 71.5719 72.6061 71.5719Z" fill="#F7F6F2"/>
<path d="M43.3159 44.3853C44.5881 44.7379 45.8603 45.0904 47.1325 45.4077L53.1942 47.0647L54.6161 47.4525C55.327 47.6288 56.1876 47.2057 56.3373 46.5359C56.4869 45.866 56.1128 45.1257 55.3644 44.9141C54.0922 44.5616 52.82 44.209 51.5478 43.8918L45.4862 42.2348L44.0643 41.847C43.3533 41.6707 42.4927 42.0938 42.3431 42.7636C42.1934 43.4334 42.5676 44.1738 43.3159 44.3853Z" fill="#37241C"/>
<path d="M41.3934 54.1755C42.6681 54.022 43.9053 53.8684 45.18 53.7149L51.2161 52.947L52.6033 52.7551C52.9782 52.7167 53.3157 52.6399 53.6156 52.3328C53.878 52.0641 54.028 51.6801 54.028 51.2962C54.028 50.6052 53.3906 49.7606 52.6033 49.8374C51.3286 49.991 50.0914 50.1445 48.8167 50.2981L42.7806 51.0659L41.3934 51.2579C41.0185 51.2963 40.6811 51.373 40.3812 51.6801C40.1187 51.9489 39.9688 52.3328 39.9688 52.7167C39.9688 53.4077 40.6061 54.2523 41.3934 54.1755Z" fill="#37241C"/>
<path d="M90.5988 47.4485C91.894 47.1561 93.2263 46.8636 94.5215 46.5712L100.776 45.1457C101.257 45.036 101.738 44.9264 102.219 44.8167C102.922 44.6705 103.403 43.8298 103.181 43.1353C102.959 42.4043 102.219 42.0022 101.479 42.185C100.184 42.4774 98.8513 42.7698 97.5561 43.0622L91.3019 44.4877C90.8208 44.5974 90.3397 44.7071 89.8586 44.8167C89.1555 44.9629 88.6744 45.8036 88.8965 46.4981C89.1185 47.2292 89.8586 47.6312 90.5988 47.4485Z" fill="#37241C"/>
<path d="M93.5166 52.5877C94.7681 52.8136 95.9828 53.0018 97.2343 53.2276L103.161 54.244L104.523 54.4698C104.891 54.5451 105.259 54.5451 105.59 54.3193C105.885 54.131 106.142 53.8299 106.216 53.4911C106.363 52.8136 106.032 51.8726 105.259 51.7596C104.007 51.5338 102.793 51.3456 101.541 51.1197L95.6147 50.1034L94.2527 49.8775C93.8846 49.8023 93.5166 49.8023 93.1853 50.0281C92.8908 50.2163 92.6331 50.5175 92.5595 50.8562C92.4123 51.5338 92.7436 52.4748 93.5166 52.5877Z" fill="#37241C"/>
<path d="M72.4377 43.1441C77.2444 43.1441 81.1411 40.6734 81.1411 37.6256C81.1411 34.5779 77.2444 32.1072 72.4377 32.1072C67.631 32.1072 63.7344 34.5779 63.7344 37.6256C63.7344 40.6734 67.631 43.1441 72.4377 43.1441Z" fill="#37241C"/>
<path d="M64.8018 56.717H80.4551C86.6463 56.7172 91.6621 61.7317 91.6621 67.9133V83.553C91.662 89.7345 86.6462 94.7491 80.4551 94.7493H64.8018C58.6104 94.7493 53.5938 89.7346 53.5938 83.553V67.9133C53.5938 61.7316 58.6104 56.717 64.8018 56.717Z" fill="#962F2F" stroke="#3A251D" stroke-width="4"/>
<path fill-rule="evenodd" clip-rule="evenodd" d="M65.7189 68.8313C66.292 68.2587 67.2212 68.2587 67.7942 68.8313L79.5342 80.5612C80.1074 81.1338 80.1074 82.062 79.5342 82.6346C78.9611 83.2072 78.0319 83.2072 77.4588 82.6346L65.7189 70.9049C65.1458 70.3322 65.1458 69.4039 65.7189 68.8313Z" fill="#F7F6F2"/>
<path fill-rule="evenodd" clip-rule="evenodd" d="M79.5342 68.8313C80.1074 69.4039 80.1074 70.3323 79.5342 70.9049L67.7942 82.6346C67.2211 83.2072 66.292 83.2072 65.7189 82.6346C65.1458 82.062 65.1458 81.1336 65.7189 80.561L77.459 68.8313C78.0321 68.2587 78.9611 68.2587 79.5342 68.8313Z" fill="#F7F6F2"/>
<path d="M41.6711 90.1481C48.9636 90.1481 54.8754 84.2415 54.8754 76.9553C54.8754 69.6691 48.9636 63.7625 41.6711 63.7625C34.3786 63.7625 28.4668 69.6691 28.4668 76.9553C28.4668 84.2415 34.3786 90.1481 41.6711 90.1481Z" fill="#EDCBB1"/>
<path d="M53.5198 76.9565C53.5198 81.8672 50.4021 86.4114 45.7439 88.0605C41.0857 89.7096 35.7307 88.2803 32.5396 84.4324C29.3486 80.5845 29.0552 75.0875 31.5493 70.9098C34.0435 66.7321 39.2151 64.3867 44.0567 65.3762C49.5585 66.5122 53.5198 71.3862 53.5565 76.9565C53.5565 78.7156 56.3074 78.7156 56.3074 76.9565C56.2707 70.8365 52.4194 65.3762 46.6609 63.2506C40.9024 61.1251 34.3002 62.9941 30.4856 67.6849C26.671 72.3757 26.0108 79.3019 29.2752 84.579C32.5396 89.8561 38.6283 92.4214 44.6069 91.2487C51.3558 89.9294 56.234 83.7728 56.3074 76.9565C56.3074 75.1975 53.5565 75.1975 53.5565 76.9565H53.5198Z" fill="#3A251D"/>
<path d="M103.511 89.5999C110.803 89.5999 116.715 83.6933 116.715 76.4071C116.715 69.121 110.803 63.2144 103.511 63.2144C96.2184 63.2144 90.3066 69.121 90.3066 76.4071C90.3066 83.6933 96.2184 89.5999 103.511 89.5999Z" fill="#EDCBB1"/>
<path d="M115.323 76.4067C115.323 81.3174 112.205 85.8615 107.547 87.5106C102.888 89.1597 97.5334 87.7305 94.3424 83.8826C91.1513 80.0347 90.8579 74.5377 93.352 70.36C95.8462 66.1823 101.018 63.8369 105.859 64.8264C111.361 65.9624 115.323 70.8364 115.359 76.4067C115.359 78.1657 118.11 78.1657 118.11 76.4067C118.073 70.2867 114.222 64.8263 108.464 62.7008C102.705 60.5753 96.1029 62.4443 92.2884 67.1351C88.4738 71.8259 87.8136 78.7521 91.078 84.0292C94.3424 89.3063 100.431 91.8716 106.41 90.6989C113.158 89.3796 118.037 83.223 118.11 76.4067C118.11 74.6477 115.359 74.6477 115.359 76.4067H115.323Z" fill="#3A251D"/>
<path d="M96.5834 34.6121C96.1471 34.5079 95.7472 34.3341 95.3473 34.1951C95.1292 34.1256 94.911 34.0214 94.6929 33.9519L95.0201 34.0909C94.0385 33.7086 93.0569 33.2569 92.2207 32.6314L92.5116 32.8399C92.2207 32.5967 91.9299 32.3534 91.6754 32.0754L91.8936 32.3534C91.8936 32.3534 91.6754 32.0407 91.6027 31.867L91.7481 32.1797C91.7481 32.1797 91.639 31.9017 91.639 31.7627V32.1102C91.639 32.1102 91.6391 31.867 91.6754 31.7627V32.1102C91.6754 32.1102 91.6754 31.867 91.7481 31.728L91.6027 32.0407C91.6027 32.0407 91.7845 31.728 91.8936 31.589L91.6754 31.867C91.8572 31.6237 92.1117 31.4152 92.3662 31.2415L92.0753 31.45C92.7661 30.9635 93.5295 30.5813 94.3294 30.2685L94.0021 30.4075C94.8747 30.06 95.7472 29.7821 96.6197 29.5388C97.3105 29.3303 97.8195 28.6006 97.565 27.9404C97.3105 27.2801 96.6197 26.8284 95.8926 27.0369C94.6929 27.3844 93.4932 27.8014 92.3662 28.2879C91.6027 28.6354 90.8392 29.0523 90.1848 29.6083C89.2396 30.4075 88.5852 31.6932 89.0578 32.8747C89.4941 33.9866 90.403 34.7511 91.4209 35.3766C92.3298 35.9325 93.3114 36.3495 94.293 36.7318C94.802 36.9403 95.3109 37.114 95.8563 37.253C96.547 37.4615 97.3832 37.0097 97.5286 36.3495C97.674 35.6893 97.3105 34.9596 96.5834 34.7511V34.6121Z" fill="#37241C"/>
<path d="M50.1068 36.5106C50.5486 36.3709 50.9904 36.2312 51.3954 36.0915C52.3895 35.7423 53.3835 35.3232 54.304 34.7994C55.2244 34.2756 56.2553 33.5771 56.7708 32.6342C57.1389 32.0056 57.2126 31.377 57.1021 30.6786C56.9917 30.0849 56.6235 29.5262 56.1817 29.0722C55.6662 28.5483 54.9667 28.0943 54.304 27.78C53.2731 27.2562 52.1686 26.8721 51.1008 26.5229C50.7695 26.4181 50.4749 26.3133 50.1436 26.2435C49.444 26.0339 48.5972 26.4879 48.45 27.1515C48.3027 27.815 48.6709 28.5483 49.4072 28.7579C50.3277 29.0373 51.2481 29.3166 52.1317 29.6658L51.8004 29.5261C52.5736 29.8404 53.3467 30.1897 54.0094 30.6786L53.7149 30.4691C53.9726 30.6437 54.1935 30.8532 54.4144 31.0977L54.1935 30.8183C54.1935 30.8183 54.4144 31.0976 54.4881 31.2723L54.3408 30.958C54.3408 30.958 54.4144 31.2024 54.4512 31.3421V30.9929C54.4512 30.9929 54.4513 31.2373 54.4144 31.3421V30.9929C54.4144 30.9929 54.4144 31.2723 54.3408 31.4119L54.4881 31.0977C54.4144 31.2723 54.304 31.4469 54.1935 31.5866L54.4144 31.3072C54.1567 31.6215 53.8622 31.8659 53.5676 32.0755L53.8622 31.866C53.0154 32.4946 52.0213 32.9485 51.0272 33.3327L51.3586 33.193C50.7695 33.4374 50.1804 33.647 49.5545 33.8216C49.5177 33.8216 49.4809 33.8216 49.444 33.8565C48.7445 34.0661 48.2291 34.7994 48.4868 35.4629C48.7445 36.1265 49.444 36.5805 50.1804 36.3709L50.1068 36.5106Z" fill="#37241C"/>
</svg>
