<?xml version="1.0" encoding="UTF-8"?>
<svg id="Capa_2" data-name="Capa 2" xmlns="http://www.w3.org/2000/svg" viewBox="0 0 62.9 52.66">
  <defs>
    <style>
      .cls-1 {
        fill: #f7f6f2;
      }

      .cls-2 {
        fill: #37241c;
      }

      .cls-3 {
        fill: #3a251d;
      }

      .cls-4 {
        fill: #edcbb1;
      }
    </style>
  </defs>
  <g id="Capa_4" data-name="Capa 4">
    <g>
      <path class="cls-4" d="M8.31,38.64l-.12-16.49.05.03c-4.13,0-7.47-3.35-7.47-7.47s3.35-7.47,7.47-7.47c1.75,0,3.36.6,4.63,1.61h0C17.53,3.86,24.16.75,31.53.75s13.94,3.08,18.61,8.02c1.26-.97,2.84-1.55,4.55-1.55,4.13,0,7.47,3.35,7.47,7.47s-3.35,7.47-7.47,7.47l-.11-.03.12,16.15"/>
      <path class="cls-3" d="M9.06,38.64c-.04-5.5-.08-10.99-.12-16.49l-1.13.65.05.03.38-1.4c-4.42-.1-7.74-4.34-6.44-8.67,1.4-4.62,6.95-6.08,10.69-3.27l-.15-1.18h0c-.59.74.38,1.78,1.06,1.06C18.11,4.4,24.65,1.49,31.53,1.5s13.35,2.87,18.08,7.8c.21.22.65.31.91.12,3.86-2.81,9.51-1.13,10.7,3.65.51,2.05.01,4.28-1.34,5.91-.61.73-1.37,1.33-2.22,1.75-.73.36-2.06.89-2.88.69-.47-.11-.95.22-.95.72.04,5.38.08,10.77.12,16.15,0,.96,1.51.97,1.5,0-.04-5.38-.08-10.77-.12-16.15l-.95.72c2.17.53,4.94-1.06,6.35-2.58,1.8-1.96,2.55-4.69,2.01-7.29-1.21-5.84-8.23-8.33-12.97-4.87l.91.12C45.67,3.04,38.76,0,31.53,0s-14.2,3.06-19.2,8.31l1.06,1.06h0c.33-.41.26-.87-.15-1.18C8.7,4.78,1.98,6.88.34,12.36s2.5,10.45,7.88,10.57c.77.02.99-1.02.38-1.4l-.05-.03c-.48-.3-1.13.09-1.13.65.04,5.5.08,10.99.12,16.49,0,.96,1.51.97,1.5,0h0Z"/>
    </g>
    <ellipse class="cls-1" cx="31.71" cy="32.57" rx="17.46" ry="11.35"/>
    <ellipse class="cls-2" cx="44.06" cy="18.66" rx="2.37" ry="3.49"/>
    <ellipse class="cls-2" cx="18.85" cy="18.66" rx="2.37" ry="3.49"/>
    <path class="cls-2" d="M14.59,25.21c1.87.54,3.74,1.08,5.61,1.61l.82.23c.93.27,1.33-1.18.4-1.45-1.87-.54-3.74-1.08-5.61-1.61l-.82-.23c-.93-.27-1.33,1.18-.4,1.45h0Z"/>
    <path class="cls-2" d="M13.54,30.89l5.58-.68.79-.1c.4-.05.75-.31.75-.75,0-.37-.35-.8-.75-.75l-5.58.68-.79.1c-.4.05-.75.31-.75.75,0,.37.35.8.75.75h0Z"/>
    <path class="cls-2" d="M42.12,27.06c1.95-.45,3.91-.89,5.86-1.34l.84-.19c.94-.22.54-1.66-.4-1.45-1.95.45-3.91.89-5.86,1.34l-.84.19c-.94.22-.54,1.66.4,1.45h0Z"/>
    <path class="cls-2" d="M43.86,30.08c1.85.31,3.7.61,5.56.92l.8.13c.4.07.81-.1.92-.52.1-.36-.12-.86-.52-.92-1.85-.31-3.7-.61-5.56-.92l-.8-.13c-.4-.07-.81.1-.92.52-.1.36.12.86.52.92h0Z"/>
    <ellipse class="cls-2" cx="31.5" cy="21.22" rx="5.12" ry="3.27"/>
    <g>
      <circle class="cls-4" cx="13.55" cy="44.24" r="7.68"/>
      <path class="cls-3" d="M20.47,44.24c-.04,2.88-1.82,5.53-4.56,6.51s-5.87.12-7.73-2.13-2.05-5.47-.58-7.93,4.4-3.8,7.22-3.26c3.27.63,5.61,3.5,5.65,6.81.01.96,1.51.97,1.5,0-.05-3.5-2.19-6.64-5.47-7.89s-7.21-.21-9.44,2.53-2.56,6.64-.75,9.67,5.35,4.59,8.81,3.97c3.97-.71,6.8-4.3,6.86-8.28.01-.97-1.49-.97-1.5,0Z"/>
    </g>
    <g>
      <circle class="cls-4" cx="49.47" cy="43.92" r="7.68"/>
      <path class="cls-3" d="M56.4,43.92c-.04,2.88-1.82,5.53-4.56,6.51s-5.87.12-7.73-2.13-2.05-5.47-.58-7.93,4.4-3.8,7.22-3.26c3.27.63,5.61,3.5,5.65,6.81.01.96,1.51.97,1.5,0-.05-3.5-2.19-6.64-5.47-7.89s-7.21-.21-9.44,2.53-2.56,6.64-.75,9.67,5.35,4.59,8.81,3.97c3.97-.71,6.8-4.3,6.86-8.28.01-.97-1.49-.97-1.5,0Z"/>
    </g>
  </g>
</svg>