<?xml version="1.0" encoding="UTF-8"?>
<svg id="Capa_2" data-name="Capa 2" xmlns="http://www.w3.org/2000/svg" viewBox="0 0 34.63 47">
  <defs>
    <style>
      .cls-1 {
        fill: #2f9685;
      }

      .cls-2 {
        fill: #f7f6f2;
      }

      .cls-3 {
        fill: #37241c;
      }

      .cls-4 {
        fill: #3a251d;
      }

      .cls-5 {
        fill: #edcbb1;
      }
    </style>
  </defs>
  <g id="Capa_4" data-name="Capa 4">
    <g>
      <path class="cls-5" d="M13.13,25.43s-2.06,5.96-11.98,9.16c-1.11.36-1,2.04.1,2.44,2.12.78,9.36,1.43,12.22.53l-.34-12.13Z"/>
      <path class="cls-4" d="M12.77,25.33s-.04.09-.05.14c.05-.13-.02.04-.04.09-.03.08-.07.15-.11.22-.24.48-.53.94-.84,1.38-1.13,1.59-2.65,2.95-4.28,4.04-1.23.82-2.54,1.51-3.89,2.09-.82.35-1.66.63-2.5.93-.55.2-.94.63-1.03,1.22s.11,1.19.54,1.59c.35.32.83.45,1.28.56,1.1.28,2.23.42,3.36.54,1.36.15,2.73.23,4.09.23,1.21,0,2.43-.04,3.62-.28.22-.05.45-.1.66-.17.15-.05.28-.19.28-.36-.04-1.37-.08-2.73-.11-4.1l-.18-6.53c-.01-.5-.03-1-.04-1.5s-.76-.48-.75,0c.04,1.37.08,2.73.11,4.1l.18,6.53c.01.5.03,1,.04,1.5l.28-.36c-1.01.31-2.09.38-3.14.41-1.32.04-2.65-.01-3.97-.12-1.18-.09-2.36-.23-3.52-.46-.75-.15-1.94-.26-2-1.24-.01-.21.03-.44.17-.61.2-.25.57-.3.85-.4.78-.27,1.54-.56,2.3-.89,1.31-.57,2.57-1.24,3.76-2.04,1.66-1.11,3.17-2.46,4.37-4.07.51-.68,1.01-1.44,1.3-2.26.16-.46-.57-.65-.72-.2Z"/>
    </g>
    <g>
      <path class="cls-5" d="M17.08,34.28l-.41,8.79c0,1.97-1.92,3.56-4.3,3.56s-4.3-1.59-4.3-3.56l.6-16.02,8.4,7.23Z"/>
      <path class="cls-4" d="M16.7,34.28c-.1,2.2-.2,4.4-.31,6.6-.04.77-.06,1.54-.1,2.31-.13,2.25-2.71,3.33-4.68,3-1.58-.26-3.17-1.44-3.15-3.18,0-.62.05-1.24.07-1.86l.3-8.13c.07-1.99.15-3.99.22-5.98l-.64.27c2.45,2.11,4.9,4.22,7.35,6.33.35.3.7.6,1.05.9s.9-.21.53-.53c-2.45-2.11-4.9-4.22-7.35-6.33-.35-.3-.7-.6-1.05-.9-.25-.21-.63-.07-.64.27-.17,4.66-.35,9.32-.52,13.97-.03.67-.07,1.34-.08,2.01-.02,1.7,1.25,3.05,2.77,3.63,1.96.75,4.48.26,5.8-1.44.74-.95.76-2.01.81-3.14.12-2.6.24-5.21.36-7.81.02-.48-.73-.48-.75,0Z"/>
    </g>
    <g>
      <path class="cls-5" d="M22.68,34.28l.41,8.79c0,1.97,1.92,3.56,4.3,3.56s4.3-1.59,4.3-3.56l-.6-16.02-8.4,7.23Z"/>
      <path class="cls-4" d="M22.31,34.28c.11,2.34.22,4.67.33,7.01.04.86-.03,1.87.21,2.71.59,2.04,2.83,3.11,4.83,2.99s4.05-1.37,4.34-3.46c.08-.58,0-1.18-.01-1.76l-.31-8.27c-.08-2.15-.16-4.3-.24-6.46-.01-.34-.39-.48-.64-.27-2.45,2.11-4.9,4.22-7.35,6.33-.35.3-.7.6-1.05.9-.37.32.17.84.53.53,2.45-2.11,4.9-4.22,7.35-6.33.35-.3.7-.6,1.05-.9l-.64-.27c.17,4.44.33,8.89.5,13.33l.09,2.42c.05,1.25-.61,2.29-1.7,2.9-1.82,1.02-4.59.66-5.73-1.22-.49-.81-.42-1.81-.46-2.72-.12-2.49-.23-4.98-.35-7.47-.02-.48-.77-.48-.75,0Z"/>
    </g>
    <g>
      <path class="cls-5" d="M30.76,17.94l-.06-7.55h.05c1.93.01,3.5-1.55,3.5-3.48s-1.56-3.5-3.5-3.5c-.8,0-1.54.27-2.13.72C26.45,1.82,23.36.38,19.93.38s-6.55,1.45-8.73,3.78h0c-.6-.47-1.35-.75-2.17-.75-1.93,0-3.5,1.56-3.5,3.5s1.56,3.5,3.5,3.5h-.02s.06,7.7.06,7.7l-.75,11.79c0,1.3.16,2.57.45,3.76,1.13,4.55,4.25,8.12,8.19,9.32.05.02.11.03.16.05.89.26,1.82.39,2.77.39,6.39,0,11.57-6.05,11.57-13.52l-.71-11.95Z"/>
      <path class="cls-4" d="M31.14,17.94c-.02-2.52-.04-5.04-.06-7.55l-.47.36c1.05.26,2.39-.53,3.06-1.29.82-.94,1.14-2.21.87-3.42-.61-2.71-3.88-3.84-6.09-2.23l.45.06C26.56,1.42,23.32,0,19.93,0s-6.65,1.43-8.99,3.89l.53.53h0c.17-.2.13-.44-.08-.59-2.13-1.6-5.29-.62-6.06,1.96s1.18,4.92,3.71,4.98c.38,0,.5-.51.19-.7h-.02c-.24-.16-.57.03-.56.31.02,2.92.18,5.87-.01,8.79l-.42,6.66c-.1,1.64-.33,3.32-.23,4.97.21,3.69,1.7,7.36,4.43,9.9s6.22,3.6,9.74,2.83c6.06-1.32,9.98-7.85,9.7-13.81-.18-3.81-.45-7.62-.68-11.42l-.02-.36c-.03-.48-.78-.48-.75,0,.21,3.56.42,7.13.63,10.69.13,2.16-.06,4.27-.79,6.34-1.08,3.03-3.23,5.72-6.16,7.12-3.23,1.54-7.04,1.11-9.95-.94s-4.77-5.56-5.28-9.11c-.25-1.79-.06-3.55.06-5.34l.43-6.72c.19-3.04.09-6.08.07-9.13v-.47c-.19.11-.38.22-.57.32h.02c.06-.22.13-.45.19-.69-2.05-.05-3.6-2.02-2.99-4.03.65-2.15,3.23-2.81,4.96-1.51l-.08-.59h0c-.3.37.19.89.53.53,2.21-2.32,5.25-3.67,8.46-3.67s6.23,1.34,8.44,3.64c.11.11.32.15.45.06,1.76-1.28,4.35-.56,4.95,1.62.26.95.05,1.99-.56,2.77-.29.37-.66.67-1.09.87-.33.16-.94.4-1.31.31-.23-.06-.48.11-.47.36.02,2.52.04,5.04.06,7.55,0,.48.75.48.75,0Z"/>
    </g>
    <path class="cls-2" d="M19.78,40.29c-4.47,0-8.1-4.22-8.1-9.43s3.63-9.43,8.1-9.43c4.47,0,8.1,4.22,8.1,9.43s-3.63,9.43-8.1,9.43Z"/>
    <ellipse class="cls-2" cx="19.9" cy="14.83" rx="8.19" ry="4.63"/>
    <ellipse class="cls-3" cx="25.69" cy="9" rx="1.11" ry="1.64"/>
    <ellipse class="cls-3" cx="13.87" cy="9" rx="1.11" ry="1.64"/>
    <path class="cls-3" d="M11.86,12.1c.34.1.68.2,1.02.29l1.62.47.38.11c.19.05.42-.07.46-.26s-.06-.4-.26-.46c-.34-.1-.68-.2-1.02-.29l-1.62-.47-.38-.11c-.19-.05-.42.07-.46.26s.06.4.26.46h0Z"/>
    <path class="cls-3" d="M11.37,14.76c.34-.04.67-.08,1.01-.12l1.61-.2.37-.05c.1-.01.19-.03.27-.11.07-.07.11-.17.11-.27,0-.18-.17-.4-.38-.38-.34.04-.67.08-1.01.12l-1.61.2-.37.05c-.1.01-.19.03-.27.11-.07.07-.11.17-.11.27,0,.18.17.4.38.38h0Z"/>
    <path class="cls-3" d="M24.79,12.96c.35-.08.71-.16,1.06-.24l1.69-.39c.13-.03.26-.06.39-.09.19-.04.32-.27.26-.46-.06-.2-.26-.31-.46-.26-.35.08-.71.16-1.06.24l-1.69.39c-.13.03-.26.06-.39.09-.19.04-.32.27-.26.46.06.2.26.31.46.26h0Z"/>
    <path class="cls-3" d="M25.59,14.38c.34.06.67.11,1.01.17l1.61.27.37.06c.1.02.2.02.29-.04.08-.05.15-.13.17-.22.04-.18-.05-.43-.26-.46-.34-.06-.67-.11-1.01-.17l-1.61-.27-.37-.06c-.1-.02-.2-.02-.29.04-.08.05-.15.13-.17.22-.04.18.05.43.26.46h0Z"/>
    <g>
      <path class="cls-1" d="M20.99,19.46l4.22-2.33c1.1,1.27,1.77,2.93,1.77,4.74,0,3.98-3.22,7.21-7.2,7.21s-7.2-3.23-7.2-7.21,3.22-7.21,7.2-7.21c.41,0,.82.04,1.22.1v4.7Z"/>
      <path class="cls-3" d="M21.17,19.78c1.41-.78,2.81-1.55,4.22-2.33l-.45-.06c1.8,2.09,2.18,5.15.91,7.61-1.12,2.15-3.34,3.6-5.77,3.7s-4.77-1.11-6.07-3.16-1.41-4.77-.24-6.92c1.38-2.54,4.26-3.95,7.12-3.49l-.28-.36c0,1.57,0,3.13,0,4.7,0,.48.75.48.75,0,0-1.57,0-3.13,0-4.7,0-.15-.12-.34-.28-.36-2.84-.46-5.68.65-7.41,2.96s-1.92,5.23-.77,7.72,3.58,4.13,6.26,4.35,5.39-1.1,6.91-3.36c1.9-2.83,1.59-6.64-.62-9.21-.11-.13-.32-.13-.45-.06-1.41.78-2.81,1.55-4.22,2.33-.42.23-.04.88.38.65Z"/>
    </g>
    <path class="cls-4" d="M16.58,22.65c.8.8,1.6,1.6,2.4,2.4.43.43,1.16.43,1.59,0,1.21-1.21,2.43-2.43,3.64-3.64.42-.42.45-1.18,0-1.59s-1.15-.44-1.59,0c-1.21,1.21-2.43,2.43-3.64,3.64h1.59c-.8-.8-1.6-1.6-2.4-2.4-.42-.42-1.18-.45-1.59,0s-.44,1.15,0,1.59h0Z"/>
    <path class="cls-2" d="M17.11,22.12c.7.7,1.4,1.4,2.11,2.11l.29.29c.14.14.39.14.53,0,1.06-1.06,2.13-2.13,3.19-3.19.15-.15.3-.3.45-.45.34-.34-.19-.87-.53-.53-1.06,1.06-2.13,2.13-3.19,3.19-.15.15-.3.3-.45.45h.53c-.7-.7-1.4-1.4-2.11-2.11l-.29-.29c-.34-.34-.87.19-.53.53h0Z"/>
    <ellipse class="cls-3" cx="19.8" cy="10.2" rx="2.4" ry="1.53"/>
    <g>
      <circle class="cls-5" cx="11.38" cy="21" r="3.6"/>
      <path class="cls-4" d="M14.6,21c0,1.34-.85,2.58-2.12,3.03s-2.73.06-3.6-.99-.95-2.55-.27-3.69,2.09-1.78,3.41-1.51c1.5.31,2.58,1.64,2.59,3.16,0,.48.75.48.75,0-.01-1.67-1.06-3.16-2.63-3.74s-3.37-.07-4.41,1.21-1.22,3.17-.33,4.61,2.55,2.14,4.18,1.82c1.84-.36,3.17-2.04,3.19-3.9,0-.48-.75-.48-.75,0Z"/>
    </g>
    <g>
      <circle class="cls-5" cx="28.23" cy="20.85" r="3.6"/>
      <path class="cls-4" d="M31.45,20.85c0,1.34-.85,2.58-2.12,3.03s-2.73.06-3.6-.99-.95-2.55-.27-3.69,2.09-1.78,3.41-1.51c1.5.31,2.58,1.64,2.59,3.16,0,.48.75.48.75,0-.01-1.67-1.06-3.16-2.63-3.74s-3.37-.07-4.41,1.21-1.22,3.17-.33,4.61,2.55,2.14,4.18,1.82c1.84-.36,3.17-2.04,3.19-3.9,0-.48-.75-.48-.75,0Z"/>
    </g>
  </g>
</svg>