<svg width="98" height="93" viewBox="0 0 98 93" fill="none" xmlns="http://www.w3.org/2000/svg">
<path d="M36.1033 44.21C38.6531 43.7318 41.2946 43.9783 43.6882 44.9131C46.081 45.8476 48.1031 47.4207 49.5144 49.4121C50.9242 51.4014 51.6657 53.724 51.6658 56.0859C51.6658 59.2498 50.3341 62.3168 47.9109 64.6016C45.4827 66.8909 42.1594 68.2012 38.6658 68.2012C36.0632 68.2011 33.5299 67.4727 31.3875 66.123C29.2462 64.7741 27.6 62.8714 26.6345 60.6738C25.67 58.4782 25.4205 56.0711 25.9099 53.751C26.3997 51.4297 27.6126 49.276 29.4207 47.5713C31.2303 45.865 33.5538 44.6881 36.1033 44.21ZM77.4998 19.6143H89.2048L79.0076 29.2285H66.9998V18.1924L77.4998 8.29297V19.6143Z" fill="#2F9685" stroke="#3A251D" stroke-width="5"/>
<path d="M64.4988 31.7289L50.032 45.3691M64.4988 31.7289V17.1145L79.999 2.5V17.1145H95.4992L79.999 31.7289H64.4988Z" stroke="#3A251D" stroke-width="5" stroke-linecap="round" stroke-linejoin="round"/>
<path d="M74.4209 51.2114C74.7144 52.8202 74.8527 54.4506 74.8342 56.0829C74.8342 62.8273 72.7131 69.4203 68.739 75.0281C64.7649 80.6359 59.1164 85.0066 52.5077 87.5876C45.899 90.1686 38.627 90.8439 31.6113 89.5281C24.5955 88.2123 18.1512 84.9646 13.0931 80.1955C8.03506 75.4265 4.59047 69.3504 3.19496 62.7356C1.79944 56.1207 2.51567 49.2643 5.25307 43.0332C7.99048 36.8022 12.6261 31.4765 18.5738 27.7295C24.5214 23.9824 31.5139 21.9825 38.6671 21.9825C40.3983 21.9651 42.1276 22.0955 43.8339 22.3722" stroke="#3A251D" stroke-width="5" stroke-linecap="round" stroke-linejoin="round"/>
<path d="M38.666 70.7074C47.2265 70.7074 54.1662 64.1643 54.1662 56.093C54.1662 48.0216 47.2265 41.4785 38.666 41.4785C30.1054 41.4785 23.1658 48.0216 23.1658 56.093C23.1658 64.1643 30.1054 70.7074 38.666 70.7074Z" stroke="#3A251D" stroke-width="5" stroke-linecap="round" stroke-linejoin="round"/>
</svg>
