<svg width="120" height="113" viewBox="0 0 120 113" fill="none" xmlns="http://www.w3.org/2000/svg">
<path d="M28.7433 74.3489L10.0245 58.9936C5.54954 55.3961 4.81834 48.8446 8.41585 44.3696C12.0134 39.8946 18.5649 39.1634 23.0399 42.7609L30.4397 48.786L28.714 74.3781L28.7433 74.3489Z" fill="#EDCBB1"/>
<path d="M29.5325 73.5584C24.0631 69.0542 18.5644 64.5499 13.0951 60.0457C12.3346 59.4315 11.6034 58.8173 10.843 58.2031C8.64935 56.3898 7.27469 53.8159 7.24544 50.9203C7.21619 47.7031 8.88333 44.632 11.6034 42.9356C14.3235 41.2392 17.6285 41.0345 20.4363 42.3507C22.2497 43.1989 23.7706 44.6905 25.3208 45.9482C26.7832 47.1181 28.2456 48.3173 29.708 49.4872L29.3862 48.6975C28.889 56.1557 28.3918 63.614 27.8653 71.1015C27.8068 72.1837 27.7191 73.2366 27.6606 74.3188C27.5729 75.7227 29.7665 75.7227 29.8542 74.3188C30.2052 68.9664 30.5854 63.614 30.9364 58.2616L31.5213 49.7797C31.5506 49.1362 31.7261 48.4635 31.2581 47.9663C30.4392 47.0888 29.2985 46.3869 28.3625 45.6265C25.8472 43.5791 23.2734 40.9467 20.1146 39.9231C14.9669 38.2267 9.14657 40.5665 6.51424 45.3047C3.88191 50.0429 4.93484 56.0095 8.94183 59.49C10.375 60.7477 11.8959 61.9176 13.3875 63.146L27.6898 74.9038L28.0116 75.167C29.0938 76.0444 30.6439 74.5235 29.5617 73.6168L29.5325 73.5584Z" fill="#3A251D"/>
<path d="M48.4865 83.7966C48.4865 83.7966 35.2079 96.578 5.08239 91.7228C1.71886 91.1671 -0.240761 95.7006 2.09909 98.2159C6.57404 103.071 24.5909 114.39 33.219 115.852L48.4865 83.7966Z" fill="#EDCBB1"/>
<path d="M47.7255 83.0355C47.7255 83.0355 47.4916 83.2402 47.3746 83.328C46.8773 83.7374 46.9943 83.6497 46.4971 84.0299C45.181 84.9658 43.8063 85.814 42.3731 86.5452C37.0792 89.2945 31.1126 90.7862 25.2045 91.4004C20.7003 91.8684 16.1376 91.8392 11.6334 91.4589C10.4343 91.3419 9.23508 91.2249 8.03591 91.0787C6.83674 90.9324 5.54982 90.5522 4.3214 90.6107C2.71276 90.6985 1.30885 91.7514 0.577649 93.1846C-0.182801 94.7055 -0.212048 96.5481 0.606898 98.0397C1.22111 99.1512 2.27404 99.9994 3.23923 100.818C5.72531 102.924 8.41613 104.796 11.1362 106.58C14.8215 108.979 18.6237 111.172 22.5429 113.102C25.8187 114.711 29.2993 116.32 32.926 116.963C33.3647 117.051 33.9497 116.905 34.1544 116.466C38.6001 107.136 43.0459 97.7765 47.4916 88.4464C48.135 87.101 48.7785 85.7555 49.4219 84.4101C50.0361 83.1525 48.135 82.041 47.5208 83.2987C43.0751 92.6288 38.6294 101.988 34.1837 111.318C33.5402 112.664 32.8968 114.009 32.2533 115.355L33.4817 114.857C30.5277 114.331 27.6614 113.132 24.9705 111.845C21.5485 110.236 18.2727 108.423 15.0554 106.434C12.1014 104.621 9.20583 102.719 6.45651 100.614C4.70163 99.2682 1.51359 97.3085 2.30329 94.7347C2.50802 94.0912 2.88825 93.477 3.47321 93.126C4.35065 92.5996 5.34509 92.9213 6.28103 93.0676C8.67937 93.4186 11.107 93.6818 13.5638 93.828C17.7463 94.0912 21.958 94.0327 26.1112 93.5355C31.9023 92.8336 37.635 91.3712 42.8704 88.7973C45.0932 87.6859 47.4331 86.399 49.2464 84.6441C50.2701 83.6789 48.72 82.1288 47.6963 83.094L47.7255 83.0355Z" fill="#3A251D"/>
<path d="M53.8952 100.231L52.6961 125.94C52.6961 131.701 47.0804 136.352 40.1194 136.352C33.1584 136.352 27.5427 131.701 27.5427 125.94L29.2976 79.0842L53.866 100.231H53.8952Z" fill="#EDCBB1"/>
<path d="M52.7842 100.231C52.4917 106.666 52.1992 113.101 51.8775 119.535C51.7605 121.787 51.702 124.039 51.585 126.292C51.2048 132.872 43.6588 136.031 37.8969 135.066C33.2757 134.305 28.6252 130.854 28.6837 125.765C28.6837 123.952 28.83 122.138 28.8885 120.325C29.181 112.399 29.4734 104.472 29.7659 96.5462C29.9707 90.7259 30.2046 84.8762 30.4094 79.0558L28.5375 79.8456C35.7033 86.0169 42.8691 92.1882 50.0348 98.3596C51.0585 99.237 52.0822 100.114 53.1059 100.992C54.1296 101.869 55.7382 100.378 54.656 99.4418C47.4902 93.2704 40.3245 87.0991 33.1587 80.9277C32.135 80.0503 31.1113 79.1729 30.0876 78.2954C29.3564 77.6812 28.245 78.0907 28.2158 79.0851C27.7186 92.7147 27.1921 106.344 26.6949 119.945C26.6071 121.904 26.4901 123.864 26.4609 125.824C26.4024 130.796 30.1169 134.744 34.5626 136.441C40.2952 138.634 47.6657 137.201 51.5265 132.229C53.6908 129.45 53.7493 126.35 53.8956 123.045C54.2466 115.44 54.5975 107.807 54.9485 100.202C55.007 98.7983 52.8134 98.7983 52.7549 100.202L52.7842 100.231Z" fill="#3A251D"/>
<path d="M70.2764 100.233L71.4755 125.942C71.4755 131.704 77.0912 136.354 84.0522 136.354C91.0133 136.354 96.6289 131.704 96.6289 125.942L94.874 79.0868L70.3056 100.233H70.2764Z" fill="#EDCBB1"/>
<path d="M69.1937 100.233C69.5155 107.077 69.8372 113.892 70.1589 120.736C70.2759 123.251 70.0712 126.205 70.7731 128.662C72.4988 134.629 79.0504 137.758 84.9 137.407C90.7496 137.056 96.7454 133.4 97.5936 127.288C97.8276 125.591 97.5936 123.836 97.5644 122.14C97.2719 114.067 96.9502 106.024 96.6577 97.9518C96.4237 91.6634 96.1897 85.3751 95.9557 79.0575C95.9265 78.0631 94.8151 77.6536 94.0839 78.2678C86.9181 84.4392 79.7523 90.6105 72.5865 96.7818C71.5628 97.6593 70.5392 98.5367 69.5155 99.4142C68.4333 100.35 70.0127 101.871 71.0656 100.964C78.2314 94.793 85.3972 88.6216 92.563 82.4503C93.5866 81.5728 94.6103 80.6954 95.634 79.818L93.7621 79.0283C94.2593 92.0144 94.7273 105.03 95.2245 118.016L95.4878 125.094C95.634 128.75 93.7036 131.792 90.5156 133.576C85.1924 136.559 77.0907 135.506 73.7564 130.008C72.3233 127.639 72.528 124.714 72.411 122.052C72.0601 114.769 71.7383 107.487 71.3873 100.204C71.3289 98.8 69.1352 98.8 69.1937 100.204V100.233Z" fill="#3A251D"/>
<path d="M93.9084 52.4413L93.733 30.359H93.8792C99.5241 30.3882 104.116 25.8255 104.116 20.1807C104.116 14.5358 99.5533 9.94383 93.8792 9.94383C91.5394 9.94383 89.375 10.7335 87.6494 12.0497C81.2733 5.29339 72.2356 1.08167 62.2035 1.08167C52.1714 1.08167 43.046 5.32263 36.67 12.1374C34.9151 10.7628 32.7215 9.94383 30.3231 9.94383C24.6783 9.94383 20.0863 14.5065 20.0863 20.1807C20.0863 25.8548 24.649 30.4175 30.3231 30.4175H30.2646L30.4401 52.9385L28.2465 87.422C28.2465 91.2242 28.7145 94.9388 29.5627 98.4193C32.8677 111.727 41.9931 122.169 53.5169 125.678C53.6631 125.737 53.8386 125.766 53.9848 125.825C56.5879 126.585 59.308 126.965 62.0865 126.965C80.7761 126.965 95.9266 109.27 95.9266 87.422L93.8499 52.4705L93.9084 52.4413Z" fill="#EDCBB1"/>
<path d="M95.0208 52.4418C94.9623 45.0713 94.9038 37.7008 94.8453 30.3595L93.4707 31.4124C96.5417 32.1729 100.461 29.8623 102.421 27.6394C104.819 24.8901 105.755 21.1756 104.965 17.6366C103.181 9.71036 93.6169 6.40534 87.1531 11.1143L88.4692 11.2898C81.6252 4.15323 72.1488 0 62.2337 0C52.3186 0 42.7837 4.18247 35.9397 11.3775L37.4898 12.9277C37.9871 12.3427 37.8701 11.6407 37.2559 11.202C31.026 6.52233 21.7836 9.38863 19.5315 16.9346C17.2794 24.4806 22.9828 31.3247 30.3826 31.5002C31.494 31.5002 31.845 30.0085 30.9383 29.4528H30.8798C30.1778 28.9848 29.2126 29.5406 29.2419 30.3595C29.3004 38.9 29.7683 47.5281 29.2126 56.0686L27.9842 75.5478C27.6917 80.3445 27.019 85.2581 27.3115 90.0841C27.9257 100.877 32.2837 111.611 40.2684 119.04C48.2531 126.469 58.4607 129.569 68.756 127.317C86.4804 123.456 97.9456 104.357 97.1267 86.9253C96.6002 75.7818 95.8105 64.6383 95.1378 53.524L95.0793 52.4711C94.9916 51.0671 92.798 51.0671 92.8857 52.4711C93.4999 62.8834 94.1141 73.3249 94.7283 83.7373C95.1085 90.0548 94.5528 96.2262 92.4177 102.281C89.2589 111.143 82.9706 119.01 74.4009 123.105C64.9538 127.609 53.8103 126.352 45.2991 120.356C36.7879 114.36 31.3477 104.094 29.8561 93.7109C29.1249 88.4754 29.6806 83.3278 30.0316 78.0923L31.2892 58.4376C31.845 49.5462 31.5525 40.6548 31.494 31.7342V30.3595C30.9383 30.6812 30.3826 31.003 29.8268 31.2955H29.8853C30.0608 30.652 30.2656 29.9793 30.4411 29.2773C24.4452 29.1311 19.9117 23.3692 21.6959 17.4904C23.597 11.202 31.143 9.27164 36.2029 13.0739L35.9689 11.3483C35.0915 12.4304 36.5247 13.9513 37.5191 12.8984C43.9829 6.11286 52.8743 2.16437 62.263 2.16437C71.6516 2.16437 80.4845 6.08361 86.9483 12.8107C87.2701 13.1324 87.8843 13.2494 88.2645 12.9862C93.4122 9.2424 100.987 11.3483 102.742 17.7243C103.503 20.5029 102.889 23.5447 101.104 25.8261C100.256 26.9082 99.174 27.7857 97.9164 28.3706C96.9512 28.8386 95.167 29.5406 94.0849 29.2773C93.4122 29.1018 92.681 29.5991 92.7102 30.3303C92.7687 37.7008 92.8272 45.0713 92.8857 52.4126C92.8857 53.8165 95.0793 53.8165 95.0793 52.4126L95.0208 52.4418Z" fill="#3A251D"/>
<path d="M61.7931 117.811C48.7192 117.811 38.1022 105.468 38.1022 90.2296C38.1022 74.9914 48.7192 62.6487 61.7931 62.6487C74.867 62.6487 85.4841 74.9914 85.4841 90.2296C85.4841 105.468 74.867 117.811 61.7931 117.811Z" fill="#F7F6F2"/>
<path d="M62.1149 56.8863C75.3445 56.8863 86.0691 50.8234 86.0691 43.3445C86.0691 35.8655 75.3445 29.8026 62.1149 29.8026C48.8854 29.8026 38.1608 35.8655 38.1608 43.3445C38.1608 50.8234 48.8854 56.8863 62.1149 56.8863Z" fill="#F7F6F2"/>
<path d="M38.6288 35.3306C39.6232 35.6231 40.6176 35.9156 41.6121 36.1788L46.3503 37.5535L47.4617 37.8752C48.0174 38.0215 48.6901 37.6705 48.8071 37.1148C48.9241 36.5591 48.6316 35.9449 48.0466 35.7694C47.0522 35.4769 46.0578 35.1844 45.0633 34.9212L40.3252 33.5465L39.2137 33.2248C38.658 33.0785 37.9853 33.4295 37.8683 33.9852C37.7513 34.541 38.0438 35.1552 38.6288 35.3306Z" fill="#37241C"/>
<path d="M37.1959 43.1402C38.1903 43.0232 39.1555 42.9062 40.15 42.7892L44.8589 42.2042L45.9411 42.058C46.2336 42.0288 46.4968 41.9703 46.7308 41.7363C46.9355 41.5315 47.0525 41.239 47.0525 40.9466C47.0525 40.4201 46.5553 39.7766 45.9411 39.8351C44.9466 39.9521 43.9814 40.0691 42.987 40.1861L38.2781 40.7711L37.1959 40.9173C36.9034 40.9466 36.6402 41.0051 36.4062 41.2391C36.2015 41.4438 36.0845 41.7363 36.0845 42.0287C36.0845 42.5552 36.5817 43.1987 37.1959 43.1402Z" fill="#37241C"/>
<path d="M76.447 37.8751C77.4706 37.6411 78.5236 37.4071 79.5473 37.1732L84.4902 36.0325C84.8704 35.9447 85.2506 35.857 85.6309 35.7693C86.1866 35.6523 86.5668 34.9796 86.3913 34.4239C86.2158 33.8389 85.6309 33.5172 85.0459 33.6634C84.0222 33.8974 82.9693 34.1314 81.9456 34.3653L77.0027 35.506C76.6224 35.5938 76.2422 35.6815 75.862 35.7693C75.3063 35.8863 74.9261 36.559 75.1015 37.1147C75.277 37.6996 75.862 38.0214 76.447 37.8751Z" fill="#37241C"/>
<path d="M78.7872 42.0283C79.7816 42.2038 80.7468 42.35 81.7412 42.5255L86.4502 43.3152L87.5324 43.4907C87.8248 43.5492 88.1173 43.5492 88.3806 43.3737C88.6145 43.2275 88.8193 42.9935 88.8778 42.7302C88.9948 42.2038 88.7315 41.4726 88.1173 41.3848C87.1229 41.2094 86.1577 41.0631 85.1633 40.8876L80.4543 40.0979L79.3721 39.9224C79.0797 39.8639 78.7872 39.8639 78.524 40.0394C78.29 40.1857 78.0852 40.4197 78.0267 40.6829C77.9097 41.2094 78.173 41.9406 78.7872 42.0283Z" fill="#37241C"/>
<path d="M61.853 34.2769C65.7298 34.2769 68.8726 32.2734 68.8726 29.802C68.8726 27.3305 65.7298 25.327 61.853 25.327C57.9762 25.327 54.8335 27.3305 54.8335 29.802C54.8335 32.2734 57.9762 34.2769 61.853 34.2769Z" fill="#37241C"/>
<path d="M95.6045 74.3478L114.323 58.9925C118.798 55.395 119.529 48.8435 115.932 44.3685C112.334 39.8935 105.783 39.1623 101.308 42.7598L93.9081 48.7849L95.6337 74.377L95.6045 74.3478Z" fill="#EDCBB1"/>
<path d="M96.3939 75.1087C100.635 71.6282 104.876 68.1476 109.088 64.6671C111.018 63.0877 112.919 61.5084 114.849 59.929C118.184 57.1796 119.88 53.0557 119.12 48.7269C118.213 43.433 113.445 39.4845 108.093 39.3091C105.402 39.2213 102.799 40.128 100.693 41.7659C99.8159 42.4678 98.9384 43.1698 98.061 43.901L94.054 47.1475C93.4398 47.6448 92.7671 47.9957 92.7963 48.8732C92.8256 51.1253 93.0888 53.3774 93.2643 55.6295L94.4927 73.9095V74.2898C94.6097 75.6937 96.8033 75.6937 96.7156 74.2898C96.2184 66.8315 95.7211 59.3732 95.1947 51.8857C95.1362 50.8036 95.0484 49.7506 94.9899 48.6684L94.6682 49.4581C97.1251 47.4693 99.5526 45.3927 102.068 43.433C104.583 41.4734 107.771 40.9762 110.725 41.9414C113.679 42.9066 116.136 45.5389 116.897 48.6684C117.657 51.798 116.721 55.0153 114.557 57.2381C113.826 57.9986 112.948 58.642 112.129 59.3147L102.507 67.2117C99.9621 69.3176 97.4175 71.3942 94.8437 73.5001C93.7615 74.4067 95.3117 75.9276 96.3939 75.0502V75.1087Z" fill="#3A251D"/>
<path d="M83.2612 26.8784C82.8517 26.2349 82.3252 25.6499 81.7403 25.182C81.1553 24.714 80.5703 24.363 79.8684 24.1583C79.5174 24.0706 79.1372 24.0121 78.7569 24.0413C78.2597 24.0705 77.821 24.1876 77.353 24.4215C76.2709 24.9188 75.4812 25.9132 74.867 26.8784C74.5452 27.3756 74.75 28.1068 75.2472 28.37C75.8029 28.6625 76.4171 28.487 76.7388 27.9898C76.8851 27.7558 77.0313 27.5511 77.1776 27.3463L77.0021 27.5803C77.2946 27.2001 77.587 26.8784 77.9673 26.5859L77.7333 26.7614C77.9673 26.5859 78.2012 26.4396 78.4645 26.3226L78.2012 26.4396C78.406 26.3519 78.6107 26.2934 78.8447 26.2642H78.5522C78.7862 26.2642 78.9909 26.2642 79.2249 26.2934H78.9324C79.1664 26.2934 79.4297 26.3519 79.6344 26.4689L79.3712 26.3519C79.6929 26.4981 79.9854 26.6736 80.2779 26.8784L80.0439 26.7029C80.4826 27.0246 80.8628 27.4341 81.1845 27.8728L81.0091 27.6388C81.0091 27.6388 81.1845 27.8728 81.2723 27.9898C81.5648 28.487 82.2667 28.721 82.7639 28.37C83.2612 28.019 83.4951 27.3756 83.1442 26.8784H83.2612Z" fill="#37241C"/>
<path d="M48.6908 26.8784C48.2814 26.2349 47.7549 25.6499 47.1699 25.182C46.585 24.714 46 24.363 45.2981 24.1583C44.9471 24.0706 44.5669 24.0121 44.1866 24.0413C43.6894 24.0705 43.2507 24.1876 42.7827 24.4215C41.7006 24.9188 40.9109 25.9132 40.2966 26.8784C39.9749 27.3756 40.1797 28.1068 40.6769 28.37C41.2326 28.6625 41.8468 28.487 42.1685 27.9898C42.3148 27.7558 42.461 27.5511 42.6072 27.3463L42.4318 27.5803C42.7242 27.2001 43.0167 26.8784 43.3969 26.5859L43.163 26.7614C43.3969 26.5859 43.6309 26.4396 43.8942 26.3226L43.6309 26.4396C43.8357 26.3519 44.0404 26.2934 44.2744 26.2642H43.9819C44.2159 26.2642 44.4206 26.2642 44.6546 26.2934H44.3621C44.5961 26.2934 44.8594 26.3519 45.0641 26.4689L44.8009 26.3519C45.1226 26.4981 45.4151 26.6736 45.7075 26.8784L45.4736 26.7029C45.9123 27.0246 46.2925 27.4341 46.6142 27.8728L46.4387 27.6388C46.4387 27.6388 46.6142 27.8728 46.702 27.9898C46.9945 28.487 47.6964 28.721 48.1936 28.37C48.6908 28.019 48.9248 27.3756 48.5739 26.8784H48.6908Z" fill="#37241C"/>
</svg>
