<svg width="81" height="82" viewBox="0 0 81 82" fill="none" xmlns="http://www.w3.org/2000/svg">
<path d="M47.0902 27.5532L69.6585 15.0925C75.5412 21.8843 79.1244 30.7619 79.1244 40.4416C79.1244 61.7264 61.904 79.0002 40.6193 79.0002C19.3345 79.0002 2.11414 61.7264 2.11414 40.4416C2.11414 19.1569 19.3345 1.88306 40.6193 1.88306C42.8119 1.88306 45.0046 2.09697 47.1437 2.41784V27.5532H47.0902Z" fill="#2F9685"/>
<path d="M48.1053 29.2654C55.6459 25.094 63.133 20.9761 70.6736 16.8047L68.267 16.4838C77.8933 27.661 79.9255 44.0257 73.1336 57.1816C67.1439 68.6797 55.2715 76.4341 42.276 76.9689C29.2806 77.5037 16.7664 71.0327 9.81408 60.0694C2.86177 49.1062 2.2735 34.5598 8.53058 23.0618C15.9107 9.47801 31.3128 1.93744 46.6079 4.39749L45.1104 2.47223C45.1104 10.8685 45.1104 19.2112 45.1104 27.6075C45.1104 30.1745 49.1214 30.1745 49.1214 27.6075C49.1214 19.2112 49.1214 10.8685 49.1214 2.47223C49.1214 1.67004 48.4796 0.653931 47.624 0.546972C32.4358 -1.91308 17.2477 4.02312 7.99578 16.3768C-1.25614 28.7306 -2.27225 44.3465 3.87787 57.6629C10.028 70.9792 23.0235 79.7498 37.3559 80.9264C51.6884 82.1029 66.1813 75.0437 74.3102 62.9573C84.4712 47.8227 82.8134 27.4471 70.9944 13.7029C70.4062 13.0076 69.2831 13.0077 68.5879 13.382C61.0473 17.5534 53.5602 21.6713 46.0196 25.8427C43.7735 27.0727 45.8057 30.5489 48.0518 29.3188L48.1053 29.2654Z" fill="#37241C"/>
<path d="M23.5577 44.6135C27.8361 48.8918 32.1144 53.1702 36.3928 57.4485C38.6924 59.7481 42.5964 59.7481 44.896 57.4485C51.367 50.9775 57.8915 44.4531 64.3625 37.9821C66.6086 35.7359 66.769 31.6715 64.3625 29.4789C61.9559 27.2862 58.2123 27.1258 55.8592 29.4789C49.3882 35.9499 42.8638 42.4743 36.3928 48.9453H44.896C40.6176 44.667 36.3393 40.3886 32.0609 36.1103C29.8148 33.8642 25.7504 33.7037 23.5577 36.1103C21.3651 38.5169 21.2046 42.2604 23.5577 44.6135Z" fill="#3A251D"/>
<path d="M26.3929 41.7789C30.1365 45.5225 33.88 49.266 37.6771 53.0631L39.228 54.614C39.9767 55.3627 41.3137 55.3627 42.0624 54.614C47.7312 48.9452 53.4535 43.2229 59.1223 37.5541C59.9245 36.7519 60.7267 35.9497 61.5289 35.1475C63.3471 33.3292 60.5127 30.4948 58.6944 32.3131C53.0256 37.9819 47.3034 43.7042 41.6345 49.373C40.8324 50.1752 40.0302 50.9774 39.228 51.7796H42.0624C38.3188 48.036 34.5753 44.2925 30.7782 40.4954L29.2273 38.9445C27.409 37.1262 24.5746 39.9606 26.3929 41.7789Z" fill="#F7F6F2"/>
</svg>
