<svg width="88" height="91" viewBox="0 0 88 91" fill="none" xmlns="http://www.w3.org/2000/svg">
<path d="M41.7305 42.9668C45.3129 39.4144 51.0253 39.315 54.7285 42.6592L55.0801 42.9932C58.7724 46.688 58.7715 52.6742 55.0801 56.3643L55.0742 56.3701V56.3711C55.0736 56.3717 55.0723 56.3721 55.0713 56.373C55.069 56.3753 55.0662 56.3791 55.0625 56.3828C55.0549 56.3904 55.0448 56.4005 55.0322 56.4131C55.0071 56.4382 54.972 56.4725 54.9287 56.5156C54.8421 56.6019 54.7206 56.7233 54.5684 56.875C54.2635 57.1787 53.835 57.6047 53.3154 58.1221C52.2758 59.1572 50.8702 60.5568 49.3545 62.0654C46.3232 65.0826 42.8508 68.5381 40.9814 70.3975C40.8124 70.5653 40.5401 70.5654 40.3711 70.3975L26.2686 56.3604C22.5849 52.6677 22.5864 46.6864 26.2734 42.9932C29.9562 39.3122 35.9279 39.3008 39.6172 42.9658L40.6738 44.0156L41.7305 42.9668Z" fill="#75BDC9" stroke="#F7F6F2" stroke-width="3"/>
<path d="M51.334 17.2577C51.1292 18.2624 51.0811 19.3033 51.207 20.3456L11.1973 29.3163C6.57459 30.3533 3.65826 34.9547 4.69531 39.578L13.7139 79.8065C14.2134 82.0416 15.5627 83.9514 17.4951 85.1796L17.4961 85.1805C19.4092 86.394 21.7563 86.8057 23.9727 86.3085L73.0742 75.2987L73.0732 75.2977C75.1712 74.8296 76.9816 73.6148 78.2119 71.87L78.4502 71.5145C79.6787 69.5802 80.0794 67.2723 79.5762 65.037H79.5771L73.2373 36.7577C74.0637 36.7414 74.8903 36.6242 75.6943 36.3964H75.6963C75.8608 36.3496 76.0209 36.2949 76.1787 36.2391L82.4922 64.3827C83.1709 67.4023 82.6312 70.4999 80.9775 73.1112C79.4237 75.5627 77.0697 77.3036 74.292 78.0712L73.7305 78.2118L24.627 89.2216C23.7957 89.4046 22.9438 89.4999 22.1006 89.4999C19.8984 89.4999 17.7553 88.88 15.8994 87.702L15.8984 87.701C13.4484 86.1487 11.7064 83.7966 10.9404 81.0184L10.8008 80.4579L1.78223 40.2303L1.7207 39.9384C0.509294 33.8098 4.4156 27.7764 10.5439 26.4032H10.5449L51.334 17.2577Z" fill="#75BDC9" stroke="#F7F6F2" stroke-width="3"/>
<path d="M70.4417 1.5C72.8443 1.5 75.9674 2.44572 79.0081 4.40527C81.7644 6.18203 83.7993 8.3697 84.8948 10.4033C86.0187 12.4899 86.0039 14.0747 85.3948 15.0215C84.8457 15.8735 83.6409 16.499 81.6536 16.499C81.1848 16.499 80.6891 16.4627 80.1653 16.3896L79.0803 16.2383L78.6057 17.2266L73.762 27.3154C73.6533 27.5348 73.4655 27.6859 73.2581 27.7441H73.2571C73.1872 27.7638 73.1154 27.7744 73.0432 27.7744C72.9277 27.7744 72.8163 27.7497 72.7141 27.7031L72.6155 27.6494L69.8108 25.8389L68.7278 25.1396L67.8733 26.1055L60.7952 34.1084V34.1094C60.6404 34.2846 60.4209 34.377 60.2014 34.377C60.014 34.3769 59.8338 34.3133 59.6819 34.1787L59.679 34.1768L59.5901 34.084C59.4037 33.8557 59.3617 33.5387 59.4846 33.2627L59.4836 33.2617L63.842 23.5117L64.3674 22.3369L63.2844 21.6396L60.4768 19.8301L60.4758 19.8291L60.4084 19.7812C60.2614 19.6622 60.1574 19.4877 60.1243 19.29C60.0913 19.0639 60.1561 18.8368 60.301 18.6631L60.3 18.6621L67.4954 10.0664L68.1985 9.22559L67.6106 8.2998C66.0904 5.90636 66.0168 4.03604 66.6985 2.97559C67.2484 2.12551 68.4567 1.50007 70.4417 1.5Z" fill="#75BDC9" stroke="#F7F6F2" stroke-width="3"/>
</svg>
