<svg width="47" height="99" viewBox="0 0 47 99" fill="none" xmlns="http://www.w3.org/2000/svg">
<path d="M0.501981 98.375C4.94878 98.375 8.55342 87.5604 8.55342 74.22C8.55342 60.8796 4.94878 50.0652 0.501981 50.0652C-3.94482 50.0652 -7.5498 60.8796 -7.5498 74.22C-7.5498 87.5604 -3.94482 98.375 0.501981 98.375Z" fill="#F37FA2" stroke="#F37FA2" stroke-width="0.75" stroke-miterlimit="10"/>
<path d="M0.501981 48.6848C4.94878 48.6848 8.55342 37.8704 8.55342 24.53C8.55342 11.1896 4.94878 0.375 0.501981 0.375C-3.94482 0.375 -7.5498 11.1896 -7.5498 24.53C-7.5498 37.8704 -3.94482 48.6848 0.501981 48.6848Z" fill="#F37FA2" stroke="#F37FA2" stroke-width="0.75" stroke-miterlimit="10"/>
<path d="M-0.0918611 48.5873C2.13154 44.7363 -5.43169 36.207 -16.9848 29.5368C-28.5379 22.8666 -39.7062 20.5813 -41.9296 24.4323C-44.153 28.2834 -36.5897 36.8127 -25.0366 43.4829C-13.4835 50.1531 -2.31526 52.4384 -0.0918611 48.5873Z" fill="#F37FA2" stroke="#F37FA2" stroke-width="0.75" stroke-miterlimit="10"/>
<path d="M42.7342 73.3288C44.9576 69.4777 37.3944 60.9484 25.8413 54.2782C14.2881 47.608 3.12009 45.3228 0.896689 49.1739C-1.32671 53.0249 6.23654 61.5538 17.7897 68.224C29.3428 74.8942 40.5108 77.1798 42.7342 73.3288Z" fill="#F37FA2" stroke="#F37FA2" stroke-width="0.75" stroke-miterlimit="10"/>
<path d="M25.8925 43.462C37.4456 36.7918 45.009 28.2626 42.7856 24.4116C40.5622 20.5605 29.394 22.846 17.8409 29.5162C6.28778 36.1864 -1.27523 44.7154 0.948167 48.5664C3.17157 52.4174 14.3394 50.1322 25.8925 43.462Z" fill="#F37FA2" stroke="#F37FA2" stroke-width="0.75" stroke-miterlimit="10"/>
<path d="M-17.0297 67.9994C-5.47657 61.3292 2.08674 52.8 -0.136657 48.949C-2.36006 45.0979 -13.5282 47.3834 -25.0813 54.0536C-36.6344 60.7238 -44.1976 69.2528 -41.9742 73.1039C-39.7508 76.9549 -28.5828 74.6696 -17.0297 67.9994Z" fill="#F37FA2" stroke="#F37FA2" stroke-width="0.75" stroke-miterlimit="10"/>
</svg>
