<svg width="59" height="121" viewBox="0 0 59 121" fill="none" xmlns="http://www.w3.org/2000/svg">
<path d="M47.5697 70.3654L18.6874 71.8923C16.0552 62.1727 16.783 51.4568 21.5232 41.6871C31.9491 20.1988 57.786 11.222 79.2489 21.6356C100.712 32.0493 109.651 57.8992 99.2252 79.3874C88.7993 100.876 62.9624 109.853 41.4995 99.4389C39.2722 98.3583 37.1562 97.1127 35.2143 95.7015L47.5697 70.3654Z" fill="#2F9685"/>
<path d="M47.4053 68.2543C37.7738 68.7717 28.1545 69.2638 18.523 69.7812L20.6788 71.2024C16.4974 55.009 22.4525 37.3863 36.0102 27.4235C47.6223 18.893 63.2513 16.9704 76.5431 22.7003C89.8349 28.4302 99.6139 41.3359 101.222 55.9369C102.831 70.5379 96.1781 85.6022 83.9877 94.1647C69.7879 104.097 50.7875 103.946 36.6039 94.1255L37.1118 96.6233C41.2134 88.1697 45.3403 79.7284 49.4672 71.2871C50.6583 68.832 46.8618 66.99 45.6706 69.4451C41.569 77.8986 37.4422 86.3399 33.3152 94.7812C32.9468 95.5405 33.0746 96.7594 33.8231 97.279C47.7152 106.927 65.5769 108.652 80.7848 100.959C95.9927 93.2667 105.199 78.1594 105.681 61.6337C106.164 45.1079 97.5275 29.9113 83.6511 21.5839C69.7747 13.2565 51.6809 13.1702 37.5614 21.3909C19.8176 31.6678 11.6539 52.9404 16.7196 72.5959C16.9571 73.5241 17.9825 74.0529 18.8754 74.0171C28.507 73.4997 38.1262 73.0076 47.7578 72.4902C50.4863 72.3444 50.1469 68.1461 47.4306 68.2665L47.4053 68.2543Z" fill="#37241C"/>
</svg>
