<svg width="340" height="329" viewBox="0 0 340 329" fill="none" xmlns="http://www.w3.org/2000/svg">
<path d="M81.9163 211.89L28.5684 168.128C15.8149 157.876 13.731 139.204 23.9838 126.45C34.2366 113.697 52.9083 111.613 65.6618 121.866L86.7509 139.037L81.8329 211.974L81.9163 211.89Z" fill="#EDCBB1"/>
<path d="M84.1678 209.64C68.5802 196.803 52.9093 183.966 37.3217 171.129C35.1544 169.379 33.0705 167.629 30.9033 165.878C24.6516 160.71 20.7338 153.375 20.6505 145.122C20.5671 135.953 25.3184 127.201 33.0705 122.366C40.8227 117.532 50.2419 116.948 58.2441 120.699C63.4122 123.116 67.7467 127.368 72.1645 130.952C76.3323 134.286 80.5001 137.704 84.6679 141.038L83.751 138.787C82.334 160.043 80.9169 181.299 79.4165 202.638C79.2498 205.722 78.9997 208.723 78.833 211.807C78.5829 215.808 84.8347 215.808 85.0847 211.807C86.085 196.553 87.1686 181.299 88.1689 166.045L89.836 141.872C89.9194 140.038 90.4195 138.12 89.0858 136.703C86.7518 134.203 83.501 132.202 80.8336 130.035C73.6649 124.2 66.3296 116.698 57.3272 113.781C42.6565 108.946 26.0686 115.614 18.5666 129.118C11.0645 142.622 14.0654 159.626 25.4851 169.546C29.5696 173.13 33.9041 176.464 38.1553 179.965L78.9164 213.474L79.8333 214.225C82.9175 216.725 87.3353 212.391 84.2512 209.807L84.1678 209.64Z" fill="#3A251D"/>
<path d="M138.183 238.816C138.183 238.816 100.339 275.242 14.4826 261.405C4.89665 259.821 -0.688207 272.742 5.98028 279.91C18.7338 293.747 70.0811 326.006 94.6711 330.174L138.183 238.816Z" fill="#EDCBB1"/>
<path d="M136.016 236.648C136.016 236.648 135.349 237.232 135.016 237.482C133.599 238.649 133.932 238.399 132.515 239.482C128.764 242.15 124.847 244.567 120.762 246.651C105.675 254.486 88.67 258.738 71.8321 260.488C58.9953 261.822 45.9917 261.738 33.1549 260.655C29.7373 260.321 26.3197 259.988 22.9021 259.571C19.4845 259.154 15.8168 258.071 12.3159 258.237C7.73128 258.487 3.73018 261.488 1.64628 265.573C-0.520976 269.907 -0.604331 275.159 1.72964 279.41C3.48012 282.577 6.48094 284.995 9.23169 287.329C16.317 293.33 23.9857 298.665 31.7378 303.75C42.2407 310.585 53.077 316.837 64.2467 322.338C73.5826 326.923 83.502 331.507 93.8381 333.341C95.0885 333.591 96.7556 333.175 97.3391 331.924C110.009 305.334 122.679 278.66 135.349 252.069C137.183 248.235 139.017 244.4 140.851 240.566C142.601 236.982 137.183 233.814 135.433 237.398C122.763 263.989 110.093 290.663 97.4224 317.253C95.5886 321.088 93.7547 324.922 91.9209 328.757L95.4219 327.34C87.0029 325.839 78.834 322.422 71.1653 318.754C61.4126 314.169 52.0767 309.001 42.9075 303.333C34.4886 298.165 26.2363 292.747 18.4009 286.745C13.3995 282.911 4.31368 277.326 6.56429 269.991C7.14778 268.157 8.23142 266.406 9.89854 265.406C12.3992 263.906 15.2333 264.823 17.9007 265.239C24.7359 266.24 31.6545 266.99 38.6564 267.407C50.5763 268.157 62.5796 267.99 74.4161 266.573C90.9206 264.572 107.258 260.405 122.179 253.069C128.514 249.902 135.183 246.234 140.351 241.233C143.268 238.482 138.85 234.064 135.933 236.815L136.016 236.648Z" fill="#3A251D"/>
<path d="M153.606 285.66L150.188 358.93C150.188 375.351 134.184 388.605 114.345 388.605C94.5064 388.605 78.5021 375.351 78.5021 358.93L83.5034 225.394L153.523 285.66H153.606Z" fill="#EDCBB1"/>
<path d="M150.438 285.66C149.604 303.999 148.771 322.337 147.854 340.675C147.52 347.094 147.354 353.512 147.02 359.931C145.936 378.686 124.431 387.688 108.009 384.938C94.8392 382.77 81.5856 372.934 81.7523 358.43C81.7523 353.262 82.1691 348.094 82.3358 342.926C83.1693 320.336 84.0029 297.747 84.8365 275.158C85.4199 258.57 86.0868 241.898 86.6703 225.311L81.3355 227.561C101.758 245.149 122.18 262.737 142.602 280.326C145.52 282.826 148.437 285.327 151.355 287.828C154.272 290.328 158.857 286.077 155.772 283.41C135.35 265.822 114.928 248.233 94.5058 230.645C91.5883 228.145 88.6708 225.644 85.7534 223.143C83.6695 221.393 80.5019 222.56 80.4186 225.394C79.0015 264.238 77.5011 303.082 76.0841 341.842C75.834 347.427 75.5006 353.012 75.4172 358.597C75.2505 372.767 85.8367 384.021 98.5069 388.855C114.845 395.107 135.85 391.022 146.853 376.852C153.022 368.933 153.188 360.097 153.605 350.678C154.605 329.006 155.606 307.25 156.606 285.577C156.773 281.576 150.521 281.576 150.354 285.577L150.438 285.66Z" fill="#3A251D"/>
<path d="M200.284 285.662L203.702 358.932C203.702 375.353 219.706 388.606 239.545 388.606C259.384 388.606 275.388 375.353 275.388 358.932L270.387 225.395L200.367 285.662H200.284Z" fill="#EDCBB1"/>
<path d="M197.199 285.662C198.116 305.167 199.033 324.589 199.95 344.094C200.284 351.263 199.7 359.682 201.701 366.684C206.619 383.689 225.29 392.608 241.962 391.607C258.633 390.607 275.721 380.188 278.138 362.766C278.805 357.932 278.138 352.93 278.055 348.096C277.221 325.089 276.304 302.166 275.471 279.16C274.804 261.239 274.137 243.317 273.47 225.312C273.387 222.478 270.219 221.311 268.135 223.062C247.713 240.65 227.291 258.238 206.869 275.826C203.951 278.327 201.034 280.827 198.116 283.328C195.032 285.995 199.533 290.33 202.534 287.746C222.956 270.158 243.379 252.57 263.801 234.981C266.718 232.481 269.636 229.98 272.553 227.479L267.218 225.229C268.636 262.239 269.969 299.332 271.386 336.342L272.136 356.515C272.553 366.934 267.052 375.603 257.966 380.688C242.795 389.19 219.706 386.189 210.203 370.518C206.118 363.767 206.702 355.431 206.369 347.845C205.368 327.09 204.451 306.334 203.451 285.579C203.284 281.578 197.033 281.578 197.199 285.579V285.662Z" fill="#3A251D"/>
<path d="M267.636 149.457L267.136 86.5237H267.553C283.641 86.607 296.728 73.6034 296.728 57.5157C296.728 41.428 283.724 28.3411 267.553 28.3411C260.884 28.3411 254.716 30.5917 249.798 34.3428C231.626 15.0875 205.869 3.08423 177.278 3.08423C148.687 3.08423 122.68 15.1708 104.508 34.5928C99.5071 30.6751 93.2554 28.3411 86.4202 28.3411C70.3325 28.3411 57.2456 41.3447 57.2456 57.5157C57.2456 73.6868 70.2492 86.6904 86.4202 86.6904H86.2535L86.7537 150.875L80.502 249.151C80.502 259.988 81.8356 270.574 84.253 280.493C93.6722 318.42 119.679 348.178 152.522 358.181C152.938 358.348 153.439 358.431 153.855 358.598C161.274 360.765 169.026 361.849 176.945 361.849C230.209 361.849 273.388 311.418 273.388 249.151L267.47 149.541L267.636 149.457Z" fill="#EDCBB1"/>
<path d="M270.803 149.457C270.636 128.452 270.469 107.446 270.302 86.5236L266.385 89.5245C275.137 91.6917 286.307 85.1066 291.892 78.7715C298.727 70.9361 301.394 60.3498 299.144 50.2637C294.059 27.6742 266.801 18.255 248.38 31.6753L252.131 32.1754C232.625 11.8366 205.618 0 177.36 0C149.103 0 121.929 11.9199 102.423 32.4255L106.841 36.8434C108.258 35.1763 107.925 33.1757 106.174 31.9254C88.4195 18.5884 62.0789 26.7573 55.6605 48.2632C49.2421 69.769 65.4965 89.2744 86.5856 89.7745C89.7532 89.7745 90.7534 85.5233 88.1694 83.9396H88.0027C86.0021 82.6059 83.2514 84.1897 83.3347 86.5236C83.5015 110.864 84.8352 135.454 83.2514 159.794L79.7504 215.309C78.9169 228.979 76.9997 242.983 77.8332 256.737C79.5837 287.495 92.0038 318.087 114.76 339.259C137.516 360.432 166.607 369.267 195.949 362.849C246.463 351.846 279.138 297.414 276.804 247.734C275.304 215.976 273.053 184.217 271.136 152.542L270.969 149.541C270.719 145.54 264.467 145.54 264.718 149.541C266.468 179.216 268.218 208.974 269.969 238.648C271.053 256.653 269.469 274.241 263.384 291.496C254.381 316.753 236.46 339.176 212.037 350.846C185.113 363.682 153.354 360.098 129.097 343.01C104.841 325.922 89.3364 296.664 85.0852 267.073C83.0013 252.152 84.5851 237.481 85.5853 222.561L89.1697 166.545C90.7534 141.205 89.9199 115.865 89.7532 90.4414V86.5236C88.1694 87.4406 86.5856 88.3575 85.0019 89.191H85.1686C85.6687 87.3572 86.2522 85.44 86.7523 83.4394C69.6643 83.0227 56.7442 66.6015 61.8289 49.847C67.247 31.9254 88.7529 26.4239 103.173 37.2602L102.507 32.3422C100.006 35.4264 104.09 39.7609 106.925 36.7601C125.346 17.4214 150.686 6.16839 177.444 6.16839C204.201 6.16839 229.375 17.3381 247.796 36.51C248.713 37.4269 250.464 37.7603 251.547 37.0101C266.218 26.3405 287.807 32.3422 292.809 50.5138C294.976 58.4326 293.225 67.1016 288.141 73.6034C285.723 76.6876 282.639 79.1883 279.055 80.8554C276.304 82.1891 271.219 84.1896 268.135 83.4394C266.218 82.9393 264.134 84.3564 264.217 86.4403C264.384 107.446 264.551 128.452 264.718 149.374C264.718 153.375 270.969 153.375 270.969 149.374L270.803 149.457Z" fill="#3A251D"/>
<path d="M176.112 335.758C138.851 335.758 108.593 300.581 108.593 257.153C108.593 213.724 138.851 178.548 176.112 178.548C213.372 178.548 243.63 213.724 243.63 257.153C243.63 300.581 213.372 335.758 176.112 335.758Z" fill="#F7F6F2"/>
<path d="M177.027 162.127C214.73 162.127 245.295 144.848 245.295 123.534C245.295 102.219 214.73 84.9398 177.027 84.9398C139.323 84.9398 108.758 102.219 108.758 123.534C108.758 144.848 139.323 162.127 177.027 162.127Z" fill="#F7F6F2"/>
<path d="M110.092 100.694C112.926 101.527 115.76 102.361 118.595 103.111L132.098 107.029L135.266 107.946C136.85 108.362 138.767 107.362 139.1 105.778C139.434 104.195 138.6 102.444 136.933 101.944C134.099 101.11 131.265 100.277 128.431 99.5266L114.927 95.6089L111.759 94.6919C110.176 94.2752 108.258 95.2755 107.925 96.8592C107.592 98.443 108.425 100.193 110.092 100.694Z" fill="#37241C"/>
<path d="M106.008 122.95C108.842 122.616 111.593 122.283 114.427 121.95L127.848 120.282L130.932 119.866C131.765 119.782 132.515 119.616 133.182 118.949C133.766 118.365 134.099 117.532 134.099 116.698C134.099 115.198 132.682 113.364 130.932 113.531C128.098 113.864 125.347 114.197 122.513 114.531L109.092 116.198L106.008 116.615C105.175 116.698 104.424 116.865 103.758 117.532C103.174 118.115 102.841 118.949 102.841 119.782C102.841 121.283 104.258 123.117 106.008 122.95Z" fill="#37241C"/>
<path d="M217.872 107.946C220.789 107.279 223.79 106.612 226.708 105.945L240.795 102.694C241.878 102.444 242.962 102.194 244.046 101.944C245.63 101.611 246.713 99.6936 246.213 98.1098C245.713 96.4427 244.046 95.5258 242.379 95.9426C239.461 96.6094 236.46 97.2762 233.543 97.9431L219.456 101.194C218.372 101.444 217.288 101.694 216.205 101.944C214.621 102.278 213.537 104.195 214.038 105.779C214.538 107.446 216.205 108.363 217.872 107.946Z" fill="#37241C"/>
<path d="M224.539 119.782C227.373 120.282 230.124 120.699 232.958 121.199L246.378 123.45L249.463 123.95C250.296 124.117 251.13 124.117 251.88 123.617C252.547 123.2 253.13 122.533 253.297 121.783C253.63 120.282 252.88 118.198 251.13 117.948C248.296 117.448 245.545 117.032 242.711 116.531L229.29 114.281L226.206 113.781C225.373 113.614 224.539 113.614 223.789 114.114C223.122 114.531 222.539 115.198 222.372 115.948C222.039 117.448 222.789 119.532 224.539 119.782Z" fill="#37241C"/>
<path d="M176.278 97.6925C187.326 97.6925 196.283 91.9826 196.283 84.939C196.283 77.8955 187.326 72.1855 176.278 72.1855C165.229 72.1855 156.272 77.8955 156.272 84.939C156.272 91.9826 165.229 97.6925 176.278 97.6925Z" fill="#37241C"/>
<path d="M272.47 211.89L325.818 168.128C338.571 157.875 340.655 139.204 330.402 126.45C320.15 113.697 301.478 111.613 288.724 121.865L267.635 139.037L272.553 211.973L272.47 211.89Z" fill="#EDCBB1"/>
<path d="M274.72 214.058C286.807 204.139 298.894 194.219 310.897 184.3C316.398 179.799 321.816 175.297 327.318 170.796C336.821 162.961 341.655 151.207 339.488 138.871C336.904 123.783 323.317 112.53 308.063 112.03C300.394 111.78 292.975 114.364 286.974 119.032C284.473 121.032 281.972 123.033 279.472 125.117L268.052 134.369C266.301 135.787 264.384 136.787 264.467 139.287C264.551 145.706 265.301 152.124 265.801 158.543L269.302 210.64V211.724C269.636 215.725 275.887 215.725 275.637 211.724C274.22 190.468 272.803 169.212 271.303 147.873C271.136 144.789 270.886 141.788 270.719 138.704L269.802 140.955C276.804 135.286 283.723 129.368 290.891 123.783C298.06 118.198 307.146 116.781 315.565 119.532C323.984 122.283 330.986 129.785 333.153 138.704C335.32 147.623 332.653 156.792 326.484 163.127C324.401 165.295 321.9 167.128 319.566 169.046L292.142 191.552C284.89 197.553 277.638 203.472 270.302 209.473C267.218 212.057 271.636 216.392 274.72 213.891V214.058Z" fill="#3A251D"/>
<path d="M237.295 76.6037C236.128 74.7699 234.628 73.1027 232.96 71.769C231.293 70.4353 229.626 69.4351 227.626 68.8516C226.625 68.6015 225.542 68.4348 224.458 68.5181C223.041 68.6015 221.791 68.935 220.457 69.6018C217.373 71.0189 215.122 73.8529 213.372 76.6037C212.455 78.0207 213.038 80.1047 214.455 80.8549C216.039 81.6884 217.79 81.1883 218.707 79.7712C219.123 79.1044 219.54 78.5209 219.957 77.9374L219.457 78.6042C220.29 77.5206 221.124 76.6037 222.208 75.7701L221.541 76.2703C222.208 75.7701 222.874 75.3533 223.625 75.0199L222.874 75.3533C223.458 75.1033 224.041 74.9366 224.708 74.8532H223.875C224.542 74.8532 225.125 74.8532 225.792 74.9366H224.958C225.625 74.9366 226.375 75.1033 226.959 75.4367L226.209 75.1033C227.126 75.5201 227.959 76.0202 228.793 76.6037L228.126 76.1036C229.376 77.0205 230.46 78.1874 231.377 79.4378L230.877 78.771C230.877 78.771 231.377 79.4378 231.627 79.7712C232.46 81.1883 234.461 81.8551 235.878 80.8549C237.295 79.8546 237.962 78.0207 236.962 76.6037H237.295Z" fill="#37241C"/>
<path d="M138.766 76.6037C137.599 74.7699 136.099 73.1027 134.432 71.769C132.765 70.4353 131.097 69.4351 129.097 68.8516C128.097 68.6015 127.013 68.4348 125.929 68.5181C124.512 68.6015 123.262 68.935 121.928 69.6018C118.844 71.0189 116.593 73.8529 114.843 76.6037C113.926 78.0207 114.51 80.1047 115.927 80.8549C117.51 81.6884 119.261 81.1883 120.178 79.7712C120.595 79.1044 121.011 78.5209 121.428 77.9374L120.928 78.6042C121.762 77.5206 122.595 76.6037 123.679 75.7701L123.012 76.2703C123.679 75.7701 124.346 75.3533 125.096 75.0199L124.346 75.3533C124.929 75.1033 125.513 74.9366 126.179 74.8532H125.346C126.013 74.8532 126.596 74.8532 127.263 74.9366H126.43C127.096 74.9366 127.847 75.1033 128.43 75.4367L127.68 75.1033C128.597 75.5201 129.43 76.0202 130.264 76.6037L129.597 76.1036C130.847 77.0205 131.931 78.1874 132.848 79.4378L132.348 78.771C132.348 78.771 132.848 79.4378 133.098 79.7712C133.932 81.1883 135.932 81.8551 137.349 80.8549C138.766 79.8546 139.433 78.0207 138.433 76.6037H138.766Z" fill="#37241C"/>
</svg>
