<svg width="93" height="51" viewBox="0 0 93 51" fill="none" xmlns="http://www.w3.org/2000/svg">
<path d="M46.502 50C50.9488 50 54.5534 39.1854 54.5534 25.845C54.5534 12.5046 50.9488 1.69019 46.502 1.69019C42.0552 1.69019 38.4502 12.5046 38.4502 25.845C38.4502 39.1854 42.0552 50 46.502 50Z" fill="#F37FA2" stroke="#F37FA2" stroke-width="0.75" stroke-miterlimit="10"/>
<path d="M46.502 0.30983C50.9488 0.30983 54.5534 -10.5046 54.5534 -23.845C54.5534 -37.1854 50.9488 -48 46.502 -48C42.0552 -48 38.4502 -37.1854 38.4502 -23.845C38.4502 -10.5046 42.0552 0.30983 46.502 0.30983Z" fill="#F37FA2" stroke="#F37FA2" stroke-width="0.75" stroke-miterlimit="10"/>
<path d="M45.9081 0.212348C48.1315 -3.63869 40.5683 -12.168 29.0152 -18.8382C17.4621 -25.5084 6.29385 -27.7937 4.07045 -23.9427C1.84705 -20.0916 9.41027 -11.5623 20.9634 -4.8921C32.5165 1.7781 43.6847 4.06339 45.9081 0.212348Z" fill="#F37FA2" stroke="#F37FA2" stroke-width="0.75" stroke-miterlimit="10"/>
<path d="M88.7342 24.9538C90.9576 21.1027 83.3944 12.5734 71.8413 5.90322C60.2881 -0.766978 49.1201 -3.05218 46.8967 0.79886C44.6733 4.6499 52.2365 13.1788 63.7897 19.849C75.3428 26.5192 86.5108 28.8048 88.7342 24.9538Z" fill="#F37FA2" stroke="#F37FA2" stroke-width="0.75" stroke-miterlimit="10"/>
<path d="M71.8925 -4.91302C83.4456 -11.5832 91.009 -20.1124 88.7856 -23.9634C86.5622 -27.8145 75.394 -25.529 63.8409 -18.8588C52.2878 -12.1886 44.7248 -3.65964 46.9482 0.191403C49.1716 4.04244 60.3394 1.75718 71.8925 -4.91302Z" fill="#F37FA2" stroke="#F37FA2" stroke-width="0.75" stroke-miterlimit="10"/>
<path d="M28.9703 19.6244C40.5234 12.9542 48.0867 4.425 45.8633 0.573964C43.6399 -3.27708 32.4718 -0.991632 20.9187 5.67857C9.36557 12.3488 1.8024 20.8778 4.0258 24.7289C6.2492 28.5799 17.4172 26.2946 28.9703 19.6244Z" fill="#F37FA2" stroke="#F37FA2" stroke-width="0.75" stroke-miterlimit="10"/>
</svg>
