<svg width="60" height="60" viewBox="0 0 60 60" fill="none" xmlns="http://www.w3.org/2000/svg">
<path d="M-9.22472 47.826L-9.38143 27.5464L-9.32048 27.5804C-14.5269 27.5804 -18.7495 23.4634 -18.7495 18.3871C-18.7495 13.3108 -14.5269 9.19381 -9.32048 9.19381C-7.10906 9.19381 -5.08048 9.93234 -3.4785 11.1717C2.40702 5.05132 10.7826 1.2229 20.0723 1.2229C29.362 1.2229 37.6592 5.01737 43.5447 11.0953C45.138 9.89838 47.123 9.19381 49.2909 9.19381C54.4973 9.19381 58.7199 13.3108 58.7199 18.3871C58.7199 23.4634 54.4973 27.5804 49.2909 27.5804L49.1516 27.5464L49.3083 47.4186" fill="#EDCBB1"/>
<path d="M-7.91906 47.826C-7.96259 41.9179 -8.01483 36.0097 -8.05836 30.1016C-8.05836 29.2442 -8.07577 28.3953 -8.07577 27.538L-10.0434 28.6415L-9.98247 28.6754L-9.32077 26.2986C-14.6491 26.2137 -18.6366 21.1969 -17.113 16.1376C-15.4588 10.6369 -8.65909 8.9052 -4.13177 12.2667L-4.39298 10.2634C-5.41163 11.5112 -3.73127 13.2854 -2.5472 12.063C6.7251 2.52168 21.6391 -0.296582 33.7933 5.60308C37.1104 7.21594 40.0706 9.37208 42.6302 11.9866C42.9959 12.3601 43.7621 12.5129 44.2148 12.1818C48.7944 8.87124 55.5679 10.7388 57.1264 16.2649C57.8055 18.6587 57.2744 21.2903 55.7072 23.2511C54.9585 24.1849 53.9834 24.9404 52.8951 25.4752C52.0418 25.8911 50.4486 26.5278 49.4996 26.2986C48.6812 26.1034 47.8366 26.6806 47.8453 27.5295C47.8889 33.3358 47.9324 39.1336 47.976 44.9398C47.976 45.7632 47.9847 46.5782 47.9934 47.4016C48.0021 49.0399 50.614 49.0399 50.6053 47.4016C50.5618 41.5953 50.5182 35.7975 50.4747 29.9912C50.4747 29.1678 50.466 28.3529 50.4573 27.5295L48.8031 28.7603C51.0754 29.3036 54.0269 28.0048 55.7856 26.6891C57.8664 25.1356 59.3726 22.8437 59.8341 20.314C60.7744 15.1105 57.64 9.93233 52.4249 8.36192C49.1948 7.38572 45.5991 8.02237 42.8914 9.98326L44.476 10.1785C34.3504 -0.17774 18.1566 -2.996 5.00994 3.41299C1.49255 5.12771 -1.68529 7.47909 -4.39298 10.2549L-2.5472 12.0545C-1.97258 11.3584 -2.09449 10.586 -2.80841 10.0512C-7.30091 6.7151 -13.9787 7.3942 -17.5657 11.681C-20.9612 15.7471 -20.8045 21.7317 -17.0956 25.5601C-15.0757 27.6568 -12.2374 28.7773 -9.31209 28.8282C-7.98001 28.8452 -7.5795 27.105 -8.65039 26.4514L-8.71134 26.4174C-9.55586 25.9081 -10.6877 26.5702 -10.679 27.521C-10.6354 33.4291 -10.5832 39.3373 -10.5397 45.2454C-10.5397 46.1028 -10.5223 46.9517 -10.5223 47.809C-10.5136 49.4474 -7.90164 49.4474 -7.91034 47.809L-7.91906 47.826Z" fill="#37241C"/>
<path d="M20.2901 54.33C32.4554 54.33 42.3173 48.0781 42.3173 40.3661C42.3173 32.654 32.4554 26.4021 20.2901 26.4021C8.12482 26.4021 -1.73706 32.654 -1.73706 40.3661C-1.73706 48.0781 8.12482 54.33 20.2901 54.33Z" fill="#F7F6F2"/>
<path d="M35.8747 27.5369C37.524 27.5369 38.861 25.6138 38.861 23.2416C38.861 20.8694 37.524 18.9463 35.8747 18.9463C34.2254 18.9463 32.8884 20.8694 32.8884 23.2416C32.8884 25.6138 34.2254 27.5369 35.8747 27.5369Z" fill="#37241C"/>
<path d="M4.07881 27.5369C5.7281 27.5369 7.0651 25.6138 7.0651 23.2416C7.0651 20.8694 5.7281 18.9463 4.07881 18.9463C2.42953 18.9463 1.09253 20.8694 1.09253 23.2416C1.09253 25.6138 2.42953 27.5369 4.07881 27.5369Z" fill="#37241C"/>
<path d="M-1.38929 31.6473C0.97014 32.3094 3.32957 32.9715 5.689 33.6336L6.71635 33.9222C7.36933 34.109 8.17032 33.7015 8.32704 33.0309C8.48375 32.3603 8.1181 31.6642 7.41288 31.4605C5.05345 30.7984 2.69401 30.1363 0.334583 29.4741L-0.692791 29.1855C-1.34577 28.9988 -2.14674 29.4062 -2.30345 30.0768C-2.46017 30.7475 -2.09451 31.4435 -1.38929 31.6473Z" fill="#37241C"/>
<path d="M-2.62534 38.6488C-0.274618 38.3686 2.0674 38.0885 4.41812 37.8084L5.41935 37.6895C6.09845 37.6047 6.76013 37.1632 6.72531 36.4162C6.69919 35.7966 6.14198 35.058 5.41935 35.1429C3.06863 35.4231 0.726612 35.7032 -1.62411 35.9833L-2.62534 36.1022C-3.30444 36.187 -3.96613 36.6285 -3.9313 37.3755C-3.90518 37.9951 -3.34797 38.7337 -2.62534 38.6488Z" fill="#37241C"/>
<path d="M33.5229 33.9226C35.9868 33.3708 38.4594 32.8191 40.9233 32.2758L41.9768 32.0381C42.6472 31.8853 43.1 31.1043 42.891 30.4677C42.6646 29.7886 42.0029 29.4151 41.2803 29.5764C38.8164 30.1281 36.3438 30.6799 33.8799 31.2232L32.8264 31.4609C32.156 31.6137 31.7033 32.3946 31.9122 33.0313C32.1386 33.7104 32.8003 34.0839 33.5229 33.9226Z" fill="#37241C"/>
<path d="M35.5259 37.6378C37.8593 38.0113 40.2013 38.3933 42.5346 38.7668L43.5445 38.9281C44.2149 39.0384 44.9811 38.7583 45.1552 38.0368C45.2945 37.4256 44.9637 36.5852 44.241 36.4664C41.9077 36.0929 39.5657 35.7109 37.2324 35.3374L36.2225 35.1761C35.5521 35.0657 34.7859 35.3459 34.6118 36.0674C34.4725 36.6786 34.8033 37.519 35.5259 37.6378Z" fill="#37241C"/>
<path d="M8.11553 40.6567C-7.2136 58.4091 2.31638 71.4085 9.16572 75.7586C18.2527 81.1576 29.5166 77.5787 31.2613 75.856C31.3267 75.7914 31.3922 75.7308 31.4677 75.6784C44.5639 66.5879 39.2892 49.3454 32.3805 40.6888C31.9202 40.1121 31.0297 40.2708 30.7529 40.9547L28.5805 46.3222C28.2484 47.1428 27.0925 47.159 26.7375 46.3481L21.1814 33.6558C20.8308 32.8548 19.6935 32.8579 19.3471 33.6607L13.8695 46.3578C13.5197 47.1684 12.3677 47.1612 12.0282 46.3462L9.76841 40.9225C9.48734 40.2479 8.59318 40.1036 8.11553 40.6567Z" fill="#D0411F"/>
<path d="M12.7889 54.1111C5.21779 63.4667 10.2132 70.3004 13.8233 72.6174C18.632 75.5046 24.5744 73.6663 25.6546 72.7152C25.7237 72.6545 25.7916 72.5897 25.8667 72.5365C32.5549 67.7903 30.2247 59.0116 26.7543 54.1624C26.3226 53.5592 25.4279 53.7119 25.1521 54.4004L24.6746 55.5928C24.3441 56.4179 23.182 56.434 22.8287 55.6185L20.7116 50.7312C20.3626 49.9255 19.219 49.9285 18.8743 50.736L16.7857 55.6283C16.4376 56.4437 15.2794 56.4365 14.9415 55.6169L14.4266 54.368C14.1465 53.6887 13.251 53.54 12.7889 54.1111Z" fill="#FECD78"/>
<path d="M20.0286 30.4245C23.5916 30.4245 26.48 28.6231 26.48 26.4009C26.48 24.1787 23.5916 22.3772 20.0286 22.3772C16.4656 22.3772 13.5771 24.1787 13.5771 26.4009C13.5771 28.6231 16.4656 30.4245 20.0286 30.4245Z" fill="#37241C"/>
<path d="M-2.61782 64.1555C2.72913 64.1555 7.06369 59.9294 7.06369 54.7161C7.06369 49.5028 2.72913 45.2766 -2.61782 45.2766C-7.96476 45.2766 -12.2993 49.5028 -12.2993 54.7161C-12.2993 59.9294 -7.96476 64.1555 -2.61782 64.1555Z" fill="#EDCBB1"/>
<path d="M5.75704 54.7181C5.71351 58.1051 3.57174 61.229 0.263314 62.3919C-3.04511 63.5549 -6.88462 62.5532 -9.13957 59.8623C-11.3945 57.1714 -11.5861 53.4278 -9.80996 50.5332C-8.03385 47.6385 -4.50777 46.0511 -1.11228 46.6878C2.85783 47.4263 5.7048 50.8048 5.75704 54.7266C5.78316 56.3649 8.39508 56.3649 8.36896 54.7266C8.30801 50.253 5.49586 46.2803 1.1949 44.6844C-3.07993 43.097 -8.17316 44.4298 -11.0637 47.8847C-13.9542 51.3396 -14.4418 56.331 -12.0649 60.2103C-9.68809 64.0897 -5.06499 66.0421 -0.546373 65.2526C4.61651 64.3443 8.29931 59.7689 8.36896 54.7351C8.39508 53.0968 5.78316 53.0968 5.75704 54.7351V54.7181Z" fill="#37241C"/>
<path d="M42.7015 63.7664C48.0485 63.7664 52.383 59.5402 52.383 54.3269C52.383 49.1136 48.0485 44.8875 42.7015 44.8875C37.3546 44.8875 33.02 49.1136 33.02 54.3269C33.02 59.5402 37.3546 63.7664 42.7015 63.7664Z" fill="#EDCBB1"/>
<path d="M51.0764 54.3307C51.0329 57.7177 48.8911 60.8416 45.5827 62.0045C42.2742 63.1675 38.4347 62.1658 36.1797 59.4749C33.9248 56.7839 33.7333 53.0404 35.5094 50.1458C37.2855 47.2511 40.8115 45.6637 44.207 46.3004C48.1771 47.0389 51.0242 50.4174 51.0764 54.3392C51.1025 55.9775 53.7144 55.9775 53.6883 54.3392C53.6274 49.8656 50.8152 45.8929 46.5142 44.297C42.2133 42.7011 37.1462 44.0424 34.2556 47.4973C31.3651 50.9522 30.8776 55.9436 33.2544 59.8229C35.6313 63.7023 40.2543 65.6547 44.7729 64.8652C49.9358 63.9569 53.6187 59.3815 53.6883 54.3477C53.7144 52.7094 51.1025 52.7094 51.0764 54.3477V54.3307Z" fill="#37241C"/>
</svg>
